<svg xmlns="http://www.w3.org/2000/svg" width="215" height="91" viewBox="0 0 215 91">
  <defs>
    <style>
      .cls-1 {
        fill: #cfd4c3;
      }

      .cls-2 {
        fill: #e8e6e3;
      }

      .cls-3 {
        fill: #2b2d2c;
      }

      .cls-4 {
        fill: #fff;
      }

      .cls-5 {
        fill: none;
        stroke: #e8e6e3;
        stroke-linecap: round;
        stroke-linejoin: round;
        stroke-width: 0;
      }

      .cls-6 {
        fill: #4e6b56;
      }
    </style>
  </defs>
  <g id="hello">
    <g>
      <g>
        <rect class="cls-1" x="98.9" y="4.16" width="10.5" height="1.22"/>
        <rect class="cls-1" x="72.2" y="5.65" width="10.5" height="5.05"/>
        <rect class="cls-1" x="98.9" y="5.65" width="10.5" height="5.05"/>
        <rect class="cls-1" x="125.72" y="4.16" width="10.37" height="1.22"/>
        <rect class="cls-1" x="72.2" y="4.16" width="10.5" height="1.22"/>
        <rect class="cls-1" x="98.9" y="0.34" width="10.5" height="3.57"/>
        <rect class="cls-1" x="24.11" y="5.65" width="21.13" height="5.05"/>
        <path class="cls-1" d="M277.1,212.53a12.31,12.31,0,0,0-12.23,12.22H277.1Z" transform="translate(-96.5 -165.5)"/>
        <rect class="cls-1" x="125.72" y="0.34" width="10.37" height="3.57"/>
        <rect class="cls-1" x="164.41" y="0.34" width="21.13" height="10.37"/>
        <rect class="cls-1" x="204.09" y="81" width="1.47" height="0.85"/>
        <path class="cls-1" d="M277.16,212.27v.13h.19v12.35h19.4V176.46H247.07v48.29h17.55A12.55,12.55,0,0,1,277.16,212.27Zm19.15,11.13H279V202.32h17.36Zm-13-44.1a8.24,8.24,0,0,1,4,1h3.2v-.42a1.42,1.42,0,0,1,1.41-1.42h2a1.43,1.43,0,0,1,1.42,1.42v8a1.42,1.42,0,0,1-1.42,1.41h-2a1.41,1.41,0,0,1-1.41-1.41v-.42h-3.21a8.34,8.34,0,0,1-4,1c-3.56,0-6.45-2-6.45-4.55S279.73,179.3,283.29,179.3Zm-36-2.5h5.49v6.69a5.87,5.87,0,0,1,0,11.29v6.69h-5.49Zm12.85,46.73h-12.5V210.82h12.5Z" transform="translate(-96.5 -165.5)"/>
        <rect class="cls-1" x="24.11" y="4.16" width="21.13" height="1.22"/>
        <path class="cls-1" d="M115.29,177.59v7.51h-7.16v1.33h19.33l.94-1.28v.26h12.78a6.15,6.15,0,0,1,6.14,6.14v20.62a6.15,6.15,0,0,1-2.08,4.6h0a6.11,6.11,0,0,1-4,1.53H120.26v-1H108.13v1.05h7.16v7.51h-7.16v7.39h39.71v13.2H108.13v.91h137V224.17H234.2V176.46H108.13v1.13ZM216.2,205a1.24,1.24,0,0,1-.51,1c.23,0,.49.09.49.32v.61c0,.26-.34.3-.57.32a5.85,5.85,0,0,1-.78,0h-.14l-5-.07a6.07,6.07,0,0,1-.92-.06c-.24,0-.56-.07-.56-.33v-.61c0-.23.27-.29.49-.32a1.2,1.2,0,0,1-.47-1l0-4.31a1.26,1.26,0,0,1,.38-.86,1.59,1.59,0,0,1,1.1-.43h0l5,.07a1.4,1.4,0,0,1,1.47,1.32Zm-7.83-25.83a1.22,1.22,0,0,1,.49-1c-.22,0-.49-.09-.49-.32v-.61c0-.26.33-.3.57-.33a7.82,7.82,0,0,1,.92-.05h5a8,8,0,0,1,.92.05c.24,0,.56.07.56.33v.61c0,.23-.26.29-.48.32a1.24,1.24,0,0,1,.48,1v4.31a1.4,1.4,0,0,1-1.48,1.31h-5a1.41,1.41,0,0,1-1.49-1.31Zm-2.47,19.56.09-13.63h.12l13,.08v.13L219,199h-.13l-13-.09Zm.56,40.91.07,0a.11.11,0,0,1,.08,0,.1.1,0,0,1,0,.14L205,241.27h8.3v.87h-2.56V243H206l.61.55a.1.1,0,1,1-.14.15l-.77-.7h-.47l-.69,1.5H193.4l-.69-1.5h-.48l-.77.7a.1.1,0,0,1-.14,0,.11.11,0,0,1,0-.15l.61-.55h-4.76v-.89h-2.56v-.87h8.31l-1.6-1.45a.1.1,0,0,1,0-.14.11.11,0,0,1,.07,0,.08.08,0,0,1,.07,0l1.76,1.6h11.49ZM195,209.19a6.57,6.57,0,1,1-6.55-6.08A6.34,6.34,0,0,1,195,209.19ZM163.5,183.91h24.62v1.21h0v9.4a2.14,2.14,0,0,1-2.13,2.13h-7.82a2.13,2.13,0,0,1-2-1.44,2.09,2.09,0,0,1-1.33,1.31,2.13,2.13,0,0,1,1.45,2v7.81a2.12,2.12,0,0,1-1.44,2,2.11,2.11,0,0,1,1.44,2v7.82a2.13,2.13,0,0,1-2.13,2.13H163.5Z" transform="translate(-96.5 -165.5)"/>
        <polygon class="cls-1" points="204.09 68.52 204.09 69.51 204.09 71.61 204.09 73.09 204.09 75.31 204.09 76.79 204.09 78.89 204.09 80.74 205.57 80.74 205.57 78.89 205.57 76.79 205.57 75.31 205.57 73.09 205.57 71.61 205.57 69.51 205.57 67.66 204.09 67.66 204.09 68.52"/>
        <path class="cls-1" d="M277.23,226.86H247.07v3.21a14.42,14.42,0,0,1,14.22,14.39h0v.19H247.07v2.7h49.68v-.85H286.13v-.19H286a14.4,14.4,0,0,1,10.75-13.91v-5.54H277.23Z" transform="translate(-96.5 -165.5)"/>
        <rect class="cls-1" x="180.85" y="59.51" width="0.61" height="1.6"/>
        <rect class="cls-1" x="200.51" y="81" width="3.33" height="0.85"/>
        <path class="cls-1" d="M247.07,230.33v14.06H261A14.14,14.14,0,0,0,247.07,230.33Z" transform="translate(-96.5 -165.5)"/>
        <polygon class="cls-1" points="169.72 61.1 171.95 61.1 173.43 61.1 175.66 61.1 177.02 61.1 179.24 61.1 180.6 61.1 180.6 59.51 179.24 59.51 177.02 59.51 175.66 59.51 173.43 59.51 171.95 59.51 169.72 59.51 168.37 59.51 168.37 61.1 169.72 61.1"/>
        <path class="cls-1" d="M300.34,233v-.86a14.07,14.07,0,0,0-3.33.43v.55h-.26v-.48a14.14,14.14,0,0,0-10.49,13.57h14.08V233ZM297,244h-.26v-1.36H297Zm0-3.58h-.26V239H297Zm0-3.7h-.26v-1.36H297Z" transform="translate(-96.5 -165.5)"/>
        <polygon class="cls-1" points="203.97 66.29 204.09 66.29 205.57 66.29 205.57 66.05 200.51 66.05 200.51 66.29 203.97 66.29"/>
        <rect class="cls-1" x="167.5" y="59.51" width="0.61" height="1.6"/>
        <rect class="cls-1" x="125.72" y="5.65" width="10.37" height="5.05"/>
        <rect class="cls-1" x="204.09" y="66.55" width="1.47" height="0.85"/>
        <polygon class="cls-1" points="148.84 64.81 148.84 67.16 148.84 69.38 148.84 70.74 148.84 72.97 148.84 74.45 148.84 76.67 148.84 78.89 150.31 78.89 150.31 76.67 150.31 74.45 150.31 72.97 150.31 70.74 150.31 69.38 150.31 67.16 150.31 64.81 150.31 63.08 148.84 63.08 148.84 64.81"/>
        <rect class="cls-1" x="150.38" y="61.04" width="16.87" height="0.06"/>
        <path class="cls-1" d="M297,232.05v.28a12.69,12.69,0,0,1,1.54-.28Z" transform="translate(-96.5 -165.5)"/>
        <rect class="cls-1" x="72.2" y="0.34" width="10.5" height="3.57"/>
        <rect class="cls-1" x="24.11" y="0.34" width="21.13" height="3.57"/>
        <path class="cls-2" d="M235.13,213.59v10.33h9.74V213.59h-9.74Zm3.1,4.88.3-.29.37.37h.58l-.41-.41h-.53v-.41h.15l.26-.25v-.15h.41v.52l.4.39v-.56l-.38-.37.3-.29.11.11h.37l.12-.11.28.3-.39.37v.59l.43-.43v-.52H241v.15l.25.25h.15v.41h-.53l-.41.41h.58l.38-.37.29.29-.11.11v.35l.11.11-.29.29-.38-.37h-.58l.41.41h.53v.41h-.15L241,220v.15h-.42v-.53l-.43-.43v.6l.37.37-.29.29-.11-.11h-.35l-.11.11-.3-.29.38-.37v-.56l-.4.39v.53H239V220l-.26-.26h-.15v-.41h.53l.41-.41h-.58l-.37.37-.3-.29.11-.11v-.35Z" transform="translate(-96.5 -165.5)"/>
        <polygon class="cls-3" points="148.37 48.09 148.37 58.42 138.63 58.42 138.63 58.67 148.58 58.67 148.58 48.09 148.37 48.09"/>
        <rect class="cls-2" x="137.95" y="48.09" width="0.43" height="10.33"/>
        <polygon class="cls-3" points="138.63 58.42 138.63 48.09 138.38 48.09 138.38 58.42 137.95 58.42 137.95 48.09 137.7 48.09 137.7 58.67 138.63 58.67 138.63 58.42"/>
        <polygon class="cls-3" points="141.73 53.54 142.03 53.83 142.4 53.46 142.98 53.46 142.57 53.87 142.04 53.87 142.04 54.28 142.19 54.28 142.45 54.54 142.45 54.69 142.86 54.69 142.86 54.16 143.26 53.77 143.26 54.33 142.88 54.7 143.18 54.99 143.29 54.88 143.64 54.88 143.75 54.99 144.04 54.7 143.67 54.33 143.67 53.73 144.1 54.16 144.1 54.69 144.51 54.69 144.51 54.54 144.77 54.28 144.92 54.28 144.92 53.87 144.4 53.87 143.98 53.46 144.56 53.46 144.94 53.83 145.23 53.54 145.12 53.43 145.12 53.08 145.23 52.97 144.94 52.68 144.56 53.05 143.98 53.05 144.4 52.64 144.92 52.64 144.92 52.23 144.77 52.23 144.51 51.98 144.51 51.83 144.1 51.83 144.1 52.35 143.67 52.78 143.67 52.19 144.06 51.82 143.78 51.52 143.66 51.63 143.29 51.63 143.18 51.52 142.88 51.81 143.26 52.18 143.26 52.74 142.86 52.35 142.86 51.83 142.45 51.83 142.45 51.98 142.19 52.23 142.04 52.23 142.04 52.64 142.57 52.64 142.98 53.05 142.4 53.05 142.03 52.68 141.73 52.97 141.84 53.08 141.84 53.43 141.73 53.54"/>
        <path class="cls-2" d="M235.42,207.09h9.45v-8.7a1.11,1.11,0,0,1-.87.45h-8a1.08,1.08,0,0,1-.87-.45v8.7Z" transform="translate(-96.5 -165.5)"/>
        <path class="cls-2" d="M236,181.26h8a1.08,1.08,0,0,1,.87.45v-5.25h-9.74v5.25A1.08,1.08,0,0,1,236,181.26Z" transform="translate(-96.5 -165.5)"/>
        <path class="cls-3" d="M245.08,182.2v-5.74h-.21v5.25A1,1,0,0,1,245.08,182.2Z" transform="translate(-96.5 -165.5)"/>
        <path class="cls-3" d="M244.87,198.39v8.7h.21V197.9A1.08,1.08,0,0,1,244.87,198.39Z" transform="translate(-96.5 -165.5)"/>
        <polygon class="cls-2" points="138.38 41.59 138.38 32.22 138.38 16.88 138.38 10.96 137.95 10.96 137.95 41.59 138.38 41.59"/>
        <path class="cls-3" d="M235.13,207.09v-8.7a1.06,1.06,0,0,1-.25-.67v9.37Z" transform="translate(-96.5 -165.5)"/>
        <rect class="cls-3" x="137.7" y="10.96" width="0.25" height="30.63"/>
        <path class="cls-3" d="M235.13,181.71v-5.25h-.25v5.92A1.06,1.06,0,0,1,235.13,181.71Z" transform="translate(-96.5 -165.5)"/>
        <path class="cls-2" d="M244.78,189.36h0l-.06,0v0l-.84.73V197a.84.84,0,0,1-.84.83h-6.51a.84.84,0,0,1-.84-.83v-7.32a.85.85,0,0,1,.84-.84H243a.85.85,0,0,1,.35.08l.38-.43h0a.67.67,0,0,1,.52-.25.66.66,0,0,1,.57.34v-6.18a.87.87,0,0,0-.87-.87h-8a.87.87,0,0,0-.87.87v15.34a.87.87,0,0,0,.87.87h8a.87.87,0,0,0,.87-.87v-8.5a.6.6,0,0,1-.09.13Zm-9.1-6.67a.77.77,0,0,1,.84-.64H243c.47,0,.84.28.84.64V188c0,.37-.37.65-.84.65h-6.51a.77.77,0,0,1-.84-.65Z" transform="translate(-96.5 -165.5)"/>
        <path class="cls-3" d="M244.87,181.71a1.08,1.08,0,0,0-.87-.45h-8a1.08,1.08,0,0,0-.87.45,1.06,1.06,0,0,0-.25.67v15.34a1.06,1.06,0,0,0,.25.67,1.08,1.08,0,0,0,.87.45h8a1.11,1.11,0,0,0,.87-.45,1.08,1.08,0,0,0,.21-.49V182.2A1,1,0,0,0,244.87,181.71Zm0,16a.87.87,0,0,1-.87.87h-8a.87.87,0,0,1-.87-.87V182.38a.87.87,0,0,1,.87-.87h8a.87.87,0,0,1,.87.87v6.18a.59.59,0,0,1,.1.33.64.64,0,0,1-.1.33Z" transform="translate(-96.5 -165.5)"/>
        <path class="cls-2" d="M236.52,189.08a.59.59,0,0,0-.59.59V197a.59.59,0,0,0,.59.58H243a.58.58,0,0,0,.59-.58v-6.62l-1.73,1.51a.48.48,0,0,1-.3.11.43.43,0,0,1-.31-.13.43.43,0,0,1,0-.6l1.93-2.15a1,1,0,0,0-.17,0Zm5.61,3.69a.93.93,0,1,1-.93.93A.93.93,0,0,1,242.13,192.77Z" transform="translate(-96.5 -165.5)"/>
        <path class="cls-3" d="M243.62,190.37V197a.58.58,0,0,1-.59.58h-6.51a.59.59,0,0,1-.59-.58v-7.32a.59.59,0,0,1,.59-.59H243a1,1,0,0,1,.17,0l.18-.2a.85.85,0,0,0-.35-.08h-6.51a.85.85,0,0,0-.84.84V197a.84.84,0,0,0,.84.83H243a.84.84,0,0,0,.84-.83v-6.84Z" transform="translate(-96.5 -165.5)"/>
        <path class="cls-2" d="M243.29,188.34a.21.21,0,0,1,0,.07c.21-.06.36-.2.36-.37v-5.35c0-.16-.15-.3-.36-.36a.15.15,0,0,1,0,.07Z" transform="translate(-96.5 -165.5)"/>
        <path class="cls-2" d="M241.47,182.42v5.92a.11.11,0,0,1-.07.1h.36a.11.11,0,0,1-.07-.1v-5.93a.11.11,0,0,1,.1-.11h-.44A.12.12,0,0,1,241.47,182.42Z" transform="translate(-96.5 -165.5)"/>
        <path class="cls-2" d="M236.3,188.41a.11.11,0,0,1,0-.07v-5.87a.12.12,0,0,1,.12-.13h.43a.12.12,0,0,1,.12.13v5.87a.11.11,0,0,1-.07.1h.38a.11.11,0,0,1-.08-.1v-5.88a.12.12,0,0,1,.12-.13h.43a.13.13,0,0,1,.13.13v5.88a.12.12,0,0,1-.08.1h.38a.12.12,0,0,1-.08-.1v-5.89a.12.12,0,0,1,.13-.12h.43a.12.12,0,0,1,.12.12v5.89a.11.11,0,0,1-.07.1h.37a.11.11,0,0,1-.07-.1v-5.9a.12.12,0,0,1,.12-.12h.44a.12.12,0,0,1,.12.12v5.9a.11.11,0,0,1-.08.1H240a.11.11,0,0,1-.08-.1v-5.91a.12.12,0,0,1,.12-.12h.44a.12.12,0,0,1,.13.12v5.91a.12.12,0,0,1-.08.1h.37a.12.12,0,0,1-.08-.1v-5.92a.12.12,0,0,1,.13-.12h-4.39c-.32,0-.59.18-.59.39V188C235.93,188.21,236.08,188.35,236.3,188.41Z" transform="translate(-96.5 -165.5)"/>
        <path class="cls-2" d="M242.38,182.41v5.93a.12.12,0,0,1-.08.1h.37a.11.11,0,0,1-.08-.1V182.4a.11.11,0,0,1,.08-.1h-.39A.12.12,0,0,1,242.38,182.41Z" transform="translate(-96.5 -165.5)"/>
        <path class="cls-3" d="M236.52,188.69H243c.47,0,.84-.28.84-.65v-5.35c0-.36-.37-.64-.84-.64h-6.51a.77.77,0,0,0-.84.64V188A.77.77,0,0,0,236.52,188.69Zm-.59-6c0-.21.27-.39.59-.39h6.15l0,0h.45a.14.14,0,0,1,.1.05c.21.06.36.2.36.36V188c0,.17-.15.31-.36.37a.14.14,0,0,1-.1.05h-.45l0,0h-.37l0,0h-.45l-.05,0h-.36l-.05,0h-.44l0,0h-.37l-.05,0H240l0,0h-.38a.05.05,0,0,1,0,0h-.44l0,0h-.37l-.05,0h-.43l0,0h-.38l-.05,0h-.43l0,0h-.38l-.05,0h-.43a.11.11,0,0,1-.09-.05c-.22-.06-.37-.2-.37-.37Z" transform="translate(-96.5 -165.5)"/>
        <path class="cls-2" d="M243.45,189.56l-.4.55c.19-.11.47-.31.64-.43l.3-.21a.66.66,0,0,1-.28-.27A3.34,3.34,0,0,1,243.45,189.56Z" transform="translate(-96.5 -165.5)"/>
        <polygon class="cls-3" points="148.28 23.85 148.28 23.86 148.28 23.86 148.28 23.85"/>
        <path class="cls-2" d="M242.78,190.39c-.14-.13,0-.34.44-.93l-1.77,2a.19.19,0,1,0,.27.27h0l1.95-1.69C243.08,190.42,242.9,190.5,242.78,190.39Z" transform="translate(-96.5 -165.5)"/>
        <path class="cls-3" d="M243.38,188.91l-.18.2-1.93,2.15a.43.43,0,0,0,0,.6.43.43,0,0,0,.31.13.48.48,0,0,0,.3-.11l1.73-1.51.25-.22.84-.73v0a.7.7,0,0,1-.42.16.63.63,0,0,1-.31-.09l-.3.21c-.17.12-.45.32-.64.43l.4-.55a3.34,3.34,0,0,0,.26-.36.66.66,0,0,1-.09-.31.7.7,0,0,1,.16-.42h0Zm.29,1.09-1.95,1.69h0a.19.19,0,1,1-.27-.27l1.77-2c-.45.59-.58.8-.44.93S243.08,190.42,243.67,190Z" transform="translate(-96.5 -165.5)"/>
        <path class="cls-2" d="M244.3,189.31a.42.42,0,1,0,0-.84.42.42,0,1,0,0,.84Z" transform="translate(-96.5 -165.5)"/>
        <path class="cls-3" d="M244.87,188.56a.66.66,0,0,0-.57-.34.67.67,0,0,0-.52.25.7.7,0,0,0-.16.42.69.69,0,0,0,.37.58.63.63,0,0,0,.31.09.7.7,0,0,0,.42-.16l.06,0h0a.6.6,0,0,0,.09-.13.64.64,0,0,0,.1-.33A.59.59,0,0,0,244.87,188.56Zm-.57-.09a.42.42,0,1,1,0,.84.42.42,0,1,1,0-.84Z" transform="translate(-96.5 -165.5)"/>
        <rect class="cls-2" x="146.34" y="17.03" width="0.2" height="5.69"/>
        <path class="cls-3" d="M242.59,182.4v5.94a.11.11,0,0,0,.08.1l0,0h.45a.14.14,0,0,0,.1-.05.21.21,0,0,0,0-.07V182.4a.15.15,0,0,0,0-.07.14.14,0,0,0-.1-.05h-.45l0,0A.11.11,0,0,0,242.59,182.4Zm.25,5.81v-5.68h.2v5.68Z" transform="translate(-96.5 -165.5)"/>
        <rect class="cls-2" x="145.43" y="17.03" width="0.2" height="5.68"/>
        <path class="cls-3" d="M241.69,182.41v5.93a.11.11,0,0,0,.07.1l.05,0h.45l0,0a.12.12,0,0,0,.08-.1v-5.93a.12.12,0,0,0-.1-.11h-.49A.11.11,0,0,0,241.69,182.41Zm.24,5.8v-5.68h.2v5.68Z" transform="translate(-96.5 -165.5)"/>
        <rect class="cls-2" x="144.53" y="17.04" width="0.19" height="5.67"/>
        <path class="cls-3" d="M240.78,182.42v5.92a.12.12,0,0,0,.08.1l0,0h.44l.05,0a.11.11,0,0,0,.07-.1v-5.92a.12.12,0,0,0-.12-.12h-.44A.12.12,0,0,0,240.78,182.42Zm.25,5.79v-5.67h.2v5.67Z" transform="translate(-96.5 -165.5)"/>
        <rect class="cls-2" x="143.63" y="17.05" width="0.19" height="5.66"/>
        <path class="cls-3" d="M240.57,188.34v-5.91a.12.12,0,0,0-.13-.12H240a.12.12,0,0,0-.12.12v5.91a.11.11,0,0,0,.08.1l0,0h.44l.05,0A.12.12,0,0,0,240.57,188.34Zm-.44-5.79h.19v5.66h-.19Z" transform="translate(-96.5 -165.5)"/>
        <rect class="cls-2" x="142.72" y="17.06" width="0.19" height="5.65"/>
        <path class="cls-3" d="M239.66,188.34v-5.9a.12.12,0,0,0-.12-.12h-.44a.12.12,0,0,0-.12.12v5.9a.11.11,0,0,0,.07.1l0,0h.44a.05.05,0,0,0,0,0A.11.11,0,0,0,239.66,188.34Zm-.44-5.78h.19v5.65h-.19Z" transform="translate(-96.5 -165.5)"/>
        <rect class="cls-2" x="141.82" y="17.07" width="0.19" height="5.64"/>
        <path class="cls-3" d="M238.75,188.34v-5.89a.12.12,0,0,0-.12-.12h-.43a.12.12,0,0,0-.13.12v5.89a.12.12,0,0,0,.08.1l0,0h.43l.05,0A.11.11,0,0,0,238.75,188.34Zm-.43-5.77h.19v5.64h-.19Z" transform="translate(-96.5 -165.5)"/>
        <rect class="cls-2" x="140.92" y="17.08" width="0.18" height="5.63"/>
        <path class="cls-3" d="M237.85,188.34v-5.88a.13.13,0,0,0-.13-.13h-.43a.12.12,0,0,0-.12.13v5.88a.11.11,0,0,0,.08.1l0,0h.43l.05,0A.12.12,0,0,0,237.85,188.34Zm-.43-5.76h.18v5.63h-.18Z" transform="translate(-96.5 -165.5)"/>
        <rect class="cls-2" x="140.01" y="17.09" width="0.18" height="5.62"/>
        <path class="cls-3" d="M236.94,188.34v-5.87a.12.12,0,0,0-.12-.13h-.43a.12.12,0,0,0-.12.13v5.87a.11.11,0,0,0,0,.07.11.11,0,0,0,.09.05h.43l.05,0A.11.11,0,0,0,236.94,188.34Zm-.43-5.75h.18v5.62h-.18Z" transform="translate(-96.5 -165.5)"/>
        <path class="cls-2" d="M241.45,193.7a.68.68,0,1,0,.68-.68A.68.68,0,0,0,241.45,193.7Zm.68-.61a.61.61,0,1,1-.61.61A.61.61,0,0,1,242.13,193.09Z" transform="translate(-96.5 -165.5)"/>
        <path class="cls-3" d="M242.13,194.62a.93.93,0,1,0-.93-.92A.93.93,0,0,0,242.13,194.62Zm.68-.92a.68.68,0,1,1-.68-.68A.68.68,0,0,1,242.81,193.7Z" transform="translate(-96.5 -165.5)"/>
        <path class="cls-2" d="M241.77,193.7a.36.36,0,1,0,.36-.36A.36.36,0,0,0,241.77,193.7Z" transform="translate(-96.5 -165.5)"/>
        <path class="cls-3" d="M242.13,194.3a.61.61,0,1,0-.61-.6A.6.6,0,0,0,242.13,194.3Zm.36-.6a.36.36,0,1,1-.36-.36A.36.36,0,0,1,242.49,193.7Z" transform="translate(-96.5 -165.5)"/>
        <polygon class="cls-4" points="102.46 75.77 96.72 75.77 96.72 75.77 102.46 75.77"/>
        <polygon class="cls-4" points="88.11 76.64 90.67 76.64 90.67 76.64 88.11 76.64"/>
        <polygon class="cls-4" points="114.25 76.64 116.81 76.64 114.25 76.64 114.25 76.64"/>
        <polygon class="cls-4" points="96.42 75.77 88.11 75.77 96.42 75.77 96.42 75.77"/>
        <path d="M193.22,241.27h0l-1.76-1.6a.08.08,0,0,0-.07,0,.11.11,0,0,0-.07,0,.1.1,0,0,0,0,.14l1.6,1.45h.3Z" transform="translate(-96.5 -165.5)"/>
        <path d="M206.6,239.82a.1.1,0,0,0,0-.14.11.11,0,0,0-.08,0l-.07,0-1.75,1.6h.3Z" transform="translate(-96.5 -165.5)"/>
        <path d="M191.32,243.58a.11.11,0,0,0,0,.15.1.1,0,0,0,.14,0l.77-.7h-.3Z" transform="translate(-96.5 -165.5)"/>
        <path d="M206.46,243.73a.1.1,0,1,0,.14-.15L206,243h-.3Z" transform="translate(-96.5 -165.5)"/>
        <polygon class="cls-2" points="114.25 76.41 114.25 76.44 116.61 76.44 116.61 75.97 88.31 75.97 88.31 76.44 90.67 76.44 90.67 76.41 114.25 76.41"/>
        <polygon points="96.72 75.77 96.42 75.77 88.11 75.77 88.11 76.64 90.67 76.64 90.67 76.44 88.31 76.44 88.31 75.97 116.61 75.97 116.61 76.44 114.25 76.44 114.25 76.64 116.81 76.64 116.81 75.77 108.51 75.77 108.21 75.77 102.46 75.77 96.72 75.77"/>
        <rect class="cls-2" x="90.87" y="76.61" width="23.18" height="0.72"/>
        <path d="M210.75,241.94v0H187.17v.23h0V243h5.54l-.05-.1,0-.08H205.3l0,.08,0,.1h5.53v-.89h0Zm-23.38.89v-.72h23.18v.72Z" transform="translate(-96.5 -165.5)"/>
        <polygon class="cls-2" points="96.44 77.55 97.03 78.83 107.9 78.83 108.48 77.55 96.44 77.55"/>
        <path d="M205.26,242.93l0-.08H192.63l0,.08.05.1h0l.69,1.5h11.13l.69-1.5h0Zm-11.73,1.4-.59-1.28h12l-.58,1.28Z" transform="translate(-96.5 -165.5)"/>
        <path class="cls-2" d="M178.13,196.4H186a1.89,1.89,0,0,0,1.88-1.88V187.2a2.13,2.13,0,0,1-1.88,1.15h-7.82a2.13,2.13,0,0,1-1.89-1.15v7.32A1.89,1.89,0,0,0,178.13,196.4Z" transform="translate(-96.5 -165.5)"/>
        <path d="M187.83,187.2v7.32A1.89,1.89,0,0,1,186,196.4h-7.82a1.89,1.89,0,0,1-1.89-1.88h0a2.16,2.16,0,0,1-.12.68,2.13,2.13,0,0,0,2,1.44H186a2.14,2.14,0,0,0,2.13-2.13v-8.3A2.16,2.16,0,0,1,187.83,187.2Z" transform="translate(-96.5 -165.5)"/>
        <path class="cls-2" d="M178.13,188.1H186a1.88,1.88,0,0,0,1.88-1.88v-1.1H176.24v1.1A1.89,1.89,0,0,0,178.13,188.1Z" transform="translate(-96.5 -165.5)"/>
        <path d="M187.83,185.12v1.1A1.88,1.88,0,0,1,186,188.1h-7.82a1.89,1.89,0,0,1-1.89-1.88v1a2.13,2.13,0,0,0,1.89,1.15H186a2.13,2.13,0,0,0,1.88-1.15,2.16,2.16,0,0,0,.25-1v-1.1Z" transform="translate(-96.5 -165.5)"/>
        <polygon class="cls-2" points="67.97 42.72 67.97 31.13 67.97 30.9 67.97 19.38 67.97 19.37 79.74 19.37 79.74 19.38 91.37 19.38 91.37 18.66 67.24 18.66 67.24 54.55 67.97 54.55 67.97 42.97 67.97 42.72"/>
        <polygon points="67.97 54.55 67.24 54.55 67.24 18.66 91.37 18.66 91.37 19.38 79.74 19.38 79.74 19.63 91.33 19.63 91.58 19.63 91.62 19.63 91.62 18.41 67 18.41 67 54.8 67.97 54.8 67.97 54.55"/>
        <path class="cls-2" d="M174.11,188.35h-6.17v6.16a2.13,2.13,0,0,1-1.15,1.88h7.35a1.87,1.87,0,0,0,1.86-1.86h0V187.2A2.14,2.14,0,0,1,174.11,188.35Z" transform="translate(-96.5 -165.5)"/>
        <path d="M176.24,194.53h0v-8.3a2.15,2.15,0,0,1-.24,1v7.32h0a1.87,1.87,0,0,1-1.86,1.86h0a2.16,2.16,0,0,1,.68.12,2.09,2.09,0,0,0,1.33-1.31A2.16,2.16,0,0,0,176.24,194.53Z" transform="translate(-96.5 -165.5)"/>
        <polygon points="67.97 19.37 67.97 19.38 68.68 19.38 79.5 19.38 79.74 19.38 79.74 19.37 67.97 19.37"/>
        <path class="cls-2" d="M167.94,198.53v7.81a2.12,2.12,0,0,1-1.15,1.88h7.32a1.89,1.89,0,0,0,1.89-1.88v-7.81a1.89,1.89,0,0,0-1.89-1.88h-7.32A2.12,2.12,0,0,1,167.94,198.53Z" transform="translate(-96.5 -165.5)"/>
        <path d="M174.11,196.4h-7.34l-.29.12a1.2,1.2,0,0,1,.31.13h7.32a1.89,1.89,0,0,1,1.89,1.88v7.81a1.89,1.89,0,0,1-1.89,1.88,2,2,0,0,1,.69.13,2.12,2.12,0,0,0,1.44-2v-7.81a2.13,2.13,0,0,0-1.45-2A2.16,2.16,0,0,0,174.11,196.4Z" transform="translate(-96.5 -165.5)"/>
        <path class="cls-2" d="M167.69,206.34v-7.81a1.88,1.88,0,0,0-1.88-1.88h-1.1v11.57h1.1A1.88,1.88,0,0,0,167.69,206.34Z" transform="translate(-96.5 -165.5)"/>
        <path d="M165.81,196.63h-1.34v11.59h.24V196.65h1.1a1.88,1.88,0,0,1,1.88,1.88v7.81a1.88,1.88,0,0,1-1.88,1.88h1a2.12,2.12,0,0,0,1.15-1.88v-7.81a2.12,2.12,0,0,0-1.15-1.88,1.2,1.2,0,0,0-.31-.13A2.09,2.09,0,0,1,165.81,196.63Z" transform="translate(-96.5 -165.5)"/>
        <path class="cls-2" d="M176,185.12H164.71v11.27h1.1a1.88,1.88,0,0,0,1.88-1.88V188.1h6.42a1.89,1.89,0,0,0,1.89-1.88Z" transform="translate(-96.5 -165.5)"/>
        <path d="M165.18,184.88h-.71v11.75h1.34a2.09,2.09,0,0,0,.67-.11l.29-.12h0a2.13,2.13,0,0,0,1.15-1.88v-6.16h6.17a2.13,2.13,0,0,0,2.13-2.13v-1.34H165.18Zm8.93,3.22h-6.42v6.41a1.88,1.88,0,0,1-1.88,1.88h-1.1V185.12H176v1.1A1.89,1.89,0,0,1,174.11,188.1Z" transform="translate(-96.5 -165.5)"/>
        <path class="cls-2" d="M167.94,210.35v7.82a2.13,2.13,0,0,1-1.15,1.88h7.32a1.89,1.89,0,0,0,1.89-1.88v-7.82a1.89,1.89,0,0,0-1.89-1.88h-7.32A2.13,2.13,0,0,1,167.94,210.35Z" transform="translate(-96.5 -165.5)"/>
        <path d="M174.11,208.22h-8.3a2.16,2.16,0,0,1,1,.25h7.32a1.89,1.89,0,0,1,1.89,1.88v7.82a1.89,1.89,0,0,1-1.89,1.88h-7.32a2.16,2.16,0,0,1-1,.25h8.3a2.13,2.13,0,0,0,2.13-2.13v-7.82a2.11,2.11,0,0,0-1.44-2A2,2,0,0,0,174.11,208.22Z" transform="translate(-96.5 -165.5)"/>
        <path class="cls-2" d="M165.81,208.47h-1.1v11.58h1.1a1.88,1.88,0,0,0,1.88-1.88v-7.82A1.88,1.88,0,0,0,165.81,208.47Z" transform="translate(-96.5 -165.5)"/>
        <path d="M166.79,220.05a2.13,2.13,0,0,0,1.15-1.88v-7.82a2.13,2.13,0,0,0-1.15-1.88,2.16,2.16,0,0,0-1-.25h-1.34V220.3h1.34A2.16,2.16,0,0,0,166.79,220.05Zm.9-1.88a1.88,1.88,0,0,1-1.88,1.88h-1.1V208.47h1.1a1.88,1.88,0,0,1,1.88,1.88Z" transform="translate(-96.5 -165.5)"/>
        <path class="cls-2" d="M182.16,209.19a6.32,6.32,0,1,0,6.3-5.84A6.09,6.09,0,0,0,182.16,209.19Z" transform="translate(-96.5 -165.5)"/>
        <path class="cls-3" d="M181.91,209.19a6.57,6.57,0,1,0,6.55-6.08A6.34,6.34,0,0,0,181.91,209.19Zm12.85,0a6.32,6.32,0,1,1-6.3-5.84A6.08,6.08,0,0,1,194.76,209.19Z" transform="translate(-96.5 -165.5)"/>
        <path class="cls-2" d="M208.45,195.19c.1,0,.23,0,.33.25.43.94,2.95.43,4.52-.21,1.31-.53,3.82.28,5.5,2.26l0-2.76,0,0-7.59,0-.33.12a1.82,1.82,0,0,1-.54.1,1,1,0,0,1-.54-.15.71.71,0,0,1-.09-.07l-3.49,0v0l0,4h.38C206.69,198.17,207.74,195.23,208.45,195.19Z" transform="translate(-96.5 -165.5)"/>
        <path class="cls-2" d="M211.08,196.87a5,5,0,0,1,1.67.59,12.72,12.72,0,0,0,4,1.25h2v-.86c-1.69-2.17-4.28-2.86-5.41-2.4-1.59.65-4.31,1.24-4.84.08,0,0,0-.1-.09-.1-.35,0-1.16,1.7-1.67,3.2l2.15,0C209.26,198,210,196.7,211.08,196.87Z" transform="translate(-96.5 -165.5)"/>
        <path class="cls-2" d="M208.62,191.31a.28.28,0,0,1,.26.14,3.16,3.16,0,0,1,.25,1.06c.12.75.26,1.69.77,2a1,1,0,0,0,.87,0c1.7-.58,6.09-2.07,8-.15v-2.27l-.06-.07-6.43-.66a5.34,5.34,0,0,0-1.31.75,1,1,0,0,1-.68.3.84.84,0,0,1-.29-.05,2,2,0,0,1-.91-1.32l-2.88-.3-.07.05,0,3.34C206.86,193,208.05,191.33,208.62,191.31Z" transform="translate(-96.5 -165.5)"/>
        <path class="cls-2" d="M213.68,187.07a.17.17,0,0,0,.08.13c.25.18,1.11,0,1.93-.25a6.68,6.68,0,0,1,3.05-.36l.13,0v-1.18l-4.88,0a4.92,4.92,0,0,1-.15.53A2.5,2.5,0,0,0,213.68,187.07Z" transform="translate(-96.5 -165.5)"/>
        <path class="cls-2" d="M208.89,189.44a.65.65,0,0,1,.33.59,4.66,4.66,0,0,0,.2,1.05l2.46.26c1.51-.73,4.06-1.45,5.15-1a5.31,5.31,0,0,1,1.8,1.42l0-2.05-.06-.06-3.2-.46-.67.11c-1.87.3-3.49.56-3.79-.14a1.14,1.14,0,0,1-.1-.61l-4.7-.66-.11,0,0,2.59.09,0C207.08,189.94,208.29,189.15,208.89,189.44Z" transform="translate(-96.5 -165.5)"/>
        <path class="cls-2" d="M212.64,197.68a5,5,0,0,0-1.6-.57c-.83-.13-1.5.93-1.82,1.55l6.26,0A11.38,11.38,0,0,1,212.64,197.68Z" transform="translate(-96.5 -165.5)"/>
        <path class="cls-2" d="M212.34,185.89a.35.35,0,0,1,.18.3,2,2,0,0,1-.67,1.39,1.91,1.91,0,0,0-.57,1l3.47.49.13,0c1.71-.27,3.32-.53,3.78,0l.19.24,0-2.39-.2-.08a6.56,6.56,0,0,0-2.91.36,8.32,8.32,0,0,1-1.69.32.78.78,0,0,1-.46-.11.41.41,0,0,1-.17-.31,2.72,2.72,0,0,1,.17-1.21,4.21,4.21,0,0,0,.14-.46l-7.51,0,0,2.27C208.67,186.59,211.65,185.46,212.34,185.89Z" transform="translate(-96.5 -165.5)"/>
        <path class="cls-3" d="M219,199l.08-13.63v-.13l-13-.08H206l-.09,13.63v.12l13,.09Zm-9.91-.14-.22-.1,0-.07-2.15,0c0,.05,0,.1,0,.14l-.24-.07,0-.07h-.38l0-4,0,0-.22-.11c.07-.13.15-.28.24-.43l0-3.34-.06,0-.13-.21.19-.13,0-2.59-.07,0-.05-.11h0l0-.12.17-.07,0-2.27,7.51,0a.25.25,0,0,1,0-.07l.24.05v0l4.88,0v1.18l.17.07-.1.22-.07,0,0,2.39.22.27-.2.16,0,0,0,2.05.22.24-.19.16,0,0v2.27c.07.08.15.14.22.23l-.1.07h0l-.1.08s0,0,0,0l0,2.76c.07.08.15.16.22.25l-.2.15,0,0v.86h-2l0,.24c-.48-.08-.89-.17-1.26-.25l-6.26,0Z" transform="translate(-96.5 -165.5)"/>
        <path class="cls-2" d="M215.59,189.17l3.2.46-.32-.42C218.16,188.83,216.88,189,215.59,189.17Z" transform="translate(-96.5 -165.5)"/>
        <path class="cls-2" d="M212.28,186.21a.14.14,0,0,0-.07-.11c-.46-.28-2.65.38-5.88,1.77l4.7.66a2.18,2.18,0,0,1,.64-1.11A1.8,1.8,0,0,0,212.28,186.21Z" transform="translate(-96.5 -165.5)"/>
        <path class="cls-2" d="M211.36,189c.22.51,1.88.26,3.39,0l-3.47-.49A.82.82,0,0,0,211.36,189Z" transform="translate(-96.5 -165.5)"/>
        <polygon class="cls-2" points="109.6 22.34 109.6 22.34 109.6 22.34 109.6 22.34"/>
        <path class="cls-3" d="M212.21,186.1a.14.14,0,0,1,.07.11,1.8,1.8,0,0,1-.61,1.21,2.18,2.18,0,0,0-.64,1.11,1.14,1.14,0,0,0,.1.61c.3.7,1.92.44,3.79.14l.67-.11c1.29-.19,2.57-.34,2.88,0l.32.42.06.06,0,0,.2-.16-.22-.27-.19-.24c-.46-.56-2.07-.3-3.78,0l-.13,0c-1.51.24-3.17.49-3.39,0a.82.82,0,0,1-.08-.47,1.91,1.91,0,0,1,.57-1,2,2,0,0,0,.67-1.39.35.35,0,0,0-.18-.3c-.69-.43-3.67.7-6.12,1.76l-.17.07,0,.12h0l.05.11.07,0,.11,0C209.56,186.48,211.75,185.82,212.21,186.1Z" transform="translate(-96.5 -165.5)"/>
        <path class="cls-2" d="M210.16,192.15a.67.67,0,0,0,.71-.2,4.08,4.08,0,0,1,1-.61l-2.46-.26A1.63,1.63,0,0,0,210.16,192.15Z" transform="translate(-96.5 -165.5)"/>
        <path class="cls-2" d="M208.78,189.66c-.47-.22-1.7.58-2.36,1l-.15.09,2.88.3a5.87,5.87,0,0,1-.18-1A.44.44,0,0,0,208.78,189.66Z" transform="translate(-96.5 -165.5)"/>
        <path class="cls-2" d="M216.94,190.55c-.89-.36-3.09.18-4.6.83l6.43.66A5.57,5.57,0,0,0,216.94,190.55Z" transform="translate(-96.5 -165.5)"/>
        <path class="cls-3" d="M206.42,190.67c.66-.43,1.89-1.23,2.36-1a.44.44,0,0,1,.19.39,5.87,5.87,0,0,0,.18,1,2,2,0,0,0,.91,1.32.84.84,0,0,0,.29.05,1,1,0,0,0,.68-.3,5.34,5.34,0,0,1,1.31-.75c1.51-.65,3.71-1.19,4.6-.83a5.57,5.57,0,0,1,1.83,1.49l.06.07,0,0,.19-.16-.22-.24a5.31,5.31,0,0,0-1.8-1.42c-1.09-.43-3.64.29-5.15,1a4.08,4.08,0,0,0-1,.61.67.67,0,0,1-.71.2,1.63,1.63,0,0,1-.74-1.07,4.66,4.66,0,0,1-.2-1.05.65.65,0,0,0-.33-.59c-.6-.29-1.81.5-2.6,1l-.09,0-.19.13.13.21.06,0,.07-.05Z" transform="translate(-96.5 -165.5)"/>
        <path class="cls-2" d="M208.89,192.55a3.5,3.5,0,0,0-.22-1l0,0h0c-.42,0-1.71,1.73-2.43,3.08l3.49,0A3.36,3.36,0,0,1,208.89,192.55Z" transform="translate(-96.5 -165.5)"/>
        <path class="cls-2" d="M211.18,194.65l7.59,0C217.1,192.79,213.07,194,211.18,194.65Z" transform="translate(-96.5 -165.5)"/>
        <polygon class="cls-2" points="122.44 29.18 122.44 29.18 122.44 29.18 122.44 29.18"/>
        <path class="cls-3" d="M208.62,191.55h0l0,0a3.5,3.5,0,0,1,.22,1,3.36,3.36,0,0,0,.79,2.1.71.71,0,0,0,.09.07,1,1,0,0,0,.54.15,1.82,1.82,0,0,0,.54-.1l.33-.12c1.89-.63,5.92-1.86,7.59,0l0,0s0,0,0,0l.1-.08h0l.1-.07c-.07-.09-.15-.15-.22-.23-2-1.92-6.35-.43-8,.15a1,1,0,0,1-.87,0c-.51-.31-.65-1.25-.77-2a3.16,3.16,0,0,0-.25-1.06.28.28,0,0,0-.26-.14c-.57,0-1.76,1.68-2.44,2.84-.09.15-.17.3-.24.43l.22.11,0,0v0C206.91,193.28,208.2,191.57,208.62,191.55Z" transform="translate(-96.5 -165.5)"/>
        <path class="cls-3" d="M208.46,195.44s.07.05.09.1c.53,1.16,3.25.57,4.84-.08,1.13-.46,3.72.23,5.41,2.4l0,0,.2-.15c-.07-.09-.15-.17-.22-.25-1.68-2-4.19-2.79-5.5-2.26-1.57.64-4.09,1.15-4.52.21-.1-.22-.23-.25-.33-.25-.71,0-1.76,3-1.92,3.45l0,.07.24.07s0-.09,0-.14C207.3,197.14,208.11,195.46,208.46,195.44Z" transform="translate(-96.5 -165.5)"/>
        <path class="cls-3" d="M211,197.11a5,5,0,0,1,1.6.57,11.38,11.38,0,0,0,2.84,1c.37.08.78.17,1.26.25l0-.24h0a12.72,12.72,0,0,1-4-1.25,5,5,0,0,0-1.67-.59c-1.05-.17-1.82,1.14-2.14,1.79l0,.07.22.1.09-.17C209.54,198,210.21,197,211,197.11Z" transform="translate(-96.5 -165.5)"/>
        <path class="cls-3" d="M213.44,187.09a.41.41,0,0,0,.17.31.78.78,0,0,0,.46.11,8.32,8.32,0,0,0,1.69-.32,6.56,6.56,0,0,1,2.91-.36l.2.08.07,0,.1-.22-.17-.07-.13,0a6.68,6.68,0,0,0-3.05.36c-.82.21-1.68.43-1.93.25a.17.17,0,0,1-.08-.13,2.5,2.5,0,0,1,.17-1.11,4.92,4.92,0,0,0,.15-.53v0l-.24-.05a.25.25,0,0,0,0,.07,4.21,4.21,0,0,1-.14.46A2.72,2.72,0,0,0,213.44,187.09Z" transform="translate(-96.5 -165.5)"/>
        <path class="cls-2" d="M209.86,184.57h5a1.16,1.16,0,0,0,1.23-1.06V179.2a1,1,0,0,0-.65-.93h-6.18a1,1,0,0,0-.66.93v4.31A1.17,1.17,0,0,0,209.86,184.57Z" transform="translate(-96.5 -165.5)"/>
        <path class="cls-2" d="M215.77,178c.29,0,.34-.07.35-.08v-.61s-.05-.05-.34-.08a7.4,7.4,0,0,0-.89-.05h-5a7.28,7.28,0,0,0-.89.05c-.29,0-.34.07-.35.08v.61s.06.05.35.08l.28,0h6.24Z" transform="translate(-96.5 -165.5)"/>
        <path class="cls-3" d="M209.86,184.82h5a1.4,1.4,0,0,0,1.48-1.31V179.2a1.24,1.24,0,0,0-.48-1c.22,0,.48-.09.48-.32v-.61c0-.26-.32-.3-.56-.33a8,8,0,0,0-.92-.05h-5a7.82,7.82,0,0,0-.92.05c-.24,0-.57.07-.57.33v.61c0,.23.27.29.49.32a1.22,1.22,0,0,0-.49,1v4.31A1.41,1.41,0,0,0,209.86,184.82Zm-1.24-5.62a1,1,0,0,1,.66-.93h0V178h0l-.28,0c-.29,0-.34-.07-.35-.08v-.61s.06-.05.35-.08a7.28,7.28,0,0,1,.89-.05h5a7.4,7.4,0,0,1,.89.05c.29,0,.34.07.34.08v.61s-.06.05-.35.08l-.28,0h0v.25h0a1,1,0,0,1,.65.93v4.31a1.16,1.16,0,0,1-1.23,1.06h-5a1.17,1.17,0,0,1-1.24-1.06Z" transform="translate(-96.5 -165.5)"/>
        <polygon class="cls-3" points="118.99 12.77 118.99 12.52 118.99 12.52 112.75 12.52 112.74 12.52 112.74 12.77 112.78 12.77 118.96 12.77 118.99 12.77"/>
        <path class="cls-2" d="M208.79,206.14c-.29,0-.35.07-.35.08v.61s.06,0,.35.09.55.05.88.06l5,.06a7.69,7.69,0,0,0,.88,0c.29,0,.35-.07.35-.08v-.61s-.06,0-.34-.09l-.28,0-6.24-.08Z" transform="translate(-96.5 -165.5)"/>
        <path class="cls-2" d="M214.78,199.64l-5-.06h0a1.31,1.31,0,0,0-.92.36.94.94,0,0,0-.31.68l-.06,4.31a1.05,1.05,0,0,0,.65.94l6.18.08A1,1,0,0,0,216,205l.05-4.31A1.16,1.16,0,0,0,214.78,199.64Z" transform="translate(-96.5 -165.5)"/>
        <path class="cls-3" d="M214.78,199.4l-5-.07h0a1.59,1.59,0,0,0-1.1.43,1.26,1.26,0,0,0-.38.86l0,4.31a1.2,1.2,0,0,0,.47,1c-.22,0-.49.09-.49.32v.61c0,.26.32.3.56.33a6.07,6.07,0,0,0,.92.06l5,.07h.14a5.85,5.85,0,0,0,.78,0c.23,0,.57-.06.57-.32v-.61c0-.23-.26-.29-.49-.32a1.24,1.24,0,0,0,.51-1l.05-4.31A1.4,1.4,0,0,0,214.78,199.4ZM216,205a1,1,0,0,1-.67.92h0v.25h0l.28,0c.28,0,.33.08.34.09v.61s-.06,0-.35.08a7.69,7.69,0,0,1-.88,0l-5-.06c-.33,0-.65,0-.88-.06s-.34-.08-.35-.09v-.61s.06-.05.35-.08l.28,0h0v-.25h0a1.05,1.05,0,0,1-.65-.94l.06-4.31a.94.94,0,0,1,.31-.68,1.31,1.31,0,0,1,.92-.36h0l5,.06a1.16,1.16,0,0,1,1.22,1.08Z" transform="translate(-96.5 -165.5)"/>
        <polygon class="cls-3" points="112.56 40.37 112.56 40.62 112.57 40.62 118.81 40.7 118.81 40.7 118.81 40.45 118.78 40.45 112.6 40.37 112.56 40.37"/>
        <path class="cls-2" d="M244.86,213.34v-6h-9.19v6Zm-2.58-3.78a1.14,1.14,0,0,1,.78-.3,1,1,0,0,1,.76.33,1.08,1.08,0,0,1,.3.78,1.09,1.09,0,0,1-1.09,1h0a1,1,0,0,1-.76-.33,1.08,1.08,0,0,1-.3-.78A1,1,0,0,1,242.28,209.56Zm-3.49-1.5h.06a2.28,2.28,0,0,1,1.52,3.93,2.27,2.27,0,0,1-1.57.63h-.06a2.28,2.28,0,0,1,0-4.56Z" transform="translate(-96.5 -165.5)"/>
        <polygon class="cls-3" points="148.37 41.59 139.17 41.59 139.17 41.84 148.36 41.84 148.36 47.84 139.17 47.84 139.17 48.09 148.37 48.09 148.58 48.09 148.58 41.59 148.37 41.59"/>
        <path class="cls-2" d="M234.94,210.65a.46.46,0,0,1,.37.22h.11v-1.06h-.11a.45.45,0,0,1-.37.21.48.48,0,0,1-.38-.21h-.11v1.06h.11A.49.49,0,0,1,234.94,210.65Z" transform="translate(-96.5 -165.5)"/>
        <path class="cls-2" d="M234.94,209.07a.43.43,0,0,1,.37.22h.11v-1.95h-1v1.95h.11A.46.46,0,0,1,234.94,209.07Zm0-1.2a.32.32,0,1,1-.32.32A.31.31,0,0,1,234.94,207.87Z" transform="translate(-96.5 -165.5)"/>
        <path class="cls-2" d="M235.13,213.34h.29v-2h-.11a.43.43,0,0,1-.37.22.46.46,0,0,1-.38-.22h-.11v2Zm-.19-1.28a.32.32,0,1,1-.32.32A.31.31,0,0,1,234.94,212.06Z" transform="translate(-96.5 -165.5)"/>
        <path class="cls-3" d="M234.45,213.59h1.22v-6.5H234.2v6.5Zm-.06-2.2v-.52h.06v-1.06h-.06v-.52h.06v-1.95h1v1.95h.06v.52h-.06v1.06h.06v.52h-.06v2h-1v-2Z" transform="translate(-96.5 -165.5)"/>
        <path class="cls-3" d="M234.94,209.07a.46.46,0,0,0-.38.22h.75A.43.43,0,0,0,234.94,209.07Z" transform="translate(-96.5 -165.5)"/>
        <path class="cls-3" d="M234.56,209.81a.48.48,0,0,0,.38.21.45.45,0,0,0,.37-.21Z" transform="translate(-96.5 -165.5)"/>
        <rect class="cls-2" x="138.14" y="44.04" width="0.6" height="0.02"/>
        <path class="cls-3" d="M235.31,209.81h.17v-.52h-1.09v.52h.92Zm-.08-.27v0h-.59v0Z" transform="translate(-96.5 -165.5)"/>
        <path class="cls-3" d="M234.94,210.65a.49.49,0,0,0-.38.22h.75A.46.46,0,0,0,234.94,210.65Z" transform="translate(-96.5 -165.5)"/>
        <path class="cls-3" d="M234.56,211.39a.46.46,0,0,0,.38.22.43.43,0,0,0,.37-.22Z" transform="translate(-96.5 -165.5)"/>
        <rect class="cls-2" x="138.14" y="45.62" width="0.6" height="0.02"/>
        <path class="cls-3" d="M235.31,211.39h.17v-.52h-1.09v.52h.92Zm-.08-.27v0h-.59v0Z" transform="translate(-96.5 -165.5)"/>
        <path class="cls-2" d="M242.43,210.92a.84.84,0,0,0,.58.26h0a.84.84,0,0,0,.84-.82.84.84,0,0,0-.82-.86h0a.85.85,0,0,0-.58.23.83.83,0,0,0-.25.59A.81.81,0,0,0,242.43,210.92Zm.08-1.13a.74.74,0,0,1,.54-.21.77.77,0,0,1,.53.24.72.72,0,0,1,.21.54.76.76,0,0,1-.76.74h0a.77.77,0,0,1-.53-.24.78.78,0,0,1-.21-.54A.77.77,0,0,1,242.51,209.79Z" transform="translate(-96.5 -165.5)"/>
        <path class="cls-3" d="M243,211.42h0a1.09,1.09,0,0,0,1.09-1,1.08,1.08,0,0,0-.3-.78,1,1,0,0,0-.76-.33,1.14,1.14,0,0,0-.78.3,1,1,0,0,0-.33.75,1.08,1.08,0,0,0,.3.78A1,1,0,0,0,243,211.42Zm0-1.92h0a.84.84,0,0,1,0,1.68h0a.84.84,0,0,1-.58-.26.81.81,0,0,1-.23-.6.83.83,0,0,1,.25-.59A.85.85,0,0,1,243,209.5Z" transform="translate(-96.5 -165.5)"/>
        <path class="cls-2" d="M237.32,211.74a2,2,0,0,0,2.88.07,2,2,0,0,0,.07-2.87,2,2,0,0,0-1.42-.63h-.06a2,2,0,0,0-1.47,3.43Zm1.47-3.14h.05a1.72,1.72,0,0,1,1.22.54,1.74,1.74,0,0,1-1.27,2.94h0a1.72,1.72,0,0,1-1.22-.54,1.74,1.74,0,0,1,1.26-2.94Z" transform="translate(-96.5 -165.5)"/>
        <path class="cls-3" d="M238.74,212.62h.06a2.27,2.27,0,0,0,1.57-.63,2.28,2.28,0,0,0-1.52-3.93h-.06a2.28,2.28,0,0,0,0,4.56Zm0-4.31h.06a2,2,0,0,1,2,2.08,2.05,2.05,0,0,1-.63,1.42,2,2,0,1,1-1.41-3.5Z" transform="translate(-96.5 -165.5)"/>
        <path class="cls-2" d="M235,212.38a.07.07,0,0,0-.06-.07.07.07,0,0,0-.07.07C234.87,212.45,235,212.45,235,212.38Z" transform="translate(-96.5 -165.5)"/>
        <path class="cls-3" d="M234.94,212.69a.32.32,0,0,0,0-.63.32.32,0,1,0,0,.63Zm.06-.31c0,.07-.13.07-.13,0a.07.07,0,0,1,.07-.07A.07.07,0,0,1,235,212.38Z" transform="translate(-96.5 -165.5)"/>
        <path class="cls-2" d="M235,208.19a.07.07,0,0,0-.06-.07.07.07,0,0,0-.07.07C234.87,208.26,235,208.26,235,208.19Z" transform="translate(-96.5 -165.5)"/>
        <path class="cls-3" d="M234.94,208.5a.32.32,0,0,0,0-.63.32.32,0,1,0,0,.63Zm.06-.31c0,.07-.13.07-.13,0a.07.07,0,0,1,.07-.07A.07.07,0,0,1,235,208.19Z" transform="translate(-96.5 -165.5)"/>
        <path class="cls-2" d="M237.71,211.37a1.5,1.5,0,0,0,2.58-1,1.51,1.51,0,0,0-.41-1.07,1.5,1.5,0,0,0-1-.46h0a1.49,1.49,0,0,0-1.49,1.45A1.51,1.51,0,0,0,237.71,211.37Z" transform="translate(-96.5 -165.5)"/>
        <path class="cls-3" d="M237.53,211.54a1.72,1.72,0,0,0,1.22.54h0a1.74,1.74,0,0,0,1.27-2.94,1.72,1.72,0,0,0-1.22-.54h-.05a1.74,1.74,0,0,0-1.26,2.94Zm1.26-2.69h0a1.5,1.5,0,0,1,1,.46,1.51,1.51,0,0,1,.41,1.07,1.5,1.5,0,0,1-2.58,1,1.51,1.51,0,0,1-.41-1.07A1.49,1.49,0,0,1,238.79,208.85Z" transform="translate(-96.5 -165.5)"/>
        <path class="cls-2" d="M242.66,210.69a.48.48,0,0,0,.36.16h0a.52.52,0,0,0,.52-.5.51.51,0,0,0-.15-.36.48.48,0,0,0-.35-.16h0a.52.52,0,0,0-.35.14.48.48,0,0,0-.16.36A.54.54,0,0,0,242.66,210.69Z" transform="translate(-96.5 -165.5)"/>
        <path class="cls-3" d="M242.48,210.86a.77.77,0,0,0,.53.24h0a.76.76,0,0,0,.76-.74.72.72,0,0,0-.21-.54.77.77,0,0,0-.53-.24.74.74,0,0,0-.54.21.77.77,0,0,0-.24.53A.78.78,0,0,0,242.48,210.86Zm.55-1h0a.48.48,0,0,1,.35.16.51.51,0,0,1,.15.36.52.52,0,0,1-.52.5h0a.48.48,0,0,1-.36-.16.54.54,0,0,1-.14-.36.48.48,0,0,1,.16-.36A.52.52,0,0,1,243,209.83Z" transform="translate(-96.5 -165.5)"/>
        <path class="cls-2" d="M296.05,202.6H279.2v20.52h16.85Zm-.77,18.12a1.38,1.38,0,0,1-1.33,1.43H281.3a1.39,1.39,0,0,1-1.33-1.43V205a1.39,1.39,0,0,1,1.33-1.44H294a1.39,1.39,0,0,1,1.33,1.44Z" transform="translate(-96.5 -165.5)"/>
        <path class="cls-3" d="M279,223.4h17.36V202.32H279Zm.25-20.8h16.85v20.52H279.2Z" transform="translate(-96.5 -165.5)"/>
        <path class="cls-2" d="M294,203.85H281.3a1.12,1.12,0,0,0-1.07,1.16v15.71a1.12,1.12,0,0,0,1.07,1.16H294a1.12,1.12,0,0,0,1.07-1.16V205A1.12,1.12,0,0,0,294,203.85Zm.65,15.92a1.5,1.5,0,0,1-1.44,1.55H282.09a1.49,1.49,0,0,1-1.43-1.55V206a1.5,1.5,0,0,1,1.43-1.55h11.07A1.51,1.51,0,0,1,294.6,206Z" transform="translate(-96.5 -165.5)"/>
        <path class="cls-3" d="M294,203.57H281.3A1.39,1.39,0,0,0,280,205v15.71a1.39,1.39,0,0,0,1.33,1.43H294a1.38,1.38,0,0,0,1.33-1.43V205A1.39,1.39,0,0,0,294,203.57ZM295,220.72a1.12,1.12,0,0,1-1.07,1.16H281.3a1.12,1.12,0,0,1-1.07-1.16V205a1.12,1.12,0,0,1,1.07-1.16H294A1.12,1.12,0,0,1,295,205Z" transform="translate(-96.5 -165.5)"/>
        <path class="cls-2" d="M293.16,204.68H282.09a1.23,1.23,0,0,0-1.18,1.27v13.82a1.23,1.23,0,0,0,1.18,1.27h11.07a1.23,1.23,0,0,0,1.18-1.27V206A1.23,1.23,0,0,0,293.16,204.68ZM293,220.26a.84.84,0,1,1,.8-.83A.82.82,0,0,1,293,220.26Z" transform="translate(-96.5 -165.5)"/>
        <path class="cls-3" d="M293.16,204.4H282.09a1.5,1.5,0,0,0-1.43,1.55v13.82a1.49,1.49,0,0,0,1.43,1.55h11.07a1.5,1.5,0,0,0,1.44-1.55V206A1.51,1.51,0,0,0,293.16,204.4Zm1.18,15.37a1.23,1.23,0,0,1-1.18,1.27H282.09a1.23,1.23,0,0,1-1.18-1.27V206a1.23,1.23,0,0,1,1.18-1.27h11.07a1.23,1.23,0,0,1,1.18,1.27Z" transform="translate(-96.5 -165.5)"/>
        <path class="cls-2" d="M293.57,219.43a.55.55,0,1,0-.55.55A.56.56,0,0,0,293.57,219.43Z" transform="translate(-96.5 -165.5)"/>
        <path class="cls-3" d="M293,218.59a.84.84,0,1,0,.8.84A.82.82,0,0,0,293,218.59Zm-.55.84a.55.55,0,1,1,.55.55A.56.56,0,0,1,292.47,219.43Z" transform="translate(-96.5 -165.5)"/>
        <path class="cls-2" d="M291.87,189h2a1.15,1.15,0,0,0,1.16-1.15v-8a1.16,1.16,0,0,0-1.16-1.16h-2a1.15,1.15,0,0,0-1.15,1.16v8A1.14,1.14,0,0,0,291.87,189Z" transform="translate(-96.5 -165.5)"/>
        <path class="cls-3" d="M290.72,180.26v-.42a1.15,1.15,0,0,1,1.15-1.16h2a1.16,1.16,0,0,1,1.16,1.16v8a1.15,1.15,0,0,1-1.16,1.15h-2a1.14,1.14,0,0,1-1.15-1.15v-.42h-.26v.42a1.41,1.41,0,0,0,1.41,1.41h2a1.42,1.42,0,0,0,1.42-1.41v-8a1.43,1.43,0,0,0-1.42-1.42h-2a1.42,1.42,0,0,0-1.41,1.42v.42Z" transform="translate(-96.5 -165.5)"/>
        <path class="cls-2" d="M288.21,186.45v-5.21a5.86,5.86,0,0,0-1-.74l-.06,0a8,8,0,0,0-3.82-.92c-3.42,0-6.2,1.93-6.2,4.3s2.78,4.29,6.2,4.29a8,8,0,0,0,3.83-.92l0,0A5.5,5.5,0,0,0,288.21,186.45Z" transform="translate(-96.5 -165.5)"/>
        <path class="cls-3" d="M283.29,188.4a8.34,8.34,0,0,0,4-1h-.53l.4-.22a8,8,0,0,1-3.83.92c-3.42,0-6.2-1.93-6.2-4.29s2.78-4.3,6.2-4.3a8,8,0,0,1,3.82.92l-.37-.21h.52a8.24,8.24,0,0,0-4-1c-3.56,0-6.45,2-6.45,4.55S279.73,188.4,283.29,188.4Z" transform="translate(-96.5 -165.5)"/>
        <path class="cls-2" d="M288.47,181.13v5.44l0,0a5,5,0,0,1-.75.58h2.78v-6.66h-2.77a6.28,6.28,0,0,1,.74.57Z" transform="translate(-96.5 -165.5)"/>
        <path class="cls-3" d="M286.74,180.26l.37.21.06,0a5.86,5.86,0,0,1,1,.74v5.21a5.5,5.5,0,0,1-1,.75l0,0-.4.22h4v-7.18h-4Zm.95.26h2.77v6.66h-2.78a5,5,0,0,0,.75-.58l0,0v-5.44l0,0A6.28,6.28,0,0,0,287.69,180.52Z" transform="translate(-96.5 -165.5)"/>
        <path class="cls-2" d="M247.88,223.28h11.21V211.07H247.88Zm6-10.08a4,4,0,1,1-3.91,4A3.95,3.95,0,0,1,253.88,213.2Z" transform="translate(-96.5 -165.5)"/>
        <polygon class="cls-3" points="162.59 57.78 151.38 57.78 151.38 45.57 162.59 45.57 162.59 45.32 151.13 45.32 151.13 58.03 162.59 58.03 162.59 57.78"/>
        <rect class="cls-2" x="162.85" y="45.57" width="0.52" height="12.2"/>
        <path class="cls-3" d="M259.09,211.07v12.46h1V210.82h-1Zm.78,0v12.21h-.52V211.07Z" transform="translate(-96.5 -165.5)"/>
        <path class="cls-2" d="M250.23,217.18a3.65,3.65,0,1,0,3.65-3.72A3.69,3.69,0,0,0,250.23,217.18Zm3.65-2.75a2.75,2.75,0,1,1-2.7,2.75A2.73,2.73,0,0,1,253.88,214.43Z" transform="translate(-96.5 -165.5)"/>
        <path class="cls-3" d="M253.88,221.15a4,4,0,1,0-3.91-4A3.95,3.95,0,0,0,253.88,221.15Zm3.65-4a3.65,3.65,0,1,1-3.65-3.72A3.69,3.69,0,0,1,257.53,217.18Z" transform="translate(-96.5 -165.5)"/>
        <ellipse class="cls-2" cx="157.38" cy="51.68" rx="2.44" ry="2.49"/>
        <path class="cls-3" d="M253.88,219.92a2.75,2.75,0,1,0-2.7-2.74A2.72,2.72,0,0,0,253.88,219.92Zm2.44-2.74a2.45,2.45,0,1,1-2.44-2.49A2.46,2.46,0,0,1,256.32,217.18Z" transform="translate(-96.5 -165.5)"/>
        <path class="cls-2" d="M247.53,195v6.22h5v-6.39a5.65,5.65,0,0,1-1.37.17Z" transform="translate(-96.5 -165.5)"/>
        <path class="cls-2" d="M252.52,183.43v-6.38h-5v6.21h3.62A5.65,5.65,0,0,1,252.52,183.43Z" transform="translate(-96.5 -165.5)"/>
        <path class="cls-3" d="M252.77,194.78l-.25.06v6.39h-5V195h-.13V183.26h.13v-6.21h5v6.38l.25.06V176.8h-5.49v24.67h5.49Z" transform="translate(-96.5 -165.5)"/>
        <path class="cls-2" d="M256.77,189.14a5.62,5.62,0,0,0-5.62-5.62h-3.49v11.23h3.49A5.62,5.62,0,0,0,256.77,189.14Zm-8.95.48v-1h1.4c.2-2.24,1.7-4,3.55-4s3.6,2,3.6,4.48-1.62,4.48-3.6,4.48-3.35-1.76-3.55-4Z" transform="translate(-96.5 -165.5)"/>
        <path class="cls-3" d="M252.52,183.43a5.65,5.65,0,0,0-1.37-.17H247.4V195h3.75a5.65,5.65,0,0,0,1.37-.17l.25-.06a5.87,5.87,0,0,0,0-11.29Zm-4.86.09h3.49a5.62,5.62,0,1,1,0,11.23h-3.49Z" transform="translate(-96.5 -165.5)"/>
        <path class="cls-2" d="M250.64,189.62h-1.17c.2,2.1,1.59,3.74,3.3,3.74s3.34-1.9,3.34-4.22-1.5-4.23-3.34-4.23-3.1,1.64-3.3,3.74h1.17Zm.81-1.21a.73.73,0,1,1-.73.73A.73.73,0,0,1,251.45,188.41Z" transform="translate(-96.5 -165.5)"/>
        <path class="cls-3" d="M252.77,193.62c2,0,3.6-2,3.6-4.48s-1.62-4.48-3.6-4.48-3.35,1.75-3.55,4h.25c.2-2.1,1.59-3.74,3.3-3.74s3.34,1.9,3.34,4.23-1.5,4.22-3.34,4.22-3.1-1.64-3.3-3.74h-.25C249.42,191.86,250.92,193.62,252.77,193.62Z" transform="translate(-96.5 -165.5)"/>
        <path class="cls-2" d="M251,189.14a.47.47,0,0,0,.94,0,.47.47,0,1,0-.94,0Z" transform="translate(-96.5 -165.5)"/>
        <path class="cls-3" d="M251.45,189.86a.73.73,0,1,0-.73-.72A.73.73,0,0,0,251.45,189.86Zm.47-.72a.47.47,0,0,1-.94,0,.47.47,0,1,1,.94,0Z" transform="translate(-96.5 -165.5)"/>
        <rect class="cls-2" x="151.58" y="23.4" width="2.31" height="0.46"/>
        <path class="cls-3" d="M249.47,189.62h1.17v-1h-2.82v1h1.65Zm-1.39-.72h2.3v.47h-2.3Z" transform="translate(-96.5 -165.5)"/>
        <path class="cls-2" d="M120.14,196.48l7.14-9.79H108.9a2,2,0,0,1,1,1.71v26.93a2,2,0,0,1-1,1.71h11.36V196.48Zm-9.64-7.65c.45-.4,2.58-.2,3.83.25a5,5,0,0,0,2.57-.29c.82-.22,1.46-.4,1.78-.19s.3,2.23,0,5.82c-.05.63-.09,1.12-.09,1.3s0,.61.12,1.17a30.41,30.41,0,0,1,.28,3.28,2.28,2.28,0,0,1-.25,1.32.37.37,0,0,1-.28.13,44.19,44.19,0,0,1-4.62-.79c-.73.19-3,.74-3.32.37s.16-6.38.26-6.87a12.58,12.58,0,0,0-.19-2.39C110.34,190,110.25,189.06,110.5,188.83Zm8.24,26.26a.41.41,0,0,1-.28.13,41.49,41.49,0,0,1-4.62-.8c-.73.2-3,.75-3.32.37s.16-6.37.26-6.87a12.49,12.49,0,0,0-.19-2.38c-.25-1.95-.34-2.89-.09-3.11.45-.41,2.58-.21,3.83.24a5,5,0,0,0,2.57-.28c.82-.23,1.46-.4,1.78-.2s.3,2.24,0,5.83c-.05.62-.09,1.12-.09,1.29h0c0,.18,0,.62.12,1.17a30.2,30.2,0,0,1,.28,3.28A2.31,2.31,0,0,1,118.74,215.09Z" transform="translate(-96.5 -165.5)"/>
        <path class="cls-3" d="M120.26,217H108.9a2,2,0,0,1-.77.24h12.13Z" transform="translate(-96.5 -165.5)"/>
        <path class="cls-3" d="M108.9,186.69h18.38l.18-.26H108.13v0A1.83,1.83,0,0,1,108.9,186.69Z" transform="translate(-96.5 -165.5)"/>
        <path class="cls-2" d="M111.21,179.79a1,1,0,1,0,1.05,1.05A1,1,0,0,0,111.21,179.79Z" transform="translate(-96.5 -165.5)"/>
        <path class="cls-2" d="M111.48,179.46a1.89,1.89,0,1,0,1.89,1.89A1.89,1.89,0,0,0,111.48,179.46Zm-.27,2.68a1.3,1.3,0,1,1,1.31-1.3A1.3,1.3,0,0,1,111.21,182.14Z" transform="translate(-96.5 -165.5)"/>
        <path class="cls-2" d="M115,177.85h-6.91v7H115Zm-3.56,5.64a2.15,2.15,0,1,1,2.15-2.14A2.14,2.14,0,0,1,111.48,183.49Z" transform="translate(-96.5 -165.5)"/>
        <polygon class="cls-3" points="18.79 12.09 11.63 12.09 11.63 12.35 18.54 12.35 18.54 19.35 11.63 19.35 11.63 19.61 18.79 19.61 18.79 12.09"/>
        <path class="cls-2" d="M115,218.59h-6.91v7H115Zm-3.29,5.72a2.15,2.15,0,1,1,2.15-2.15A2.16,2.16,0,0,1,111.75,224.31Z" transform="translate(-96.5 -165.5)"/>
        <path class="cls-2" d="M111.75,220.28a1.89,1.89,0,1,0,1.89,1.88A1.89,1.89,0,0,0,111.75,220.28Zm-.27,2.68a1.31,1.31,0,1,1,1.31-1.3A1.3,1.3,0,0,1,111.48,223Z" transform="translate(-96.5 -165.5)"/>
        <path class="cls-2" d="M111.48,220.61a1,1,0,1,0,1,1A1,1,0,0,0,111.48,220.61Z" transform="translate(-96.5 -165.5)"/>
        <polygon class="cls-3" points="18.8 52.84 11.63 52.84 11.63 53.09 18.54 53.09 18.54 60.09 11.63 60.09 11.63 60.35 18.8 60.35 18.8 52.84"/>
        <path class="cls-2" d="M111,194.38c-.19.91-.59,6.27-.32,6.64a8.19,8.19,0,0,0,3.09-.45h.06a46.41,46.41,0,0,0,4.6.79.09.09,0,0,0,.08,0c.4-.45.08-3-.09-4.4-.07-.56-.12-1-.12-1.2h0c0-.19,0-.66.09-1.32.13-1.45.45-5.32.12-5.59s-.91.05-1.57.23a5.21,5.21,0,0,1-2.73.28c-1.32-.47-3.25-.58-3.57-.3a10.74,10.74,0,0,0,.17,2.89A11.3,11.3,0,0,1,111,194.38Z" transform="translate(-96.5 -165.5)"/>
        <path class="cls-3" d="M110.78,194.33c-.1.49-.69,6.42-.26,6.87s2.59-.18,3.32-.37a44.19,44.19,0,0,0,4.62.79.37.37,0,0,0,.28-.13,2.28,2.28,0,0,0,.25-1.32,30.41,30.41,0,0,0-.28-3.28c-.07-.56-.12-1-.12-1.17s0-.67.09-1.3c.3-3.59.39-5.58,0-5.82s-1,0-1.78.19a5,5,0,0,1-2.57.29c-1.25-.45-3.38-.65-3.83-.25-.25.23-.16,1.17.09,3.11A12.58,12.58,0,0,1,110.78,194.33Zm-.11-5.31c.32-.28,2.25-.17,3.57.3A5.21,5.21,0,0,0,117,189c.66-.18,1.35-.37,1.57-.23s0,4.14-.12,5.59c0,.66-.09,1.13-.09,1.32h0c0,.2,0,.64.12,1.2.17,1.38.49,4,.09,4.4a.09.09,0,0,1-.08,0,46.41,46.41,0,0,1-4.6-.79h-.06a8.19,8.19,0,0,1-3.09.45c-.27-.37.13-5.73.32-6.64a11.3,11.3,0,0,0-.19-2.47A10.74,10.74,0,0,1,110.67,189Z" transform="translate(-96.5 -165.5)"/>
        <path class="cls-2" d="M118.45,210.52c-.07-.56-.12-1-.12-1.2s0-.66.09-1.32c.13-1.46.45-5.32.12-5.59s-.91,0-1.57.22a5,5,0,0,1-2.73.28c-1.32-.47-3.25-.57-3.57-.29a10.74,10.74,0,0,0,.17,2.89A11.27,11.27,0,0,1,111,208c-.18.91-.59,6.26-.32,6.63.18.19,1.74-.08,3.09-.44h.06s3.71.79,4.6.79a.12.12,0,0,0,.08,0C118.94,214.47,118.62,211.9,118.45,210.52Z" transform="translate(-96.5 -165.5)"/>
        <path class="cls-3" d="M118.59,209.32h0c0-.17,0-.67.09-1.29.3-3.59.39-5.59,0-5.83s-1,0-1.78.2a5,5,0,0,1-2.57.28c-1.25-.45-3.38-.65-3.83-.24-.25.22-.16,1.16.09,3.11a12.49,12.49,0,0,1,.19,2.38c-.1.5-.69,6.43-.26,6.87s2.59-.17,3.32-.37a41.49,41.49,0,0,0,4.62.8.41.41,0,0,0,.28-.13,2.31,2.31,0,0,0,.25-1.32,30.2,30.2,0,0,0-.28-3.28C118.64,209.94,118.59,209.5,118.59,209.32Zm-4.73,4.85h-.06c-1.35.36-2.91.63-3.09.44-.27-.37.14-5.72.32-6.63a11.27,11.27,0,0,0-.19-2.47,10.74,10.74,0,0,1-.17-2.89c.32-.28,2.25-.18,3.57.29a5,5,0,0,0,2.73-.28c.66-.18,1.35-.36,1.57-.22s0,4.13-.12,5.59c0,.66-.1,1.13-.09,1.32s0,.64.12,1.2c.17,1.38.49,3.95.09,4.4a.12.12,0,0,1-.08,0C117.57,215,113.9,214.17,113.86,214.17Z" transform="translate(-96.5 -165.5)"/>
        <path class="cls-2" d="M109.66,215.33V188.4a1.72,1.72,0,0,0-1.53-1.7V217A1.71,1.71,0,0,0,109.66,215.33Z" transform="translate(-96.5 -165.5)"/>
        <path class="cls-3" d="M108.9,217a2,2,0,0,0,1-1.71V188.4a2,2,0,0,0-1-1.71,1.83,1.83,0,0,0-.77-.24v.25a1.72,1.72,0,0,1,1.53,1.7v26.93a1.71,1.71,0,0,1-1.53,1.69v.26A2,2,0,0,0,108.9,217Z" transform="translate(-96.5 -165.5)"/>
        <polygon class="cls-2" points="50.56 31.3 50.56 29.1 31.9 29.1 31.9 30.98 26.4 30.98 26.4 31.3 50.56 31.3"/>
        <path class="cls-2" d="M122.9,211.85v2.21h23.85a5.94,5.94,0,0,0,.31-1.89v-.32Z" transform="translate(-96.5 -165.5)"/>
        <path class="cls-2" d="M122.9,214.32v2.2h22.22a5.75,5.75,0,0,0,1.53-2.2Z" transform="translate(-96.5 -165.5)"/>
        <rect class="cls-2" x="26.4" y="38.96" width="24.16" height="2.21"/>
        <rect class="cls-2" x="26.4" y="43.89" width="24.16" height="2.21"/>
        <rect class="cls-2" x="26.4" y="34.03" width="24.16" height="2.21"/>
        <rect class="cls-2" x="26.4" y="31.56" width="24.16" height="2.21"/>
        <rect class="cls-2" x="26.4" y="41.42" width="24.16" height="2.21"/>
        <rect class="cls-2" x="26.4" y="36.49" width="24.16" height="2.21"/>
        <path class="cls-2" d="M147.06,191.87v-.32a5.84,5.84,0,0,0-.31-1.88H128.4v2.2Z" transform="translate(-96.5 -165.5)"/>
        <rect class="cls-2" x="24.02" y="30.98" width="1.67" height="21.58"/>
        <path class="cls-2" d="M122.9,218.05h18.28a5.81,5.81,0,0,0,3.64-1.27H122.9Z" transform="translate(-96.5 -165.5)"/>
        <path class="cls-2" d="M146.65,189.41a5.87,5.87,0,0,0-1.53-2.21H128.4v2.21Z" transform="translate(-96.5 -165.5)"/>
        <rect class="cls-2" x="31.9" y="26.63" width="18.66" height="2.21"/>
        <path class="cls-2" d="M144.82,186.94a5.87,5.87,0,0,0-3.64-1.27H128.4v1.27Z" transform="translate(-96.5 -165.5)"/>
        <path class="cls-3" d="M144.82,216.78a5.81,5.81,0,0,1-3.64,1.27H122.9v.26h18.28a6.11,6.11,0,0,0,4-1.53Z" transform="translate(-96.5 -165.5)"/>
        <path class="cls-3" d="M128.4,185.67h12.78a5.87,5.87,0,0,1,3.64,1.27h.36v.26h-.06a5.87,5.87,0,0,1,1.53,2.21h.19v.26h-.09a5.84,5.84,0,0,1,.31,1.88v.32h.13v.26h-.13v2.21h.13v.26h-.13v2.2h.13v.26h-.13v2.21h.13v.26h-.13v2.2h.13V202h-.13v2.21h.13v.26h-.13v2.2h.13v.26h-.13v2.21h.13v.26h-.13v2.2h.13v.26h-.13v.32a5.94,5.94,0,0,1-.31,1.89h.09v.26h-.19a5.75,5.75,0,0,1-1.53,2.2h.12v.25a6.15,6.15,0,0,0,2.08-4.6V191.55a6.15,6.15,0,0,0-6.14-6.14H128.4Z" transform="translate(-96.5 -165.5)"/>
        <polygon class="cls-3" points="25.69 52.55 24.02 52.55 24.02 30.98 23.76 30.98 23.76 51.54 23.76 51.79 23.76 52.81 25.69 52.81 25.69 52.55"/>
        <polygon class="cls-2" points="26.4 30.72 31.64 30.72 31.64 20.44 24.14 30.72 25.85 30.72 26.4 30.72 26.4 30.72"/>
        <polygon class="cls-3" points="30.78 21.19 23.64 30.98 23.76 30.98 24.02 30.98 25.69 30.98 25.69 30.72 25.85 30.72 24.14 30.72 31.64 20.44 31.64 30.72 26.4 30.72 26.4 30.98 31.9 30.98 31.9 29.1 31.77 29.1 31.77 28.97 31.77 28.97 31.77 28.97 31.77 28.84 31.9 28.84 31.9 26.63 31.77 26.63 31.77 26.5 31.77 26.5 31.77 26.5 31.77 26.37 31.9 26.37 31.9 24.17 31.77 24.17 31.77 24.04 31.77 24.04 31.77 24.04 31.77 23.91 31.9 23.91 31.9 21.7 31.77 21.7 31.77 21.57 31.77 21.57 31.77 21.57 31.77 21.44 31.9 21.44 31.9 20.17 31.9 19.91 31.9 19.65 30.96 20.93 30.78 21.19"/>
        <polygon class="cls-2" points="26.05 48.82 26.05 48.69 26.05 48.69 26.05 48.69 26.05 48.56 26.15 48.56 26.15 46.35 26.05 46.35 26.05 46.22 26.05 46.22 26.05 46.22 26.05 46.09 26.15 46.09 26.15 43.89 26.05 43.89 26.05 43.76 26.05 43.76 26.05 43.76 26.05 43.63 26.15 43.63 26.15 41.42 26.05 41.42 26.05 41.29 26.05 41.29 26.05 41.29 26.05 41.16 26.15 41.16 26.15 38.96 26.05 38.96 26.05 38.83 26.05 38.83 26.05 38.83 26.05 38.7 26.15 38.7 26.15 36.49 26.05 36.49 26.05 36.36 26.05 36.36 26.05 36.36 26.05 36.23 26.15 36.23 26.15 34.03 26.05 34.03 26.05 33.9 26.05 33.9 26.05 33.9 26.05 33.77 26.15 33.77 26.15 31.56 26.05 31.56 26.05 31.43 26.05 31.43 26.05 31.43 26.05 31.3 26.15 31.3 26.15 30.98 25.94 30.98 25.94 52.55 26.15 52.55 26.15 51.28 26.05 51.28 26.05 51.15 26.05 51.15 26.05 51.15 26.05 51.02 26.15 51.02 26.15 48.82 26.05 48.82"/>
        <rect class="cls-3" x="26.15" y="48.82" width="0.26" height="2.21"/>
        <polygon class="cls-3" points="26.4 52.55 26.4 51.28 26.15 51.28 26.15 52.55 25.94 52.55 25.94 30.98 26.15 30.98 26.15 31.3 26.4 31.3 26.4 30.98 26.4 30.72 26.4 30.72 25.85 30.72 25.69 30.72 25.69 30.98 25.69 52.55 25.69 52.81 25.69 52.81 25.91 52.81 26.4 52.81 26.4 52.55"/>
        <rect class="cls-3" x="26.15" y="34.03" width="0.26" height="2.21"/>
        <rect class="cls-3" x="26.15" y="46.35" width="0.26" height="2.21"/>
        <rect class="cls-3" x="26.15" y="31.56" width="0.26" height="2.21"/>
        <rect class="cls-3" x="26.15" y="43.89" width="0.26" height="2.21"/>
        <rect class="cls-3" x="26.15" y="41.42" width="0.26" height="2.21"/>
        <rect class="cls-3" x="26.15" y="38.96" width="0.26" height="2.21"/>
        <rect class="cls-3" x="26.15" y="36.49" width="0.26" height="2.21"/>
        <line class="cls-5" x1="31.77" y1="21.57" x2="31.77" y2="21.57"/>
        <polygon class="cls-3" points="48.62 21.7 48.68 21.7 48.68 21.44 48.32 21.44 31.9 21.44 31.77 21.44 31.77 21.57 31.77 21.7 31.9 21.7 48.62 21.7"/>
        <line class="cls-5" x1="31.77" y1="24.04" x2="31.77" y2="24.04"/>
        <polygon class="cls-3" points="50.25 24.17 50.34 24.17 50.34 23.91 50.15 23.91 31.9 23.91 31.77 23.91 31.77 24.04 31.77 24.17 31.9 24.17 50.25 24.17"/>
        <line class="cls-5" x1="31.77" y1="26.5" x2="31.77" y2="26.5"/>
        <polygon class="cls-3" points="50.56 26.63 50.69 26.63 50.69 26.37 50.56 26.37 31.9 26.37 31.77 26.37 31.77 26.5 31.77 26.63 31.9 26.63 50.56 26.63"/>
        <line class="cls-5" x1="31.77" y1="28.97" x2="31.77" y2="28.97"/>
        <polygon class="cls-3" points="50.56 29.1 50.69 29.1 50.69 28.84 50.56 28.84 31.9 28.84 31.77 28.84 31.77 28.97 31.77 29.1 31.9 29.1 50.56 29.1"/>
        <line class="cls-5" x1="26.05" y1="31.43" x2="26.05" y2="31.43"/>
        <polygon class="cls-3" points="26.4 31.3 26.15 31.3 26.05 31.3 26.05 31.43 26.05 31.56 26.15 31.56 26.4 31.56 50.56 31.56 50.69 31.56 50.69 31.3 50.56 31.3 26.4 31.3"/>
        <line class="cls-5" x1="26.05" y1="33.9" x2="26.05" y2="33.9"/>
        <polygon class="cls-3" points="26.4 33.77 26.15 33.77 26.05 33.77 26.05 33.9 26.05 34.03 26.15 34.03 26.4 34.03 50.56 34.03 50.69 34.03 50.69 33.77 50.56 33.77 26.4 33.77"/>
        <line class="cls-5" x1="26.05" y1="36.36" x2="26.05" y2="36.36"/>
        <polygon class="cls-3" points="26.4 36.23 26.15 36.23 26.05 36.23 26.05 36.36 26.05 36.49 26.15 36.49 26.4 36.49 50.56 36.49 50.69 36.49 50.69 36.23 50.56 36.23 26.4 36.23"/>
        <line class="cls-5" x1="26.05" y1="38.83" x2="26.05" y2="38.83"/>
        <polygon class="cls-3" points="26.4 38.7 26.15 38.7 26.05 38.7 26.05 38.83 26.05 38.96 26.15 38.96 26.4 38.96 50.56 38.96 50.69 38.96 50.69 38.7 50.56 38.7 26.4 38.7"/>
        <line class="cls-5" x1="26.05" y1="41.29" x2="26.05" y2="41.29"/>
        <polygon class="cls-3" points="26.4 41.16 26.15 41.16 26.05 41.16 26.05 41.29 26.05 41.42 26.15 41.42 26.4 41.42 50.56 41.42 50.69 41.42 50.69 41.16 50.56 41.16 26.4 41.16"/>
        <line class="cls-5" x1="26.05" y1="43.76" x2="26.05" y2="43.76"/>
        <polygon class="cls-3" points="26.4 43.63 26.15 43.63 26.05 43.63 26.05 43.76 26.05 43.89 26.15 43.89 26.4 43.89 50.56 43.89 50.69 43.89 50.69 43.63 50.56 43.63 26.4 43.63"/>
        <line class="cls-5" x1="26.05" y1="46.22" x2="26.05" y2="46.22"/>
        <polygon class="cls-3" points="26.4 46.09 26.15 46.09 26.05 46.09 26.05 46.22 26.05 46.35 26.15 46.35 26.4 46.35 50.56 46.35 50.69 46.35 50.69 46.09 50.56 46.09 26.4 46.09"/>
        <line class="cls-5" x1="26.05" y1="48.69" x2="26.05" y2="48.69"/>
        <polygon class="cls-3" points="26.4 48.56 26.15 48.56 26.05 48.56 26.05 48.69 26.05 48.82 26.15 48.82 26.4 48.82 50.15 48.82 50.34 48.82 50.34 48.56 50.25 48.56 26.4 48.56"/>
        <line class="cls-5" x1="26.05" y1="51.15" x2="26.05" y2="51.15"/>
        <polygon class="cls-3" points="48.74 51.02 48.62 51.02 26.4 51.02 26.15 51.02 26.05 51.02 26.05 51.15 26.05 51.28 26.15 51.28 26.4 51.28 48.32 51.28 48.72 51.28 48.74 51.28 48.74 51.27 48.74 51.02"/>
        <path class="cls-3" d="M111.48,220.35a1.31,1.31,0,1,0,1.31,1.31A1.31,1.31,0,0,0,111.48,220.35Zm0,2.35a1,1,0,1,1,1-1A1,1,0,0,1,111.48,222.7Z" transform="translate(-96.5 -165.5)"/>
        <path class="cls-3" d="M111.75,220a2.15,2.15,0,1,0,2.15,2.14A2.15,2.15,0,0,0,111.75,220Zm0,4a1.89,1.89,0,1,1,1.89-1.89A1.89,1.89,0,0,1,111.75,224.05Z" transform="translate(-96.5 -165.5)"/>
        <path class="cls-3" d="M111.21,179.54a1.3,1.3,0,1,0,1.31,1.3A1.3,1.3,0,0,0,111.21,179.54Zm0,2.35a1.05,1.05,0,1,1,1.05-1A1,1,0,0,1,111.21,181.89Z" transform="translate(-96.5 -165.5)"/>
        <path class="cls-3" d="M111.48,179.2a2.15,2.15,0,1,0,2.15,2.15A2.15,2.15,0,0,0,111.48,179.2Zm0,4a1.89,1.89,0,1,1,1.89-1.88A1.89,1.89,0,0,1,111.48,183.23Z" transform="translate(-96.5 -165.5)"/>
        <path class="cls-2" d="M147.59,239.72h-.54c-.07,2.34-.16,4.78-.21,5.08l-.24,0c0-.28.13-2.71.2-5h-1.11c-.27,2.39-.56,5-.66,5.84l-.24,0c.17-1.59.43-3.81.65-5.81h-1.19c0,2.41-.08,5.15-.08,5.36h-.26s.05-2.88.09-5.35h-1.17c-.28,2-.56,4.13-.73,5.37l-.24,0c.06-.51.39-2.93.72-5.34h-1.17c-.15,1.9-.3,3.65-.3,3.65l-.25,0,.3-3.63h-1c-.08,2.44-.18,5.14-.23,5.45l-.24,0c0-.3.14-3,.22-5.41h-1.08c-.28,2.49-.6,5.3-.7,6.21l-.25,0c.19-1.69.46-4.09.69-6.18h-1.23c0,2.49-.08,5.51-.08,5.73H137c0-.05,0-3.17.08-5.72h-1.12c-.29,2.12-.6,4.42-.77,5.74l-.25,0c.07-.54.42-3.19.77-5.71h-1.19c-.16,2-.32,4-.32,4l-.25,0,.32-4h-1.1c-.07,2.27-.16,4.59-.2,4.87l-.25,0c0-.27.13-2.57.2-4.83h-1.19c-.37,2.07-.73,4.12-.83,4.61l-.25-.05c.1-.49.46-2.5.82-4.56h-1.07c-.26,2.33-.54,4.8-.63,5.64l-.25,0c.17-1.54.41-3.67.63-5.61h-1.17c0,2.36-.08,5-.08,5.15h-.25c0-.05,0-2.73.08-5.15H127.5c-.27,1.95-.54,4-.7,5.17l-.25,0c.07-.49.37-2.79.69-5.13h-1.15c-.15,1.82-.28,3.45-.28,3.45l-.25,0s.13-1.62.27-3.43h-1.1l.81,4.9-.25,0-.81-4.94h-1.09c-.08,2.25-.16,4.53-.2,4.81l-.25,0c0-.27.12-2.53.2-4.77h-1.2c-.36,2.05-.72,4.06-.82,4.54l-.25,0c.1-.48.45-2.46.81-4.49h-1.07c-.26,2.31-.53,4.74-.62,5.57l-.25,0c.17-1.52.41-3.61.62-5.54H119.2c0,2.34-.08,4.89-.08,5.09h-.25s0-2.68.07-5.08h-1.19c-.27,1.93-.53,3.92-.69,5.1l-.25,0c.06-.49.37-2.76.68-5.07h-1.15c-.14,1.79-.27,3.38-.27,3.38l-.25,0s.12-1.58.27-3.36H115l.8,4.83-.25,0-.8-4.87h-1.13l0,5.19h-.25l0-5.19h-1.11c-.17,2.83-.34,5.8-.35,6l-.25,0c.09-1.65.23-3.94.35-6h-1.17l.06,4.78h-.25l-.06-4.78h-1.15l1,5-.25.05-1-5.09h-1.06v6.47h39.46Z" transform="translate(-96.5 -165.5)"/>
        <path class="cls-2" d="M108.23,234.72l.25-.05.91,4.79h1.2l-.07-5.69h.25l.07,5.69H112c.15-2.61.28-4.82.28-4.92h.25c0,.1-.13,2.41-.28,4.92h1.1l0-4.82h.25l0,4.82h1.09L114,235l.25,0,.74,4.5h1.15c.17-2.16.36-4.51.38-4.69l.25,0c0,.18-.21,2.52-.38,4.67h1.17c.35-2.61.71-5.21.76-5.33l.23.08c0,.15-.38,2.62-.74,5.25H119c0-1.89,0-3.57,0-3.64h.25c0,.07,0,1.75,0,3.64h1.19l.53-4.72h.25c0,.06-.25,2.29-.53,4.72h1.09c.42-2.39.83-4.76.84-4.81l.24,0s-.41,2.39-.83,4.76h1.17c.07-2.23.13-4.36.13-4.41h.25c0,.17-.06,2.24-.13,4.4h1l-.73-4.39.25,0,.73,4.43h1.17c.17-2.14.35-4.45.37-4.63l.25,0c0,.17-.2,2.47-.37,4.6h1.17c.35-2.59.7-5.14.75-5.26l.24.08c-.05.15-.38,2.58-.74,5.18h1.16c0-1.86.05-3.5.05-3.57H129c0,.07,0,1.71-.05,3.57h1.2c.28-2.46.51-4.56.52-4.65h.25c0,.05-.25,2.25-.52,4.65h1.09c.42-2.36.82-4.69.83-4.74l.25.05s-.41,2.34-.82,4.69h1.15c.07-2.21.13-4.3.13-4.34h.25c0,.17-.06,2.19-.13,4.33h1.11c.16-2,.31-3.89.33-4.05l.25,0c0,.16-.17,2.08-.33,4h1.2c.33-2.38.64-4.58.68-4.69l.23.08c0,.14-.33,2.23-.65,4.61h1.09c0-1.61,0-2.94,0-3h.25c0,.07,0,1.39,0,3h1.25c.25-2.21.45-4,.45-4.08h.25c0,.05-.2,1.91-.45,4.08h1.06c.07-2,.12-3.73.12-3.77h.25c0,.16,0,1.85-.11,3.76h1.06c.17-2.08.34-4.25.35-4.42l.25,0c0,.17-.18,2.33-.35,4.4h1.18c.34-2.52.68-4.94.72-5.06l.24.08c0,.15-.36,2.45-.7,5H144c0-1.77.05-3.3.05-3.37h.25c0,.07,0,1.6-.05,3.37h1.22c.27-2.37.49-4.36.49-4.45h.25c0,.05-.23,2.13-.49,4.45h1.09c.07-2.13.12-4.1.13-4.14h.25c0,.17-.06,2.07-.13,4.13h.53v-6H108.13v6h1Z" transform="translate(-96.5 -165.5)"/>
        <polygon class="cls-3" points="51.34 67.74 11.63 67.74 11.63 68 51.09 68 51.09 73.96 51.22 73.96 51.22 74.22 51.09 74.22 51.09 80.69 11.63 80.69 11.63 80.94 51.34 80.94 51.34 67.74"/>
        <path d="M126.11,239.46l0,.26h1.15l0-.26Z" transform="translate(-96.5 -165.5)"/>
        <path d="M123.4,239.46v.26h1.09l0-.26Z" transform="translate(-96.5 -165.5)"/>
        <path d="M122,239.46l0,.26h1.2v-.26Z" transform="translate(-96.5 -165.5)"/>
        <path d="M124.69,239.46l0,.26h1.1l0-.26Z" transform="translate(-96.5 -165.5)"/>
        <path d="M116.36,239.46l0,.26h1.15l0-.26Z" transform="translate(-96.5 -165.5)"/>
        <polygon points="17.12 73.96 17.12 74.22 18.25 74.22 18.21 73.96 17.12 73.96"/>
        <path d="M115,239.46l0,.26h1.09l0-.26Z" transform="translate(-96.5 -165.5)"/>
        <path d="M117.78,239.46l0,.26h1.19v-.26Z" transform="translate(-96.5 -165.5)"/>
        <path d="M110.84,239.46v.26H112v-.26Z" transform="translate(-96.5 -165.5)"/>
        <polygon points="12.89 73.96 12.94 74.22 14.09 74.22 14.09 73.96 12.89 73.96"/>
        <path d="M119.2,239.46v.26h1.16l0-.26Z" transform="translate(-96.5 -165.5)"/>
        <path d="M112.27,239.46v.26h1.11v-.26Z" transform="translate(-96.5 -165.5)"/>
        <path d="M142.87,239.46l0,.26H144v-.26Z" transform="translate(-96.5 -165.5)"/>
        <path d="M144.25,239.46v.26h1.19l0-.26Z" transform="translate(-96.5 -165.5)"/>
        <path d="M137.3,239.46v.26h1.23l0-.26Z" transform="translate(-96.5 -165.5)"/>
        <path d="M145.72,239.46l0,.26h1.11v-.26Z" transform="translate(-96.5 -165.5)"/>
        <path d="M138.8,239.46l0,.26h1.08v-.26Z" transform="translate(-96.5 -165.5)"/>
        <path d="M140.12,239.46v.26h1l0-.26Z" transform="translate(-96.5 -165.5)"/>
        <path d="M141.43,239.46l0,.26h1.17l0-.26Z" transform="translate(-96.5 -165.5)"/>
        <path d="M147.05,239.72h.67v-.26h-.66Z" transform="translate(-96.5 -165.5)"/>
        <path d="M136,239.46l0,.26H137v-.26Z" transform="translate(-96.5 -165.5)"/>
        <path d="M130.39,239.46l0,.26h1.07l0-.26Z" transform="translate(-96.5 -165.5)"/>
        <polygon points="12.64 73.96 11.63 73.96 11.63 74.22 12.69 74.22 12.64 73.96"/>
        <path d="M128.94,239.46v.26h1.17l0-.26Z" transform="translate(-96.5 -165.5)"/>
        <path d="M131.74,239.46l-.05.26h1.19v-.26Z" transform="translate(-96.5 -165.5)"/>
        <path d="M127.53,239.46l0,.26h1.19v-.26Z" transform="translate(-96.5 -165.5)"/>
        <path d="M134.5,239.46l0,.26h1.19l0-.26Z" transform="translate(-96.5 -165.5)"/>
        <path d="M133.14,239.46v.26h1.1l0-.26Z" transform="translate(-96.5 -165.5)"/>
        <path d="M120.64,239.46l0,.26h1.07l0-.26Z" transform="translate(-96.5 -165.5)"/>
        <polygon points="11.98 69.17 11.73 69.22 12.64 73.96 12.69 74.22 13.66 79.31 13.91 79.26 12.94 74.22 12.89 73.96 11.98 69.17"/>
        <polygon points="14.27 68.27 14.02 68.27 14.09 73.96 14.09 74.22 14.15 79 14.4 79 14.34 74.22 14.34 73.96 14.27 68.27"/>
        <path d="M112.55,234.54h-.25c0,.1-.13,2.31-.28,4.92v.26c-.12,2.08-.26,4.37-.35,6l.25,0c0-.24.18-3.21.35-6v-.26C112.42,237,112.55,234.64,112.55,234.54Z" transform="translate(-96.5 -165.5)"/>
        <polygon points="17.72 69.46 17.47 69.5 18.21 73.96 18.25 74.22 19.05 79.09 19.3 79.05 18.5 74.22 18.46 73.96 17.72 69.46"/>
        <path d="M116.74,234.79l-.25,0c0,.18-.21,2.53-.38,4.69l0,.26c-.15,1.78-.27,3.36-.27,3.36l.25,0s.13-1.59.27-3.38l0-.26C116.53,237.31,116.72,235,116.74,234.79Z" transform="translate(-96.5 -165.5)"/>
        <polygon points="17.15 69.14 16.9 69.14 16.87 73.96 16.87 74.22 16.84 79.41 17.09 79.41 17.12 74.22 17.12 73.96 17.15 69.14"/>
        <path d="M118.52,234.21l-.23-.08c-.05.12-.41,2.72-.76,5.33l0,.26c-.31,2.31-.62,4.58-.68,5.07l.25,0c.16-1.18.42-3.17.69-5.1l0-.26C118.14,236.83,118.48,234.36,118.52,234.21Z" transform="translate(-96.5 -165.5)"/>
        <path d="M119.25,235.82H119c0,.07,0,1.75,0,3.64v.26c0,2.4-.07,5-.07,5.08h.25c0-.2,0-2.75.08-5.09v-.26C119.23,237.57,119.25,235.89,119.25,235.82Z" transform="translate(-96.5 -165.5)"/>
        <path d="M121.17,234.74h-.25l-.53,4.72,0,.26c-.21,1.93-.45,4-.62,5.54l.25,0c.09-.83.36-3.26.62-5.57l0-.26C120.92,237,121.17,234.8,121.17,234.74Z" transform="translate(-96.5 -165.5)"/>
        <path d="M123.53,235.06h-.25s-.06,2.18-.13,4.41v.26c-.08,2.24-.16,4.5-.2,4.77l.25,0c0-.28.12-2.56.2-4.81v-.26C123.47,237.3,123.53,235.23,123.53,235.06Z" transform="translate(-96.5 -165.5)"/>
        <path d="M122.81,234.7l-.24,0s-.42,2.42-.84,4.81l0,.26c-.36,2-.71,4-.81,4.49l.25,0c.1-.48.46-2.49.82-4.54l0-.26C122.4,237.09,122.81,234.74,122.81,234.7Z" transform="translate(-96.5 -165.5)"/>
        <polygon points="27.46 69.53 27.21 69.57 27.94 73.96 27.98 74.22 28.79 79.16 29.04 79.12 28.23 74.22 28.19 73.96 27.46 69.53"/>
        <path d="M126.48,234.86l-.25,0c0,.18-.2,2.49-.37,4.63l0,.26c-.14,1.81-.27,3.43-.27,3.43l.25,0s.13-1.63.28-3.45l0-.26C126.28,237.33,126.46,235,126.48,234.86Z" transform="translate(-96.5 -165.5)"/>
        <path d="M128.27,234.28l-.24-.08c0,.12-.4,2.67-.75,5.26l0,.26c-.32,2.34-.62,4.64-.69,5.13l.25,0c.16-1.2.43-3.22.7-5.17l0-.26C127.89,236.86,128.22,234.43,128.27,234.28Z" transform="translate(-96.5 -165.5)"/>
        <path d="M129,235.89h-.25c0,.07,0,1.71-.05,3.57v.26c0,2.42-.08,5.1-.08,5.15h.25c0-.19,0-2.79.08-5.15v-.26C129,237.6,129,236,129,235.89Z" transform="translate(-96.5 -165.5)"/>
        <path d="M130.91,234.81h-.25c0,.09-.24,2.19-.52,4.65l0,.26c-.22,1.94-.46,4.07-.63,5.61l.25,0c.09-.84.37-3.31.63-5.64l0-.26C130.66,237.06,130.91,234.86,130.91,234.81Z" transform="translate(-96.5 -165.5)"/>
        <path d="M133.27,235.13H133s-.06,2.13-.13,4.34v.26c-.07,2.26-.16,4.56-.2,4.83l.25,0c0-.28.13-2.6.2-4.87v-.26C133.21,237.32,133.27,235.3,133.27,235.13Z" transform="translate(-96.5 -165.5)"/>
        <path d="M132.56,234.77l-.25-.05c0,.05-.41,2.38-.83,4.74l0,.26c-.36,2.06-.72,4.07-.82,4.56l.25.05c.1-.49.46-2.54.83-4.61l.05-.26C132.15,237.11,132.55,234.81,132.56,234.77Z" transform="translate(-96.5 -165.5)"/>
        <path d="M141.78,235.06l-.25,0c0,.17-.18,2.34-.35,4.42l0,.26-.3,3.63.25,0s.15-1.75.3-3.65l0-.26C141.6,237.39,141.77,235.23,141.78,235.06Z" transform="translate(-96.5 -165.5)"/>
        <path d="M143.57,234.48l-.24-.08c0,.12-.38,2.54-.72,5.06l0,.26c-.33,2.41-.66,4.83-.72,5.34l.24,0c.17-1.24.45-3.35.73-5.37l0-.26C143.21,236.93,143.53,234.63,143.57,234.48Z" transform="translate(-96.5 -165.5)"/>
        <path d="M144.3,236.09h-.25c0,.07,0,1.6-.05,3.37v.26c0,2.47-.08,5.3-.09,5.35h.26c0-.21,0-3,.08-5.36v-.26C144.28,237.69,144.3,236.16,144.3,236.09Z" transform="translate(-96.5 -165.5)"/>
        <path d="M146.21,235H146c0,.09-.22,2.08-.49,4.45l0,.26c-.22,2-.48,4.22-.65,5.81l.24,0c.1-.87.39-3.45.66-5.84l0-.26C146,237.14,146.21,235.06,146.21,235Z" transform="translate(-96.5 -165.5)"/>
        <path d="M147.19,235.33h-.25s-.06,2-.13,4.14v.26c-.07,2.33-.16,4.76-.2,5l.24,0c0-.3.14-2.74.21-5.08v-.26C147.13,237.4,147.18,235.5,147.19,235.33Z" transform="translate(-96.5 -165.5)"/>
        <path d="M134.83,235.43l-.25,0c0,.16-.17,2.09-.33,4.05l0,.26-.32,4,.25,0s.16-2,.32-4l0-.26C134.66,237.51,134.81,235.59,134.83,235.43Z" transform="translate(-96.5 -165.5)"/>
        <path d="M136.61,234.85l-.23-.08c0,.11-.35,2.31-.68,4.69l0,.26c-.35,2.52-.7,5.17-.77,5.71l.25,0c.17-1.32.48-3.62.77-5.74l0-.26C136.28,237.08,136.57,235,136.61,234.85Z" transform="translate(-96.5 -165.5)"/>
        <path d="M137.34,236.46h-.25c0,.06,0,1.39,0,3v.26c0,2.55-.08,5.67-.08,5.72h.25c0-.22,0-3.24.08-5.73v-.26C137.32,237.85,137.34,236.53,137.34,236.46Z" transform="translate(-96.5 -165.5)"/>
        <path d="M139.25,235.38H139c0,.08-.2,1.87-.45,4.08l0,.26c-.23,2.09-.5,4.49-.69,6.18l.25,0c.1-.91.42-3.72.7-6.21l0-.26C139.05,237.29,139.25,235.43,139.25,235.38Z" transform="translate(-96.5 -165.5)"/>
        <path d="M140.23,235.7H140s0,1.79-.12,3.77v.26c-.08,2.43-.18,5.11-.22,5.41l.24,0c.05-.31.15-3,.23-5.45v-.26C140.18,237.55,140.22,235.86,140.23,235.7Z" transform="translate(-96.5 -165.5)"/>
        <polygon class="cls-3" points="45.5 5.65 45.5 10.7 66.75 10.7 71.94 10.7 71.94 5.65 71.94 3.91 71.94 0.34 45.5 0.34 45.5 3.91 45.5 5.65"/>
        <rect class="cls-3" x="82.82" width="15.95" height="0.08"/>
        <polygon class="cls-3" points="82.95 5.65 82.95 10.7 98.64 10.7 98.64 5.65 98.64 3.91 98.64 0.34 82.95 0.34 82.95 3.91 82.95 5.65"/>
        <polygon class="cls-3" points="109.65 5.65 109.65 10.7 121.02 10.7 125.47 10.7 125.47 5.65 125.47 3.91 125.47 0.34 109.65 0.34 109.65 3.91 109.65 5.65"/>
        <polygon class="cls-3" points="136.35 5.65 136.35 10.7 148.84 10.7 150.31 10.7 164.16 10.7 164.16 0.34 136.35 0.34 136.35 3.91 136.35 5.65"/>
        <polygon class="cls-3" points="148.84 63.08 150.31 63.08 150.31 61.1 150.38 61.1 150.38 61.04 167.25 61.04 167.25 59.51 150.31 59.51 150.31 10.96 148.84 10.96 148.84 63.08"/>
        <polygon class="cls-3" points="185.8 0.34 185.8 10.7 200.38 10.7 200.51 10.7 200.51 10.83 200.51 58.02 200.51 59.51 200.51 61.1 200.51 64.19 200.51 66.05 205.57 66.05 205.57 5.52 205.57 5.39 205.7 5.39 205.82 5.39 205.82 0.34 200.38 0.34 185.8 0.34"/>
        <polygon class="cls-3" points="191.97 61.1 195.56 61.1 200.25 61.1 200.25 59.51 181.72 59.51 181.72 61.1 191.97 61.1"/>
        <polygon class="cls-3" points="164.65 90.75 164.78 90.75 167 90.75 174.42 90.75 205.57 90.75 205.57 87.42 205.57 85.69 205.57 85.56 205.57 85.44 205.57 82.11 204.09 82.11 203.97 82.11 150.31 82.11 150.31 81.98 150.31 79.15 148.84 79.15 148.84 81.98 148.84 82.11 11.37 82.11 11.37 81.98 11.37 10.83 11.37 10.7 23.85 10.7 23.85 5.65 23.85 3.91 23.85 0.34 0 0.34 0 10.7 0.13 10.7 0.13 10.83 0.13 55.3 0.13 58.02 0.13 81.98 0.13 82.11 0 82.11 0 90.75 0.13 90.75 0.13 90.88 0.13 91 7.91 91 7.91 90.88 7.91 90.75 8.04 90.75 159.34 90.75 159.47 90.75 159.47 90.88 159.47 91 164.65 91 164.65 90.88 164.65 90.75"/>
        <polygon class="cls-3" points="200.25 59.51 200.25 61.1 200.38 61.1 200.51 61.1 200.51 59.51 200.38 59.51 200.25 59.51"/>
        <polygon class="cls-3" points="0 0.34 23.85 0.34 23.85 0.21 23.98 0.21 23.98 0.08 0 0.08 0 0.34"/>
        <polygon class="cls-3" points="24.11 3.91 24.11 0.34 23.98 0.34 23.98 0.21 23.85 0.21 23.85 0.34 23.85 3.91 24.11 3.91"/>
        <polygon class="cls-3" points="24.11 10.7 24.11 5.65 23.85 5.65 23.85 10.7 23.98 10.7 24.11 10.7"/>
        <polygon class="cls-3" points="45.5 0.21 45.5 0.34 71.94 0.34 71.94 0.21 72.07 0.21 72.07 0.08 45.37 0.08 45.37 0.21 45.5 0.21"/>
        <polygon class="cls-3" points="82.95 3.91 82.95 0.34 82.82 0.34 82.69 0.34 82.69 3.91 82.95 3.91"/>
        <polygon class="cls-3" points="82.69 5.65 82.69 10.7 82.82 10.7 82.95 10.7 82.95 5.65 82.69 5.65"/>
        <polygon class="cls-3" points="72.07 10.7 72.2 10.7 72.2 5.65 71.94 5.65 71.94 10.7 72.07 10.7"/>
        <polygon class="cls-3" points="72.2 3.91 72.2 0.34 72.07 0.34 72.07 0.21 71.94 0.21 71.94 0.34 71.94 3.91 72.2 3.91"/>
        <polygon class="cls-3" points="82.82 0.34 82.95 0.34 98.64 0.34 98.64 0.21 98.77 0.21 98.77 0.08 98.77 0.08 82.82 0.08 82.82 0.08 82.82 0.34"/>
        <polygon class="cls-3" points="109.39 5.65 109.39 10.7 109.52 10.7 109.65 10.7 109.65 5.65 109.39 5.65"/>
        <polygon class="cls-3" points="109.65 3.91 109.65 0.34 109.52 0.34 109.39 0.34 109.39 3.91 109.65 3.91"/>
        <polygon class="cls-3" points="98.77 10.7 98.9 10.7 98.9 5.65 98.64 5.65 98.64 10.7 98.77 10.7"/>
        <polygon class="cls-3" points="98.9 3.91 98.9 0.34 98.77 0.34 98.77 0.21 98.64 0.21 98.64 0.34 98.64 3.91 98.9 3.91"/>
        <polygon class="cls-3" points="109.52 0.34 109.65 0.34 125.47 0.34 125.47 0.21 125.59 0.21 125.59 0.08 109.52 0.08 109.52 0.34"/>
        <polygon class="cls-3" points="136.35 3.91 136.35 0.34 136.22 0.34 136.1 0.34 136.1 3.91 136.35 3.91"/>
        <polygon class="cls-3" points="136.1 5.65 136.1 10.7 136.22 10.7 136.35 10.7 136.35 5.65 136.1 5.65"/>
        <polygon class="cls-3" points="125.59 10.7 125.72 10.7 125.72 5.65 125.47 5.65 125.47 10.7 125.59 10.7"/>
        <polygon class="cls-3" points="125.72 3.91 125.72 0.34 125.59 0.34 125.59 0.21 125.47 0.21 125.47 0.34 125.47 3.91 125.72 3.91"/>
        <polygon class="cls-3" points="136.22 0.34 136.35 0.34 164.16 0.34 164.16 0.21 164.28 0.21 164.28 0.08 136.22 0.08 136.22 0.34"/>
        <polygon class="cls-3" points="185.67 10.7 185.8 10.7 185.8 0.34 185.67 0.34 185.54 0.34 185.54 10.7 185.67 10.7"/>
        <polygon class="cls-3" points="164.28 10.7 164.41 10.7 164.41 0.34 164.28 0.34 164.28 0.21 164.16 0.21 164.16 0.34 164.16 10.7 164.28 10.7"/>
        <polygon class="cls-3" points="185.67 0.34 185.8 0.34 200.38 0.34 200.38 0.21 200.25 0.21 200.25 0.08 195.97 0.08 185.67 0.08 185.67 0.34"/>
        <rect class="cls-3" x="200.25" y="81" width="0.26" height="0.85"/>
        <rect class="cls-3" x="200.25" y="77.16" width="0.26" height="1.36"/>
        <rect class="cls-3" x="200.25" y="73.46" width="0.26" height="1.48"/>
        <rect class="cls-3" x="200.25" y="69.88" width="0.26" height="1.36"/>
        <path class="cls-3" d="M296.75,232.4l.26-.07v-.28h-.13v-.13h-.13v.48Z" transform="translate(-96.5 -165.5)"/>
        <path class="cls-3" d="M296.75,233.15H297v-.55l-.26.07Z" transform="translate(-96.5 -165.5)"/>
        <polygon class="cls-3" points="204.09 80.87 204.09 81 205.57 81 205.57 80.87 205.57 80.74 204.09 80.74 204.09 80.87"/>
        <polygon class="cls-3" points="204.09 67.53 204.09 67.66 205.57 67.66 205.57 67.53 205.57 67.4 204.09 67.4 204.09 67.53"/>
        <polygon class="cls-3" points="204.09 81.98 204.09 82.11 205.57 82.11 205.57 81.98 205.57 81.85 204.09 81.85 204.09 81.98"/>
        <polygon class="cls-3" points="204.09 66.42 204.09 66.55 205.57 66.55 205.57 66.29 204.09 66.29 204.09 66.42"/>
        <polygon class="cls-3" points="148.84 10.96 150.31 10.96 150.31 10.83 150.31 10.7 148.84 10.7 148.84 10.83 148.84 10.96"/>
        <polygon class="cls-3" points="45.5 3.91 45.5 0.34 45.5 0.21 45.37 0.21 45.37 0.34 45.24 0.34 45.24 3.91 45.5 3.91"/>
        <polygon class="cls-3" points="45.24 5.65 45.24 10.7 45.37 10.7 45.5 10.7 45.5 5.65 45.24 5.65"/>
        <polygon class="cls-3" points="23.98 0.34 24.11 0.34 45.24 0.34 45.37 0.34 45.37 0.21 45.37 0.08 23.98 0.08 23.98 0.21 23.98 0.34"/>
        <polygon class="cls-3" points="200.38 0.21 200.38 0.34 205.82 0.34 205.82 0.08 200.51 0.08 200.51 0.21 200.38 0.21"/>
        <polygon class="cls-3" points="200.38 0.21 200.51 0.21 200.51 0.08 200.38 0.08 200.25 0.08 200.25 0.21 200.38 0.21"/>
        <polygon class="cls-3" points="164.28 0.34 164.41 0.34 185.54 0.34 185.67 0.34 185.67 0.08 164.28 0.08 164.28 0.21 164.28 0.34"/>
        <polygon class="cls-3" points="125.59 0.34 125.72 0.34 136.1 0.34 136.22 0.34 136.22 0.08 125.59 0.08 125.59 0.21 125.59 0.34"/>
        <polygon class="cls-3" points="98.77 0.34 98.9 0.34 109.39 0.34 109.52 0.34 109.52 0.08 98.77 0.08 98.77 0.21 98.77 0.34"/>
        <polygon class="cls-3" points="72.07 0.34 72.2 0.34 82.69 0.34 82.82 0.34 82.82 0.08 72.07 0.08 72.07 0.21 72.07 0.34"/>
        <path class="cls-3" d="M286.25,246.31h-.12v.19h14.21v-.26H286.26S286.25,246.29,286.25,246.31Z" transform="translate(-96.5 -165.5)"/>
        <path class="cls-3" d="M286.26,246.24a14.14,14.14,0,0,1,10.49-13.57l.26-.07a14.07,14.07,0,0,1,3.33-.43v-.12h-1.79a12.69,12.69,0,0,0-1.54.28l-.26.07A14.4,14.4,0,0,0,286,246.31h.25S286.26,246.26,286.26,246.24Z" transform="translate(-96.5 -165.5)"/>
        <path class="cls-3" d="M277.16,212.4v.13h-.06v12.22h.25V212.4Z" transform="translate(-96.5 -165.5)"/>
        <path class="cls-3" d="M277.1,212.53h.06v-.26a12.55,12.55,0,0,0-12.54,12.48h.25A12.31,12.31,0,0,1,277.1,212.53Z" transform="translate(-96.5 -165.5)"/>
        <polygon class="cls-3" points="180.73 61.1 180.85 61.1 180.85 59.51 180.73 59.51 180.6 59.51 180.6 61.1 180.73 61.1"/>
        <rect class="cls-3" x="181.46" y="59.51" width="0.26" height="1.6"/>
        <polygon class="cls-3" points="168.24 61.1 168.37 61.1 168.37 59.51 168.24 59.51 168.11 59.51 168.11 61.1 168.24 61.1"/>
        <polygon class="cls-3" points="167.25 61.1 167.5 61.1 167.5 59.51 167.25 59.51 167.25 61.04 167.25 61.1"/>
        <polygon class="cls-3" points="150.31 79.02 150.31 78.89 148.84 78.89 148.84 79.02 148.84 79.15 150.31 79.15 150.31 79.02"/>
        <path class="cls-3" d="M261.28,244.46H261s0-.05,0-.07H247.07v.26h14.21Z" transform="translate(-96.5 -165.5)"/>
        <path class="cls-3" d="M261,244.39s0,0,0,.07h.26a14.42,14.42,0,0,0-14.22-14.39v.26A14.14,14.14,0,0,1,261,244.39Z" transform="translate(-96.5 -165.5)"/>
        <path class="cls-3" d="M120.61,171.15H142v-1.74H120.35v1.74Zm0-1.49h21.13v1.23H120.61Z" transform="translate(-96.5 -165.5)"/>
        <path class="cls-3" d="M168.7,171.15h10.75v-1.74h-11v1.74Zm0-1.49h10.49v1.23H168.7Z" transform="translate(-96.5 -165.5)"/>
        <path class="cls-3" d="M195.4,171.15h10.75v-1.74h-11v1.74Zm0-1.49h10.49v1.23H195.4Z" transform="translate(-96.5 -165.5)"/>
        <path class="cls-3" d="M222.22,171.15h10.63v-1.74H222v1.74Zm0-1.49H232.6v1.23H222.22Z" transform="translate(-96.5 -165.5)"/>
        <polygon class="cls-3" points="0.13 81.98 0.13 58.02 0.13 55.3 0.13 10.83 0.13 10.7 0 10.7 0 10.96 0 82.11 0.13 82.11 0.13 81.98"/>
        <polygon class="cls-3" points="0.13 90.75 0 90.75 0 91 0.13 91 0.13 90.88 0.13 90.75"/>
        <polygon class="cls-3" points="159.47 90.75 159.34 90.75 8.04 90.75 7.91 90.75 7.91 90.88 7.91 91 159.47 91 159.47 90.88 159.47 90.75"/>
        <polygon class="cls-3" points="148.84 79.02 148.84 78.89 148.84 76.67 148.84 74.45 148.84 72.97 148.84 70.74 148.84 69.38 148.84 67.16 148.84 64.81 148.84 63.08 148.84 10.96 148.84 10.83 148.84 10.7 136.35 10.7 136.22 10.7 136.1 10.7 125.72 10.7 125.59 10.7 125.47 10.7 121.02 10.7 109.65 10.7 109.52 10.7 109.39 10.7 98.9 10.7 98.77 10.7 98.64 10.7 82.95 10.7 82.82 10.7 82.69 10.7 72.2 10.7 72.07 10.7 71.94 10.7 66.75 10.7 45.5 10.7 45.37 10.7 45.24 10.7 24.11 10.7 23.98 10.7 23.85 10.7 11.37 10.7 11.37 10.83 11.63 10.83 11.63 10.96 23.98 10.96 45.37 10.96 66.75 10.96 72.07 10.96 82.82 10.96 98.77 10.96 109.52 10.96 121.02 10.96 125.59 10.96 136.22 10.96 137.7 10.96 137.95 10.96 138.38 10.96 138.63 10.96 148.37 10.96 148.58 10.96 148.58 16.7 148.58 32.4 148.58 41.59 148.58 48.09 148.58 58.67 148.58 64.81 148.58 67.16 148.58 69.38 148.58 70.74 148.58 72.97 148.58 74.45 148.58 76.67 148.58 79.02 148.58 81.85 11.63 81.85 11.63 81.98 11.37 81.98 11.37 82.11 148.84 82.11 148.84 81.98 148.84 79.15 148.84 79.02"/>
        <polygon class="cls-3" points="204.09 81.85 204.09 81 204.09 80.87 204.09 80.74 204.09 78.89 204.09 76.79 204.09 75.31 204.09 73.09 204.09 71.61 204.09 69.51 204.09 68.52 203.84 68.52 203.84 69.51 203.84 71.61 203.84 73.09 203.84 75.31 203.84 76.79 203.84 78.89 203.84 80.74 203.84 80.87 203.84 81 203.84 81.85 200.51 81.85 200.25 81.85 150.57 81.85 150.57 79.15 150.57 79.02 150.57 78.89 150.57 76.67 150.57 74.45 150.57 72.97 150.57 70.74 150.57 69.38 150.57 67.16 150.57 64.83 150.57 64.81 150.57 64.57 150.57 61.36 168.24 61.36 168.37 61.36 169.72 61.36 171.95 61.36 173.43 61.36 175.66 61.36 177.02 61.36 179.24 61.36 180.73 61.36 191.97 61.36 191.97 61.1 181.72 61.1 181.46 61.1 180.85 61.1 180.73 61.1 180.6 61.1 179.24 61.1 177.02 61.1 175.66 61.1 173.43 61.1 171.95 61.1 169.72 61.1 168.37 61.1 168.24 61.1 168.11 61.1 167.5 61.1 167.25 61.1 150.38 61.1 150.31 61.1 150.31 63.08 150.31 64.81 150.31 67.16 150.31 69.38 150.31 70.74 150.31 72.97 150.31 74.45 150.31 76.67 150.31 78.89 150.31 79.02 150.31 79.15 150.31 81.98 150.31 82.11 203.97 82.11 204.09 82.11 204.09 81.98 204.09 81.85"/>
        <polygon class="cls-3" points="200.25 64.19 200.25 66.42 200.38 66.42 200.38 66.29 200.51 66.29 200.51 66.05 200.51 64.19 200.25 64.19"/>
        <rect class="cls-3" x="191.97" y="61.1" width="3.59" height="0.26"/>
        <polygon class="cls-3" points="200.51 66.55 202.04 66.55 203.84 66.55 203.84 66.67 203.84 67.53 203.84 67.66 203.84 68.52 204.09 68.52 204.09 67.66 204.09 67.53 204.09 67.4 204.09 66.55 204.09 66.42 204.09 66.29 203.97 66.29 200.51 66.29 200.38 66.29 200.38 66.42 200.38 66.55 200.51 66.55"/>
        <polygon class="cls-3" points="200.25 61.1 195.56 61.1 195.56 61.36 200.25 61.36 200.25 64.19 200.51 64.19 200.51 61.1 200.38 61.1 200.25 61.1"/>
        <path class="cls-3" d="M282.17,176.2H246.81V225H297V176.2H282.17Zm-8.65,48.55H247.07V176.46h49.68v48.29H273.52Z" transform="translate(-96.5 -165.5)"/>
        <polygon class="cls-3" points="205.57 5.39 205.57 5.52 205.57 66.05 205.57 66.29 205.57 66.55 205.57 67.4 205.57 67.53 205.57 67.66 205.57 69.51 205.57 71.61 205.57 73.09 205.57 75.31 205.57 76.79 205.57 78.89 205.57 80.74 205.57 80.87 205.57 81 205.57 81.85 205.57 81.98 205.57 82.11 205.57 85.44 205.82 85.44 205.82 82.11 205.82 81.98 205.82 80.87 205.82 78.89 205.82 76.79 205.82 75.31 205.82 73.09 205.82 71.61 205.82 69.51 205.82 67.53 205.82 66.55 205.82 66.29 205.82 5.65 205.82 5.52 205.82 5.39 205.7 5.39 205.57 5.39"/>
        <polygon class="cls-3" points="205.57 85.44 205.57 85.56 205.57 85.69 205.57 87.42 205.57 90.75 174.42 90.75 167 90.75 164.78 90.75 164.65 90.75 164.65 90.88 164.65 91 205.57 91 205.82 91 205.82 87.42 205.82 85.69 205.82 85.56 205.82 85.44 205.57 85.44"/>
        <polygon class="cls-3" points="11.63 81.85 11.63 80.94 11.63 80.69 11.63 74.22 11.63 73.96 11.63 68 11.63 67.74 11.63 60.35 11.63 60.09 11.63 53.09 11.63 52.84 11.63 51.79 11.63 51.78 11.63 51.52 11.63 21.2 11.63 20.95 11.63 20.93 11.63 19.61 11.63 19.35 11.63 12.35 11.63 12.09 11.63 10.96 11.63 10.83 11.37 10.83 11.37 81.98 11.63 81.98 11.63 81.85"/>
      </g>
      <g>
        <circle class="cls-6" cx="177.2" cy="69.92" r="4.24"/>
        <g>
          <path class="cls-4" d="M272.86,237a1.26,1.26,0,0,1-.66-.18,1.23,1.23,0,0,1-.46-.54,2.06,2.06,0,0,1-.17-.86,2,2,0,0,1,.17-.86,1.32,1.32,0,0,1,.46-.55,1.26,1.26,0,0,1,.66-.18,1.21,1.21,0,0,1,.66.18,1.25,1.25,0,0,1,.46.55,1.86,1.86,0,0,1,.18.86,1.91,1.91,0,0,1-.18.86,1.17,1.17,0,0,1-.46.54A1.21,1.21,0,0,1,272.86,237Zm0-.49a.62.62,0,0,0,.38-.12.83.83,0,0,0,.25-.36,1.78,1.78,0,0,0,.09-.61,1.81,1.81,0,0,0-.09-.62.83.83,0,0,0-.25-.36.68.68,0,0,0-.38-.11.67.67,0,0,0-.37.11.83.83,0,0,0-.25.36,1.81,1.81,0,0,0-.09.62,1.78,1.78,0,0,0,.09.61.83.83,0,0,0,.25.36A.61.61,0,0,0,272.86,236.54Z" transform="translate(-96.5 -165.5)"/>
          <path class="cls-4" d="M275,237v-2.87l.25.26h-.9v-.48h1.23V237Z" transform="translate(-96.5 -165.5)"/>
        </g>
      </g>
      <g>
        <circle class="cls-6" cx="92.26" cy="57.46" r="4.24"/>
        <g>
          <path class="cls-4" d="M187.48,224.58a1.27,1.27,0,0,1-.66-.19,1.23,1.23,0,0,1-.46-.54,2,2,0,0,1-.17-.86,2,2,0,0,1,.17-.86,1.23,1.23,0,0,1,.46-.54,1.18,1.18,0,0,1,.66-.19,1.14,1.14,0,0,1,.66.19,1.17,1.17,0,0,1,.46.54,1.86,1.86,0,0,1,.17.86,1.89,1.89,0,0,1-.17.86,1.17,1.17,0,0,1-.46.54A1.22,1.22,0,0,1,187.48,224.58Zm0-.5a.64.64,0,0,0,.38-.12.92.92,0,0,0,.25-.36,1.75,1.75,0,0,0,.09-.61,1.81,1.81,0,0,0-.09-.62.81.81,0,0,0-.25-.35.64.64,0,0,0-.38-.12.61.61,0,0,0-.37.12.68.68,0,0,0-.25.35,1.81,1.81,0,0,0-.09.62,1.75,1.75,0,0,0,.09.61.75.75,0,0,0,.25.36A.61.61,0,0,0,187.48,224.08Z" transform="translate(-96.5 -165.5)"/>
          <path class="cls-4" d="M190.09,224.58a2.31,2.31,0,0,1-.64-.1,1.49,1.49,0,0,1-.52-.26l.24-.45a1.34,1.34,0,0,0,.41.22,1.43,1.43,0,0,0,.5.09.74.74,0,0,0,.48-.13.42.42,0,0,0,0-.67.76.76,0,0,0-.51-.13h-.28v-.39l.88-1,.08.22h-1.66v-.48h2.1v.38l-.88,1-.3-.18h.17a1.26,1.26,0,0,1,.86.26.82.82,0,0,1,.28.65.91.91,0,0,1-.13.48,1,1,0,0,1-.41.35A1.52,1.52,0,0,1,190.09,224.58Z" transform="translate(-96.5 -165.5)"/>
        </g>
      </g>
      <g>
        <circle class="cls-6" cx="172.96" cy="32.62" r="4.24"/>
        <g>
          <path class="cls-4" d="M268.18,199.73a1.21,1.21,0,0,1-.66-.18,1.28,1.28,0,0,1-.46-.54,2.29,2.29,0,0,1,0-1.73,1.28,1.28,0,0,1,.46-.54,1.21,1.21,0,0,1,.66-.18,1.26,1.26,0,0,1,.66.18,1.36,1.36,0,0,1,.46.54,2.29,2.29,0,0,1,0,1.73,1.36,1.36,0,0,1-.46.54A1.26,1.26,0,0,1,268.18,199.73Zm0-.5a.58.58,0,0,0,.37-.11.75.75,0,0,0,.25-.36,1.78,1.78,0,0,0,.09-.61,1.81,1.81,0,0,0-.09-.62.75.75,0,0,0-.25-.36.58.58,0,0,0-.37-.11.6.6,0,0,0-.37.11.75.75,0,0,0-.25.36,1.81,1.81,0,0,0-.09.62,1.78,1.78,0,0,0,.09.61.75.75,0,0,0,.25.36A.6.6,0,0,0,268.18,199.23Z" transform="translate(-96.5 -165.5)"/>
          <path class="cls-4" d="M269.81,199.69v-.39l1.23-1.16a1.65,1.65,0,0,0,.23-.26.75.75,0,0,0,.1-.2.55.55,0,0,0,0-.18.42.42,0,0,0-.14-.33.67.67,0,0,0-.43-.11.91.91,0,0,0-.41.08.73.73,0,0,0-.31.24l-.41-.31a1.32,1.32,0,0,1,.49-.38,1.7,1.7,0,0,1,.69-.13,1.31,1.31,0,0,1,.58.11.85.85,0,0,1,.39.3.81.81,0,0,1,.13.47,1,1,0,0,1,0,.3,1.25,1.25,0,0,1-.15.31,2.37,2.37,0,0,1-.32.37l-1.06,1-.11-.22h1.8v.49Z" transform="translate(-96.5 -165.5)"/>
        </g>
      </g>
      <path class="cls-6" d="M311.5,233.4v14.51l-7.26-7.26Z" transform="translate(-96.5 -165.5)"/>
    </g>
  </g>
</svg>
