<svg xmlns="http://www.w3.org/2000/svg" viewBox="0 0 231.06 175.65"><defs><style>.cls-1{fill:#cfd4c3;}.cls-2{fill:#e8e6e3;}.cls-3{fill:#2b2d2c;}.cls-4{fill:#fff;}.cls-5{fill:none;stroke:#e8e6e3;stroke-linecap:round;stroke-linejoin:round;stroke-width:0;}.cls-6{fill:#4e6b56;}</style></defs><g id="_1pp" data-name="1pp"><path class="cls-1" d="M164.79,190.29H304.07v-71.7H175.58v48.72H164.79v23Zm29-40.11a6.21,6.21,0,0,1-.79,0c-.24,0-.57-.06-.57-.32v-.62c0-.23.26-.29.49-.33a1.27,1.27,0,0,1-.51-1l-.05-4.36a1.24,1.24,0,0,1,.43-.95,1.57,1.57,0,0,1,1.05-.39l5.07-.07h0a1.42,1.42,0,0,1,1.49,1.3l.06,4.37a1.28,1.28,0,0,1-.48,1c.23,0,.49.08.49.32v.62c0,.26-.32.3-.56.33a6.22,6.22,0,0,1-.93.06l-5.08.07Zm101.93-30h7.55v7.6h-7.55Zm-32.37,14.13a6.22,6.22,0,0,1,6.21-6.21H282.5v-.27l.95,1.3H303.3v31.21H290.73v1H269.59a6.21,6.21,0,0,1-4.09-1.55h0v0a6.16,6.16,0,0,1-2.11-4.64Zm39.92,27.08V169h-7.55v-7.6Zm-40.45,15.07h41v13.36h-41Zm-40.7-49.89H247v36.8H236.31a2.16,2.16,0,0,1-2.16-2.15v-7.9a2.15,2.15,0,0,1,1.46-2,2.15,2.15,0,0,1-1.46-2v-7.9a2.15,2.15,0,0,1,1.47-2,2,2,0,0,1-.84-.51,2,2,0,0,1-.5-.81,2.16,2.16,0,0,1-2,1.45h-7.9a2.16,2.16,0,0,1-2.16-2.16v-9.5h0ZM221.8,146a6.17,6.17,0,1,1-6.61,6.15A6.41,6.41,0,0,1,221.8,146Zm-18.33,37a.09.09,0,0,1,.07,0,.09.09,0,0,1,.07,0l1.78,1.61H217l1.77-1.61a.11.11,0,0,1,.07,0,.09.09,0,0,1,.08,0,.1.1,0,0,1,0,.14l-1.61,1.46h8.4v.88h-2.59v.9H218.3l.61.56a.1.1,0,1,1-.14.15l-.78-.71h-.48l-.69,1.52H205.57l-.7-1.52h-.48l-.78.71a.1.1,0,0,1-.14,0,.11.11,0,0,1,0-.15l.62-.56h-4.81v-.9h-2.59v-.88h8.39l-1.61-1.46A.1.1,0,0,1,203.47,183Zm-11.21-61.23a1.27,1.27,0,0,1,.5-1c-.23,0-.5-.09-.5-.32v-.62c0-.26.33-.3.57-.33a8.14,8.14,0,0,1,.93,0h5.08a8.14,8.14,0,0,1,.93,0c.22,0,.57.07.57.33v.62c0,.23-.27.29-.49.32a1.26,1.26,0,0,1,.49,1v4.36a1.42,1.42,0,0,1-1.5,1.32h-5.08a1.42,1.42,0,0,1-1.5-1.32Zm-2.66,6.08,13.15-.08v.12l.09,13.79h-.13l-13.15.09v-.13l-.09-13.79Z" transform="translate(-84.7 -107.59)"/><rect class="cls-1" x="92.7" y="5.63" width="10.48" height="5.11"/><rect class="cls-1" x="92.7" y="4.13" width="10.48" height="1.24"/><path class="cls-1" d="M148.55,187.29h14.23V173.06A14.32,14.32,0,0,0,148.55,187.29Z" transform="translate(-84.7 -107.59)"/><rect class="cls-1" x="22.49" y="81.84" width="1.49" height="0.86"/><path class="cls-1" d="M131.43,190.55h-6.74v8.73h.87v.26H91v71.82H149V199.54h-6.49v-.26H143v-8.73H131.43Zm-26.06,76.2H92V205h13.35Zm23.93-67.21h-1.5v-.26h1.5Zm3.63,0h-1.5v-.26h1.5Zm5.87-.26h1.5v.26h-1.5Zm9.31,2.21v12.86H135.48V201.49h12.63Zm-12.94-2.21h1.5v.26h-1.5Z" transform="translate(-84.7 -107.59)"/><path class="cls-1" d="M112.31,174.81h-1.68a13.46,13.46,0,0,1,1.68.32Z" transform="translate(-84.7 -107.59)"/><rect class="cls-1" x="42.73" y="0.26" width="21.27" height="3.61"/><rect class="cls-1" x="184.52" y="4.13" width="21.35" height="1.24"/><rect class="cls-1" x="60.22" y="60.1" width="0.74" height="1.61"/><polygon class="cls-1" points="58.59 60.1 56.47 60.1 54.97 60.1 52.72 60.1 51.22 60.1 49.1 60.1 47.73 60.1 47.73 61.71 49.1 61.71 51.22 61.71 52.72 61.71 54.97 61.71 56.47 61.71 58.59 61.71 59.96 61.71 59.96 60.1 58.59 60.1"/><rect class="cls-1" x="146.67" y="0.26" width="10.61" height="3.61"/><rect class="cls-1" x="46.73" y="60.1" width="0.74" height="1.61"/><rect class="cls-1" x="184.52" y="0.26" width="21.35" height="3.61"/><rect class="cls-1" x="92.7" y="0.26" width="10.48" height="3.61"/><polygon class="cls-1" points="78.33 65.47 78.33 67.84 78.33 70.09 78.33 71.46 78.33 73.71 78.33 75.21 78.33 77.46 78.33 79.7 79.82 79.7 79.82 77.46 79.82 75.21 79.82 73.71 79.82 71.46 79.82 70.09 79.82 67.84 79.82 65.47 79.82 64.19 78.33 64.19 78.33 65.47"/><rect class="cls-1" x="146.67" y="4.13" width="10.61" height="1.24"/><rect class="cls-1" x="42.73" y="5.63" width="21.27" height="5.11"/><rect class="cls-1" x="42.73" y="4.13" width="21.27" height="1.24"/><rect class="cls-1" x="119.72" y="5.63" width="10.44" height="2.36"/><rect class="cls-1" x="119.72" y="4.13" width="10.44" height="1.24"/><rect class="cls-1" x="119.72" y="8.26" width="10.44" height="2.49"/><polygon class="cls-1" points="23.98 79.71 23.98 77.58 23.98 76.08 23.98 73.83 23.98 72.34 23.98 70.21 23.98 68.34 22.49 68.34 22.49 70.21 22.49 70.59 22.49 71.96 22.49 72.34 22.49 73.83 22.49 74.21 22.49 75.71 22.49 76.08 22.49 77.58 22.49 77.96 22.49 79.33 22.49 79.71 22.49 81.58 23.98 81.58 23.98 79.71"/><rect class="cls-1" x="119.72" y="0.26" width="10.44" height="3.61"/><rect class="cls-1" x="184.52" y="5.63" width="21.35" height="5.11"/><rect class="cls-1" x="146.67" y="5.63" width="10.61" height="5.11"/><path class="cls-1" d="M132.24,154.94v-.13a12.7,12.7,0,0,1,12.68,12.62h17.86V118.59H112.57v48.84h19.6V154.94Zm24.58-28.77v-6.76h5.55v25h-5.55v-6.77a5.94,5.94,0,0,1,0-11.42Zm-7.44,27.64H162v12.86H149.38Zm-19,12.72H112.82V145.22h17.54ZM126,131.13a8.36,8.36,0,0,1-4-1h-3.24v.42A1.43,1.43,0,0,1,117.3,132h-2a1.43,1.43,0,0,1-1.43-1.43v-8.11a1.43,1.43,0,0,1,1.43-1.43h2a1.43,1.43,0,0,1,1.43,1.43v.43H122a8.29,8.29,0,0,1,4-1c3.6,0,6.53,2.07,6.53,4.6S129.57,131.13,126,131.13Z" transform="translate(-84.7 -107.59)"/><path class="cls-1" d="M132.43,155.08v12.35h12.23A12.43,12.43,0,0,0,132.43,155.08Z" transform="translate(-84.7 -107.59)"/><rect class="cls-1" x="24.24" y="81.84" width="3.36" height="0.86"/><path class="cls-1" d="M112.57,175.47v.46h-.26v-.53a14.33,14.33,0,0,0-3.36-.46v14.22h14.1A14.31,14.31,0,0,0,112.57,175.47Zm0,11.45h-.26v-1.37h.26Zm0-3.62h-.26v-1.5h.26Zm0-3.75h-.26v-1.37h.26Z" transform="translate(-84.7 -107.59)"/><rect class="cls-1" x="22.49" y="67.22" width="1.49" height="0.86"/><path class="cls-1" d="M125.56,190.29h37.22v-2.74H148.42v-.19h-.13a14.57,14.57,0,0,1,14.49-14.56v-3.24H112.57v5.64a14.57,14.57,0,0,1,10.74,14h0v.19H112.57v.87h13Z" transform="translate(-84.7 -107.59)"/><path class="cls-2" d="M147.85,214.09V201.75H136.52v12.34Zm-3.28-7.93a1.61,1.61,0,1,1-1.6,1.6A1.61,1.61,0,0,1,144.57,206.16Z" transform="translate(-84.7 -107.59)"/><polygon class="cls-3" points="51.82 94.17 63.15 94.17 63.15 106.5 51.82 106.5 51.82 106.77 63.41 106.77 63.41 93.91 51.82 93.91 51.82 94.17"/><rect class="cls-2" x="51.03" y="94.16" width="0.53" height="12.34"/><path class="cls-3" d="M136.52,214.09v-12.6h-1v12.86h1Zm-.78,0V201.75h.52v12.34Z" transform="translate(-84.7 -107.59)"/><path class="cls-2" d="M144.57,209.11a1.35,1.35,0,1,0,0-2.69,1.35,1.35,0,0,0,0,2.69Z" transform="translate(-84.7 -107.59)"/><path class="cls-3" d="M144.57,209.37a1.61,1.61,0,1,0-1.6-1.61A1.61,1.61,0,0,0,144.57,209.37Zm0-3a1.35,1.35,0,1,1-1.34,1.34A1.35,1.35,0,0,1,144.57,206.42Z" transform="translate(-84.7 -107.59)"/><path class="cls-2" d="M98.82,263.9l-5.15-1.48,0-.38,5.1,1.47v-1.75L94,261.67v-.39l4.83.1v-1.77l-6.09.53v-.38l6.1-.54v-1.69l-5.24,0v-.38l5.24,0v-1.72l-4.93-1.22,0-.38L98.82,255v-1.65l-3.4.41,0-.38,3.42-.41v-1.76l-5.12,1,0-.38,5.16-1V249l-5.14.12v-.39l5.14-.11v-1.78l-5.6,1,0-.38,5.63-.95v-1.63c-2,.54-4,1.08-4.54,1.23l0-.37c.49-.15,2.52-.7,4.59-1.25v-1.83c-2.26.11-4.55.24-4.82.3l0-.37c.28-.07,2.58-.2,4.86-.31v-1.66l-5-1.24,0-.38,4.95,1.23v-1.67l-3.46.42,0-.39,3.49-.42V236.4l-5.19,1.06,0-.38L98.82,236V234.2l-5.21.12v-.38l5.21-.12V232l-5.67,1,0-.37,5.7-1V230c-2.08.55-4.12,1.09-4.61,1.25l0-.38c.49-.15,2.56-.71,4.66-1.26v-1.82c-2.29.12-4.61.24-4.89.31l0-.38c.29-.07,2.63-.2,4.93-.31v-1.67l-4,.49,0-.38,4.06-.49v-1.81l-5.77,1.17,0-.38,5.81-1.18v-1.71l-5.79.14v-.39l5.79-.13v-1.87l-6.25,1.06,0-.38,6.28-1.06v-1.65c-2.46.12-5.17.26-5.47.33l0-.37c.31-.08,3-.22,5.51-.34v-1.6l-3.67.44,0-.38,3.69-.44v-1.78l-5.4,1.09,0-.37,5.43-1.11v-1.77l-5.41.12v-.38l5.42-.13v-1.81l-5.88,1,0-.38,5.91-1v-1.69c-2.35.12-4.81.25-5.09.32l0-.38c.29-.07,2.77-.2,5.13-.32v-.82H92.28v61h6.54Z" transform="translate(-84.7 -107.59)"/><path class="cls-2" d="M103.26,206v.38l-4.19.19v1.66l4.5-.75v.38l-4.51.75v1.86l3.41-.08v.38l-3.41.08v1.73c2.56-.53,4.89-1,5-1.08l.08.36c-.12.07-2.57.58-5.12,1.1v1.8l4.46-.54,0,.39-4.48.54v1.62l3.81-.18V217l-3.81.18v1.61l4.13-.68v.38c-.08,0-1.89.31-4.13.68v1.92l3-.07v.38l-3,.07v1.66c2.41-.5,4.52-.94,4.66-1l.09.36c-.12.06-2.34.53-4.75,1v1.83l4.08-.49,0,.38-4.1.5v1.69c2.16-.11,4.21-.2,4.39-.2v.38l-4.39.2v1.76l4.75-1.25,0,.37L99.08,230v1.65l4.7-.78v.38l-4.71.79v1.82l3.62-.08v.39l-3.62.08V236c2.64-.54,5.09-1.05,5.24-1.12l.09.37c-.13.06-2.71.6-5.33,1.14v1.78l4.66-.57,0,.39-4.68.56v1.78l4.49,1.11,0,.38-4.44-1.11v1.59l4.45-.21v.38l-4.46.21v1.77l4.82-1.27,0,.38-4.86,1.28v1.65l4.77-.79V246l-4.78.79v1.82l3.68-.08V249l-3.68.08v1.78c2.66-.55,5.16-1.07,5.31-1.13l.08.36c-.12.07-2.75.61-5.39,1.16V253l4.73-.57,0,.38-4.75.58v1.75l4.56,1.12,0,.38-4.51-1.12v1.66l4.87,0v.38l-4.88,0v1.67l5-.42v.38l-5,.42v1.8l5.76.11v.38l-5.76-.11v1.82l4.85,1.4-.05.37L99.08,264v2.4h6v-61h-6v.81Z" transform="translate(-84.7 -107.59)"/><path class="cls-3" d="M92,266.75h13.35V205H92Zm.26-61.34h6.54v-.19h.26v.19h6v61h-6v.19h-.26v-.19H92.28Z" transform="translate(-84.7 -107.59)"/><path d="M99.08,223.51l-.26.06v1.81l.26,0Z" transform="translate(-84.7 -107.59)"/><path d="M99.08,221.47h-.26v1.71l.26-.05Z" transform="translate(-84.7 -107.59)"/><path d="M99.08,225.73l-.26,0v1.67h.26Z" transform="translate(-84.7 -107.59)"/><path d="M99.08,206.6h-.26v1.69l.26,0Z" transform="translate(-84.7 -107.59)"/><polygon points="14.38 147.9 14.12 147.84 14.12 149.56 14.38 149.56 14.38 147.9"/><path d="M99.08,213l-.26.06v1.78l.26,0Z" transform="translate(-84.7 -107.59)"/><path d="M99.08,210.88h-.26v1.77l.26,0Z" transform="translate(-84.7 -107.59)"/><polygon points="14.38 154.17 14.12 154.17 14.12 155.92 14.38 156 14.38 154.17"/><path d="M99.08,238.51l-.26,0v1.67l.26.07Z" transform="translate(-84.7 -107.59)"/><polygon points="14.12 156.31 14.12 158.78 14.12 158.97 14.38 158.97 14.38 158.78 14.38 156.38 14.12 156.31"/><path d="M99.08,215.18l-.26,0v1.6h.26Z" transform="translate(-84.7 -107.59)"/><path d="M99.08,240.67l-.26-.06v1.66h.26Z" transform="translate(-84.7 -107.59)"/><path d="M99.08,259.58l-.26,0v1.77h.26Z" transform="translate(-84.7 -107.59)"/><path d="M99.08,251.2l-.26.05V253l.26,0Z" transform="translate(-84.7 -107.59)"/><path d="M99.08,249h-.26v1.82l.26-.05Z" transform="translate(-84.7 -107.59)"/><path d="M99.08,244.8l-.26.07v1.63l.26-.05Z" transform="translate(-84.7 -107.59)"/><path d="M99.08,242.64h-.26v1.83l.26-.07Z" transform="translate(-84.7 -107.59)"/><path d="M99.08,257.53h-.26v1.69l.26,0Z" transform="translate(-84.7 -107.59)"/><path d="M99.08,253.36l-.26,0V255l.26.07Z" transform="translate(-84.7 -107.59)"/><path d="M99.08,208.64l-.26.05v1.81h.26Z" transform="translate(-84.7 -107.59)"/><path d="M99.08,234.2h-.26V236l.26-.06Z" transform="translate(-84.7 -107.59)"/><path d="M99.08,230l-.26.07v1.63l.26-.05Z" transform="translate(-84.7 -107.59)"/><path d="M99.08,232l-.26,0v1.79h.26Z" transform="translate(-84.7 -107.59)"/><path d="M99.08,246.83l-.26,0v1.78h.26Z" transform="translate(-84.7 -107.59)"/><path d="M99.08,227.8h-.26v1.82l.26-.07Z" transform="translate(-84.7 -107.59)"/><path d="M99.08,217.18h-.26v1.65l.26-.05Z" transform="translate(-84.7 -107.59)"/><path d="M99.08,219.17l-.26.05v1.87h.26Z" transform="translate(-84.7 -107.59)"/><path d="M99.08,236.35l-.26.05v1.76l.26,0Z" transform="translate(-84.7 -107.59)"/><path d="M99.08,206.22v-1h-.26v1Z" transform="translate(-84.7 -107.59)"/><polygon points="19.17 157.76 19.22 157.39 14.38 156 14.12 155.92 9.02 154.45 8.96 154.83 14.12 156.31 14.38 156.38 19.17 157.76"/><polygon points="20.13 154.28 20.14 153.9 14.38 153.79 14.12 153.79 9.28 153.69 9.28 154.08 14.12 154.17 14.38 154.17 20.13 154.28"/><path d="M104.06,259.16v-.38l-5,.42-.26,0-6.1.54v.38l6.09-.53.26,0Z" transform="translate(-84.7 -107.59)"/><polygon points="18.89 149.02 18.93 148.65 14.38 147.52 14.12 147.45 9.23 146.24 9.19 146.62 14.12 147.84 14.38 147.9 18.89 149.02"/><path d="M103.83,252.78l0-.38-4.73.57-.26,0-3.42.41,0,.38,3.4-.41.26,0Z" transform="translate(-84.7 -107.59)"/><polygon points="19.25 149.9 19.25 149.52 14.38 149.56 14.12 149.56 8.87 149.6 8.87 149.98 14.12 149.94 14.38 149.94 19.25 149.9"/><path d="M104.47,250l-.08-.36c-.15.06-2.65.58-5.31,1.13l-.26.05-5.16,1,0,.38,5.12-1,.26-.05C101.72,250.65,104.35,250.11,104.47,250Z" transform="translate(-84.7 -107.59)"/><path d="M102.76,249v-.38l-3.68.08h-.26l-5.14.11v.39l5.14-.12h.26Z" transform="translate(-84.7 -107.59)"/><path d="M103.86,246v-.38l-4.77.79-.26.05-5.63.95,0,.38,5.6-1,.26,0Z" transform="translate(-84.7 -107.59)"/><path d="M103.54,242.43v-.38l-4.45.21h-.26c-2.28.11-4.58.24-4.86.31l0,.37c.27-.06,2.56-.19,4.82-.3h.26Z" transform="translate(-84.7 -107.59)"/><path d="M103.94,243.52l0-.38-4.82,1.27-.26.07c-2.07.55-4.1,1.1-4.59,1.25l0,.37c.49-.15,2.49-.69,4.54-1.23l.26-.07Z" transform="translate(-84.7 -107.59)"/><polygon points="18.82 134.19 18.86 133.81 14.38 132.7 14.12 132.63 9.16 131.41 9.12 131.78 14.12 133.02 14.38 133.09 18.82 134.19"/><path d="M103.76,238l0-.39-4.66.57-.26,0-3.49.42,0,.39,3.46-.42.26,0Z" transform="translate(-84.7 -107.59)"/><path d="M104.41,235.21l-.09-.37c-.15.07-2.6.58-5.24,1.12l-.26.06-5.23,1.06,0,.38,5.19-1.06.26-.05C101.7,235.81,104.28,235.27,104.41,235.21Z" transform="translate(-84.7 -107.59)"/><path d="M102.7,234.12v-.39l-3.62.08h-.26l-5.21.12v.38l5.21-.12h.26Z" transform="translate(-84.7 -107.59)"/><path d="M103.79,231.2v-.38l-4.7.78-.26.05-5.7,1,0,.37,5.67-1,.26,0Z" transform="translate(-84.7 -107.59)"/><path d="M103.47,227.6v-.38c-.18,0-2.23.09-4.39.2h-.26c-2.3.11-4.64.24-4.93.31l0,.38c.28-.07,2.6-.19,4.89-.31h.26Z" transform="translate(-84.7 -107.59)"/><path d="M103.88,228.68l0-.37-4.75,1.25-.26.07c-2.1.55-4.17,1.11-4.66,1.26l0,.38c.49-.16,2.53-.7,4.61-1.25l.26-.07Z" transform="translate(-84.7 -107.59)"/><path d="M103.56,214.64l0-.39-4.46.54-.26,0-3.69.44,0,.38,3.67-.44.26,0Z" transform="translate(-84.7 -107.59)"/><path d="M104.2,211.89l-.08-.36c-.15.06-2.48.55-5,1.08l-.26,0-5.43,1.11,0,.37,5.4-1.09.26-.06C101.63,212.47,104.08,212,104.2,211.89Z" transform="translate(-84.7 -107.59)"/><path d="M102.49,210.8v-.38l-3.41.08h-.26l-5.42.13V211l5.41-.12h.26Z" transform="translate(-84.7 -107.59)"/><path d="M103.59,207.89v-.38l-4.5.75-.26,0-5.91,1,0,.38,5.88-1,.26-.05Z" transform="translate(-84.7 -107.59)"/><path d="M103.27,206.41V206l-4.18.19h-.26c-2.36.12-4.84.25-5.13.32l0,.38c.28-.07,2.74-.2,5.09-.32h.26Z" transform="translate(-84.7 -107.59)"/><path d="M103.18,225.23l0-.38-4.08.49-.26,0-4.06.49,0,.38,4-.49.26,0Z" transform="translate(-84.7 -107.59)"/><path d="M103.83,222.49l-.09-.36c-.14.06-2.25.5-4.66,1l-.26.05L93,224.36l0,.38,5.77-1.17.26-.06C101.49,223,103.71,222.55,103.83,222.49Z" transform="translate(-84.7 -107.59)"/><path d="M102.12,221.4V221l-3,.07h-.26l-5.79.13v.39l5.79-.14h.26Z" transform="translate(-84.7 -107.59)"/><path d="M103.21,218.49v-.38l-4.13.68-.26.05-6.28,1.06,0,.38,6.25-1.06.26-.05C101.32,218.8,103.13,218.49,103.21,218.49Z" transform="translate(-84.7 -107.59)"/><path d="M102.89,217v-.38l-3.81.18h-.26c-2.47.12-5.2.26-5.51.34l0,.37c.3-.07,3-.21,5.47-.33h.26Z" transform="translate(-84.7 -107.59)"/><path class="cls-2" d="M174.35,156.61H164.8v10.45h9.84V156.61Zm-2.84,5.51-.3.3-.38-.37h-.58l.41.41h.53v.41H171l-.26.26v.15h-.41v-.53l-.4-.39v.56l.38.38-.3.29-.11-.11h-.36l-.11.11-.3-.29.38-.38v-.6l-.44.43v.53h-.41v-.15l-.26-.26h-.16v-.41h.54l.41-.41h-.59l-.37.37-.3-.3.11-.11v-.35l-.11-.11.3-.3.37.38h.59l-.41-.41h-.54v-.42h.16l.26-.26v-.15h.41v.53l.44.43v-.6l-.4-.37.29-.3.12.11h.38l.11-.11.3.3-.38.37v.57l.4-.4v-.53h.41v.15l.26.26h.15v.42h-.53l-.41.41h.58l.38-.38.3.3-.11.11V162Z" transform="translate(-84.7 -107.59)"/><polygon class="cls-3" points="89.94 59.47 80.1 59.47 80.1 49.02 80.08 49.02 80.08 59.72 89.94 59.72 89.94 59.47"/><rect class="cls-2" x="90.19" y="49.02" width="0.44" height="10.45"/><polygon class="cls-3" points="90.63 49.02 90.63 59.47 90.19 59.47 90.19 49.02 89.94 49.02 89.94 59.47 89.94 59.72 90.88 59.72 90.88 49.02 90.63 49.02"/><polygon class="cls-3" points="86.8 53.96 86.51 53.66 86.13 54.04 85.54 54.04 85.96 53.63 86.49 53.63 86.49 53.21 86.34 53.21 86.08 52.95 86.08 52.8 85.66 52.8 85.66 53.33 85.26 53.73 85.26 53.16 85.64 52.79 85.34 52.49 85.23 52.6 84.86 52.6 84.74 52.49 84.45 52.79 84.84 53.16 84.84 53.76 84.41 53.33 84.41 52.8 83.99 52.8 83.99 52.95 83.73 53.21 83.58 53.21 83.58 53.63 84.11 53.63 84.53 54.04 83.94 54.04 83.56 53.66 83.27 53.96 83.38 54.07 83.38 54.42 83.27 54.53 83.56 54.83 83.94 54.46 84.53 54.46 84.11 54.87 83.58 54.87 83.58 55.28 83.73 55.28 83.99 55.54 83.99 55.69 84.41 55.69 84.41 55.16 84.84 54.73 84.84 55.33 84.47 55.71 84.76 56 84.88 55.89 85.23 55.89 85.34 56 85.64 55.71 85.26 55.33 85.26 54.77 85.66 55.16 85.66 55.69 86.08 55.69 86.08 55.54 86.34 55.28 86.49 55.28 86.49 54.87 85.96 54.87 85.54 54.46 86.13 54.46 86.51 54.83 86.8 54.53 86.69 54.42 86.69 54.07 86.8 53.96"/><path class="cls-2" d="M174.64,150v-8.8a1.08,1.08,0,0,1-.87.45h-8.09a1.11,1.11,0,0,1-.88-.45V150h9.84Z" transform="translate(-84.7 -107.59)"/><path class="cls-2" d="M165.68,123.92h8.09a1.08,1.08,0,0,1,.87.45v-5.78H164.8v5.78A1.11,1.11,0,0,1,165.68,123.92Z" transform="translate(-84.7 -107.59)"/><path class="cls-3" d="M164.8,118.59h0v0Z" transform="translate(-84.7 -107.59)"/><path class="cls-3" d="M164.8,141.24V150h0Z" transform="translate(-84.7 -107.59)"/><polygon class="cls-2" points="90.19 32.97 90.19 42.45 90.63 42.45 90.63 11 90.19 11 90.19 17.46 90.19 32.97"/><path class="cls-3" d="M174.89,125.05v-6.46h-.25v5.78A1.09,1.09,0,0,1,174.89,125.05Z" transform="translate(-84.7 -107.59)"/><path class="cls-3" d="M174.89,150v-9.48a1.09,1.09,0,0,1-.25.68V150Z" transform="translate(-84.7 -107.59)"/><rect class="cls-3" x="90.63" y="11" width="0.25" height="31.44"/><path class="cls-2" d="M165.38,131a.68.68,0,0,1,.52.26h0l.39.43a.82.82,0,0,1,.35-.08h6.58a.85.85,0,0,1,.84.85v7.4a.85.85,0,0,1-.84.84h-6.58a.85.85,0,0,1-.85-.84v-6.91l-.85-.74s0,0,0,0l-.06,0h0a1,1,0,0,1-.09-.13v8.59a.87.87,0,0,0,.88.88h8.09a.87.87,0,0,0,.87-.88V125.05a.87.87,0,0,0-.87-.88h-8.09a.87.87,0,0,0-.88.88v6.24A.68.68,0,0,1,165.38,131Zm.43-5.58a.77.77,0,0,1,.85-.65h6.58a.77.77,0,0,1,.84.65v5.41a.77.77,0,0,1-.84.65h-6.58a.77.77,0,0,1-.85-.65Z" transform="translate(-84.7 -107.59)"/><path class="cls-3" d="M165.68,141.69h8.09a1.08,1.08,0,0,0,.87-.45,1.09,1.09,0,0,0,.25-.68V125.05a1.09,1.09,0,0,0-.25-.68,1.08,1.08,0,0,0-.87-.45h-8.09a1.11,1.11,0,0,0-.88.45v.68a.87.87,0,0,1,.88-.88h8.09a.87.87,0,0,1,.87.88v15.51a.87.87,0,0,1-.87.88h-8.09a.87.87,0,0,1-.88-.88v.68A1.11,1.11,0,0,0,165.68,141.69Z" transform="translate(-84.7 -107.59)"/><path class="cls-2" d="M166.66,140.41h6.58a.58.58,0,0,0,.59-.59v-7.4a.59.59,0,0,0-.59-.6h-6.58a.53.53,0,0,0-.17,0l1.95,2.17a.44.44,0,0,1-.33.74.42.42,0,0,1-.29-.12l-1.76-1.52v6.69A.59.59,0,0,0,166.66,140.41Zm.91-4.85a.94.94,0,1,1-.94.94A.94.94,0,0,1,167.57,135.56Z" transform="translate(-84.7 -107.59)"/><path class="cls-3" d="M166.49,131.86a.53.53,0,0,1,.17,0h6.58a.59.59,0,0,1,.59.6v7.4a.58.58,0,0,1-.59.59h-6.58a.59.59,0,0,1-.6-.59v-6.69l-.25-.22v6.91a.85.85,0,0,0,.85.84h6.58a.85.85,0,0,0,.84-.84v-7.4a.85.85,0,0,0-.84-.85h-6.58a.82.82,0,0,0-.35.08Z" transform="translate(-84.7 -107.59)"/><path class="cls-2" d="M166.43,131.15a.19.19,0,0,1,0-.08v-6a.15.15,0,0,1,0-.07c-.21.06-.37.2-.37.37v5.41C166.06,130.94,166.22,131.08,166.43,131.15Z" transform="translate(-84.7 -107.59)"/><path class="cls-2" d="M168.93,125.09v6a.13.13,0,0,1-.08.11h.38a.12.12,0,0,1-.08-.11v-6a.12.12,0,0,1,.12-.13h.45a.12.12,0,0,1,.12.13v6a.12.12,0,0,1-.08.11h.38a.13.13,0,0,1-.08-.11v-6a.13.13,0,0,1,.13-.13h.44a.13.13,0,0,1,.13.13v6a.13.13,0,0,1-.08.11h.38a.12.12,0,0,1-.08-.11v-5.95a.13.13,0,0,1,.13-.13h.43a.13.13,0,0,1,.13.13v5.95a.13.13,0,0,1-.08.11H172a.12.12,0,0,1-.07-.11v-5.94A.12.12,0,0,1,172,125h.44a.12.12,0,0,1,.12.13v5.94a.12.12,0,0,1-.08.11h.39a.13.13,0,0,1-.08-.11v-5.93a.13.13,0,0,1,.13-.13h.43a.12.12,0,0,1,.12.13v5.93a.11.11,0,0,1,0,.08c.22-.07.37-.21.37-.37v-5.41c0-.22-.27-.4-.59-.4h-4.43A.12.12,0,0,1,168.93,125.09Z" transform="translate(-84.7 -107.59)"/><path class="cls-2" d="M167.1,125.07v6a.12.12,0,0,1-.07.11h.37a.12.12,0,0,1-.08-.11v-6a.11.11,0,0,1,.1-.11H167A.1.1,0,0,1,167.1,125.07Z" transform="translate(-84.7 -107.59)"/><path class="cls-2" d="M168,125.08v6a.13.13,0,0,1-.08.11h.37a.13.13,0,0,1-.08-.11v-6a.12.12,0,0,1,.13-.12h-.44A.12.12,0,0,1,168,125.08Z" transform="translate(-84.7 -107.59)"/><path class="cls-3" d="M166.66,131.43h6.58a.77.77,0,0,0,.84-.65v-5.41a.77.77,0,0,0-.84-.65h-6.58a.77.77,0,0,0-.85.65v5.41A.77.77,0,0,0,166.66,131.43Zm-.6-6.06c0-.17.16-.31.37-.37a.14.14,0,0,1,.1,0H167l.05,0h.39l0,0h.45l0,0h5.32c.32,0,.59.18.59.4v5.41c0,.16-.15.3-.37.37a.11.11,0,0,1-.09,0h-.43l-.05,0h-.39l0,0H172l-.05,0h-.38l-.05,0h-.43l-.05,0h-.38l-.05,0h-.44l-.05,0h-.38l0,0h-.45l0,0h-.38l0,0h-.44l-.05,0h-.37l-.05,0h-.45l0,0H167l-.05,0h-.45a.14.14,0,0,1-.1,0c-.21-.07-.37-.21-.37-.37Z" transform="translate(-84.7 -107.59)"/><path class="cls-2" d="M166,132.43c.18.12.46.33.64.44-.1-.17-.27-.4-.39-.56L166,132a.66.66,0,0,1-.28.27Z" transform="translate(-84.7 -107.59)"/><polygon class="cls-3" points="80.19 24.52 80.19 24.52 80.18 24.51 80.19 24.52 80.19 24.52"/><path class="cls-2" d="M166,132.75l2,1.72h0a.19.19,0,0,0,.27,0,.18.18,0,0,0,0-.26l-1.79-2c.45.61.59.82.45,1S166.62,133.18,166,132.75Z" transform="translate(-84.7 -107.59)"/><path class="cls-3" d="M165.81,132.91l.25.22,1.76,1.52a.42.42,0,0,0,.29.12.44.44,0,0,0,.33-.74l-1.95-2.17-.18-.21-.39-.43h0a.65.65,0,0,1,.16.42.7.7,0,0,1-.09.32l.27.36c.12.16.29.39.39.56-.18-.11-.46-.32-.64-.44l-.3-.21a.66.66,0,0,1-.31.09.71.71,0,0,1-.43-.16s0,0,0,0Zm1.11.24c.14-.13,0-.34-.45-1l1.79,2a.18.18,0,0,1,0,.26.19.19,0,0,1-.27,0h0l-2-1.72C166.62,133.18,166.8,133.26,166.92,133.15Z" transform="translate(-84.7 -107.59)"/><path class="cls-2" d="M165.38,132.06a.43.43,0,0,0,.43-.43.43.43,0,0,0-.86,0A.43.43,0,0,0,165.38,132.06Z" transform="translate(-84.7 -107.59)"/><path class="cls-3" d="M164.89,132.1h0l.06,0a.71.71,0,0,0,.43.16A.74.74,0,0,0,166,132a.7.7,0,0,0,.09-.32.65.65,0,0,0-.16-.42.66.66,0,0,0-1.1.08V132A1,1,0,0,0,164.89,132.1Zm.49-.9a.43.43,0,0,1,.43.43.43.43,0,0,1-.86,0A.43.43,0,0,1,165.38,131.2Z" transform="translate(-84.7 -107.59)"/><rect class="cls-2" x="81.95" y="17.61" width="0.2" height="5.75"/><path class="cls-3" d="M166.4,131.07a.19.19,0,0,0,0,.08.14.14,0,0,0,.1,0H167l.05,0a.12.12,0,0,0,.07-.11v-6a.1.1,0,0,0-.07-.1l-.05,0h-.45a.14.14,0,0,0-.1,0,.15.15,0,0,0,0,.07Zm.25-.12V125.2h.2V131Z" transform="translate(-84.7 -107.59)"/><rect class="cls-2" x="82.86" y="17.62" width="0.2" height="5.74"/><path class="cls-3" d="M167.32,125.08v6a.12.12,0,0,0,.08.11l0,0h.45l.05,0a.13.13,0,0,0,.08-.11v-6a.12.12,0,0,0-.1-.11l0,0h-.45l0,0A.11.11,0,0,0,167.32,125.08Zm.25,5.87V125.2h.2V131Z" transform="translate(-84.7 -107.59)"/><rect class="cls-2" x="83.78" y="17.63" width="0.2" height="5.73"/><path class="cls-3" d="M168.23,125.09v6a.13.13,0,0,0,.08.11l.05,0h.44l0,0a.13.13,0,0,0,.08-.11v-6a.12.12,0,0,0-.12-.12h-.45A.12.12,0,0,0,168.23,125.09Zm.25,5.86v-5.74h.2V131Z" transform="translate(-84.7 -107.59)"/><rect class="cls-2" x="84.69" y="17.63" width="0.19" height="5.72"/><path class="cls-3" d="M169.84,131.07v-6a.12.12,0,0,0-.12-.13h-.45a.12.12,0,0,0-.12.13v6a.12.12,0,0,0,.08.11l0,0h.45l0,0A.12.12,0,0,0,169.84,131.07Zm-.44-5.85h.19V131h-.19Z" transform="translate(-84.7 -107.59)"/><rect class="cls-2" x="85.61" y="17.64" width="0.19" height="5.71"/><path class="cls-3" d="M170.76,131.07v-6a.13.13,0,0,0-.13-.13h-.44a.13.13,0,0,0-.13.13v6a.13.13,0,0,0,.08.11l.05,0h.44l.05,0A.13.13,0,0,0,170.76,131.07Zm-.45-5.84h.2V131h-.2Z" transform="translate(-84.7 -107.59)"/><rect class="cls-2" x="86.53" y="17.65" width="0.19" height="5.7"/><path class="cls-3" d="M171.67,131.07v-5.95a.13.13,0,0,0-.13-.13h-.43a.13.13,0,0,0-.13.13v5.95a.12.12,0,0,0,.08.11l.05,0h.43l.05,0A.13.13,0,0,0,171.67,131.07Zm-.44-5.83h.19V131h-.19Z" transform="translate(-84.7 -107.59)"/><rect class="cls-2" x="87.44" y="17.66" width="0.19" height="5.69"/><path class="cls-3" d="M172.58,131.07v-5.94a.12.12,0,0,0-.12-.13H172a.12.12,0,0,0-.12.13v5.94a.12.12,0,0,0,.07.11l.05,0h.44l0,0A.12.12,0,0,0,172.58,131.07Zm-.43-5.82h.18V131h-.18Z" transform="translate(-84.7 -107.59)"/><rect class="cls-2" x="88.36" y="17.67" width="0.18" height="5.69"/><path class="cls-3" d="M173.49,125.14a.12.12,0,0,0-.12-.13h-.43a.13.13,0,0,0-.13.13v5.93a.13.13,0,0,0,.08.11l.05,0h.43a.11.11,0,0,0,.09,0,.11.11,0,0,0,0-.08Zm-.43.12h.18V131h-.18Z" transform="translate(-84.7 -107.59)"/><path class="cls-2" d="M167.57,137.18a.69.69,0,1,0-.69-.68A.69.69,0,0,0,167.57,137.18Zm0-1.3a.62.62,0,0,1,0,1.23.62.62,0,1,1,0-1.23Z" transform="translate(-84.7 -107.59)"/><path class="cls-3" d="M167.57,137.43a.94.94,0,1,0-.94-.93A.94.94,0,0,0,167.57,137.43Zm0-1.62a.69.69,0,1,1-.69.69A.69.69,0,0,1,167.57,135.81Z" transform="translate(-84.7 -107.59)"/><path class="cls-2" d="M167.57,136.86a.36.36,0,0,0,.36-.36.37.37,0,0,0-.36-.37.38.38,0,0,0-.37.37A.37.37,0,0,0,167.57,136.86Z" transform="translate(-84.7 -107.59)"/><path class="cls-3" d="M167.57,137.11a.62.62,0,0,0,0-1.23.62.62,0,1,0,0,1.23Zm0-1a.37.37,0,0,1,.36.37.36.36,0,0,1-.36.36.37.37,0,0,1-.37-.36A.38.38,0,0,1,167.57,136.13Z" transform="translate(-84.7 -107.59)"/><polygon class="cls-4" points="140.99 77.01 132.6 77.01 132.6 77.01 140.99 77.01"/><rect class="cls-4" x="132.81" y="78.79" width="0.48"/><polygon class="cls-4" points="111.98 77.89 114.57 77.89 114.57 77.89 111.98 77.89"/><polygon class="cls-4" points="133.59 78.8 138.4 78.79 133.59 78.79 133.59 78.8"/><polygon class="cls-4" points="132.29 77.01 126.49 77.01 132.29 77.01 132.29 77.01"/><path d="M217.3,184.6h0l1.61-1.46a.1.1,0,0,0,0-.14.09.09,0,0,0-.08,0,.11.11,0,0,0-.07,0L217,184.6h.3Z" transform="translate(-84.7 -107.59)"/><path d="M205.08,184.6h.31L203.61,183a.09.09,0,0,0-.07,0,.09.09,0,0,0-.07,0,.1.1,0,0,0,0,.14Z" transform="translate(-84.7 -107.59)"/><path d="M218,186.38h0l.78.71a.1.1,0,1,0,.14-.15l-.61-.56H218Z" transform="translate(-84.7 -107.59)"/><path d="M203.47,186.94a.11.11,0,0,0,0,.15.1.1,0,0,0,.14,0l.78-.71h-.3Z" transform="translate(-84.7 -107.59)"/><polygon class="cls-2" points="138.4 77.66 138.4 77.69 140.79 77.69 140.79 77.22 112.19 77.22 112.19 77.69 114.57 77.69 114.57 77.66 138.4 77.66"/><polygon points="111.98 77.01 111.98 77.89 114.57 77.89 114.57 77.69 112.19 77.69 112.19 77.22 140.79 77.22 140.79 77.69 138.4 77.69 138.4 77.89 138.4 77.89 140.99 77.89 140.99 77.01 132.6 77.01 132.29 77.01 126.49 77.01 120.68 77.01 120.38 77.01 111.98 77.01"/><rect class="cls-2" x="114.78" y="77.87" width="23.42" height="0.72"/><path d="M223.11,185.28v0H199.28v.23h0v.9h5.59l-.05-.1,0-.08H217.6l0,.08-.05.1h5.6v-.9h0Zm-23.63.9v-.72H222.9v.72Z" transform="translate(-84.7 -107.59)"/><polygon class="cls-2" points="120.4 78.82 121 80.11 131.98 80.11 132.57 78.82 120.4 78.82"/><path d="M217.56,186.28l0-.08H204.79l0,.08.05.1h0l.7,1.52h11.25l.69-1.52h0ZM205.7,187.7l-.59-1.29h12.17l-.6,1.29Z" transform="translate(-84.7 -107.59)"/><path class="cls-2" d="M232.25,131.09h-7.9a2.16,2.16,0,0,1-1.91-1.17v7.4a1.92,1.92,0,0,0,1.91,1.91h7.9a1.91,1.91,0,0,0,1.9-1.91v-7.4A2.15,2.15,0,0,1,232.25,131.09Z" transform="translate(-84.7 -107.59)"/><path d="M234.15,137.34v0a1.91,1.91,0,0,1-1.9,1.91h-7.9a1.92,1.92,0,0,1-1.91-1.91v-7.4a2.19,2.19,0,0,1-.25-1v8.38a2.16,2.16,0,0,0,2.16,2.16h7.9a2.16,2.16,0,0,0,2-1.45A2,2,0,0,1,234.15,137.34Z" transform="translate(-84.7 -107.59)"/><path class="cls-2" d="M224.35,130.84h7.9a1.91,1.91,0,0,0,1.9-1.9v-1.12H222.44v1.12A1.91,1.91,0,0,0,224.35,130.84Z" transform="translate(-84.7 -107.59)"/><path d="M222.44,129.92a2.16,2.16,0,0,0,1.91,1.17h7.9a2.15,2.15,0,0,0,1.9-1.17v-1a1.91,1.91,0,0,1-1.9,1.9h-7.9a1.91,1.91,0,0,1-1.91-1.9v-1.12h-.25v1.12A2.19,2.19,0,0,0,222.44,129.92Z" transform="translate(-84.7 -107.59)"/><polygon class="cls-2" points="161.35 19.97 161.35 19.98 161.35 31.64 161.35 31.87 161.35 43.6 161.35 43.85 161.35 55.55 162.08 55.55 162.08 19.25 137.7 19.25 137.7 19.98 149.45 19.98 149.45 19.97 161.35 19.97"/><polygon points="137.74 20.23 149.45 20.23 149.45 19.98 137.7 19.98 137.7 19.25 162.08 19.25 162.08 55.55 161.35 55.55 161.35 55.8 162.33 55.8 162.33 19 137.45 19 137.45 20.23 137.49 20.23 137.74 20.23"/><path class="cls-2" d="M242.54,137.31v-6.22h-6.23a2.16,2.16,0,0,1-1.91-1.17v7.42a1.88,1.88,0,0,0,1.88,1.87h7.43A2.15,2.15,0,0,1,242.54,137.31Z" transform="translate(-84.7 -107.59)"/><polygon points="160.63 19.98 161.35 19.98 161.35 19.97 149.45 19.97 149.45 19.98 149.7 19.98 160.63 19.98"/><path d="M236.31,139.23h7.42l0,0h-7.43a1.88,1.88,0,0,1-1.88-1.87v-7.42a2.19,2.19,0,0,1-.25-1v8.4a2,2,0,0,0,.13.69,2,2,0,0,0,.5.81,2,2,0,0,0,.84.51A1.92,1.92,0,0,1,236.31,139.23Z" transform="translate(-84.7 -107.59)"/><path class="cls-2" d="M242.54,149.28v-7.9a2.13,2.13,0,0,1,1.17-1.9h-7.4a1.91,1.91,0,0,0-1.91,1.9v7.9a1.91,1.91,0,0,0,1.91,1.9h7.4A2.13,2.13,0,0,1,242.54,149.28Z" transform="translate(-84.7 -107.59)"/><path d="M236.31,151.18a1.91,1.91,0,0,1-1.91-1.9v-7.9a1.91,1.91,0,0,1,1.91-1.9h7.4a1.73,1.73,0,0,1,.31-.14l-.29-.11h-7.42a1.92,1.92,0,0,0-.69.12,2.15,2.15,0,0,0-1.47,2v7.9a2.15,2.15,0,0,0,1.46,2A2,2,0,0,1,236.31,151.18Z" transform="translate(-84.7 -107.59)"/><path class="cls-2" d="M244.69,139.48a1.91,1.91,0,0,0-1.9,1.9v7.9a1.91,1.91,0,0,0,1.9,1.9h1.11v-11.7Z" transform="translate(-84.7 -107.59)"/><path d="M244.69,139.46a1.89,1.89,0,0,1-.67-.12,1.73,1.73,0,0,0-.31.14,2.13,2.13,0,0,0-1.17,1.9v7.9a2.13,2.13,0,0,0,1.17,1.9h1a1.91,1.91,0,0,1-1.9-1.9v-7.9a1.91,1.91,0,0,1,1.9-1.9h1.11v11.7h.25V139.46Z" transform="translate(-84.7 -107.59)"/><path class="cls-2" d="M244.69,139.21h1.11V127.82H234.4v1.12a1.91,1.91,0,0,0,1.91,1.9h6.48v6.47A1.91,1.91,0,0,0,244.69,139.21Z" transform="translate(-84.7 -107.59)"/><path d="M234.4,129.92a2.16,2.16,0,0,0,1.91,1.17h6.23v6.22a2.15,2.15,0,0,0,1.17,1.9l0,0,.29.11a1.89,1.89,0,0,0,.67.12h1.36V127.57h-11.9v1.37A2.19,2.19,0,0,0,234.4,129.92Zm1.91.92a1.91,1.91,0,0,1-1.91-1.9v-1.12h11.4v11.39h-1.11a1.91,1.91,0,0,1-1.9-1.9v-6.47Z" transform="translate(-84.7 -107.59)"/><path class="cls-2" d="M234.4,153.34v7.9a1.91,1.91,0,0,0,1.91,1.9h7.4a2.15,2.15,0,0,1-1.17-1.9v-7.9a2.16,2.16,0,0,1,1.17-1.91h-7.4A1.92,1.92,0,0,0,234.4,153.34Z" transform="translate(-84.7 -107.59)"/><path d="M243.71,163.14h-7.4a1.91,1.91,0,0,1-1.91-1.9v-7.9a1.92,1.92,0,0,1,1.91-1.91h7.4a2.19,2.19,0,0,1,1-.25h-8.38a2,2,0,0,0-.7.13,2.15,2.15,0,0,0-1.46,2v7.9a2.16,2.16,0,0,0,2.16,2.15h8.38A2.07,2.07,0,0,1,243.71,163.14Z" transform="translate(-84.7 -107.59)"/><path class="cls-2" d="M244.69,163.14h1.11V151.43h-1.11a1.91,1.91,0,0,0-1.9,1.91v7.9A1.91,1.91,0,0,0,244.69,163.14Z" transform="translate(-84.7 -107.59)"/><path d="M246.05,163.14v-12h-1.36a2.19,2.19,0,0,0-1,.25,2.16,2.16,0,0,0-1.17,1.91v7.9a2.15,2.15,0,0,0,1.17,1.9,2.07,2.07,0,0,0,1,.25h1.36Zm-3.26-9.8a1.91,1.91,0,0,1,1.9-1.91h1.11v11.71h-1.11a1.91,1.91,0,0,1-1.9-1.9Z" transform="translate(-84.7 -107.59)"/><path class="cls-2" d="M221.8,158.06a5.92,5.92,0,1,0-6.36-5.9A6.15,6.15,0,0,0,221.8,158.06Z" transform="translate(-84.7 -107.59)"/><path class="cls-3" d="M221.8,158.31a6.17,6.17,0,1,0-6.61-6.15A6.41,6.41,0,0,0,221.8,158.31Zm0-12.05a5.92,5.92,0,1,1-6.36,5.9A6.15,6.15,0,0,1,221.8,146.26Z" transform="translate(-84.7 -107.59)"/><path class="cls-2" d="M192.94,129.61c.84.21,1.7.44,2,.26a.19.19,0,0,0,.07-.14,2.27,2.27,0,0,0-.17-1.12c-.05-.17-.11-.34-.15-.54l-4.92,0v1.2l.13-.05A6.81,6.81,0,0,1,192.94,129.61Z" transform="translate(-84.7 -107.59)"/><path class="cls-2" d="M197.64,139.89a4.79,4.79,0,0,0-1.61.57,11.24,11.24,0,0,1-2.87,1l6.32,0C199.17,140.82,198.5,139.74,197.64,139.89Z" transform="translate(-84.7 -107.59)"/><path class="cls-2" d="M191.59,133c1.1-.44,3.67.29,5.21,1l2.48-.26a4.64,4.64,0,0,0,.2-1.06.68.68,0,0,1,.34-.6c.6-.3,1.82.5,2.63,1l.08.06,0-2.63-.11-.05-4.75.67a1.14,1.14,0,0,1-.1.61c-.31.71-1.94.45-3.83.15l-.67-.11-3.24.46-.06.07,0,2.06A5.41,5.41,0,0,1,191.59,133Z" transform="translate(-84.7 -107.59)"/><path class="cls-2" d="M193.76,131.72l.14,0,3.5-.49a2,2,0,0,0-.58-1,2,2,0,0,1-.68-1.39.36.36,0,0,1,.19-.31c.7-.43,3.71.71,6.18,1.78V128l-7.59,0c0,.16.08.32.13.46a2.6,2.6,0,0,1,.18,1.22.39.39,0,0,1-.18.32.77.77,0,0,1-.46.11,7.87,7.87,0,0,1-1.7-.33,6.73,6.73,0,0,0-2.95-.36l-.2.08,0,2.42.2-.25C190.41,131.18,192,131.44,193.76,131.72Z" transform="translate(-84.7 -107.59)"/><path class="cls-2" d="M199.55,133.76a1.94,1.94,0,0,1-.92,1.34.83.83,0,0,1-.29.06,1.06,1.06,0,0,1-.69-.31,5.16,5.16,0,0,0-1.33-.75l-6.49.66-.06.07v2.3c2-1.94,6.42-.44,8.13.15a1,1,0,0,0,.89,0c.51-.32.65-1.26.77-2a3.54,3.54,0,0,1,.26-1.08.3.3,0,0,1,.25-.14h0c.58,0,1.78,1.7,2.47,2.88l0-3.39-.07,0Z" transform="translate(-84.7 -107.59)"/><path class="cls-2" d="M199,137.4l-.09.07a1,1,0,0,1-.55.15,2,2,0,0,1-.55-.1l-.33-.12-7.66,0-.05,0v2.79c1.7-2,4.24-2.82,5.56-2.28,1.59.64,4.13,1.15,4.57.2.1-.21.23-.25.33-.24.73,0,1.78,3,1.94,3.48h.38l0-4,0,0Z" transform="translate(-84.7 -107.59)"/><path class="cls-2" d="M200.25,138.2h0s-.07.05-.09.1c-.54,1.17-3.29.57-4.89-.08-1.14-.46-3.77.23-5.46,2.42v.87h2.05a12.64,12.64,0,0,0,4.06-1.26,5,5,0,0,1,1.68-.6c1.07-.17,1.85,1.16,2.16,1.81h2.18C201.43,139.92,200.6,138.22,200.25,138.2Z" transform="translate(-84.7 -107.59)"/><path class="cls-3" d="M189.56,141.77l13.15-.09h.13l-.09-13.79v-.12l-13.15.08h-.13l.09,13.79Zm.17-9.35-.1-.08h0l-.1-.07.22-.28,0-2.42-.07,0-.1-.22.17-.07v-1.2l4.92,0v0l.25-.06a.24.24,0,0,0,0,.08l7.59,0v2.3l.18.07-.1.23-.08,0,0,2.63.2.12-.07.11h0l-.07.1-.06,0,0,3.39c.08.15.17.29.23.42l-.11.06h0l-.11.06v0l0,4h-.38l0,.07-.24.08c0-.05,0-.1-.05-.14h-2.18l0,.07-.23.11a1,1,0,0,0-.09-.18l-6.32,0c-.38.09-.79.18-1.27.26l0-.25h-2v-.87l0,0-.2-.15c.07-.09.15-.16.22-.25v-2.79l0,0-.2-.16.22-.22v-2.3l0,0-.1-.08h0l-.09-.08.22-.25,0-2.06Z" transform="translate(-84.7 -107.59)"/><path class="cls-2" d="M197.32,131.72a.82.82,0,0,0,.08-.47l-3.5.49C195.42,132,197.1,132.24,197.32,131.72Z" transform="translate(-84.7 -107.59)"/><path class="cls-2" d="M196.46,128.75a.14.14,0,0,0-.07.11,1.81,1.81,0,0,0,.62,1.22,2.23,2.23,0,0,1,.64,1.13l4.75-.67C199.14,129.14,196.93,128.46,196.46,128.75Z" transform="translate(-84.7 -107.59)"/><path class="cls-2" d="M190.14,131.9q-.18.21-.33.42l3.24-.46C191.74,131.66,190.45,131.52,190.14,131.9Z" transform="translate(-84.7 -107.59)"/><polygon class="cls-2" points="104.92 24.75 104.92 24.75 104.92 24.75 104.92 24.75"/><path class="cls-3" d="M190.14,131.9c.31-.38,1.6-.24,2.91,0l.67.11c1.89.3,3.52.56,3.83-.15a1.14,1.14,0,0,0,.1-.61,2.23,2.23,0,0,0-.64-1.13,1.81,1.81,0,0,1-.62-1.22.14.14,0,0,1,.07-.11c.47-.29,2.68.39,5.94,1.79l.11.05.08,0,.1-.23-.18-.07c-2.47-1.07-5.48-2.21-6.18-1.78a.36.36,0,0,0-.19.31,2,2,0,0,0,.68,1.39,2,2,0,0,1,.58,1,.82.82,0,0,1-.08.47c-.22.52-1.9.27-3.42,0l-.14,0c-1.73-.28-3.35-.54-3.81,0l-.2.25-.22.28.1.07h0l.1.08,0,0,.06-.07Q190,132.11,190.14,131.9Z" transform="translate(-84.7 -107.59)"/><path class="cls-2" d="M191.68,133.25a5.6,5.6,0,0,0-1.85,1.51l6.49-.66C194.8,133.44,192.58,132.89,191.68,133.25Z" transform="translate(-84.7 -107.59)"/><path class="cls-2" d="M198.54,134.87a1.66,1.66,0,0,0,.74-1.08l-2.48.26a4.76,4.76,0,0,1,1,.61A.67.67,0,0,0,198.54,134.87Z" transform="translate(-84.7 -107.59)"/><path class="cls-2" d="M202.31,133.37c-.67-.44-1.91-1.25-2.38-1-.12.06-.18.19-.2.4a4.92,4.92,0,0,1-.18,1l2.91-.29Z" transform="translate(-84.7 -107.59)"/><polygon class="cls-2" points="104.94 27.19 104.94 27.19 104.94 27.19 104.94 27.19"/><polygon class="cls-2" points="117.95 25.86 117.95 25.86 117.95 25.86 117.95 25.86"/><path class="cls-3" d="M199.82,132.13a.68.68,0,0,0-.34.6,4.64,4.64,0,0,1-.2,1.06,1.66,1.66,0,0,1-.74,1.08.67.67,0,0,1-.72-.21,4.76,4.76,0,0,0-1-.61c-1.54-.74-4.11-1.47-5.21-1a5.41,5.41,0,0,0-1.82,1.43l-.22.25.09.08h0l.1.08,0,0,.06-.07a5.6,5.6,0,0,1,1.85-1.51c.9-.36,3.12.19,4.64.85a5.16,5.16,0,0,1,1.33.75,1.06,1.06,0,0,0,.69.31.83.83,0,0,0,.29-.06,1.94,1.94,0,0,0,.92-1.34,4.92,4.92,0,0,0,.18-1c0-.21.08-.34.2-.4.47-.23,1.71.58,2.38,1l.15.1.07,0,.06,0,.07-.1h0l.07-.11-.2-.12-.08-.06C201.64,132.63,200.42,131.83,199.82,132.13Z" transform="translate(-84.7 -107.59)"/><path class="cls-2" d="M200.09,134.27a.06.06,0,0,0-.05,0,3.68,3.68,0,0,0-.22,1,3.49,3.49,0,0,1-.8,2.13l3.52,0C201.81,136,200.51,134.28,200.09,134.27Z" transform="translate(-84.7 -107.59)"/><path class="cls-2" d="M189.84,137.43l7.66,0C195.59,136.76,191.52,135.52,189.84,137.43Z" transform="translate(-84.7 -107.59)"/><polygon class="cls-2" points="117.98 29.79 117.98 29.79 117.98 29.79 117.98 29.79"/><path class="cls-3" d="M200.09,134h0a.3.3,0,0,0-.25.14,3.54,3.54,0,0,0-.26,1.08c-.12.76-.26,1.7-.77,2a1,1,0,0,1-.89,0c-1.71-.59-6.15-2.09-8.13-.15l-.22.22.2.16,0,0,.05,0c1.68-1.91,5.75-.67,7.66,0l.33.12a2,2,0,0,0,.55.1,1,1,0,0,0,.55-.15l.09-.07a3.49,3.49,0,0,0,.8-2.13,3.68,3.68,0,0,1,.22-1,.06.06,0,0,1,.05,0c.42,0,1.72,1.75,2.45,3.11l0,0v0l.11-.06h0l.11-.06c-.06-.13-.15-.27-.23-.42C201.87,135.72,200.67,134,200.09,134Z" transform="translate(-84.7 -107.59)"/><path class="cls-3" d="M200.26,138c-.1,0-.23,0-.33.24-.44.95-3,.44-4.57-.2-1.32-.54-3.86.28-5.56,2.28-.07.09-.15.16-.22.25l.2.15,0,0c1.69-2.19,4.32-2.88,5.46-2.42,1.6.65,4.35,1.25,4.89.08,0-.05.05-.1.09-.1h0c.35,0,1.18,1.72,1.69,3.24,0,0,0,.09.05.14l.24-.08,0-.07C202,141,201,138,200.26,138Z" transform="translate(-84.7 -107.59)"/><path class="cls-3" d="M197.6,139.64a5,5,0,0,0-1.68.6,12.64,12.64,0,0,1-4.06,1.26h0l0,.25c.48-.08.89-.17,1.27-.26a11.24,11.24,0,0,0,2.87-1,4.79,4.79,0,0,1,1.61-.57c.86-.15,1.53.93,1.84,1.56a1,1,0,0,1,.09.18l.23-.11,0-.07C199.45,140.8,198.67,139.47,197.6,139.64Z" transform="translate(-84.7 -107.59)"/><path class="cls-3" d="M192.88,129.85a7.87,7.87,0,0,0,1.7.33.77.77,0,0,0,.46-.11.39.39,0,0,0,.18-.32,2.6,2.6,0,0,0-.18-1.22c0-.14-.09-.3-.13-.46a.24.24,0,0,1,0-.08l-.25.06v0c0,.2.1.37.15.54a2.27,2.27,0,0,1,.17,1.12.19.19,0,0,1-.07.14c-.26.18-1.12-.05-2-.26a6.81,6.81,0,0,0-3.08-.36l-.13.05-.17.07.1.22.07,0,.2-.08A6.73,6.73,0,0,1,192.88,129.85Z" transform="translate(-84.7 -107.59)"/><path class="cls-2" d="M193.76,127.2h5.08a1.17,1.17,0,0,0,1.25-1.07v-4.36a1.06,1.06,0,0,0-.66-.94h-6.25a1.07,1.07,0,0,0-.67.94v4.36A1.17,1.17,0,0,0,193.76,127.2Z" transform="translate(-84.7 -107.59)"/><path class="cls-2" d="M199.46,120.58l.28,0c.29,0,.34-.07.35-.08v-.62s-.06,0-.35-.08a7.58,7.58,0,0,0-.9,0h-5.08a7.28,7.28,0,0,0-.89,0c-.3,0-.35.07-.36.08v.62s.06,0,.36.08l.28,0h6.31Z" transform="translate(-84.7 -107.59)"/><path class="cls-3" d="M193.76,127.45h5.08a1.42,1.42,0,0,0,1.5-1.32v-4.36a1.26,1.26,0,0,0-.49-1c.22,0,.49-.09.49-.32v-.62c0-.26-.35-.3-.57-.33a8.14,8.14,0,0,0-.93,0h-5.08a8.14,8.14,0,0,0-.93,0c-.24,0-.57.07-.57.33v.62c0,.23.27.29.5.32a1.27,1.27,0,0,0-.5,1v4.36A1.42,1.42,0,0,0,193.76,127.45Zm-1.25-5.68a1.07,1.07,0,0,1,.67-.94h0v-.25l-.28,0c-.3,0-.35-.07-.36-.08v-.62s.06,0,.36-.08a7.28,7.28,0,0,1,.89,0h5.08a7.58,7.58,0,0,1,.9,0c.29,0,.34.07.35.08v.62s-.06,0-.35.08l-.28,0h0v.25h0a1.06,1.06,0,0,1,.66.94v4.36a1.17,1.17,0,0,1-1.25,1.07h-5.08a1.17,1.17,0,0,1-1.25-1.07Z" transform="translate(-84.7 -107.59)"/><polygon class="cls-3" points="114.76 13.24 114.76 12.99 114.75 12.99 108.44 12.99 108.44 12.99 108.44 13.24 108.47 13.24 114.72 13.24 114.76 13.24"/><path class="cls-2" d="M199.93,149.81c.29,0,.34-.08.35-.09v-.62s-.06,0-.35-.08l-.28,0-6.31.08-.28,0c-.29,0-.34.08-.35.09v.62a1.21,1.21,0,0,0,.35.08,8.16,8.16,0,0,0,.9,0l5.07-.07A7.58,7.58,0,0,0,199.93,149.81Z" transform="translate(-84.7 -107.59)"/><path class="cls-2" d="M200.26,147.8l-.06-4.36a1.17,1.17,0,0,0-1.24-1.06h0l-5.08.07a1.31,1.31,0,0,0-.88.33,1,1,0,0,0-.35.76l.05,4.36a1.07,1.07,0,0,0,.68.93l6.25-.08A1.08,1.08,0,0,0,200.26,147.8Z" transform="translate(-84.7 -107.59)"/><path class="cls-3" d="M200,150.05c.24,0,.57-.07.56-.33v-.62c0-.24-.26-.29-.49-.32a1.28,1.28,0,0,0,.48-1l-.06-4.37a1.42,1.42,0,0,0-1.49-1.3h0l-5.07.07a1.57,1.57,0,0,0-1.05.39,1.24,1.24,0,0,0-.43.95l.05,4.36a1.27,1.27,0,0,0,.51,1c-.23,0-.49.1-.49.33v.62c0,.26.33.3.57.32a6.21,6.21,0,0,0,.79,0H194l5.08-.07A6.22,6.22,0,0,0,200,150.05Zm-6.91-.15a1.21,1.21,0,0,1-.35-.08v-.62s.06,0,.35-.09l.28,0h0v-.25h0a1.07,1.07,0,0,1-.68-.93l-.05-4.36a1,1,0,0,1,.35-.76,1.31,1.31,0,0,1,.88-.33l5.08-.07h0a1.17,1.17,0,0,1,1.24,1.06l.06,4.36a1.08,1.08,0,0,1-.65.95h0V149h0l.28,0c.29,0,.35.07.35.08v.62s-.06.05-.35.09a7.58,7.58,0,0,1-.9.05l-5.07.07A8.16,8.16,0,0,1,193.06,149.9Z" transform="translate(-84.7 -107.59)"/><polygon class="cls-3" points="114.94 41.41 114.94 41.16 114.9 41.16 108.65 41.24 108.62 41.24 108.63 41.49 108.63 41.49 114.93 41.41 114.94 41.41"/><path class="cls-2" d="M164.81,150.29v6.07h9.29v-6.07Zm1.87,4.13h0a1.09,1.09,0,0,1-1.1-1.07,1.08,1.08,0,0,1,.3-.78,1.12,1.12,0,0,1,.77-.34h0a1.1,1.1,0,0,1,0,2.19Zm5.93.49a2.29,2.29,0,0,1-1.61.72h-.06a2.32,2.32,0,0,1-2.31-2.25,2.32,2.32,0,0,1,2.25-2.36,2.31,2.31,0,0,1,2.36,2.25A2.27,2.27,0,0,1,172.61,154.91Z" transform="translate(-84.7 -107.59)"/><polygon class="cls-3" points="89.39 49.02 89.39 48.77 80.11 48.77 80.11 42.7 89.39 42.7 89.39 42.45 80.1 42.45 80.08 42.45 80.08 49.02 80.1 49.02 89.39 49.02"/><path class="cls-2" d="M174.84,153a.49.49,0,0,1-.38-.22h-.11v1.07h.11a.44.44,0,0,1,.76,0h.11v-1.07h-.11A.49.49,0,0,1,174.84,153Z" transform="translate(-84.7 -107.59)"/><path class="cls-2" d="M174.64,150.29h-.29v2h.11a.44.44,0,0,1,.76,0h.11v-2Zm.2,1.17a.32.32,0,1,1,.31-.31A.31.31,0,0,1,174.84,151.46Z" transform="translate(-84.7 -107.59)"/><path class="cls-2" d="M174.84,154.61a.49.49,0,0,1-.38-.22h-.11v2h1v-2h-.11A.49.49,0,0,1,174.84,154.61Zm0,1.09a.32.32,0,1,1,0-.63.32.32,0,0,1,0,.63Z" transform="translate(-84.7 -107.59)"/><path class="cls-3" d="M175.33,150H174.1v6.57h1.48V150Zm.06,2.22v.53h-.06v1.07h.06v.53h-.06v2h-1v-2h-.06v-.53h.06v-1.07h-.06v-.53h.06v-2h1v2Z" transform="translate(-84.7 -107.59)"/><path class="cls-3" d="M175.22,152.26a.44.44,0,0,0-.76,0Z" transform="translate(-84.7 -107.59)"/><path class="cls-3" d="M174.84,153a.49.49,0,0,0,.38-.22h-.76A.49.49,0,0,0,174.84,153Z" transform="translate(-84.7 -107.59)"/><rect class="cls-2" x="89.83" y="44.92" width="0.6" height="0.02"/><path class="cls-3" d="M174.46,152.26h-.17v.53h1.1v-.53h-.93Zm.08.28v0h.6v0Z" transform="translate(-84.7 -107.59)"/><path class="cls-3" d="M175.22,153.86a.44.44,0,0,0-.76,0Z" transform="translate(-84.7 -107.59)"/><path class="cls-3" d="M174.84,154.61a.49.49,0,0,0,.38-.22h-.76A.49.49,0,0,0,174.84,154.61Z" transform="translate(-84.7 -107.59)"/><rect class="cls-2" x="89.83" y="46.52" width="0.6" height="0.02"/><path class="cls-3" d="M174.46,153.86h-.17v.53h1.1v-.53h-.93Zm.08.28v0h.6v0Z" transform="translate(-84.7 -107.59)"/><path class="cls-2" d="M167.5,153.3a.84.84,0,0,0-.84-.82h0a.85.85,0,0,0-.6.26.86.86,0,0,0-.23.61.85.85,0,0,0,.85.82h0A.85.85,0,0,0,167.5,153.3Zm-.82.79h0a.77.77,0,0,1-.77-.75.72.72,0,0,1,.21-.54.73.73,0,0,1,.54-.24.81.81,0,0,1,.55.21.76.76,0,0,1,.23.54.74.74,0,0,1-.21.54A.73.73,0,0,1,166.68,154.09Z" transform="translate(-84.7 -107.59)"/><path class="cls-3" d="M166.66,152.23h0a1.12,1.12,0,0,0-.77.34,1.08,1.08,0,0,0-.3.78,1.09,1.09,0,0,0,1.1,1.07h0a1.1,1.1,0,0,0,0-2.19Zm0,1.94a.85.85,0,0,1-.85-.82.86.86,0,0,1,.23-.61.85.85,0,0,1,.6-.26h0a.85.85,0,0,1,0,1.69Z" transform="translate(-84.7 -107.59)"/><path class="cls-2" d="M173,153.27a2,2,0,0,0-2.05-2h-.05a2,2,0,0,0-1.44.64,2.05,2.05,0,0,0,1.49,3.47H171a2.07,2.07,0,0,0,1.44-.64A2,2,0,0,0,173,153.27Zm-2,1.81h0a1.74,1.74,0,1,1,1.28-.54A1.76,1.76,0,0,1,170.94,155.08Z" transform="translate(-84.7 -107.59)"/><path class="cls-3" d="M170.88,151a2.32,2.32,0,0,0-2.25,2.36,2.32,2.32,0,0,0,2.31,2.25H171a2.29,2.29,0,0,0,1.61-.72,2.27,2.27,0,0,0,.63-1.64A2.31,2.31,0,0,0,170.88,151Zm.06,4.36a2.05,2.05,0,0,1-1.49-3.47,2,2,0,0,1,1.44-.64h.05a2,2,0,0,1,2.05,2,2,2,0,0,1-.56,1.47,2.07,2.07,0,0,1-1.44.64Z" transform="translate(-84.7 -107.59)"/><path class="cls-2" d="M174.77,155.38a.07.07,0,0,0,.13,0,.06.06,0,0,0-.06-.06A.07.07,0,0,0,174.77,155.38Z" transform="translate(-84.7 -107.59)"/><path class="cls-3" d="M174.84,155.07a.32.32,0,1,0,.31.31A.31.31,0,0,0,174.84,155.07Zm-.07.31a.07.07,0,0,1,.07-.06.06.06,0,0,1,.06.06A.07.07,0,0,1,174.77,155.38Z" transform="translate(-84.7 -107.59)"/><path class="cls-2" d="M174.77,151.15c0,.07.13.07.13,0a.07.07,0,0,0-.06-.07A.07.07,0,0,0,174.77,151.15Z" transform="translate(-84.7 -107.59)"/><path class="cls-3" d="M174.84,150.83a.32.32,0,1,0,0,.63.32.32,0,0,0,0-.63Zm-.07.32a.07.07,0,0,1,.07-.07.07.07,0,0,1,.06.07C174.9,151.22,174.77,151.22,174.77,151.15Z" transform="translate(-84.7 -107.59)"/><path class="cls-2" d="M172.45,153.29a1.51,1.51,0,0,0-1.51-1.47h0a1.48,1.48,0,0,0-1.05.46,1.51,1.51,0,0,0,1.13,2.55,1.45,1.45,0,0,0,1.05-.47A1.48,1.48,0,0,0,172.45,153.29Z" transform="translate(-84.7 -107.59)"/><path class="cls-3" d="M170.9,151.57a1.76,1.76,0,0,0,0,3.51h0a1.76,1.76,0,1,0-.08-3.51Zm-1.47,1.79a1.52,1.52,0,0,1,.42-1.08,1.48,1.48,0,0,1,1.05-.46h0a1.51,1.51,0,0,1,1.51,1.47,1.48,1.48,0,0,1-.42,1.07,1.45,1.45,0,0,1-1.05.47A1.51,1.51,0,0,1,169.43,153.36Z" transform="translate(-84.7 -107.59)"/><path class="cls-2" d="M167.17,153.31A.48.48,0,0,0,167,153a.5.5,0,0,0-.35-.14h0a.52.52,0,0,0-.36.16.55.55,0,0,0-.14.37.52.52,0,0,0,.52.5h0a.48.48,0,0,0,.36-.16A.47.47,0,0,0,167.17,153.31Z" transform="translate(-84.7 -107.59)"/><path class="cls-3" d="M167.19,152.77a.81.81,0,0,0-.55-.21.73.73,0,0,0-.54.24.72.72,0,0,0-.21.54.77.77,0,0,0,.77.75h0a.73.73,0,0,0,.53-.24.74.74,0,0,0,.21-.54A.76.76,0,0,0,167.19,152.77Zm-.53,1.07a.52.52,0,0,1-.52-.5.55.55,0,0,1,.14-.37.52.52,0,0,1,.36-.16h0a.5.5,0,0,1,.35.14.48.48,0,0,1,.16.36.47.47,0,0,1-.14.37.48.48,0,0,1-.36.16Z" transform="translate(-84.7 -107.59)"/><path class="cls-2" d="M130.1,145.5h-17v20.75h17Zm-.77,18.32a1.41,1.41,0,0,1-1.35,1.45H115.2a1.41,1.41,0,0,1-1.35-1.45V147.93a1.41,1.41,0,0,1,1.35-1.45H128a1.41,1.41,0,0,1,1.35,1.45Z" transform="translate(-84.7 -107.59)"/><path class="cls-3" d="M112.82,166.53h17.54V145.22H112.82Zm.26-21h17v20.75h-17Z" transform="translate(-84.7 -107.59)"/><path class="cls-2" d="M128,146.76H115.2a1.14,1.14,0,0,0-1.09,1.17v15.89A1.14,1.14,0,0,0,115.2,165H128a1.14,1.14,0,0,0,1.09-1.17V147.93A1.14,1.14,0,0,0,128,146.76Zm.65,16.1a1.51,1.51,0,0,1-1.45,1.57H116a1.51,1.51,0,0,1-1.45-1.57v-14a1.51,1.51,0,0,1,1.45-1.57h11.18a1.51,1.51,0,0,1,1.45,1.57Z" transform="translate(-84.7 -107.59)"/><path class="cls-3" d="M128,146.48H115.2a1.41,1.41,0,0,0-1.35,1.45v15.89a1.41,1.41,0,0,0,1.35,1.45H128a1.41,1.41,0,0,0,1.35-1.45V147.93A1.41,1.41,0,0,0,128,146.48Zm1.09,17.34A1.14,1.14,0,0,1,128,165H115.2a1.14,1.14,0,0,1-1.09-1.17V147.93a1.14,1.14,0,0,1,1.09-1.17H128a1.14,1.14,0,0,1,1.09,1.17Z" transform="translate(-84.7 -107.59)"/><path class="cls-2" d="M127.18,147.6H116a1.24,1.24,0,0,0-1.19,1.29v14a1.24,1.24,0,0,0,1.19,1.29h11.18a1.24,1.24,0,0,0,1.19-1.29v-14A1.24,1.24,0,0,0,127.18,147.6Zm-11,15.76a.85.85,0,1,1,.81-.85A.83.83,0,0,1,116.14,163.36Z" transform="translate(-84.7 -107.59)"/><path class="cls-3" d="M127.18,147.32H116a1.51,1.51,0,0,0-1.45,1.57v14a1.51,1.51,0,0,0,1.45,1.57h11.18a1.51,1.51,0,0,0,1.45-1.57v-14A1.51,1.51,0,0,0,127.18,147.32Zm1.19,15.54a1.24,1.24,0,0,1-1.19,1.29H116a1.24,1.24,0,0,1-1.19-1.29v-14A1.24,1.24,0,0,1,116,147.6h11.18a1.24,1.24,0,0,1,1.19,1.29Z" transform="translate(-84.7 -107.59)"/><path class="cls-2" d="M116.14,162a.56.56,0,0,0-.55.56.57.57,0,0,0,.55.57.56.56,0,0,0,.55-.57A.55.55,0,0,0,116.14,162Z" transform="translate(-84.7 -107.59)"/><path class="cls-3" d="M116.14,161.67a.85.85,0,1,0,.81.84A.83.83,0,0,0,116.14,161.67Zm0,1.41a.57.57,0,0,1-.55-.57.56.56,0,0,1,.55-.56.55.55,0,0,1,.55.56A.56.56,0,0,1,116.14,163.08Z" transform="translate(-84.7 -107.59)"/><path class="cls-2" d="M117.3,121.31h-2a1.17,1.17,0,0,0-1.17,1.17v8.11a1.17,1.17,0,0,0,1.17,1.17h2a1.18,1.18,0,0,0,1.17-1.17v-8.11A1.17,1.17,0,0,0,117.3,121.31Z" transform="translate(-84.7 -107.59)"/><path class="cls-3" d="M118.47,130.17v.42a1.18,1.18,0,0,1-1.17,1.17h-2a1.17,1.17,0,0,1-1.17-1.17v-8.11a1.17,1.17,0,0,1,1.17-1.17h2a1.17,1.17,0,0,1,1.17,1.17v.43h.26v-.43a1.43,1.43,0,0,0-1.43-1.43h-2a1.43,1.43,0,0,0-1.43,1.43v8.11A1.43,1.43,0,0,0,115.3,132h2a1.43,1.43,0,0,0,1.43-1.43v-.42Z" transform="translate(-84.7 -107.59)"/><path class="cls-2" d="M121,123.9v5.27a5.48,5.48,0,0,0,1.07.75l0,0a8.08,8.08,0,0,0,3.87.93c3.45,0,6.26-1.94,6.26-4.34s-2.81-4.34-6.26-4.34a8,8,0,0,0-3.86.93l-.06,0A5.21,5.21,0,0,0,121,123.9Z" transform="translate(-84.7 -107.59)"/><path class="cls-3" d="M126,121.93a8.29,8.29,0,0,0-4,1h.53l-.38.21a8,8,0,0,1,3.86-.93c3.45,0,6.26,2,6.26,4.34s-2.81,4.34-6.26,4.34a8.08,8.08,0,0,1-3.87-.93l.41.23H122a8.36,8.36,0,0,0,4,1c3.6,0,6.53-2.06,6.53-4.6S129.57,121.93,126,121.93Z" transform="translate(-84.7 -107.59)"/><path class="cls-2" d="M120.74,129.28v-5.5l0,0a5.42,5.42,0,0,1,.74-.58h-2.79v6.74h2.8a5.58,5.58,0,0,1-.75-.59Z" transform="translate(-84.7 -107.59)"/><path class="cls-3" d="M122.51,130.17l-.41-.23,0,0a5.48,5.48,0,0,1-1.07-.75V123.9a5.21,5.21,0,0,1,1-.75l.06,0,.38-.21h-4v7.26h4Zm-1-.26h-2.8v-6.74h2.79a5.42,5.42,0,0,0-.74.58l0,0v5.5l0,0A5.58,5.58,0,0,0,121.53,129.91Z" transform="translate(-84.7 -107.59)"/><path class="cls-2" d="M161.75,154.07H150.42v12.34h11.33Zm-6.05,10.18a4,4,0,1,1,3.94-4A4,4,0,0,1,155.7,164.25Z" transform="translate(-84.7 -107.59)"/><polygon class="cls-3" points="65.72 46.48 77.05 46.48 77.05 58.82 65.72 58.82 65.72 59.08 77.31 59.08 77.31 46.22 65.72 46.22 65.72 46.48"/><rect class="cls-2" x="64.93" y="46.48" width="0.53" height="12.34"/><path class="cls-3" d="M150.42,166.41v-12.6h-1v12.86h1Zm-.78,0V154.07h.52v12.34Z" transform="translate(-84.7 -107.59)"/><path class="cls-2" d="M159.38,160.24A3.69,3.69,0,1,0,155.7,164,3.73,3.73,0,0,0,159.38,160.24ZM155.7,163a2.78,2.78,0,1,1,2.73-2.78A2.76,2.76,0,0,1,155.7,163Z" transform="translate(-84.7 -107.59)"/><path class="cls-3" d="M155.7,156.22a4,4,0,1,0,3.94,4A4,4,0,0,0,155.7,156.22Zm-3.69,4A3.69,3.69,0,1,1,155.7,164,3.73,3.73,0,0,1,152,160.24Z" transform="translate(-84.7 -107.59)"/><ellipse class="cls-2" cx="70.99" cy="52.65" rx="2.47" ry="2.52"/><path class="cls-3" d="M155.7,157.46a2.78,2.78,0,1,0,2.73,2.78A2.76,2.76,0,0,0,155.7,157.46Zm-2.47,2.78a2.47,2.47,0,1,1,2.47,2.51A2.49,2.49,0,0,1,153.23,160.24Z" transform="translate(-84.7 -107.59)"/><path class="cls-2" d="M162.12,144.11v-6.29h-3.67a5.67,5.67,0,0,1-1.38-.17v6.46Z" transform="translate(-84.7 -107.59)"/><path class="cls-2" d="M157.07,119.66v6.45a5.67,5.67,0,0,1,1.38-.17h3.67v-6.28Z" transform="translate(-84.7 -107.59)"/><path class="cls-3" d="M157.07,126.11v-6.45h5.05v6.28h.12v11.88h-.12v6.29h-5.05v-6.46l-.25-.06v6.77h5.55v-25h-5.55v6.76Z" transform="translate(-84.7 -107.59)"/><path class="cls-2" d="M152.77,131.88a5.69,5.69,0,0,0,5.68,5.68H162V126.2h-3.53A5.69,5.69,0,0,0,152.77,131.88Zm9-.49v1h-1.41c-.2,2.26-1.73,4-3.6,4s-3.63-2-3.63-4.53,1.63-4.53,3.63-4.53,3.4,1.77,3.6,4Z" transform="translate(-84.7 -107.59)"/><path class="cls-3" d="M156.82,137.59l.25.06a5.67,5.67,0,0,0,1.38.17h3.79V125.94h-3.79a5.67,5.67,0,0,0-1.38.17l-.25.06a5.94,5.94,0,0,0,0,11.42Zm5.16,0h-3.53a5.68,5.68,0,1,1,0-11.36H162Z" transform="translate(-84.7 -107.59)"/><path class="cls-2" d="M159,131.39h1.18c-.2-2.12-1.61-3.78-3.34-3.78s-3.37,1.92-3.37,4.27,1.51,4.27,3.37,4.27,3.14-1.65,3.34-3.77H159Zm-.82,1.23a.74.74,0,1,1,.74-.74A.74.74,0,0,1,158.15,132.62Z" transform="translate(-84.7 -107.59)"/><path class="cls-3" d="M156.81,127.35c-2,0-3.63,2-3.63,4.53s1.63,4.53,3.63,4.53,3.4-1.77,3.6-4h-.26c-.2,2.12-1.61,3.77-3.34,3.77s-3.37-1.91-3.37-4.27,1.51-4.27,3.37-4.27,3.14,1.66,3.34,3.78h.26C160.21,129.12,158.68,127.35,156.81,127.35Z" transform="translate(-84.7 -107.59)"/><path class="cls-2" d="M158.63,131.88a.48.48,0,1,0-.48.48A.49.49,0,0,0,158.63,131.88Z" transform="translate(-84.7 -107.59)"/><path class="cls-3" d="M158.15,131.14a.74.74,0,1,0,.74.74A.74.74,0,0,0,158.15,131.14Zm-.48.74a.48.48,0,1,1,.48.48A.49.49,0,0,1,157.67,131.88Z" transform="translate(-84.7 -107.59)"/><rect class="cls-2" x="74.52" y="24.06" width="2.33" height="0.47"/><path class="cls-3" d="M160.15,131.39H159v1h2.85v-1h-1.67Zm1.41.73h-2.33v-.47h2.33Z" transform="translate(-84.7 -107.59)"/><path class="cls-2" d="M302.21,160.1a2,2,0,0,1-1-1.73V131.13a2,2,0,0,1,1-1.72H283.64l7.21,9.9h-.12V160.1Zm-9.89-22.87c-.3-3.63-.39-5.65,0-5.89s1,0,1.8.19a5,5,0,0,0,2.6.29c1.27-.45,3.41-.65,3.87-.25.25.23.16,1.18-.09,3.15a12,12,0,0,0-.19,2.41c.1.5.69,6.5.26,7s-2.62-.18-3.35-.37a45.6,45.6,0,0,1-4.67.8.39.39,0,0,1-.28-.13A2.26,2.26,0,0,1,292,143a28.91,28.91,0,0,1,.29-3.32c.07-.56.12-1,.12-1.18S292.38,137.86,292.32,137.23Zm0,16.24c.07-.55.12-1,.12-1.18h0c0-.18,0-.68-.1-1.31-.3-3.64-.39-5.65,0-5.9s1,0,1.8.2a5,5,0,0,0,2.6.29c1.27-.45,3.41-.66,3.87-.25.25.23.16,1.18-.09,3.15a12,12,0,0,0-.19,2.41c.1.5.69,6.5.26,6.94s-2.62-.17-3.35-.37a42.79,42.79,0,0,1-4.67.81.37.37,0,0,1-.28-.14,2.23,2.23,0,0,1-.26-1.33A28.91,28.91,0,0,1,292.3,153.47Z" transform="translate(-84.7 -107.59)"/><path class="cls-3" d="M302.21,160.1H290.73v.26h12.44A1.94,1.94,0,0,1,302.21,160.1Z" transform="translate(-84.7 -107.59)"/><path class="cls-3" d="M283.64,129.41h18.57a1.84,1.84,0,0,1,1-.26H283.45Z" transform="translate(-84.7 -107.59)"/><path class="cls-2" d="M299.87,124.55a1.06,1.06,0,1,0-1.06-1.06A1.06,1.06,0,0,0,299.87,124.55Z" transform="translate(-84.7 -107.59)"/><path class="cls-2" d="M296,127.54h7v-7.08h-7Zm3.59-5.7a2.17,2.17,0,1,1-2.17,2.16A2.17,2.17,0,0,1,299.6,121.84Z" transform="translate(-84.7 -107.59)"/><path class="cls-2" d="M299.6,125.91a1.91,1.91,0,1,0-1.91-1.91A1.91,1.91,0,0,0,299.6,125.91Zm.27-3.74a1.32,1.32,0,1,1-1.32,1.32A1.32,1.32,0,0,1,299.87,122.17Z" transform="translate(-84.7 -107.59)"/><path class="cls-3" d="M303.3,120.2h-7.55v7.6h7.55Zm-.26,7.34h-7v-7.08h7Z" transform="translate(-84.7 -107.59)"/><path class="cls-2" d="M303,161.67h-7v7.08h7Zm-3.71,5.78a2.17,2.17,0,1,1,2.17-2.17A2.17,2.17,0,0,1,299.33,167.45Z" transform="translate(-84.7 -107.59)"/><path class="cls-2" d="M299.6,163.71a1.06,1.06,0,1,0,1.06,1.06A1.06,1.06,0,0,0,299.6,163.71Z" transform="translate(-84.7 -107.59)"/><path class="cls-2" d="M299.33,163.37a1.91,1.91,0,1,0,1.91,1.91A1.92,1.92,0,0,0,299.33,163.37Zm.27,2.72a1.32,1.32,0,1,1,1.32-1.32A1.32,1.32,0,0,1,299.6,166.09Z" transform="translate(-84.7 -107.59)"/><path class="cls-3" d="M295.75,169h7.55v-7.6h-7.55Zm.26-7.34h7v7.08h-7Z" transform="translate(-84.7 -107.59)"/><path class="cls-2" d="M292.58,137.21c.06.66.1,1.14.1,1.33h0c0,.2-.05.65-.12,1.22-.18,1.39-.5,4-.1,4.44a.14.14,0,0,0,.09.05c.9,0,4.61-.8,4.64-.8h.07c1.36.36,2.94.64,3.12.45.27-.38-.14-5.79-.33-6.72a12.21,12.21,0,0,1,.19-2.49,10.67,10.67,0,0,0,.18-2.92c-.32-.29-2.28-.18-3.61.3a5.24,5.24,0,0,1-2.76-.29c-.67-.18-1.36-.37-1.59-.22S292.46,135.74,292.58,137.21Z" transform="translate(-84.7 -107.59)"/><path class="cls-3" d="M292,143a2.26,2.26,0,0,0,.26,1.34.39.39,0,0,0,.28.13,45.6,45.6,0,0,0,4.67-.8c.73.19,3,.75,3.35.37s-.16-6.45-.26-7a12,12,0,0,1,.19-2.41c.25-2,.34-2.92.09-3.15-.46-.4-2.6-.2-3.87.25a5,5,0,0,1-2.6-.29c-.82-.22-1.47-.4-1.8-.19s-.3,2.26,0,5.89c.06.63.1,1.13.1,1.31s-.05.62-.12,1.18A28.91,28.91,0,0,0,292,143Zm2-11.26a5.24,5.24,0,0,0,2.76.29c1.33-.48,3.29-.59,3.61-.3a10.67,10.67,0,0,1-.18,2.92,12.21,12.21,0,0,0-.19,2.49c.19.93.6,6.34.33,6.72-.18.19-1.76-.09-3.12-.45h-.07s-3.74.8-4.64.8a.14.14,0,0,1-.09-.05c-.4-.45-.08-3,.1-4.44.07-.57.12-1,.12-1.22h0c0-.19,0-.67-.1-1.33-.12-1.47-.45-5.38-.12-5.65S293.38,131.6,294.05,131.78Z" transform="translate(-84.7 -107.59)"/><path class="cls-2" d="M292.55,158a45.55,45.55,0,0,0,4.64-.81h.06c1.37.36,2.95.63,3.13.44.27-.37-.14-5.79-.33-6.71a12.17,12.17,0,0,1,.19-2.49,10.67,10.67,0,0,0,.18-2.92c-.32-.29-2.28-.18-3.61.29a5.13,5.13,0,0,1-2.76-.28c-.67-.18-1.36-.37-1.59-.22s0,4.18.12,5.65c.06.67.1,1.14.1,1.33s-.05.65-.12,1.22c-.18,1.39-.5,4-.1,4.44A.14.14,0,0,0,292.55,158Z" transform="translate(-84.7 -107.59)"/><path class="cls-3" d="M292.55,158.26a42.79,42.79,0,0,0,4.67-.81c.73.2,3,.76,3.35.37s-.16-6.44-.26-6.94a12,12,0,0,1,.19-2.41c.25-2,.34-2.92.09-3.15-.46-.41-2.6-.2-3.87.25a5,5,0,0,1-2.6-.29c-.82-.22-1.47-.4-1.8-.2s-.3,2.26,0,5.9c.06.63.1,1.13.1,1.31h0c0,.18-.05.63-.12,1.18a28.91,28.91,0,0,0-.29,3.32,2.23,2.23,0,0,0,.26,1.33A.37.37,0,0,0,292.55,158.26Zm0-4.75c.07-.57.12-1,.12-1.22s0-.66-.1-1.33c-.12-1.47-.45-5.38-.12-5.65s.92,0,1.59.22a5.13,5.13,0,0,0,2.76.28c1.33-.47,3.29-.58,3.61-.29a10.67,10.67,0,0,1-.18,2.92,12.17,12.17,0,0,0-.19,2.49c.19.92.6,6.34.33,6.71-.18.19-1.76-.08-3.13-.44h-.06a45.55,45.55,0,0,1-4.64.81.14.14,0,0,1-.09-.05C292.06,157.5,292.38,154.9,292.56,153.51Z" transform="translate(-84.7 -107.59)"/><path class="cls-2" d="M303,160.09V129.41a1.73,1.73,0,0,0-1.6,1.72v27.24A1.73,1.73,0,0,0,303,160.09Z" transform="translate(-84.7 -107.59)"/><path class="cls-3" d="M302.21,129.41a2,2,0,0,0-1,1.72v27.24a2,2,0,0,0,1,1.73,1.94,1.94,0,0,0,1,.26h.13V129.15h-.13A1.84,1.84,0,0,0,302.21,129.41Zm-.77,1.72a1.73,1.73,0,0,1,1.6-1.72v30.68a1.73,1.73,0,0,1-1.6-1.72Z" transform="translate(-84.7 -107.59)"/><rect class="cls-2" x="178.94" y="42.28" width="24.41" height="2.23"/><rect class="cls-2" x="178.94" y="27.32" width="18.86" height="2.23"/><rect class="cls-2" x="178.94" y="39.78" width="24.41" height="2.23"/><path class="cls-2" d="M282.5,134.65v-2.23H264a6,6,0,0,0-.32,1.91v.32Z" transform="translate(-84.7 -107.59)"/><path class="cls-2" d="M288.06,159.84H265.91a5.92,5.92,0,0,0,3.68,1.29h18.47Z" transform="translate(-84.7 -107.59)"/><rect class="cls-2" x="178.94" y="34.8" width="24.41" height="2.23"/><polygon class="cls-2" points="203.35 32.05 203.35 31.72 197.8 31.72 197.8 29.81 178.94 29.81 178.94 32.05 203.35 32.05"/><rect class="cls-2" x="178.94" y="32.31" width="24.41" height="2.23"/><rect class="cls-2" x="178.94" y="37.29" width="24.41" height="2.23"/><rect class="cls-2" x="178.94" y="44.77" width="24.41" height="2.23"/><path class="cls-2" d="M282.5,132.16v-2.24H265.6a6.11,6.11,0,0,0-1.54,2.24Z" transform="translate(-84.7 -107.59)"/><path class="cls-2" d="M282.5,129.66v-1.28H269.59a5.91,5.91,0,0,0-3.68,1.28Z" transform="translate(-84.7 -107.59)"/><path class="cls-2" d="M288.06,159.58v-2.23h-24a6,6,0,0,0,1.54,2.23Z" transform="translate(-84.7 -107.59)"/><path class="cls-2" d="M288.06,157.09v-2.24H263.64v.33a6,6,0,0,0,.32,1.9Z" transform="translate(-84.7 -107.59)"/><rect class="cls-2" x="204.08" y="31.72" width="1.69" height="21.82"/><path class="cls-3" d="M265.49,159.82v-.24h.11a6,6,0,0,1-1.54-2.23h-.2v-.27h.1a6,6,0,0,1-.32-1.9v-.33h-.13v-.26h.13v-2.23h-.13v-.26h.13v-2.23h-.13v-.26h.13v-2.24h-.13v-.26h.13v-2.23h-.13v-.26h.13v-2.23h-.13v-.26h.13V139.9h-.13v-.26h.13V137.4h-.13v-.26h.13v-2.23h-.13v-.26h.13v-.32a6,6,0,0,1,.32-1.91h-.1v-.26h.2a6.11,6.11,0,0,1,1.54-2.24h-.06v-.26h.37a5.91,5.91,0,0,1,3.68-1.28H282.5v-.26H269.59a6.22,6.22,0,0,0-6.21,6.21v20.85A6.16,6.16,0,0,0,265.49,159.82Z" transform="translate(-84.7 -107.59)"/><path class="cls-3" d="M290.73,160.1V139.31h-.26v21.82h-1.69v.26h-.72v-.26H269.59a5.92,5.92,0,0,1-3.68-1.29h-.41a6.21,6.21,0,0,0,4.09,1.55h21.14V160.1Z" transform="translate(-84.7 -107.59)"/><polygon class="cls-2" points="204.08 31.46 204.08 31.46 205.64 31.46 198.06 21.06 198.06 31.46 203.35 31.46 203.35 31.46 204.08 31.46"/><polygon class="cls-3" points="197.8 20.79 197.8 22.07 197.93 22.07 197.93 22.2 197.93 22.2 197.93 22.2 197.93 22.34 197.8 22.34 197.8 24.57 197.93 24.57 197.93 24.7 197.93 24.7 197.93 24.7 197.93 24.83 197.8 24.83 197.8 27.06 197.93 27.06 197.93 27.19 197.93 27.19 197.93 27.19 197.93 27.32 197.8 27.32 197.8 29.55 197.93 29.55 197.93 29.68 197.93 29.68 197.93 29.68 197.93 29.81 197.8 29.81 197.8 31.72 203.35 31.72 203.35 31.46 198.06 31.46 198.06 21.06 205.64 31.46 204.08 31.46 204.08 31.72 205.76 31.72 206.02 31.72 206.15 31.72 198.93 21.82 198.74 21.56 197.8 20.26 197.8 20.53 197.8 20.79"/><polygon class="cls-2" points="203.61 53.54 203.82 53.54 203.82 31.72 203.61 31.72 203.61 32.05 203.71 32.05 203.71 32.18 203.72 32.18 203.71 32.18 203.71 32.31 203.61 32.31 203.61 34.54 203.71 34.54 203.71 34.67 203.71 34.67 203.71 34.67 203.71 34.8 203.61 34.8 203.61 37.03 203.71 37.03 203.71 37.16 203.71 37.16 203.71 37.16 203.71 37.29 203.61 37.29 203.61 39.52 203.71 39.52 203.71 39.66 203.71 39.66 203.71 39.66 203.71 39.78 203.61 39.78 203.61 42.02 203.71 42.02 203.71 42.15 203.71 42.15 203.71 42.15 203.71 42.28 203.61 42.28 203.61 44.51 203.71 44.51 203.71 44.64 203.71 44.64 203.71 44.64 203.71 44.77 203.61 44.77 203.61 47 203.71 47 203.71 47.13 203.71 47.13 203.71 47.13 203.71 47.26 203.61 47.26 203.61 49.5 203.71 49.5 203.71 49.63 203.71 49.63 203.71 49.63 203.71 49.76 203.61 49.76 203.61 51.99 203.71 51.99 203.71 52.12 203.71 52.12 203.71 52.12 203.71 52.25 203.61 52.25 203.61 53.54"/><polygon class="cls-3" points="203.61 32.05 203.61 31.72 203.82 31.72 203.82 53.54 203.61 53.54 203.61 52.25 203.35 52.25 203.35 53.54 203.35 53.8 204.08 53.8 204.08 53.54 204.08 31.72 204.08 31.46 204.08 31.46 203.35 31.46 203.35 31.46 203.35 31.72 203.35 32.05 203.61 32.05"/><rect class="cls-3" x="203.35" y="47.26" width="0.26" height="2.23"/><rect class="cls-3" x="203.35" y="49.76" width="0.26" height="2.23"/><rect class="cls-3" x="203.35" y="44.77" width="0.26" height="2.23"/><rect class="cls-3" x="203.35" y="42.28" width="0.26" height="2.23"/><rect class="cls-3" x="203.35" y="39.78" width="0.26" height="2.23"/><rect class="cls-3" x="203.35" y="34.8" width="0.26" height="2.23"/><rect class="cls-3" x="203.35" y="37.29" width="0.26" height="2.23"/><rect class="cls-3" x="203.35" y="32.31" width="0.26" height="2.23"/><line class="cls-5" x1="197.93" y1="22.2" x2="197.93" y2="22.2"/><polygon class="cls-3" points="197.8 22.34 197.93 22.34 197.93 22.2 197.93 22.07 197.8 22.07 181.2 22.07 180.84 22.07 180.84 22.34 180.9 22.34 197.8 22.34"/><line class="cls-5" x1="197.93" y1="24.7" x2="197.93" y2="24.7"/><polygon class="cls-3" points="197.8 24.83 197.93 24.83 197.93 24.7 197.93 24.57 197.8 24.57 179.35 24.57 179.16 24.57 179.16 24.83 179.26 24.83 197.8 24.83"/><line class="cls-5" x1="197.93" y1="27.19" x2="197.93" y2="27.19"/><polygon class="cls-3" points="197.8 27.32 197.93 27.32 197.93 27.19 197.93 27.06 197.8 27.06 178.94 27.06 178.81 27.06 178.81 27.32 178.94 27.32 197.8 27.32"/><line class="cls-5" x1="197.93" y1="29.68" x2="197.93" y2="29.68"/><polygon class="cls-3" points="197.8 29.81 197.93 29.81 197.93 29.68 197.93 29.55 197.8 29.55 178.94 29.55 178.81 29.55 178.81 29.81 178.94 29.81 197.8 29.81"/><line class="cls-5" x1="203.71" y1="32.18" x2="203.71" y2="32.18"/><polygon class="cls-3" points="203.35 32.31 203.61 32.31 203.71 32.31 203.71 32.18 203.71 32.05 203.61 32.05 203.35 32.05 178.94 32.05 178.81 32.05 178.81 32.31 178.94 32.31 203.35 32.31"/><line class="cls-5" x1="203.71" y1="34.67" x2="203.71" y2="34.67"/><polygon class="cls-3" points="203.35 34.8 203.61 34.8 203.71 34.8 203.71 34.67 203.71 34.54 203.61 34.54 203.35 34.54 178.94 34.54 178.81 34.54 178.81 34.8 178.94 34.8 203.35 34.8"/><line class="cls-5" x1="203.71" y1="37.16" x2="203.71" y2="37.16"/><polygon class="cls-3" points="203.35 37.29 203.61 37.29 203.71 37.29 203.71 37.16 203.71 37.03 203.61 37.03 203.35 37.03 178.94 37.03 178.81 37.03 178.81 37.29 178.94 37.29 203.35 37.29"/><line class="cls-5" x1="203.71" y1="39.65" x2="203.71" y2="39.65"/><polygon class="cls-3" points="203.35 39.78 203.61 39.78 203.71 39.78 203.71 39.66 203.71 39.52 203.61 39.52 203.35 39.52 178.94 39.52 178.81 39.52 178.81 39.78 178.94 39.78 203.35 39.78"/><line class="cls-5" x1="203.71" y1="42.15" x2="203.71" y2="42.15"/><polygon class="cls-3" points="203.35 42.28 203.61 42.28 203.71 42.28 203.71 42.15 203.71 42.02 203.61 42.02 203.35 42.02 178.94 42.02 178.81 42.02 178.81 42.28 178.94 42.28 203.35 42.28"/><line class="cls-5" x1="203.71" y1="44.64" x2="203.71" y2="44.64"/><polygon class="cls-3" points="203.35 44.77 203.61 44.77 203.71 44.77 203.71 44.64 203.71 44.51 203.61 44.51 203.35 44.51 178.94 44.51 178.81 44.51 178.81 44.77 178.94 44.77 203.35 44.77"/><line class="cls-5" x1="203.71" y1="47.13" x2="203.71" y2="47.13"/><polygon class="cls-3" points="203.35 47.26 203.61 47.26 203.71 47.26 203.71 47.13 203.71 47 203.61 47 203.35 47 178.94 47 178.81 47 178.81 47.26 178.94 47.26 203.35 47.26"/><line class="cls-5" x1="203.71" y1="49.63" x2="203.71" y2="49.63"/><polygon class="cls-3" points="203.35 49.76 203.61 49.76 203.71 49.76 203.71 49.63 203.71 49.5 203.61 49.5 203.35 49.5 179.26 49.5 179.16 49.5 179.16 49.76 179.35 49.76 203.35 49.76"/><line class="cls-5" x1="203.71" y1="52.12" x2="203.71" y2="52.12"/><polygon class="cls-3" points="181.2 52.25 203.35 52.25 203.61 52.25 203.71 52.25 203.71 52.12 203.71 51.99 203.61 51.99 203.35 51.99 180.9 51.99 180.78 51.99 180.78 52.23 180.78 52.25 180.8 52.25 181.2 52.25"/><path class="cls-3" d="M299.33,163.11a2.17,2.17,0,1,0,2.17,2.17A2.17,2.17,0,0,0,299.33,163.11Zm0,4.08a1.91,1.91,0,1,1,1.91-1.91A1.92,1.92,0,0,1,299.33,167.19Z" transform="translate(-84.7 -107.59)"/><path class="cls-3" d="M299.6,163.45a1.32,1.32,0,1,0,1.32,1.32A1.32,1.32,0,0,0,299.6,163.45Zm0,2.38a1.06,1.06,0,1,1,1.06-1.06A1.07,1.07,0,0,1,299.6,165.83Z" transform="translate(-84.7 -107.59)"/><path class="cls-3" d="M299.6,126.17a2.17,2.17,0,1,0-2.17-2.17A2.17,2.17,0,0,0,299.6,126.17Zm0-4.07a1.91,1.91,0,1,1-1.91,1.9A1.91,1.91,0,0,1,299.6,122.1Z" transform="translate(-84.7 -107.59)"/><path class="cls-3" d="M299.87,124.81a1.32,1.32,0,1,0-1.32-1.32A1.32,1.32,0,0,0,299.87,124.81Zm0-2.38a1.06,1.06,0,1,1-1.06,1.06A1.07,1.07,0,0,1,299.87,122.43Z" transform="translate(-84.7 -107.59)"/><path class="cls-2" d="M263.52,178.6h.25s.06,2,.13,4.18H265c-.26-2.34-.5-4.44-.5-4.49h.25c0,.09.23,2.1.5,4.5h1.23c0-1.79-.05-3.33-.05-3.4h.26c0,.06,0,1.61.05,3.4h1.14c-.34-2.55-.67-4.88-.71-5l.24-.09c0,.13.38,2.58.73,5.12h1.19c-.16-2.09-.34-4.28-.35-4.45l.25,0c0,.17.19,2.37.36,4.47h1.07c-.06-1.93-.11-3.64-.11-3.8h.25s.05,1.81.12,3.81H272c-.25-2.19-.46-4.07-.46-4.12h.26c0,.08.2,1.89.45,4.12h1.27c0-1.63,0-3,0-3h.25c0,.06,0,1.4,0,3h1.1c-.32-2.4-.62-4.52-.66-4.66l.24-.08c0,.12.35,2.34.68,4.74h1.22c-.16-2-.32-3.91-.33-4.07l.25,0c0,.17.17,2.12.33,4.1h1.12c-.07-2.16-.13-4.2-.13-4.38h.25c0,.05.06,2.16.14,4.39h1.16c-.42-2.37-.82-4.7-.83-4.74l.25-.05.84,4.79h1.1c-.27-2.43-.52-4.65-.52-4.7h.25c0,.09.24,2.21.52,4.7H282c0-1.88-.06-3.54-.06-3.61h.26c0,.07,0,1.73,0,3.61h1.17c-.36-2.63-.7-5.08-.74-5.24l.24-.08c0,.13.4,2.71.76,5.32h1.18c-.17-2.16-.36-4.47-.38-4.65l.26,0c0,.18.2,2.51.37,4.67h1.18l.74-4.48.25,0-.73,4.44h1.05c-.07-2.18-.13-4.27-.14-4.45h.26s.06,2.2.13,4.45H289c-.42-2.39-.84-4.77-.84-4.81l.25-.05c0,.05.42,2.45.84,4.86h1.1c-.28-2.45-.53-4.71-.53-4.77h.26c0,.09.24,2.25.52,4.77h1.21c0-1.91-.05-3.6-.05-3.68H292c0,.08,0,1.77.05,3.68h1.18c-.36-2.66-.7-5.15-.75-5.3l.24-.09c0,.13.41,2.75.77,5.39h1.18c-.18-2.17-.37-4.54-.38-4.72l.25,0c0,.18.21,2.56.38,4.74h1.16l.75-4.55.25,0-.74,4.51h1.1l0-4.87h.26l0,4.87h1.11c-.15-2.53-.28-4.87-.28-5h.25c0,.1.13,2.34.28,5h1.2l.07-5.75h.25l-.07,5.75h1.21l.92-4.84.25,0-.91,4.79h1.59v-6H263.11v6h.53C263.58,180.69,263.52,178.77,263.52,178.6Z" transform="translate(-84.7 -107.59)"/><path class="cls-2" d="M300.93,188.19l-.24-.05,1-5.1H300.5l-.06,4.83h-.26l.06-4.83h-1.17c.12,2.1.26,4.42.35,6.08l-.25,0c0-.24-.19-3.24-.35-6.1h-1.13l0,5.24h-.25l0-5.24H296.3l-.81,4.92-.25,0L296,183h-1.1c.15,1.8.28,3.39.28,3.39l-.26,0s-.12-1.6-.27-3.41h-1.16c.31,2.34.62,4.62.69,5.12l-.26,0-.69-5.16h-1.21c0,2.43.07,5.09.08,5.14h-.26c0-.2,0-2.78-.08-5.14h-1.18c.22,1.94.46,4.07.63,5.6l-.25,0c-.09-.84-.37-3.29-.63-5.63h-1.08c.36,2.05.72,4.05.82,4.54l-.25,0c-.1-.49-.46-2.52-.83-4.59h-1.21c.07,2.26.16,4.55.2,4.82l-.25,0c0-.29-.13-2.59-.2-4.86h-1.11l-.82,5-.25,0,.82-5H285.1c.14,1.83.27,3.46.27,3.46l-.25,0s-.13-1.65-.28-3.48h-1.17c.32,2.36.64,4.69.7,5.19l-.25,0c-.16-1.21-.43-3.25-.7-5.22h-1.21c0,2.45.08,5.16.08,5.21H282c0-.2-.05-2.83-.08-5.21h-1.19c.22,2,.47,4.12.64,5.67l-.25,0c-.1-.85-.38-3.34-.64-5.7h-1.08c.36,2.08.72,4.11.83,4.6l-.25.06c-.1-.5-.47-2.57-.84-4.66H278c.08,2.28.16,4.61.21,4.88l-.25.05c-.05-.29-.13-2.63-.21-4.93h-1.11c.17,2,.33,4,.33,4l-.26,0s-.16-2-.32-4.06h-1.2c.34,2.55.7,5.22.78,5.77l-.26,0c-.17-1.33-.49-3.65-.78-5.8h-1.13c0,2.58.08,5.73.08,5.78h-.25c0-.22-.05-3.28-.09-5.79h-1.24c.24,2.11.51,4.54.7,6.25l-.25,0c-.1-.92-.42-3.76-.7-6.28h-1.09c.07,2.45.17,5.17.22,5.46l-.25,0c0-.31-.15-3-.23-5.5h-1.06l.3,3.67-.26,0-.29-3.69h-1.18c.33,2.43.66,4.88.72,5.39l-.25,0c-.16-1.26-.45-3.39-.73-5.43h-1.18c0,2.5.08,5.36.08,5.41h-.25c0-.2-.05-3-.08-5.41h-1.21c.23,2,.48,4.27.66,5.87l-.25,0c-.1-.87-.39-3.48-.66-5.9h-1.12c.07,2.35.16,4.81.2,5.09l-.24,0c-.05-.3-.14-2.77-.22-5.13h-.54v6.53h40.45V183h-1.64Z" transform="translate(-84.7 -107.59)"/><path class="cls-3" d="M303.81,176.48h-41v13.35h41Zm-.12,6.56h-.13v6.53H263.11V183H263v-.27h.13v-6h40.45v6h.13Z" transform="translate(-84.7 -107.59)"/><path d="M280.74,182.77l0,.27H282v-.27Z" transform="translate(-84.7 -107.59)"/><path d="M265.25,182.77l0,.27h1.21v-.27Z" transform="translate(-84.7 -107.59)"/><path d="M279.39,182.77l.05.27h1.08l0-.27Z" transform="translate(-84.7 -107.59)"/><path d="M290.59,182.77l0,.27h1.18v-.27Z" transform="translate(-84.7 -107.59)"/><path d="M263.9,182.77V183H265l0-.27Z" transform="translate(-84.7 -107.59)"/><path d="M294.92,182.77l0,.27H296l0-.27Z" transform="translate(-84.7 -107.59)"/><path d="M275.12,182.77l0,.27h1.2l0-.27Z" transform="translate(-84.7 -107.59)"/><path d="M269.59,182.77l0,.27h1.06v-.27Z" transform="translate(-84.7 -107.59)"/><path d="M293.49,182.77l0,.27h1.16l0-.27Z" transform="translate(-84.7 -107.59)"/><path d="M289.24,182.77l.05.27h1.08l0-.27Z" transform="translate(-84.7 -107.59)"/><path d="M292.05,182.77V183h1.21l0-.27Z" transform="translate(-84.7 -107.59)"/><path d="M270.92,182.77V183H272l0-.27Z" transform="translate(-84.7 -107.59)"/><path d="M268.14,182.77l0,.27h1.18l0-.27Z" transform="translate(-84.7 -107.59)"/><path d="M272.24,182.77l0,.27h1.24v-.27Z" transform="translate(-84.7 -107.59)"/><path d="M276.59,182.77l0,.27h1.11v-.27Z" transform="translate(-84.7 -107.59)"/><path d="M273.76,182.77V183h1.13l0-.27Z" transform="translate(-84.7 -107.59)"/><path d="M287.81,182.77V183H289l0-.27Z" transform="translate(-84.7 -107.59)"/><path d="M286.51,182.77l-.05.27h1.11v-.27Z" transform="translate(-84.7 -107.59)"/><path d="M263.64,182.77H263V183h.67Z" transform="translate(-84.7 -107.59)"/><path d="M282.21,182.77V183h1.21l0-.27Z" transform="translate(-84.7 -107.59)"/><path d="M283.64,182.77l0,.27h1.17l0-.27Z" transform="translate(-84.7 -107.59)"/><path d="M278,182.77V183h1.21l-.05-.27Z" transform="translate(-84.7 -107.59)"/><path d="M285.07,182.77l0,.27h1.11l0-.27Z" transform="translate(-84.7 -107.59)"/><polygon points="211.63 75.18 211.59 75.45 212.73 75.45 212.73 75.18 211.63 75.18"/><path d="M266.74,182.77V183h1.18l0-.27Z" transform="translate(-84.7 -107.59)"/><path d="M299.05,182.77l0,.27h1.17v-.27Z" transform="translate(-84.7 -107.59)"/><path d="M297.69,182.77V183h1.13l0-.27Z" transform="translate(-84.7 -107.59)"/><polygon points="215.79 75.18 215.79 75.45 216.95 75.45 217 75.18 215.79 75.18"/><polygon points="218.85 75.18 217.26 75.18 217.21 75.45 218.85 75.45 218.98 75.45 218.98 75.18 218.85 75.18"/><polygon points="217.93 70.34 217 75.18 216.95 75.45 215.98 80.55 216.23 80.6 217.21 75.45 217.26 75.18 218.18 70.39 217.93 70.34"/><polygon points="215.87 69.43 215.61 69.43 215.54 75.18 215.54 75.45 215.48 80.28 215.73 80.28 215.79 75.45 215.79 75.18 215.87 69.43"/><path d="M298.77,177.8h-.25c0,.1.13,2.44.28,5l0,.27c.16,2.86.34,5.86.35,6.1l.25,0c-.09-1.66-.23-4-.35-6.08l0-.27C298.9,180.14,298.77,177.9,298.77,177.8Z" transform="translate(-84.7 -107.59)"/><polygon points="212.38 70.67 212.13 70.63 211.38 75.18 211.34 75.45 210.53 80.33 210.78 80.37 211.59 75.45 211.63 75.18 212.38 70.67"/><path d="M294.54,178l-.25,0c0,.18.2,2.55.38,4.72l0,.27c.15,1.81.27,3.41.27,3.41l.26,0s-.13-1.59-.28-3.39l0-.27C294.75,180.59,294.56,178.21,294.54,178Z" transform="translate(-84.7 -107.59)"/><polygon points="212.96 70.31 212.71 70.31 212.73 75.18 212.73 75.45 212.76 80.69 213.01 80.69 212.99 75.45 212.99 75.18 212.96 70.31"/><path d="M292.72,177.38l-.24.09c0,.15.39,2.64.75,5.3l0,.27.69,5.16.26,0c-.07-.5-.38-2.78-.69-5.12l0-.27C293.13,180.13,292.77,177.51,292.72,177.38Z" transform="translate(-84.7 -107.59)"/><path d="M292,179.09h-.25c0,.08,0,1.77.05,3.68V183c0,2.36.08,4.94.08,5.14h.26c0-.05-.05-2.71-.08-5.14v-.27C292,180.86,292,179.17,292,179.09Z" transform="translate(-84.7 -107.59)"/><path d="M290.07,178h-.26c0,.06.25,2.32.53,4.77l0,.27c.26,2.34.54,4.79.63,5.63l.25,0c-.17-1.53-.41-3.66-.63-5.6l0-.27C290.31,180.25,290.07,178.09,290.07,178Z" transform="translate(-84.7 -107.59)"/><path d="M287.68,178.32h-.26c0,.18.07,2.27.14,4.45V183c.07,2.27.16,4.57.2,4.86l.25,0c0-.27-.13-2.56-.2-4.82v-.27C287.74,180.52,287.68,178.36,287.68,178.32Z" transform="translate(-84.7 -107.59)"/><path d="M288.4,177.91l-.25.05s.42,2.42.84,4.81l0,.27c.37,2.07.73,4.1.83,4.59l.25,0c-.1-.49-.46-2.49-.82-4.54l-.05-.27C288.82,180.36,288.4,178,288.4,177.91Z" transform="translate(-84.7 -107.59)"/><polygon points="202.53 70.74 202.28 70.7 201.55 75.18 201.5 75.45 200.69 80.4 200.94 80.44 201.76 75.45 201.8 75.18 202.53 70.74"/><path d="M284.7,178.1l-.26,0c0,.18.21,2.49.38,4.65l0,.27c.15,1.83.28,3.48.28,3.48l.25,0s-.13-1.63-.27-3.46l0-.27C284.9,180.61,284.71,178.28,284.7,178.1Z" transform="translate(-84.7 -107.59)"/><path d="M282.88,177.45l-.24.08c0,.16.38,2.61.74,5.24l0,.27c.27,2,.54,4,.7,5.22l.25,0c-.06-.5-.38-2.83-.7-5.19l0-.27C283.28,180.16,282.92,177.58,282.88,177.45Z" transform="translate(-84.7 -107.59)"/><path d="M282.16,179.16h-.26c0,.07,0,1.73.06,3.61V183c0,2.38.07,5,.08,5.21h.25c0-.05,0-2.76-.08-5.21v-.27C282.18,180.89,282.16,179.23,282.16,179.16Z" transform="translate(-84.7 -107.59)"/><path d="M280.22,178.07H280c0,.05.25,2.27.52,4.7l0,.27c.26,2.36.54,4.85.64,5.7l.25,0c-.17-1.55-.42-3.71-.64-5.67l0-.27C280.46,180.28,280.23,178.16,280.22,178.07Z" transform="translate(-84.7 -107.59)"/><path d="M277.83,178.38h-.25c0,.18.06,2.22.13,4.38V183c.08,2.3.16,4.64.21,4.93l.25-.05c-.05-.27-.13-2.6-.21-4.88v-.27C277.89,180.54,277.83,178.43,277.83,178.38Z" transform="translate(-84.7 -107.59)"/><path d="M278.55,178l-.25.05s.41,2.37.83,4.74l.05.27c.37,2.09.74,4.16.84,4.66l.25-.06c-.11-.49-.47-2.52-.83-4.6l-.05-.27Z" transform="translate(-84.7 -107.59)"/><path d="M269.23,178.3l-.25,0c0,.17.19,2.36.35,4.45l0,.27.29,3.69.26,0-.3-3.67,0-.27C269.42,180.67,269.24,178.47,269.23,178.3Z" transform="translate(-84.7 -107.59)"/><path d="M267.41,177.65l-.24.09c0,.15.37,2.48.71,5l0,.27c.28,2,.57,4.17.73,5.43l.25,0c-.06-.51-.39-3-.72-5.39l0-.27C267.79,180.23,267.45,177.78,267.41,177.65Z" transform="translate(-84.7 -107.59)"/><path d="M266.69,179.37h-.26c0,.07,0,1.61.05,3.4V183c0,2.43.08,5.21.08,5.41h.25s0-2.91-.08-5.41v-.27C266.71,181,266.69,179.43,266.69,179.37Z" transform="translate(-84.7 -107.59)"/><path d="M264.75,178.27h-.25c0,.05.24,2.15.5,4.49l0,.27c.27,2.42.56,5,.66,5.9l.25,0c-.18-1.6-.43-3.85-.66-5.87l0-.27C265,180.37,264.76,178.36,264.75,178.27Z" transform="translate(-84.7 -107.59)"/><path d="M263.77,178.59h-.25c0,.17.06,2.09.12,4.17V183c.08,2.36.17,4.83.22,5.13l.24,0c0-.28-.13-2.74-.2-5.09v-.27C263.83,180.62,263.77,178.63,263.77,178.59Z" transform="translate(-84.7 -107.59)"/><path d="M276.26,178.67l-.25,0c0,.16.17,2.1.33,4.07l0,.27c.16,2.05.32,4.06.32,4.06l.26,0s-.16-2-.33-4l0-.27C276.43,180.79,276.27,178.84,276.26,178.67Z" transform="translate(-84.7 -107.59)"/><path d="M274.44,178l-.24.08c0,.14.34,2.26.66,4.66l0,.27c.29,2.15.61,4.47.78,5.8l.26,0c-.08-.55-.44-3.22-.78-5.77l0-.27C274.79,180.37,274.48,178.15,274.44,178Z" transform="translate(-84.7 -107.59)"/><path d="M273.72,179.74h-.25c0,.07,0,1.4,0,3V183c0,2.51.09,5.57.09,5.79h.25s0-3.2-.08-5.78v-.27C273.74,181.14,273.72,179.8,273.72,179.74Z" transform="translate(-84.7 -107.59)"/><path d="M271.79,178.65h-.26s.21,1.93.46,4.12l0,.27c.28,2.52.6,5.36.7,6.28l.25,0c-.19-1.71-.46-4.14-.7-6.25l0-.27C272,180.54,271.79,178.73,271.79,178.65Z" transform="translate(-84.7 -107.59)"/><path d="M270.8,179h-.25c0,.16.05,1.87.11,3.8V183c.08,2.46.18,5.19.23,5.5l.25,0c0-.29-.15-3-.22-5.46v-.27C270.85,180.77,270.8,179,270.8,179Z" transform="translate(-84.7 -107.59)"/><rect class="cls-3" x="27.86" y="60.1" width="18.6" height="1.61"/><polygon class="cls-3" points="22.49 5.37 22.49 5.5 22.49 66.96 23.98 66.96 24.11 66.96 27.6 66.96 27.6 61.71 27.6 60.1 27.6 58.59 27.6 10.87 27.6 10.74 27.73 10.74 42.47 10.74 42.47 5.63 42.47 3.87 42.47 0.26 27.86 0.26 27.73 0.26 22.23 0.26 22.23 5.37 22.36 5.37 22.49 5.37"/><rect class="cls-3" x="103.18" y="4.13" width="0.01" height="1.24"/><rect class="cls-3" x="103.18" y="0.26" width="0.01" height="3.61"/><polygon class="cls-3" points="103.44 5.63 103.44 10.74 109.68 10.74 119.42 10.74 119.42 8.13 119.42 5.63 119.42 3.87 119.42 0.26 103.44 0.26 103.44 3.87 103.44 5.63"/><rect class="cls-3" x="119.68" y="4.13" width="0.04" height="1.24"/><rect class="cls-3" x="119.68" y="8.26" width="0.04" height="2.49"/><rect class="cls-3" x="119.68" y="0.26" width="0.04" height="3.61"/><rect class="cls-3" x="119.68" y="5.63" width="0.04" height="2.36"/><rect class="cls-3" x="103.18" y="5.63" width="0.01" height="5.11"/><rect class="cls-3" x="130.16" y="8.26" height="2.49"/><rect class="cls-3" x="130.16" y="5.63" height="2.36"/><polygon class="cls-3" points="130.43 5.63 130.43 8.13 130.43 10.74 140.29 10.74 146.41 10.74 146.41 5.63 146.41 3.87 146.41 0.26 130.43 0.26 130.43 3.87 130.43 5.63"/><rect class="cls-3" x="130.16" y="0.26" height="3.61"/><rect class="cls-3" x="130.16" y="4.13" height="1.24"/><polygon class="cls-3" points="157.53 5.63 157.53 10.74 184.26 10.74 184.26 5.63 184.26 3.87 184.26 0.26 157.53 0.26 157.53 3.87 157.53 5.63"/><rect class="cls-3" x="64" y="0.26" width="0.08" height="3.61"/><rect class="cls-3" x="64" y="5.63" width="0.08" height="5.11"/><polygon class="cls-3" points="78.33 60.1 61.22 60.1 61.22 61.71 78.33 61.71 78.33 64.19 79.82 64.19 79.82 11 78.33 11 78.33 60.1"/><polygon class="cls-3" points="64.34 5.63 64.34 10.74 78.33 10.74 79.82 10.74 92.44 10.74 92.44 5.63 92.44 3.87 92.44 0.26 64.34 0.26 64.34 3.87 64.34 5.63"/><rect class="cls-3" x="64" y="4.13" width="0.08" height="1.24"/><rect class="cls-3" x="68.84" y="91.95" width="6.02" height="72.7"/><polygon class="cls-3" points="58.71 91.69 58.71 88.33 58.71 85.58 58.71 82.96 58.34 82.96 58.34 91.69 58.71 91.69"/><polygon class="cls-3" points="206.13 3.87 206.13 5.63 206.13 10.74 219.49 10.74 219.62 10.74 219.62 10.87 219.62 55.85 219.62 58.59 219.62 82.83 219.62 82.96 211.37 82.96 184.39 82.96 79.82 82.96 78.33 82.96 58.97 82.96 58.97 85.58 58.97 88.33 58.97 91.69 64.59 91.69 64.59 95.45 64.59 164.03 29.11 164.03 7.5 164.03 6.12 164.03 5.99 164.03 5.99 163.91 5.99 91.82 5.99 91.69 6.12 91.69 39.72 91.69 39.72 85.58 39.72 82.96 24.11 82.96 23.98 82.96 22.49 82.96 22.49 86.45 22.49 86.58 22.36 86.58 0 86.58 0 175.39 7.5 175.39 29.11 175.39 67.83 175.39 73.21 175.39 74.86 175.39 74.86 164.91 68.71 164.91 68.58 164.91 68.58 164.78 68.58 91.82 68.58 91.69 68.71 91.69 174.89 91.69 184.39 91.69 211.37 91.69 219.49 91.69 219.62 91.69 219.62 91.82 219.62 91.86 227.48 91.86 227.48 91.82 227.48 91.69 227.61 91.69 231.06 91.69 231.06 82.96 230.98 82.96 230.98 82.83 230.98 10.87 230.98 10.74 231.06 10.74 231.06 0.26 206.13 0.26 206.13 3.87"/><rect class="cls-3" x="78.33" y="79.96" width="1.49" height="2.74"/><rect class="cls-3" x="7.5" y="175.39" width="21.61" height="0.26"/><rect class="cls-3" x="67.83" y="175.39" width="5.37" height="0.26"/><polygon class="cls-3" points="27.86 61.71 27.86 60.1 27.73 60.1 27.6 60.1 27.6 61.71 27.73 61.71 27.86 61.71"/><rect class="cls-3" y="175.39" width="7.5" height="0.26"/><rect class="cls-3" x="29.11" y="175.39" width="38.73" height="0.26"/><polygon class="cls-3" points="27.86 0.26 42.47 0.26 42.47 0.13 42.6 0.13 42.6 0 27.86 0 27.86 0.26"/><polygon class="cls-3" points="64.08 10.74 64.21 10.74 64.34 10.74 64.34 5.63 64.08 5.63 64.08 10.74"/><polygon class="cls-3" points="64.34 3.87 64.34 0.26 64.21 0.26 64.08 0.26 64.08 3.87 64.34 3.87"/><polygon class="cls-3" points="42.6 10.74 42.73 10.74 42.73 5.63 42.47 5.63 42.47 10.74 42.6 10.74"/><polygon class="cls-3" points="42.73 3.87 42.73 0.26 42.6 0.26 42.6 0.13 42.47 0.13 42.47 0.26 42.47 3.87 42.73 3.87"/><polygon class="cls-3" points="78.33 11 79.82 11 79.82 10.87 79.82 10.74 78.33 10.74 78.33 10.87 78.33 11"/><polygon class="cls-3" points="64.21 0.26 64.34 0.26 92.44 0.26 92.44 0.13 92.57 0.13 92.57 0 64.21 0 64.21 0.26"/><polygon class="cls-3" points="103.44 3.87 103.44 0.26 103.31 0.26 103.18 0.26 103.18 3.87 103.44 3.87"/><polygon class="cls-3" points="103.18 10.74 103.31 10.74 103.44 10.74 103.44 5.63 103.18 5.63 103.18 10.74"/><polygon class="cls-3" points="92.57 10.74 92.7 10.74 92.7 5.63 92.44 5.63 92.44 10.74 92.57 10.74"/><polygon class="cls-3" points="92.7 3.87 92.7 0.26 92.57 0.26 92.57 0.13 92.44 0.13 92.44 0.26 92.44 3.87 92.7 3.87"/><polygon class="cls-3" points="130.3 0.13 130.43 0.13 130.43 0.26 146.41 0.26 146.41 0.13 146.54 0.13 146.54 0 130.3 0 130.3 0.13"/><polygon class="cls-3" points="103.31 0.26 103.44 0.26 119.42 0.26 119.42 0.13 119.55 0.13 119.55 0 103.31 0 103.31 0.26"/><polygon class="cls-3" points="130.43 3.87 130.43 0.26 130.43 0.13 130.3 0.13 130.3 0.26 130.17 0.26 130.17 3.87 130.43 3.87"/><polygon class="cls-3" points="130.17 8 130.3 8 130.3 8.13 130.43 8.13 130.43 5.63 130.17 5.63 130.17 8"/><polygon class="cls-3" points="119.68 3.87 119.68 0.26 119.55 0.26 119.55 0.13 119.42 0.13 119.42 0.26 119.42 3.87 119.68 3.87"/><polygon class="cls-3" points="119.55 8 119.68 8 119.68 5.63 119.42 5.63 119.42 8.13 119.55 8.13 119.55 8"/><polygon class="cls-3" points="157.53 3.87 157.53 0.26 157.4 0.26 157.27 0.26 157.27 3.87 157.53 3.87"/><polygon class="cls-3" points="157.27 5.63 157.27 10.74 157.4 10.74 157.53 10.74 157.53 5.63 157.27 5.63"/><polygon class="cls-3" points="146.67 3.87 146.67 0.26 146.54 0.26 146.54 0.13 146.41 0.13 146.41 0.26 146.41 3.87 146.67 3.87"/><polygon class="cls-3" points="146.67 10.74 146.67 5.63 146.41 5.63 146.41 10.74 146.54 10.74 146.67 10.74"/><polygon class="cls-3" points="157.4 0.26 157.53 0.26 184.26 0.26 184.26 0.13 184.39 0.13 184.39 0 157.4 0 157.4 0.26"/><polygon class="cls-3" points="206.13 3.87 206.13 0.26 206 0.26 205.87 0.26 205.87 3.87 206.13 3.87"/><polygon class="cls-3" points="205.87 5.63 205.87 10.74 206 10.74 206.13 10.74 206.13 5.63 205.87 5.63"/><polygon class="cls-3" points="206 0.13 206 0.26 206.13 0.26 231.06 0.26 231.06 0 206 0 206 0.13"/><polygon class="cls-3" points="79.82 82.7 78.33 82.7 78.33 82.83 78.33 82.96 79.82 82.96 79.82 82.83 79.82 82.7"/><rect class="cls-3" x="73.21" y="175.39" width="1.65" height="0.26"/><rect class="cls-3" x="27.6" y="81.84" width="0.26" height="0.86"/><rect class="cls-3" x="27.6" y="77.96" width="0.26" height="1.37"/><rect class="cls-3" x="27.6" y="74.21" width="0.26" height="1.5"/><rect class="cls-3" x="27.6" y="70.59" width="0.26" height="1.37"/><path class="cls-3" d="M112.57,175.2v-.39h-.26v.32Z" transform="translate(-84.7 -107.59)"/><path class="cls-3" d="M112.31,175.93h.26v-.46l-.26-.07Z" transform="translate(-84.7 -107.59)"/><polygon class="cls-3" points="23.98 81.7 23.98 81.58 22.49 81.58 22.49 81.58 22.49 81.7 22.49 81.84 23.98 81.84 23.98 81.7"/><polygon class="cls-3" points="23.98 68.21 23.98 68.08 22.49 68.08 22.49 68.21 22.49 68.34 22.49 68.34 23.98 68.34 23.98 68.21"/><polygon class="cls-3" points="23.98 82.7 22.49 82.7 22.49 82.83 22.49 82.96 23.98 82.96 23.98 82.83 23.98 82.7"/><polygon class="cls-3" points="23.98 67.09 23.98 66.96 22.49 66.96 22.49 67.09 22.49 67.22 23.98 67.22 23.98 67.09"/><polygon class="cls-3" points="184.52 3.87 184.52 0.26 184.39 0.26 184.39 0.13 184.26 0.13 184.26 0.26 184.26 3.87 184.52 3.87"/><polygon class="cls-3" points="184.52 10.74 184.52 5.63 184.26 5.63 184.26 10.74 184.39 10.74 184.52 10.74"/><polygon class="cls-3" points="42.6 0.26 42.73 0.26 64 0.26 64.08 0.26 64.21 0.26 64.21 0 42.6 0 42.6 0.13 42.6 0.26"/><polygon class="cls-3" points="184.39 0.26 184.52 0.26 205.87 0.26 206 0.26 206 0.13 206 0 184.39 0 184.39 0.13 184.39 0.26"/><path class="cls-3" d="M112.31,107.59h-5.37v.26h5.63v-.26Z" transform="translate(-84.7 -107.59)"/><polygon class="cls-3" points="57.84 91.69 57.84 91.95 58.84 91.95 58.84 91.82 58.71 91.82 58.71 91.69 58.34 91.69 57.84 91.69"/><rect class="cls-3" x="54.09" y="91.69" width="1.5" height="0.26"/><rect class="cls-3" x="50.47" y="91.69" width="1.5" height="0.26"/><rect class="cls-3" x="46.72" y="91.69" width="1.5" height="0.26"/><rect class="cls-3" x="43.1" y="91.69" width="1.5" height="0.26"/><polygon class="cls-3" points="40.85 91.69 39.98 91.69 39.98 91.82 39.98 91.95 40.85 91.95 40.85 91.69"/><path class="cls-3" d="M112.57,189.42h10.74v-.19h-.26v-.07H109v.26h3.62Z" transform="translate(-84.7 -107.59)"/><path class="cls-3" d="M112.57,175.47a14.31,14.31,0,0,1,10.48,13.69v.07h.26a14.57,14.57,0,0,0-10.74-14l-.26-.07a13.46,13.46,0,0,0-1.68-.32H109v.13a14.33,14.33,0,0,1,3.36.46Z" transform="translate(-84.7 -107.59)"/><polygon class="cls-3" points="146.54 0.13 146.54 0.26 146.67 0.26 157.27 0.26 157.4 0.26 157.4 0 146.54 0 146.54 0.13"/><polygon class="cls-3" points="130.16 8.26 130.17 8.26 130.17 8.13 130.3 8.13 130.3 8 130.17 8 130.16 8 119.72 8 119.68 8 119.55 8 119.55 8.13 119.68 8.13 119.68 8.26 119.72 8.26 130.16 8.26"/><polygon class="cls-3" points="119.55 0.13 119.55 0.26 119.68 0.26 119.72 0.26 130.16 0.26 130.17 0.26 130.3 0.26 130.3 0.13 130.3 0 119.55 0 119.55 0.13"/><polygon class="cls-3" points="92.57 0.26 92.7 0.26 103.18 0.26 103.18 0.26 103.31 0.26 103.31 0 92.57 0 92.57 0.13 92.57 0.26"/><polygon class="cls-3" points="78.33 79.83 78.33 79.96 79.82 79.96 79.82 79.83 79.82 79.7 78.33 79.7 78.33 79.83"/><path class="cls-3" d="M148.55,187.36h-.13v.19h14.36v-.26H148.55Z" transform="translate(-84.7 -107.59)"/><path class="cls-3" d="M148.29,187.36h.26v-.07a14.32,14.32,0,0,1,14.23-14.23h0v-.25A14.57,14.57,0,0,0,148.29,187.36Z" transform="translate(-84.7 -107.59)"/><polygon class="cls-3" points="119.68 8.26 119.68 8.13 119.55 8.13 119.42 8.13 119.42 10.74 119.68 10.74 119.68 8.26"/><polygon class="cls-3" points="130.17 8.13 130.17 8.26 130.17 10.74 130.43 10.74 130.43 8.13 130.3 8.13 130.17 8.13"/><path class="cls-3" d="M132.24,155.07v-.13h-.07v12.49h.26V155.08Z" transform="translate(-84.7 -107.59)"/><path class="cls-3" d="M132.24,154.81v.26h.19a12.43,12.43,0,0,1,12.23,12.35h.26A12.7,12.7,0,0,0,132.24,154.81Z" transform="translate(-84.7 -107.59)"/><polygon class="cls-3" points="47.6 60.1 47.47 60.1 47.47 61.71 47.6 61.71 47.73 61.71 47.73 60.1 47.6 60.1"/><rect class="cls-3" x="46.47" y="60.1" width="0.26" height="1.61"/><polygon class="cls-3" points="60.09 60.1 59.96 60.1 59.96 61.71 60.09 61.71 60.22 61.71 60.22 60.1 60.09 60.1"/><rect class="cls-3" x="60.96" y="60.1" width="0.26" height="1.61"/><path class="cls-3" d="M127.43,113.22h21.62v-1.76H127.17v1.76Zm0-1.5h21.36V113H127.43Z" transform="translate(-84.7 -107.59)"/><path class="cls-3" d="M177.4,113.22h10.75v-1.76h-11v1.76Zm0-1.5h10.49V113H177.4Z" transform="translate(-84.7 -107.59)"/><path class="cls-3" d="M204.43,113.22h10.7v-1.76h-11v1.76h.3Zm0-1.5h10.48V113H204.39Z" transform="translate(-84.7 -107.59)"/><path class="cls-3" d="M231.37,113.22h10.87v-1.76H231.11v1.76Zm0-1.5H242V113H231.37Z" transform="translate(-84.7 -107.59)"/><path class="cls-3" d="M290.57,111.46H269v1.76h21.87v-1.76Zm0,1.5H269.22v-1.24h21.35Z" transform="translate(-84.7 -107.59)"/><polygon class="cls-3" points="22.49 86.58 22.49 86.45 22.49 82.96 22.49 82.83 22.49 82.7 22.49 81.84 22.49 81.7 22.49 81.58 22.49 81.58 22.49 79.71 22.49 79.33 22.49 77.96 22.49 77.58 22.49 76.08 22.49 75.71 22.49 74.21 22.49 73.83 22.49 72.34 22.49 71.96 22.49 70.59 22.49 70.21 22.49 68.34 22.49 68.34 22.49 68.21 22.49 68.08 22.49 67.22 22.49 67.09 22.49 66.96 22.49 5.5 22.49 5.37 22.36 5.37 22.23 5.37 22.23 5.5 22.23 5.63 22.23 66.96 22.23 67.09 22.23 67.22 22.23 68.21 22.23 68.34 22.23 70.21 22.23 70.59 22.23 71.96 22.23 72.34 22.23 73.83 22.23 74.21 22.23 75.71 22.23 76.08 22.23 77.58 22.23 77.96 22.23 79.33 22.23 79.71 22.23 81.58 22.23 81.7 22.23 82.83 22.23 82.96 22.23 86.32 0 86.32 0 86.58 22.36 86.58 22.49 86.58"/><polygon class="cls-3" points="78.33 82.7 78.33 79.96 78.33 79.83 78.33 79.7 78.33 77.46 78.33 75.21 78.33 73.71 78.33 71.46 78.33 70.09 78.33 67.84 78.33 65.47 78.33 64.19 78.33 61.71 61.22 61.71 60.96 61.71 60.22 61.71 60.09 61.71 59.96 61.71 58.59 61.71 56.47 61.71 54.97 61.71 52.72 61.71 51.22 61.71 49.1 61.71 47.73 61.71 47.6 61.71 47.47 61.71 46.73 61.71 46.47 61.71 27.86 61.71 27.73 61.71 27.6 61.71 27.6 66.96 24.11 66.96 23.98 66.96 23.98 67.09 23.98 67.22 23.98 68.08 23.98 68.21 23.98 68.34 23.98 70.21 23.98 72.34 23.98 73.83 23.98 76.08 23.98 77.58 23.98 79.71 23.98 81.58 23.98 81.7 23.98 81.84 23.98 82.7 23.98 82.83 23.98 82.96 24.11 82.96 39.72 82.96 39.72 82.83 39.72 82.7 27.86 82.7 27.6 82.7 24.24 82.7 24.24 81.84 24.24 81.7 24.24 81.58 24.24 79.71 24.24 77.58 24.24 76.08 24.24 73.83 24.24 72.34 24.24 70.21 24.24 68.34 24.24 68.21 24.24 67.35 24.24 67.22 25.93 67.22 27.6 67.22 27.86 67.22 27.86 67.09 27.86 61.97 47.6 61.97 49.1 61.97 51.22 61.97 52.72 61.97 54.97 61.97 56.47 61.97 58.59 61.97 59.96 61.97 60.09 61.97 78.07 61.97 78.07 65.21 78.07 65.47 78.07 65.47 78.07 67.84 78.07 70.09 78.07 71.46 78.07 73.71 78.07 75.21 78.07 77.46 78.07 79.7 78.07 79.83 78.07 79.96 78.07 82.7 58.97 82.7 58.97 82.83 58.97 82.96 78.33 82.96 78.33 82.83 78.33 82.7"/><path class="cls-3" d="M112.57,167.69H163V118.33H112.31v49.36h.26Zm28.6-.26h-28.6V118.59h50.21v48.84H141.17Z" transform="translate(-84.7 -107.59)"/><path class="cls-3" d="M290.57,118.33h-126v72.22h139.8V118.33H290.57ZM164.79,182.8V118.59H304.07v71.7H164.79V182.8Z" transform="translate(-84.7 -107.59)"/><polygon class="cls-3" points="64.33 95.45 64.33 163.78 29.11 163.78 7.5 163.78 6.25 163.78 6.25 91.95 39.85 91.95 39.98 91.95 39.98 91.82 39.98 91.69 39.98 85.58 39.98 82.96 40.85 82.96 43.1 82.96 44.22 82.96 44.22 82.7 43.1 82.7 40.85 82.7 39.85 82.7 39.72 82.7 39.72 82.83 39.72 82.96 39.72 85.58 39.72 91.69 6.12 91.69 5.99 91.69 5.99 91.82 5.99 163.91 5.99 164.03 6.12 164.03 7.5 164.03 29.11 164.03 64.59 164.03 64.59 95.45 64.33 95.45"/><polygon class="cls-3" points="58.71 91.69 58.71 91.82 58.84 91.82 58.84 91.69 58.97 91.69 58.97 88.33 58.71 88.33 58.71 91.69"/><polygon class="cls-3" points="46.72 82.7 44.6 82.7 44.22 82.7 44.22 82.96 44.6 82.96 46.72 82.96 48.22 82.96 49.97 82.96 49.97 82.7 48.22 82.7 46.72 82.7"/><polygon class="cls-3" points="58.84 91.82 58.84 91.95 64.33 91.95 64.33 95.45 64.59 95.45 64.59 91.69 58.97 91.69 58.84 91.69 58.84 91.82"/><polygon class="cls-3" points="58.97 82.7 58.84 82.7 57.84 82.7 55.59 82.7 54.09 82.7 51.97 82.7 50.47 82.7 49.97 82.7 49.97 82.96 50.47 82.96 51.97 82.96 54.09 82.96 55.59 82.96 57.84 82.96 58.34 82.96 58.71 82.96 58.71 85.58 58.71 88.33 58.97 88.33 58.97 85.58 58.97 82.96 58.97 82.83 58.97 82.7"/><polygon class="cls-3" points="219.62 91.69 219.49 91.69 211.37 91.69 184.39 91.69 174.89 91.69 68.71 91.69 68.58 91.69 68.58 91.82 68.58 164.78 68.58 164.91 68.71 164.91 74.86 164.91 74.86 164.65 68.84 164.65 68.84 91.95 74.86 91.95 74.86 91.86 219.62 91.86 219.62 91.82 219.62 91.69"/><polygon class="cls-3" points="227.48 91.69 227.48 91.82 227.48 91.86 231.06 91.86 231.06 91.69 227.61 91.69 227.48 91.69"/><rect class="cls-3" x="230.98" y="82.83" width="0.08" height="0.13"/><rect class="cls-3" x="230.98" y="10.74" width="0.08" height="0.13"/><rect class="cls-3" x="230.98" y="10.87" width="0.08" height="71.96"/></g><g id="hello"><circle class="cls-6" cx="53.37" cy="72.17" r="4.29"/><path class="cls-4" d="M137.22,181.4a1.19,1.19,0,0,1-.67-.19,1.29,1.29,0,0,1-.46-.54,2.34,2.34,0,0,1,0-1.75,1.23,1.23,0,0,1,.46-.54,1.28,1.28,0,0,1,1.34,0,1.25,1.25,0,0,1,.47.54,2.34,2.34,0,0,1,0,1.75,1.31,1.31,0,0,1-.47.54A1.19,1.19,0,0,1,137.22,181.4Zm0-.51a.61.61,0,0,0,.38-.11.74.74,0,0,0,.25-.37,2.18,2.18,0,0,0,0-1.24.75.75,0,0,0-.25-.36.62.62,0,0,0-.38-.12.61.61,0,0,0-.37.12.77.77,0,0,0-.26.36,2.18,2.18,0,0,0,0,1.24.75.75,0,0,0,.26.37A.6.6,0,0,0,137.22,180.89Z" transform="translate(-84.7 -107.59)"/><path class="cls-4" d="M139.41,181.35v-2.89l.26.26h-.92v-.49H140v3.12Z" transform="translate(-84.7 -107.59)"/><circle class="cls-6" cx="39.98" cy="124.4" r="4.29"/><path class="cls-4" d="M123.39,233.62a1.27,1.27,0,0,1-.67-.18,1.25,1.25,0,0,1-.46-.55,1.93,1.93,0,0,1-.17-.87,1.9,1.9,0,0,1,.17-.87,1.25,1.25,0,0,1,1.8-.55,1.26,1.26,0,0,1,.46.55,1.9,1.9,0,0,1,.18.87,1.93,1.93,0,0,1-.18.87,1.32,1.32,0,0,1-.46.55A1.27,1.27,0,0,1,123.39,233.62Zm0-.5a.64.64,0,0,0,.38-.12.83.83,0,0,0,.25-.36,1.85,1.85,0,0,0,.09-.62,1.77,1.77,0,0,0-.09-.62.81.81,0,0,0-.25-.37.7.7,0,0,0-.38-.11.67.67,0,0,0-.37.11.75.75,0,0,0-.26.37,1.77,1.77,0,0,0-.09.62,1.85,1.85,0,0,0,.09.62.77.77,0,0,0,.26.36A.61.61,0,0,0,123.39,233.12Z" transform="translate(-84.7 -107.59)"/><path class="cls-4" d="M126,233.62a2.3,2.3,0,0,1-.64-.09,1.76,1.76,0,0,1-.53-.27l.25-.45a1.23,1.23,0,0,0,.41.22,1.43,1.43,0,0,0,.5.09.79.79,0,0,0,.49-.13.43.43,0,0,0,0-.68.78.78,0,0,0-.51-.13h-.29v-.39l.89-1.07.08.22H125v-.48h2.13v.38l-.89,1.07-.31-.18h.18a1.26,1.26,0,0,1,.86.25.85.85,0,0,1,.29.66,1,1,0,0,1-.13.49,1,1,0,0,1-.41.36A1.62,1.62,0,0,1,126,233.62Z" transform="translate(-84.7 -107.59)"/><circle class="cls-6" cx="134.24" cy="60.91" r="4.29"/><path class="cls-4" d="M217.65,170.13a1.19,1.19,0,0,1-.67-.19,1.17,1.17,0,0,1-.46-.54,2.34,2.34,0,0,1,0-1.75,1.17,1.17,0,0,1,.46-.54,1.28,1.28,0,0,1,1.34,0,1.23,1.23,0,0,1,.46.54,2.34,2.34,0,0,1,0,1.75,1.23,1.23,0,0,1-.46.54A1.19,1.19,0,0,1,217.65,170.13Zm0-.5a.64.64,0,0,0,.38-.12.81.81,0,0,0,.25-.37,2.18,2.18,0,0,0,0-1.24.83.83,0,0,0-.25-.36.64.64,0,0,0-.38-.12.59.59,0,0,0-.37.12.77.77,0,0,0-.26.36,2.18,2.18,0,0,0,0,1.24.75.75,0,0,0,.26.37A.59.59,0,0,0,217.65,169.63Z" transform="translate(-84.7 -107.59)"/><path class="cls-4" d="M219.3,169.38V169l1.54-2h.62l-1.52,2-.29-.08h2.48v.49Zm1.71.7v-.7l0-.49v-.63h.55v1.82Z" transform="translate(-84.7 -107.59)"/><circle class="cls-6" cx="52.97" cy="33.92" r="4.29"/><path class="cls-4" d="M136.38,143.15a1.19,1.19,0,0,1-.67-.19,1.31,1.31,0,0,1-.47-.54,2.34,2.34,0,0,1,0-1.75,1.25,1.25,0,0,1,.47-.54,1.19,1.19,0,0,1,.67-.19,1.16,1.16,0,0,1,.66.19,1.19,1.19,0,0,1,.47.54,2.34,2.34,0,0,1,0,1.75,1.24,1.24,0,0,1-.47.54A1.16,1.16,0,0,1,136.38,143.15Zm0-.51a.58.58,0,0,0,.37-.11.82.82,0,0,0,.26-.37,2.18,2.18,0,0,0,0-1.24.84.84,0,0,0-.26-.36.59.59,0,0,0-.37-.12.64.64,0,0,0-.38.12.75.75,0,0,0-.25.36,2.18,2.18,0,0,0,0,1.24.74.74,0,0,0,.25.37A.63.63,0,0,0,136.38,142.64Z" transform="translate(-84.7 -107.59)"/><path class="cls-4" d="M138,143.1v-.38l1.24-1.18a2.26,2.26,0,0,0,.23-.26.67.67,0,0,0,.1-.21.57.57,0,0,0,0-.18.4.4,0,0,0-.15-.33.67.67,0,0,0-.43-.12,1.12,1.12,0,0,0-.42.08,1,1,0,0,0-.32.25l-.4-.31a1.2,1.2,0,0,1,.49-.39,1.73,1.73,0,0,1,.69-.13,1.4,1.4,0,0,1,.6.11.83.83,0,0,1,.38.31.82.82,0,0,1,.14.47,1.06,1.06,0,0,1,0,.31,1.25,1.25,0,0,1-.15.31,2.52,2.52,0,0,1-.33.37l-1.06,1-.12-.22h1.82v.49Z" transform="translate(-84.7 -107.59)"/><path class="cls-6" d="M96,190.43V175.75l7.34,7.34Z" transform="translate(-84.7 -107.59)"/></g></svg>