<?xml version="1.0" encoding="utf-8"?>
<!-- Generator: Adobe Illustrator 26.0.3, SVG Export Plug-In . SVG Version: 6.00 Build 0)  -->
<svg version="1.1" id="Layer_1" xmlns="http://www.w3.org/2000/svg" xmlns:xlink="http://www.w3.org/1999/xlink" x="0px" y="0px"
	 viewBox="0 0 208.1 175.7" style="enable-background:new 0 0 208.1 175.7;" xml:space="preserve">
<style type="text/css">
	.st0{fill:#CFD4C3;}
	.st1{fill:#E8E6E3;}
	.st2{fill:#2B2D2C;}
	.st3{fill:none;}
	.st4{fill:#FFFFFF;}
</style>
<g id="_1pp">
	<path class="st0" d="M5.4,67.2H2v0.2c1.1,0,2.3,0.2,3.4,0.4V67.2z"/>
	<rect x="2" y="82.2" class="st0" width="3.4" height="0.9"/>
	<path class="st0" d="M5.4,81.8h0.3V82h10.5c0-6.4-4.3-12-10.5-13.7v0.2H5.4v-0.3c-1.1-0.3-2.2-0.4-3.4-0.4V82h3.4V81.8z M5.4,70.7
		h0.3v1.5H5.4V70.7z M5.4,74.3h0.3v1.5H5.4V74.3z M5.4,78.1h0.3v1.5H5.4V78.1z"/>
	<path class="st0" d="M55.7,83.1V80H41.5v-0.2h-0.3c0-8,6.5-14.5,14.5-14.6V62H5.6v6c6.3,1.7,10.7,7.4,10.7,14h-0.1v0.2H5.6V83
		L55.7,83.1L55.7,83.1z"/>
	<polygon class="st0" points="144.9,91.7 145.8,91.7 145.8,85.3 143.8,85.3 143.8,91.7 	"/>
	<path class="st0" d="M41.5,79.7h14.2V65.5C47.9,65.5,41.5,71.9,41.5,79.7z"/>
	<path class="st0" d="M127.9,91.7h2.7c-1-2-1.5-4.1-1.6-6.4h-1.9v6.4H127.9z"/>
	<rect x="197.4" y="118.1" class="st0" width="5.1" height="21.4"/>
	<path class="st0" d="M6.8,163.8h94.8V92H31.3c-2.3,3.6-6.3,5.7-10.6,5.8v-0.1h-0.1V92h-15v71.8H6.8z M87.8,104.4V92.8h12.9v12.6
		H87.8V104.4z M6.6,105.1h13.3v56.7H6.6V105.1z"/>
	<rect x="56" y="80" class="st0" width="1.6" height="1.6"/>
	<rect x="202.8" y="118.1" class="st0" width="1.1" height="21.4"/>
	<rect x="204.1" y="118.1" class="st0" width="3.7" height="21.4"/>
	<rect x="163.5" y="0.3" class="st0" width="21.3" height="3.6"/>
	<rect x="204.1" y="36.2" class="st0" width="3.7" height="21.4"/>
	<rect x="20.5" y="0.3" class="st0" width="21.3" height="3.6"/>
	<rect x="202.8" y="36.2" class="st0" width="1.1" height="21.4"/>
	<rect x="197.4" y="36.2" class="st0" width="5.1" height="21.4"/>
	<rect x="70.5" y="5.6" class="st0" width="10.5" height="5.1"/>
	<polygon class="st0" points="56,67.8 56,70.1 56,71.5 56,73.7 56,75.2 56,77.5 56,79.7 57.6,79.7 57.6,77.5 57.6,75.2 57.6,73.7 
		57.6,71.5 57.6,70.1 57.6,67.8 57.6,65.6 56,65.6 	"/>
	<rect x="97.4" y="5.6" class="st0" width="10.5" height="5.1"/>
	<rect x="56" y="64.4" class="st0" width="1.6" height="0.9"/>
	<rect x="163.5" y="5.6" class="st0" width="21.3" height="5.1"/>
	<rect x="163.5" y="4.1" class="st0" width="21.3" height="1.2"/>
	<rect x="124.4" y="5.6" class="st0" width="10.5" height="5.1"/>
	<polygon class="st0" points="1.8,80 1.8,77.7 1.8,76.2 1.8,74.1 1.8,72.6 1.8,70.3 1.8,68.4 0.3,68.4 0.3,70.3 0.3,72.6 0.3,74.1 
		0.3,76.2 0.3,77.7 0.3,80 0.3,81.9 1.8,81.9 	"/>
	<rect x="5.6" y="60.1" class="st0" width="19.5" height="0.2"/>
	<rect x="97.4" y="0.3" class="st0" width="10.5" height="3.6"/>
	<rect x="70.5" y="4.1" class="st0" width="10.5" height="1.2"/>
	<rect x="39" y="60.1" class="st0" width="0.6" height="1.6"/>
	<polygon class="st0" points="37.2,60.1 35.1,60.1 33.6,60.1 31.4,60.1 29.9,60.1 27.7,60.1 26.4,60.1 26.4,61.7 27.7,61.7 
		29.9,61.7 31.4,61.7 33.6,61.7 35.1,61.7 37.2,61.7 38.7,61.7 38.7,60.1 	"/>
	<rect x="25.4" y="60.1" class="st0" width="0.7" height="1.6"/>
	<rect x="70.5" y="0.3" class="st0" width="10.5" height="3.6"/>
	<rect x="143.8" y="83.3" class="st0" width="2" height="1.7"/>
	<rect x="97.4" y="4.1" class="st0" width="10.5" height="1.2"/>
	<path class="st0" d="M197.1,92h-53.2v7.6h-0.2v0.1c-5.4,0-10.3-3-12.9-7.8h-23.5v71.8h89.8v-45.8H197L197.1,92z M108,105.5h7.6v7.6
		H108V105.5z M108,154.3v-7.6h7.6v7.6H108z M145.8,145.1L145.8,145.1c-1.1,1-2.6,1.5-4.1,1.6h-21.2v-1H108v-31.2h19.9l0.9-1.3v0.3
		h12.9c3.4,0,6.2,2.8,6.2,6.2v20.8C147.9,142.3,147.2,144,145.8,145.1z M192.6,157.2c0,0.2,0,0.5-0.1,0.7c-0.3,1.1-1.3,1.8-2.4,1.8
		h-4.4l-0.9,1.1l-0.5-1.1h-8.2c-0.8,0-1.4-0.6-1.4-1.4V158l0,0v-14c0-1.3,1-2.3,2.3-2.4h14.3c0.8,0,1.4,0.6,1.4,1.4l0,0L192.6,157.2
		z M160.2,106.7V93.3h35.7v13.4C195.9,106.7,160.2,106.7,160.2,106.7z"/>
	<path class="st0" d="M131.7,85.1v0.2h-2.4c0,2.2,0.6,4.4,1.6,6.4h12.6v-6.4h-2.2V85h2.2v-1.7h-14.1V85L131.7,85.1z M137.5,85.1h1.5
		v0.2h-1.5V85.1z M133.9,85.1h1.4v0.2h-1.4V85.1z"/>
	<rect x="127.2" y="83.3" class="st0" width="2" height="1.7"/>
	<rect x="124.4" y="0.3" class="st0" width="10.5" height="3.6"/>
	<path class="st0" d="M33.4,85.2L33.4,85.2c0,2.3-0.7,4.5-1.9,6.5h2.9v-6.5H33.4z"/>
	<path class="st0" d="M22.2,85v0.3h-1.4v6.5h10.3c1.2-1.9,1.9-4.2,1.9-6.5h-1.2V85h1.4v-1.6H20.8V85H22.2z M28.2,85h1.5v0.3h-1.5V85
		z M24.5,85H26v0.3h-1.5V85z"/>
	<rect x="33.5" y="83.3" class="st0" width="0.7" height="1.6"/>
	<path class="st0" d="M143.5,99.4V92H131C133.5,96.5,138.3,99.4,143.5,99.4z"/>
	<path class="st0" d="M31,92H20.8v5.5C24.9,97.4,28.7,95.3,31,92z"/>
	<rect x="18.6" y="83.3" class="st0" width="2" height="1.6"/>
	<polygon class="st0" points="20.6,91.7 20.6,85.2 18.6,85.2 18.6,86.1 18.6,88.7 18.6,91.7 18.6,91.7 	"/>
	<path class="st0" d="M26.2,47.3L26.2,47.3c7-0.1,12.6,5.6,12.7,12.6h16.9V37.3h-5.4v-6.8c-3.2-0.9-5-4.2-4.1-7.3
		c0.6-2,2.1-3.5,4.1-4.1v-6.8h5.4V11H5.6v48.8h20.5L26.2,47.3L26.2,47.3z M42.9,46.7h12.6v12.9H42.9V46.7z M23.9,59.4H6.3V38.1h17.5
		L23.9,59.4z M19.5,24c-1.4,0-2.8-0.3-4-1h-3.3v0.4c0,0.8-0.6,1.4-1.4,1.4h-2c-0.8,0-1.4-0.6-1.4-1.4v-8.1c0-0.8,0.6-1.4,1.4-1.4
		l0,0h2c0.8,0,1.4,0.6,1.4,1.4l0,0v0.4h3.2c1.2-0.7,2.6-1,4-1c3.6,0,6.5,2.1,6.5,4.6S23.1,24.1,19.5,24L19.5,24z"/>
	<rect x="20.5" y="5.6" class="st0" width="21.3" height="5.1"/>
	<rect x="20.5" y="4.1" class="st0" width="21.3" height="1.2"/>
	<rect x="0.3" y="82.2" class="st0" width="1.5" height="0.9"/>
	<path class="st0" d="M26.4,47.5v12.4h12.2C38.6,53.1,33.1,47.6,26.4,47.5z"/>
	<rect x="0.3" y="67.2" class="st0" width="1.5" height="0.9"/>
	<rect x="124.4" y="4.1" class="st0" width="10.5" height="1.2"/>
	<rect x="208" y="175.5" class="st0" width="0.1" height="0.1"/>
	<path class="st0" d="M146,83.1h51V57.7h0.1V11H57.8v72.1H146L146,83.1z M180.4,77.2h-2.6v0.9H173l0.6,0.6v0.1h-0.1l-0.8-0.7h-0.5
		l-0.7,1.5h-11.2l-0.7-1.5h-0.5l-0.8,0.7h-0.1v-0.1l0.6-0.6H154v-0.9h-2.6v-0.9h8.4l-1.6-1.5v-0.1h0.1c0,0,0,0,0.1,0l1.8,1.6h11.6
		l1.8-1.6h0.1v0.1l-1.6,1.5h8.4v0.9H180.4z M163.6,36.9c-0.3-3.7,2.5-6.8,6.1-7.1c3.7-0.3,6.8,2.5,7.1,6.1c0.3,3.7-2.5,6.8-6.1,7.1
		c-0.2,0-0.3,0-0.5,0C166.7,43.1,163.7,40.4,163.6,36.9L163.6,36.9z M193.3,65.2L193.3,65.2c0,0.1,0,0.2-0.1,0.2
		c-0.5,0.2-1,0.3-1.6,0.3c1.8,0.6,3.2,1.9,3.8,3.7v0.1l-0.1,0.1c-1.7,0.1-3.4-0.5-4.7-1.7c0.1,0.2,0.1,0.5,0.1,0.7
		c0,0.1-0.1,0.1-0.1,0.1l0,0c-0.5,0-0.9-0.6-1.4-1.3c0.2,0.9,0.2,1.9,0,2.9c0,0.1-0.1,0.1-0.2,0.1c0,0,0,0-0.1,0
		c-0.6-0.6-0.9-1.3-1.1-2c-0.1,0.7-0.3,1.4-0.8,1.9h-0.1l0,0l-0.1-0.1c-0.2-0.7-0.2-1.5-0.2-2.2c-0.8,1.3-1.9,2.7-3.1,3.1l0,0h-0.1
		V71c0-1.8,1.3-3.4,2.5-4.6c-0.6,0.3-1.4,0.5-2.1,0.5c0,0-0.1,0-0.1-0.1v-0.1c0.5-0.5,1.1-0.9,1.7-1.1c-0.3,0-0.5,0-0.8-0.1
		c0,0-0.1,0-0.1-0.1v-0.1c0.1-0.1,0.1-0.1,0.2-0.2c-1.3,0-2.6-0.3-2.9-1.1c0-0.1,0-0.1,0-0.1c1.1-0.4,2.4-0.5,3.5-0.3
		c-1-0.5-1.8-1.4-2.3-2.5V61h0.1c1.1,0.2,2.1,0.7,2.8,1.4c-0.8-1.3-1.7-3.1-1.2-4.1c0,0,0-0.1,0.1-0.1h0.1c1.4,0.9,2.5,2.1,3.1,3.6
		c0.1-0.6,0.3-1.1,0.6-1.2h0.1c0,0,0.1,0,0.1,0.1c0.1,0.5,0.2,1.1,0.1,1.6c0.6-0.9,1.4-1.7,2.4-2.2h0.1c0,0,0.1,0.1,0,0.1
		c-0.4,1.3-1.1,2.6-2.1,3.6c1.8-1.1,3.9-1.3,5.9-0.7l0.1,0.1v0.1c-1.1,0.8-2.3,1.4-3.7,1.6C192.4,64.8,192.8,65,193.3,65.2
		L193.3,65.2z M147.8,13.9v-2.3h48.8v36.8h-10.8c-1.2,0-2.2-1-2.2-2.1v-7.9c0-0.9,0.6-1.7,1.5-2c-0.9-0.3-1.4-1.1-1.5-2v-7.9
		c0-0.9,0.6-1.7,1.5-2c-0.6-0.2-1.1-0.7-1.3-1.3c-0.3,0.9-1.1,1.4-2,1.5h-8c-0.9,0-1.7-0.6-2-1.5c-0.3,0.9-1.1,1.5-2,1.5h-7.9
		c-0.9,0-1.7-0.6-2-1.5c-0.3,0.9-1.1,1.4-2,1.4H150c-1.2,0-2.2-0.9-2.2-2.1v-0.1V13.9z M69.1,42.9v17.3h-11V49.3l0,0v-6.1l0,0v-32
		h11V42.9z M86.9,20.5c0-0.3,0-0.6,0-0.9c0-0.2,0.1-0.6,0.3-0.6h0.6c0.2,0,0.3,0.3,0.3,0.5c0.2-0.3,0.6-0.5,1-0.5h4.4l0,0
		c0.4,0,0.7,0.2,0.9,0.4c0.3,0.3,0.4,0.7,0.4,1l0.1,5.1c0.1,0.8-0.5,1.5-1.3,1.5l-4.4,0.1l0,0c-0.4,0-0.8-0.2-1-0.5
		c0,0.2-0.1,0.5-0.3,0.5h-0.6c-0.3,0-0.3-0.3-0.3-0.6c0-0.3-0.1-0.6-0.1-0.9V20.5z M94.7,37.2c-0.2,0.3-0.6,0.4-0.9,0.5l-4.4,0.1
		c-0.4,0-0.8-0.2-1-0.5c0,0.2-0.1,0.5-0.3,0.5h-0.6c-0.3,0-0.3-0.3-0.3-0.6s-0.1-0.6-0.1-0.9L87,31.1c0-0.3,0-0.6,0-0.9
		c0-0.2,0.1-0.6,0.3-0.6h0.6c0.2,0,0.3,0.3,0.3,0.5c0.2-0.3,0.6-0.5,1-0.5l4.4-0.1l0,0c0.4,0,0.7,0.2,0.9,0.4c0.2,0.3,0.4,0.6,0.4,1
		L95,36C95,36.5,94.9,36.9,94.7,37.2L94.7,37.2z M109.3,40.4l-13.8,0.1v-0.1l-0.1-24.2h0.1l13.8-0.1v0.1l0.2,24.2H109.3z
		 M109.7,20.4c0-0.8,0.5-1.4,1.3-1.5h4.4c0.4,0,0.8,0.2,1,0.5c0-0.2,0.1-0.5,0.3-0.5h0.6c0.3,0,0.3,0.3,0.3,0.6c0,0.3,0,0.6,0,0.9
		v5.1c0,0.3,0,0.6,0,0.9c0,0.2-0.1,0.6-0.3,0.6h-0.6c-0.2,0-0.3-0.3-0.3-0.5c-0.2,0.3-0.6,0.5-1,0.5H111c-0.8-0.1-1.4-0.7-1.3-1.5
		V20.4z M117.7,36.1c0,0.3,0,0.6-0.1,0.9c0,0.2-0.1,0.6-0.3,0.6h-0.6c-0.2,0-0.3-0.3-0.3-0.5c-0.2,0.3-0.6,0.5-1,0.5H111
		c-0.8,0-1.4-0.7-1.3-1.5V31c0-0.8,0.5-1.4,1.3-1.5h4.4c0.4,0,0.8,0.2,1,0.5c0-0.2,0.1-0.5,0.3-0.5h0.6c0.3,0,0.3,0.3,0.3,0.6
		c0,0.3,0.1,0.6,0.1,0.9C117.7,31,117.7,36.1,117.7,36.1z"/>
	<path class="st1" d="M58.3,60h9.9V49.5h-9.9C58.3,49.5,58.3,60,58.3,60z M61.8,54.2l0.4,0.4h0.6l-0.4-0.4H61.8l0.1-0.5H62l0.3-0.3
		v-0.1h0.4v0.5l0.4,0.4v-0.6l-0.4-0.4L63,53l0.1,0.1h0.4l0.1-0.1l0.3,0.3l-0.4,0.4v0.6l0.4-0.4v-0.5h0.4v0.1l0.3,0.3h0.2v0.4h-0.5
		l-0.4,0.4h0.6l0.4-0.4l0.3,0.3l-0.1,0.1V55l0.1,0.1l-0.3,0.3L64.4,55h-0.6l0.4,0.4h0.5v0.4h-0.2L64.3,56v0.1h-0.5v-0.5l-0.4-0.4
		v0.6l0.4,0.4l-0.3,0.3l-0.1-0.1H63l-0.1,0.1l-0.3-0.3l0.4-0.4v-0.6l-0.4,0.4v0.5h-0.4V56l-0.3-0.2h-0.1v-0.4h0.5l0.4-0.4h-0.6
		l-0.4,0.4L61.5,55l0.1-0.1v-0.4l-0.1-0.1L61.8,54.2z"/>
	<polygon class="st2" points="68.1,60 58.3,60 58.3,49.5 58.1,49.5 58.1,49.3 58.1,49.3 58.1,60.2 68.1,60.2 	"/>
	<rect x="68.4" y="49.5" class="st1" width="0.4" height="10.4"/>
	<polygon class="st2" points="68.8,49.5 68.8,60 68.4,60 68.4,49.5 68.1,49.5 68.1,60 68.1,60.2 69.1,60.2 69.1,49.5 	"/>
	<polygon class="st2" points="61.6,54.9 61.5,55.1 61.8,55.3 62.1,55 62.7,55 62.3,55.4 61.8,55.4 61.8,55.8 61.9,55.8 62.2,56.1 
		62.2,56.2 62.6,56.2 62.6,55.7 63.1,55.2 63.1,55.9 62.7,56.2 63,56.5 63.1,56.4 63.4,56.4 63.6,56.5 63.8,56.2 63.5,55.9 
		63.5,55.3 63.9,55.7 63.9,56.2 64.3,56.2 64.3,56.1 64.5,55.8 64.7,55.8 64.7,55.4 64.2,55.4 63.8,55 64.3,55 64.7,55.3 65,55.1 
		64.9,54.9 64.9,54.6 65,54.5 64.7,54.2 64.3,54.6 63.8,54.6 64.2,54.1 64.7,54.1 64.7,53.7 64.5,53.7 64.3,53.5 64.3,53.3 
		63.9,53.3 63.9,53.9 63.5,54.2 63.5,53.7 63.8,53.3 63.6,53 63.4,53.1 63.1,53.1 62.9,53 62.7,53.3 63.1,53.7 63.1,54.3 62.6,53.9 
		62.6,53.3 62.2,53.3 62.2,53.5 61.9,53.7 61.8,53.7 61.8,54.1 62.3,54.1 62.7,54.6 62.1,54.6 61.8,54.2 61.5,54.5 61.6,54.6 	"/>
	<path class="st1" d="M58.3,17.3c0.2-0.3,0.5-0.4,0.9-0.4h8.1c0.3,0,0.7,0.2,0.9,0.4v-5.8h-9.9C58.3,11.5,58.3,17.3,58.3,17.3z"/>
	<path class="st1" d="M67.3,34.6h-8.1c-0.3,0-0.7-0.2-0.9-0.4V43h9.9v-8.8C67.9,34.4,67.6,34.6,67.3,34.6z"/>
	<path class="st2" d="M58.3,43v-8.8c-0.2-0.2-0.2-0.4-0.2-0.7v9.7l0,0V43H58.3z"/>
	<path class="st2" d="M58.3,17.3v-5.8h9.9v-0.2H58.1V18C58.1,17.7,58.1,17.5,58.3,17.3z"/>
	<polygon class="st1" points="68.4,43 68.8,43 68.8,11.5 68.4,11.5 68.4,18 68.4,33.5 	"/>
	<path class="st2" d="M68.2,11.4v5.9c0.2,0.2,0.2,0.4,0.2,0.7v-6.5h0.4V43H69V11.2h-0.9v0.2H68.2z"/>
	<path class="st2" d="M68.2,34.2V43h0.2v-9.5C68.4,33.7,68.3,34,68.2,34.2z"/>
	<path class="st1" d="M58.9,23.9c0.2,0,0.4,0.1,0.5,0.3l0,0l0.4,0.4c0.1-0.1,0.2-0.1,0.4-0.1h6.6c0.5,0,0.8,0.4,0.9,0.8v7.4
		c0,0.5-0.4,0.8-0.9,0.8h-6.6c-0.5,0-0.8-0.4-0.8-0.8l0,0v-6.9l-0.9-0.7l0,0l0,0l0,0c0,0-0.1-0.1-0.1-0.2v8.6c0,0.5,0.4,0.9,0.9,0.9
		l0,0h8.1c0.5,0,0.9-0.4,0.9-0.9l0,0V18c0-0.5-0.4-0.9-0.9-0.9l0,0h-8.1c-0.5,0-0.9,0.4-0.9,0.9l0,0v6.2
		C58.4,24,58.6,23.9,58.9,23.9z M59.3,18.3c0.1-0.4,0.4-0.7,0.9-0.7h6.6c0.4,0,0.8,0.2,0.9,0.7v5.4c-0.1,0.4-0.4,0.7-0.9,0.6h-6.6
		c-0.4,0-0.8-0.2-0.9-0.6C59.3,23.7,59.3,18.3,59.3,18.3z"/>
	<path class="st2" d="M58.3,34.2c0.2,0.3,0.5,0.4,0.9,0.4h8.1c0.3,0,0.7-0.2,0.9-0.4c0.2-0.2,0.2-0.4,0.2-0.7V18
		c0-0.2-0.1-0.5-0.2-0.7c-0.2-0.3-0.5-0.4-0.9-0.4h-8.1c-0.3,0-0.7,0.2-0.9,0.4c-0.2,0.2-0.2,0.4-0.2,0.7v15.5
		C58.1,33.7,58.1,34,58.3,34.2z M58.3,18c0-0.5,0.4-0.9,0.9-0.9l0,0h8.1c0.5,0,0.9,0.4,0.9,0.9l0,0v15.5c0,0.5-0.4,0.9-0.9,0.9l0,0
		h-8.1c-0.5,0-0.9-0.4-0.9-0.9l0,0v-8.6c-0.1-0.1-0.1-0.2-0.1-0.3c0-0.1,0-0.2,0.1-0.3C58.3,24.3,58.3,18,58.3,18z"/>
	<path class="st1" d="M60.2,33.3h6.6c0.3,0,0.6-0.3,0.6-0.6l0,0v-7.4c0-0.3-0.3-0.6-0.6-0.6l0,0h-6.6c-0.1,0-0.1,0-0.2,0l2,2.2
		c0.2,0.2,0.2,0.4,0,0.6c-0.1,0.1-0.2,0.1-0.3,0.1s-0.2,0-0.3-0.1L59.6,26v6.7C59.6,33,59.8,33.3,60.2,33.3z M61.1,28.5
		c0.5,0,0.9,0.4,0.9,0.9s-0.4,0.9-0.9,0.9s-0.9-0.4-0.9-0.9C60.1,28.9,60.6,28.5,61.1,28.5L61.1,28.5z"/>
	<path class="st2" d="M60,24.8c0.1,0,0.1,0,0.2,0h6.6c0.3,0,0.6,0.3,0.6,0.6l0,0v7.4c0,0.3-0.3,0.6-0.6,0.6l0,0h-6.6
		c-0.3,0-0.6-0.3-0.6-0.6l0,0v-6.7l-0.2-0.2v6.9c0,0.5,0.4,0.8,0.8,0.8l0,0h6.6c0.5,0,0.8-0.4,0.9-0.8v-7.5c0-0.5-0.4-0.8-0.9-0.8
		h-6.6c-0.1,0-0.2,0-0.4,0.1L60,24.8z"/>
	<path class="st1" d="M59.9,24.1C59.9,24,59.9,24,59.9,24.1V18c0,0,0,0,0-0.1c-0.2,0.1-0.4,0.2-0.4,0.4v5.4
		C59.6,23.9,59.7,24,59.9,24.1z"/>
	<path class="st1" d="M60.6,18v6c0,0,0,0.1-0.1,0.1h0.4L60.8,24v-6c0-0.1,0-0.1,0.1-0.1h-0.4C60.6,17.9,60.6,17.9,60.6,18z"/>
	<path class="st1" d="M61.5,18v6c0,0,0,0.1-0.1,0.1h0.4L61.7,24v-6c0-0.1,0.1-0.1,0.1-0.1l0,0h-0.4C61.5,17.9,61.5,17.9,61.5,18z"/>
	<path class="st1" d="M62.4,18v6c0,0.1,0,0.1-0.1,0.1h0.4L62.6,24v-6c0-0.1,0.1-0.1,0.1-0.1h0.4c0.1,0,0.1,0.1,0.1,0.1v6
		c0,0,0,0.1-0.1,0.1h0.4L63.4,24v-6c0-0.1,0.1-0.1,0.1-0.1h0.4c0.1,0,0.1,0,0.1,0.1l0,0v6c0,0,0,0.1-0.1,0.1h0.4L64.2,24v-6
		c0-0.1,0.1-0.1,0.1-0.1l0,0H65c0.1,0,0.1,0.1,0.1,0.1l0,0v6c0,0.1,0,0.1-0.1,0.1h0.4L65.3,24v-5.9c0-0.1,0-0.1,0.1-0.1l0,0H66
		c0.1,0,0.1,0.1,0.1,0.1l0,0V24c0,0.1,0,0.1-0.1,0.1h0.4L66.3,24v-5.9c0-0.1,0.1-0.1,0.1-0.1l0,0h0.4c0.1,0,0.1,0.1,0.1,0.1l0,0V24
		v0.1c0.2-0.1,0.4-0.2,0.4-0.4v-5.4c0-0.2-0.3-0.4-0.6-0.4L62.4,18C62.4,17.9,62.4,17.9,62.4,18z"/>
	<path class="st2" d="M60.2,24.3h6.6c0.4,0,0.8-0.2,0.9-0.6v-5.4c-0.1-0.4-0.4-0.7-0.9-0.7h-6.6c-0.4,0-0.8,0.2-0.9,0.7v5.4
		C59.4,24.1,59.8,24.4,60.2,24.3z M59.6,18.3c0-0.2,0.2-0.3,0.4-0.4h0.1h0.4l0,0h6.2c0.3,0,0.6,0.2,0.6,0.4v5.4
		c0,0.2-0.2,0.3-0.4,0.4c0,0-0.1,0-0.1,0.1h-0.4h-0.1H66l0,0h-0.4h-0.1h-0.4l0,0h-0.4h-0.1h-0.4l0,0h-0.4h-0.1h-0.4h-0.1h-0.4l0,0
		h-0.4l0,0h-0.6h-0.1h-0.4h-0.1h-0.4l0,0h-0.4l0,0H60c0,0-0.1,0-0.1-0.1c-0.2-0.1-0.4-0.2-0.4-0.4L59.6,18.3z"/>
	<path class="st1" d="M59.5,25.3c0.2,0.1,0.5,0.3,0.6,0.4l-0.4-0.6c-0.1-0.1-0.2-0.3-0.3-0.4c-0.1,0.1-0.2,0.2-0.3,0.3L59.5,25.3z"
		/>
	<path class="st2" d="M58.4,25.1L58.4,25.1L58.4,25.1z"/>
	<path class="st1" d="M59.5,25.7l2,1.7l0,0c0.1,0.1,0.2,0.1,0.3,0l0,0c0.1-0.1,0.1-0.2,0-0.3l0,0l-1.8-2c0.4,0.6,0.6,0.8,0.4,0.9
		S60.1,26.1,59.5,25.7z"/>
	<path class="st2" d="M59.3,25.8l0.2,0.2l1.8,1.5c0.1,0.1,0.2,0.1,0.3,0.1s0.2,0,0.3-0.1c0.2-0.2,0.2-0.4,0-0.6l-2-2.2l-0.2-0.2
		l-0.4-0.4l0,0c0.1,0.1,0.2,0.3,0.2,0.4s0,0.2-0.1,0.3c0.1,0.1,0.1,0.2,0.3,0.4l0.4,0.6c-0.2-0.1-0.5-0.3-0.6-0.4l-0.3-0.2
		c-0.2,0.1-0.5,0.1-0.8-0.1l0,0L59.3,25.8z M60.4,26.1c0.1-0.1,0-0.3-0.4-0.9l1.8,2c0.1,0.1,0.1,0.2,0,0.3l0,0
		c-0.1,0.1-0.2,0.1-0.3,0l0,0l0,0l-2-1.7C60.1,26.1,60.3,26.2,60.4,26.1L60.4,26.1z"/>
	<path class="st1" d="M58.9,25c0.2,0,0.4-0.2,0.4-0.4c0-0.2-0.2-0.4-0.4-0.4s-0.4,0.2-0.4,0.4S58.6,25,58.9,25L58.9,25z"/>
	<path class="st2" d="M58.3,24.9c0,0.1,0.1,0.1,0.1,0.2l0,0l0,0c0.2,0.2,0.5,0.2,0.8,0.1c0.1-0.1,0.2-0.2,0.3-0.3
		c0.1-0.1,0.1-0.2,0.1-0.3c0-0.2-0.1-0.3-0.2-0.4c-0.1-0.2-0.3-0.3-0.5-0.3s-0.5,0.1-0.6,0.4c-0.1,0.1-0.1,0.2-0.1,0.3
		C58.2,24.7,58.2,24.8,58.3,24.9z M58.9,24.1c0.2,0,0.4,0.2,0.4,0.4c0,0.2-0.2,0.4-0.4,0.4s-0.4-0.2-0.4-0.4S58.6,24.1,58.9,24.1
		L58.9,24.1z"/>
	<rect x="60.2" y="18.1" class="st1" width="0.2" height="5.8"/>
	<path class="st2" d="M59.9,24L59.9,24c0,0.1,0.1,0.1,0.1,0.1h0.4l0,0l0.1-0.1v-6c0,0,0-0.1-0.1-0.1l0,0H60h-0.1c0,0,0,0,0,0.1V24z
		 M60.2,23.9v-5.8h0.2v5.8C60.4,23.9,60.2,23.9,60.2,23.9z"/>
	<rect x="61.1" y="18.1" class="st1" width="0.2" height="5.7"/>
	<path class="st2" d="M60.8,18v6c0,0.1,0,0.1,0.1,0.1l0,0h0.4h0.1l0.1-0.1v-6c0-0.1,0-0.1-0.1-0.1h-0.5C60.8,17.9,60.8,18,60.8,18z
		 M61.1,23.9v-5.7h0.2v5.7C61.3,23.9,61.1,23.9,61.1,23.9z"/>
	<rect x="62" y="18.1" class="st1" width="0.2" height="5.7"/>
	<path class="st2" d="M61.7,18v6c0,0,0,0.1,0.1,0.1h0.1h0.4l0,0l0.1-0.1v-6c0-0.1-0.1-0.1-0.1-0.1h-0.4C61.8,17.9,61.7,18,61.7,18z
		 M62,23.9v-5.7h0.2v5.7C62.2,23.9,62,23.9,62,23.9z"/>
	<rect x="62.9" y="18.2" class="st1" width="0.2" height="5.7"/>
	<path class="st2" d="M63.3,24v-6c0-0.1-0.1-0.1-0.1-0.1h-0.4c-0.1,0-0.1,0.1-0.1,0.1v6c0,0.1,0,0.1,0.1,0.1l0,0h0.4h0.1
		C63.3,24.1,63.3,24.1,63.3,24z M62.9,18.1h0.2v5.7h-0.2V18.1z"/>
	<rect x="63.8" y="18.2" class="st1" width="0.2" height="5.7"/>
	<path class="st2" d="M64.3,24v-6c0-0.1-0.1-0.1-0.1-0.1l0,0h-0.4c-0.1,0-0.1,0.1-0.1,0.1v6c0,0,0,0.1,0.1,0.1h0.1h0.4l0,0
		C64.2,24.1,64.3,24.1,64.3,24L64.3,24z M63.8,18.2H64v5.7h-0.2V18.2z"/>
	<rect x="64.7" y="18.2" class="st1" width="0.2" height="5.7"/>
	<path class="st2" d="M65.2,24v-6c0-0.1-0.1-0.1-0.1-0.1l0,0h-0.4c-0.1,0-0.1,0.1-0.1,0.1l0,0v6c0,0,0,0.1,0.1,0.1h0.1H65l0,0
		C65.1,24.1,65.2,24.1,65.2,24L65.2,24z M64.7,18.2h0.2v5.7h-0.2V18.2z"/>
	<rect x="65.7" y="18.2" class="st1" width="0.2" height="5.7"/>
	<path class="st2" d="M66.1,24v-6c0-0.1,0-0.1-0.1-0.1l0,0h-0.4c-0.1,0-0.1,0.1-0.1,0.1l0,0v6c0,0,0,0.1,0.1,0.1h0.1H66l0,0
		C66,24.1,66.1,24.1,66.1,24L66.1,24z M65.7,18.2h0.2v5.7h-0.2V18.2z"/>
	<rect x="66.6" y="18.2" class="st1" width="0.2" height="5.7"/>
	<path class="st2" d="M67,18.1c0-0.1-0.1-0.1-0.1-0.1l0,0h-0.4c-0.1,0-0.1,0.1-0.1,0.1l0,0V24c0,0,0,0.1,0.1,0.1h0.1H67
		c0,0,0.1,0,0.1-0.1v-0.1L67,18.1z M66.6,18.2h0.2v5.7h-0.2V18.2z"/>
	<path class="st1" d="M60.4,29.4c0,0.4,0.3,0.7,0.7,0.7s0.7-0.3,0.7-0.7s-0.3-0.7-0.7-0.7S60.4,29,60.4,29.4L60.4,29.4z M61.1,28.8
		c0.3,0,0.6,0.3,0.6,0.6c0,0.3-0.3,0.6-0.6,0.6s-0.6-0.3-0.6-0.6l0,0C60.5,29.1,60.7,28.8,61.1,28.8z"/>
	<path class="st2" d="M61.1,30.3c0.5,0,0.9-0.4,0.9-0.9s-0.4-0.9-0.9-0.9s-0.9,0.4-0.9,0.9l0,0C60.1,29.9,60.6,30.3,61.1,30.3z
		 M61.8,29.4c0,0.4-0.3,0.7-0.7,0.7s-0.7-0.3-0.7-0.7s0.3-0.7,0.7-0.7C61.5,28.7,61.8,29,61.8,29.4L61.8,29.4L61.8,29.4z"/>
	<ellipse class="st1" cx="61.1" cy="29.4" rx="0.4" ry="0.4"/>
	<path class="st2" d="M61.1,30c0.3,0,0.6-0.3,0.6-0.6c0-0.3-0.3-0.6-0.6-0.6s-0.6,0.3-0.6,0.6l0,0C60.5,29.8,60.7,30,61.1,30z
		 M61.4,29.4c0,0.2-0.2,0.4-0.4,0.4s-0.4-0.2-0.4-0.4S60.8,29,61,29C61.3,29,61.4,29.2,61.4,29.4z"/>
	<path class="st1" d="M58.3,49.3h9.3v-6.1h-9.3V49.3z M62.8,44.7c0.4-0.4,1-0.7,1.6-0.7h0.1c1.3,0,2.3,1,2.3,2.2
		c0,1.3-1,2.3-2.2,2.4h-0.1c-1.3,0-2.3-1-2.3-2.2C62.1,45.7,62.3,45.1,62.8,44.7L62.8,44.7z M59.4,45.5c0.2-0.2,0.5-0.3,0.8-0.3l0,0
		c0.6,0.1,1,0.6,1,1.2c-0.1,0.5-0.5,0.9-1,1l0,0c-0.6,0-1.1-0.5-1.1-1.1C59,46,59.1,45.7,59.4,45.5L59.4,45.5z"/>
	<polygon class="st2" points="58.3,49.5 67.6,49.5 67.6,49.3 58.3,49.3 58.3,43.2 67.6,43.2 67.6,43 58.3,43 58.1,43 58.1,43.2 
		58.1,49.3 58.1,49.5 	"/>
	<path class="st1" d="M68.3,45.9c-0.2,0-0.3-0.1-0.4-0.2h-0.1v1.1h0.1c0.1-0.2,0.4-0.3,0.6-0.2c0.1,0,0.1,0.1,0.2,0.2h0.1v-1.1h-0.1
		C68.6,45.8,68.5,45.9,68.3,45.9z"/>
	<path class="st1" d="M68.3,47.5c-0.2,0-0.3-0.1-0.4-0.2h-0.1v2h1v-2h-0.1C68.6,47.4,68.5,47.5,68.3,47.5z M68.3,48.6
		c-0.2,0-0.3-0.1-0.3-0.3s0.1-0.3,0.3-0.3c0.2,0,0.3,0.1,0.3,0.3l0,0C68.6,48.5,68.5,48.6,68.3,48.6z"/>
	<path class="st1" d="M68.2,43.2h-0.3v2H68c0.1-0.2,0.4-0.3,0.6-0.2c0.1,0,0.1,0.1,0.2,0.2h0.1v-2H68.2z M68.3,44.4
		c-0.2,0-0.3-0.1-0.3-0.3s0.1-0.3,0.3-0.3c0.2,0,0.3,0.1,0.3,0.3l0,0C68.7,44.2,68.5,44.4,68.3,44.4L68.3,44.4L68.3,44.4z"/>
	<path class="st2" d="M68.8,43h-1.2v6.6h1.5V43H68.8z M68.9,45.2v0.5h-0.1v1.1h0.1v0.5h-0.1v2h-1v-2l0,0v-0.5l0,0v-1.1l0,0v-0.5l0,0
		v-2h1L68.9,45.2L68.9,45.2z"/>
	<path class="st2" d="M68.7,45.2c-0.1-0.2-0.4-0.3-0.6-0.2c-0.1,0-0.1,0.1-0.2,0.2H68.7z"/>
	<path class="st2" d="M68.3,45.9c0.2,0,0.3-0.1,0.4-0.2H68C68,45.8,68.2,45.9,68.3,45.9z"/>
	<polygon class="st1" points="68,45.4 68.6,45.4 68.6,45.4 	"/>
	<path class="st2" d="M68,45.2L68,45.2l-0.1,0.5H69v-0.5H68L68,45.2z M68,45.5L68,45.5h0.6l0,0H68z"/>
	<path class="st2" d="M68.7,46.8c-0.1-0.2-0.4-0.3-0.6-0.2c-0.1,0-0.1,0.1-0.2,0.2H68.7z"/>
	<path class="st2" d="M68.3,47.5c0.2,0,0.3-0.1,0.4-0.2H68C68,47.4,68.2,47.5,68.3,47.5z"/>
	<polygon class="st1" points="68,47 68.6,47 68.6,47 	"/>
	<path class="st2" d="M68,46.8L68,46.8l-0.1,0.5H69v-0.5H68L68,46.8z M68,47.1L68,47.1h0.6l0,0H68z"/>
	<path class="st1" d="M59.3,46.3c0,0.5,0.4,0.8,0.9,0.8l0,0c0.2,0,0.4-0.1,0.6-0.3c0.2-0.2,0.2-0.4,0.2-0.6c0-0.5-0.4-0.8-0.8-0.8
		l0,0c-0.2,0-0.4,0.1-0.6,0.3C59.4,45.9,59.3,46.1,59.3,46.3z M60.1,45.5c0.2,0,0.4,0.1,0.6,0.2c0.1,0.1,0.2,0.3,0.2,0.5
		c0,0.4-0.3,0.8-0.7,0.8l0,0c-0.2,0-0.4-0.1-0.5-0.2c-0.1-0.1-0.2-0.3-0.2-0.5s0.1-0.4,0.2-0.6C59.7,45.6,59.9,45.5,60.1,45.5
		L60.1,45.5z"/>
	<path class="st2" d="M60.2,47.3L60.2,47.3c0.3,0,0.6-0.1,0.8-0.3c0.4-0.4,0.4-1.1-0.1-1.6c-0.2-0.2-0.5-0.3-0.7-0.3l0,0
		c-0.3,0-0.6,0.1-0.8,0.3s-0.3,0.5-0.3,0.8C59.1,46.8,59.6,47.3,60.2,47.3z M60.2,45.4c0.5,0,0.8,0.4,0.8,0.8c0,0.2-0.1,0.4-0.2,0.6
		c-0.2,0.2-0.4,0.3-0.6,0.3l0,0c-0.5,0-0.8-0.4-0.9-0.8c0-0.2,0.1-0.4,0.2-0.6C59.7,45.5,59.9,45.4,60.2,45.4z"/>
	<path class="st1" d="M62.4,46.3c0,0.5,0.2,1.1,0.6,1.4c0.4,0.4,0.9,0.6,1.5,0.6c0.5,0,1.1-0.2,1.4-0.6c0.8-0.8,0.8-2.1-0.1-2.9
		c-0.4-0.4-0.9-0.6-1.4-0.6h-0.1c-0.5,0-1.1,0.2-1.4,0.6C62.6,45.2,62.4,45.8,62.4,46.3z M64.4,44.5c0.5,0,0.9,0.2,1.2,0.5
		c0.3,0.3,0.5,0.8,0.6,1.2c0,1-0.7,1.8-1.7,1.8l0,0l0,0c-1-0.1-1.7-0.9-1.6-1.9C62.9,45.3,63.6,44.6,64.4,44.5L64.4,44.5z"/>
	<path class="st2" d="M64.4,48.6L64.4,48.6c1.3,0,2.3-1.1,2.3-2.4c0-1.3-1.1-2.2-2.3-2.2h-0.1c-0.6,0-1.2,0.3-1.6,0.7
		c-0.9,0.9-0.8,2.4,0.1,3.2C63.3,48.3,63.8,48.6,64.4,48.6z M64.4,44.2c1.1,0,2.1,0.9,2.1,2c0,0.5-0.2,1-0.6,1.4s-0.9,0.6-1.4,0.6
		S63.4,48,63,47.6c-0.8-0.8-0.8-2.1-0.1-2.9C63.3,44.4,63.8,44.2,64.4,44.2L64.4,44.2z"/>
	<path class="st1" d="M68.3,48.2C68.3,48.2,68.3,48.3,68.3,48.2L68.3,48.2C68.3,48.4,68.4,48.4,68.3,48.2
		C68.4,48.3,68.4,48.2,68.3,48.2z"/>
	<path class="st2" d="M68.3,48c-0.2,0-0.3,0.1-0.4,0.3s0.1,0.3,0.3,0.4h0.1c0.2,0,0.3-0.2,0.3-0.4C68.6,48.1,68.5,48,68.3,48z
		 M68.3,48.3C68.3,48.3,68.3,48.2,68.3,48.3L68.3,48.3C68.4,48.2,68.4,48.3,68.3,48.3C68.4,48.4,68.3,48.4,68.3,48.3L68.3,48.3z"/>
	<path class="st1" d="M68.3,44L68.3,44L68.3,44C68.3,44.1,68.4,44.1,68.3,44C68.4,44,68.4,44,68.3,44z"/>
	<path class="st2" d="M68.3,43.8c-0.2,0-0.3,0.1-0.4,0.3s0.1,0.3,0.3,0.4h0.1c0.2,0,0.3-0.2,0.3-0.4C68.6,43.9,68.5,43.8,68.3,43.8z
		 M68.3,44.1C68.3,44,68.3,44,68.3,44.1L68.3,44.1C68.4,44,68.4,44.1,68.3,44.1L68.3,44.1L68.3,44.1z"/>
	<path class="st1" d="M62.9,46.3c0,0.8,0.7,1.5,1.6,1.5c0.4,0,0.8-0.2,1-0.5c0.6-0.6,0.6-1.5,0-2.1l0,0c-0.3-0.3-0.6-0.4-1-0.4l0,0
		c-0.4,0-0.7,0.2-1,0.5C63.2,45.5,63,45.9,62.9,46.3z"/>
	<path class="st2" d="M64.4,48L64.4,48c1,0,1.7-0.8,1.7-1.8c0-0.5-0.2-0.9-0.5-1.2s-0.8-0.5-1.2-0.5c-1,0.1-1.7,0.9-1.6,1.9
		C62.8,47.3,63.5,48,64.4,48L64.4,48z M64.4,44.7c0.4,0,0.7,0.2,1,0.4c0.6,0.6,0.6,1.5,0,2.1l0,0c-0.5,0.6-1.5,0.7-2.1,0.2
		s-0.7-1.5-0.2-2.1c0-0.1,0.1-0.1,0.1-0.1c0.3-0.3,0.6-0.5,1-0.5C64.2,44.7,64.4,44.7,64.4,44.7z"/>
	<path class="st1" d="M59.6,46.3c0,0.3,0.3,0.5,0.5,0.5c0.1,0,0.3-0.1,0.3-0.2c0.1-0.1,0.2-0.2,0.1-0.4c0-0.1-0.1-0.3-0.2-0.4
		c-0.1-0.1-0.2-0.1-0.4-0.1l0,0c-0.1,0-0.3,0.1-0.4,0.2C59.7,46,59.6,46.2,59.6,46.3z"/>
	<path class="st2" d="M59.6,46.8c0.1,0.1,0.3,0.2,0.5,0.2l0,0c0.4,0,0.7-0.4,0.7-0.8c0-0.2-0.1-0.4-0.2-0.5
		c-0.1-0.1-0.3-0.2-0.6-0.2c-0.2,0-0.4,0.1-0.5,0.2c-0.1,0.1-0.2,0.3-0.2,0.6C59.4,46.5,59.5,46.7,59.6,46.8z M60.2,45.7
		c0.1,0,0.3,0,0.4,0.1c0.1,0.1,0.2,0.2,0.2,0.4c0,0.1,0,0.3-0.1,0.4c-0.2,0.2-0.5,0.2-0.7,0c-0.1-0.1-0.1-0.2-0.2-0.3
		c0-0.1,0-0.3,0.1-0.4C59.9,45.8,60,45.7,60.2,45.7L60.2,45.7z"/>
	<path class="st1" d="M23.6,38.4h-17v20.8h17V38.4z M22.8,56.7c0,0.8-0.6,1.4-1.3,1.4H8.7c-0.8,0-1.4-0.7-1.3-1.4V40.8
		c0-0.8,0.6-1.4,1.3-1.4h12.8c0.8,0,1.4,0.7,1.3,1.4V56.7z"/>
	<path class="st2" d="M6.3,59.5h17.5V38.1H6.3V59.5z M6.6,38.5h17v20.8h-17C6.6,59.3,6.6,38.5,6.6,38.5z"/>
	<path class="st1" d="M21.5,39.7H8.7c-0.6,0-1.1,0.5-1.1,1.2v15.9c0,0.6,0.5,1.1,1.1,1.2l0,0h12.8c0.6,0,1.1-0.5,1.1-1.2l0,0v-16
		C22.6,40.2,22.1,39.7,21.5,39.7z M22.1,55.8c0,0.8-0.6,1.5-1.5,1.6H9.5c-0.8,0-1.5-0.7-1.5-1.6l0,0v-14c0-0.8,0.6-1.5,1.4-1.6h11.2
		c0.8,0,1.5,0.7,1.5,1.6L22.1,55.8z"/>
	<path class="st2" d="M21.5,39.4H8.7c-0.8,0-1.4,0.7-1.3,1.4v15.9c0,0.8,0.6,1.4,1.3,1.4h12.8c0.8,0,1.4-0.7,1.3-1.4V40.8
		C22.9,40.1,22.3,39.4,21.5,39.4z M22.6,56.7c0,0.6-0.5,1.1-1.1,1.2l0,0H8.7c-0.6,0-1.1-0.5-1.1-1.2l0,0V40.8c0-0.6,0.5-1.1,1.1-1.2
		h12.8c0.6,0,1.1,0.5,1.1,1.2V56.7z"/>
	<path class="st1" d="M20.7,40.5H9.5c-0.7,0-1.2,0.6-1.2,1.3l0,0v14c0,0.7,0.5,1.3,1.2,1.3l0,0h11.2c0.7,0,1.2-0.6,1.2-1.3l0,0v-14
		C21.9,41.1,21.4,40.5,20.7,40.5L20.7,40.5z M9.7,56.3c-0.5,0-0.9-0.4-0.9-0.8s0.4-0.9,0.8-0.9c0.5,0,0.9,0.4,0.9,0.8l0,0
		C10.5,55.9,10.2,56.3,9.7,56.3L9.7,56.3L9.7,56.3z"/>
	<path class="st2" d="M20.7,40.2H9.5c-0.8,0-1.5,0.7-1.4,1.6v14c0,0.8,0.6,1.5,1.4,1.6l0,0h11.2c0.8,0,1.5-0.7,1.5-1.6v-14
		C22.2,41,21.5,40.3,20.7,40.2z M21.8,55.8c0,0.7-0.5,1.3-1.2,1.3l0,0H9.5c-0.7,0-1.2-0.6-1.2-1.3l0,0v-14c0-0.7,0.5-1.3,1.2-1.3
		l0,0h11.2c0.7,0,1.2,0.6,1.2,1.3v14H21.8z"/>
	<path class="st1" d="M9.6,54.9c-0.3,0-0.6,0.2-0.6,0.6c0,0.3,0.2,0.6,0.6,0.6c0.3,0,0.6-0.2,0.6-0.6l0,0
		C10.2,55.1,9.9,54.9,9.6,54.9z"/>
	<path class="st2" d="M9.6,54.6c-0.5,0.1-0.8,0.5-0.8,0.9s0.4,0.7,0.8,0.8c0.5-0.1,0.8-0.5,0.8-0.9C10.3,54.9,10,54.6,9.6,54.6z
		 M9.6,56C9.3,56,9,55.8,9,55.4c0-0.3,0.2-0.6,0.6-0.6s0.6,0.2,0.6,0.6l0,0C10.2,55.7,10,56,9.6,56L9.6,56z"/>
	<path class="st1" d="M10.8,14.2h-2c-0.6,0-1.2,0.5-1.2,1.2v8.1c0,0.6,0.5,1.2,1.2,1.2h2c0.6,0,1.2-0.5,1.2-1.2v-8.1
		C12,14.8,11.5,14.2,10.8,14.2z"/>
	<path class="st2" d="M12,23.1v0.4c0,0.6-0.5,1.2-1.2,1.2h-2c-0.6,0-1.2-0.5-1.2-1.2v-8.1c0-0.6,0.5-1.2,1.2-1.2h2
		c0.6,0,1.2,0.5,1.2,1.2v0.4h0.3v-0.4c0-0.8-0.6-1.4-1.4-1.4l0,0h-2c-0.8,0-1.4,0.6-1.4,1.4l0,0v8.1c0,0.8,0.6,1.4,1.4,1.4h2
		c0.8,0,1.4-0.6,1.4-1.4v-0.4H12z"/>
	<path class="st1" d="M14.5,16.8v5.3c0.3,0.3,0.7,0.5,1.1,0.8l0,0c1.2,0.6,2.5,1,3.9,0.9c3.5,0,6.3-2,6.3-4.3s-2.8-4.3-6.3-4.3
		c-1.3,0-2.7,0.3-3.9,0.9h-0.1C15.2,16.2,14.8,16.5,14.5,16.8z"/>
	<path class="st2" d="M19.5,14.9c-1.4,0-2.8,0.3-4,1H16l-0.4,0.2c1.2-0.6,2.5-0.9,3.9-0.9c3.5,0,6.3,2,6.3,4.3s-2.8,4.4-6.3,4.4
		c-1.3,0-2.7-0.3-3.9-0.9l0.4,0.2h-0.5c1.2,0.7,2.6,1,4,1c3.6,0,6.5-2.1,6.5-4.6S23.1,14.9,19.5,14.9z"/>
	<path class="st1" d="M14.2,22.2v-5.5l0,0c0.2-0.2,0.5-0.4,0.7-0.6h-2.8v6.7H15C14.8,22.7,14.5,22.5,14.2,22.2L14.2,22.2z"/>
	<path class="st2" d="M16,23.1l-0.4-0.2l0,0c-0.4-0.2-0.7-0.5-1.1-0.8v-5.3c0.3-0.3,0.6-0.5,1-0.8h0.1l0.4-0.2h-4v7.3L16,23.1
		L16,23.1z M15,22.8h-2.8v-6.7H15c-0.3,0.2-0.5,0.4-0.7,0.6l0,0v5.5l0,0C14.5,22.4,14.8,22.6,15,22.8L15,22.8z"/>
	<path class="st1" d="M55.2,47H43.9v12.3h11.3V47z M49.2,57.2c-2.2,0-4-1.7-4.1-3.9c0-2.2,1.7-4,3.9-4.1s4,1.7,4.1,3.9
		c0,0,0,0,0,0.1C53.2,55.4,51.4,57.2,49.2,57.2L49.2,57.2z"/>
	<polygon class="st2" points="43.9,47 55.2,47 55.2,59.3 43.9,59.3 43.9,59.6 55.5,59.6 55.5,46.7 43.9,46.7 	"/>
	<rect x="43.1" y="47" class="st1" width="0.5" height="12.3"/>
	<path class="st2" d="M43.9,59.3V46.7h-1v12.9h1V59.3z M43.1,59.3V47h0.5v12.3H43.1z"/>
	<path class="st1" d="M52.9,53.2c0-2-1.7-3.7-3.7-3.6s-3.7,1.7-3.6,3.7c0,2,1.7,3.6,3.7,3.6C51.2,56.9,52.9,55.2,52.9,53.2z
		 M49.2,55.9c-1.5,0-2.8-1.2-2.8-2.7s1.2-2.8,2.7-2.8s2.8,1.2,2.8,2.7l0,0C51.9,54.7,50.7,55.9,49.2,55.9L49.2,55.9z"/>
	<path class="st2" d="M49.2,49.1c-2.2,0-4,1.7-4.1,3.9c0,2.2,1.7,4,3.9,4.1s4-1.7,4.1-3.9c0,0,0,0,0-0.1
		C53.1,51,51.4,49.2,49.2,49.1z M45.5,53.1c0-2,1.7-3.7,3.7-3.6c2,0,3.7,1.7,3.6,3.7c0,2-1.7,3.6-3.7,3.6
		C47.2,56.9,45.5,55.2,45.5,53.1L45.5,53.1z"/>
	<path class="st1" d="M51.7,53.2c0-1.4-1.2-2.4-2.5-2.4s-2.4,1.2-2.4,2.5s1.1,2.4,2.5,2.4C50.6,55.7,51.7,54.5,51.7,53.2z"/>
	<path class="st2" d="M49.2,50.4c-1.5,0-2.8,1.2-2.8,2.7s1.2,2.8,2.7,2.8s2.8-1.2,2.8-2.7l0,0C51.9,51.6,50.7,50.4,49.2,50.4z
		 M46.7,53.2c0-1.4,1.2-2.4,2.5-2.4s2.4,1.2,2.4,2.5s-1.1,2.4-2.5,2.4C47.8,55.7,46.7,54.5,46.7,53.2L46.7,53.2z"/>
	<path class="st1" d="M55.6,37v-6.3h-3.7c-0.5,0-0.9-0.1-1.4-0.2V37H55.6z"/>
	<path class="st1" d="M55.6,18.9v-6.3h-5V19c0.5-0.1,0.9-0.2,1.4-0.2h3.6V18.9z"/>
	<path class="st2" d="M50.3,19.1l0.2-0.1v-6.4h5v6.3h0.1v-6.6h-5.4L50.3,19.1z"/>
	<path class="st2" d="M55.6,37h-5v-6.4l-0.2-0.1v6.8h5.4v-6.5h-0.1L55.6,37z"/>
	<path class="st1" d="M46.3,24.8c0,3.1,2.5,5.7,5.7,5.7h3.5V19.1H52C48.8,19.1,46.3,21.7,46.3,24.8z M55.3,24.3v1h-1.4
		c-0.2,2.3-1.7,4-3.6,4c-2,0-3.6-2-3.6-4.5s1.6-4.5,3.6-4.5c1.9,0,3.4,1.8,3.6,4H55.3z"/>
	<path class="st2" d="M51.9,18.9c-0.5,0-0.9,0.1-1.4,0.2l-0.2,0.1c-3.2,0.9-5,4.2-4.1,7.3c0.6,2,2.1,3.5,4.1,4.1l0.2,0.1
		c0.5,0.1,0.9,0.2,1.4,0.2h3.8v-12H51.9z M55.5,30.5H52c-3.1,0-5.7-2.5-5.7-5.7c0-3.1,2.5-5.7,5.7-5.7h3.5V30.5z"/>
	<path class="st1" d="M52.5,24.3h1.2c-0.2-2.1-1.6-3.8-3.3-3.8S47,22.4,47,24.8s1.5,4.3,3.4,4.3s3.1-1.6,3.3-3.8h-1.2V24.3z
		 M51.6,25.5c-0.4,0-0.7-0.3-0.7-0.7s0.3-0.7,0.7-0.7s0.7,0.3,0.7,0.7S52.1,25.5,51.6,25.5L51.6,25.5z"/>
	<path class="st2" d="M50.3,20.3c-2,0-3.6,2-3.6,4.5s1.6,4.5,3.6,4.5c1.9,0,3.4-1.8,3.6-4h-0.3c-0.2,2.1-1.6,3.8-3.3,3.8
		s-3.4-1.9-3.4-4.3s1.5-4.3,3.4-4.3s3.1,1.7,3.3,3.8h0.3C53.7,22,52.2,20.3,50.3,20.3z"/>
	<path class="st1" d="M52.1,24.8c0-0.3-0.2-0.5-0.5-0.5s-0.5,0.2-0.5,0.5s0.2,0.5,0.5,0.5l0,0C51.9,25.3,52.1,25.1,52.1,24.8z"/>
	<path class="st2" d="M51.7,24.1c-0.4,0-0.7,0.3-0.7,0.7c0,0.4,0.3,0.7,0.7,0.7s0.7-0.3,0.7-0.7l0,0C52.4,24.4,52.1,24.1,51.7,24.1z
		 M51.2,24.8c0-0.3,0.2-0.5,0.5-0.5s0.5,0.2,0.5,0.5s-0.2,0.5-0.5,0.5l0,0C51.4,25.3,51.2,25.1,51.2,24.8L51.2,24.8z"/>
	<rect x="52.7" y="24.6" class="st1" width="2.3" height="0.5"/>
	<path class="st2" d="M53.7,24.3h-1.2v1h2.9v-1H53.7L53.7,24.3z M55.1,25h-2.3v-0.5h2.3V25z"/>
	<path class="st1" d="M127.6,114.7H109c0.6,0.4,1,1,1,1.7v27.2c0,0.7-0.4,1.4-1,1.7h11.5v-20.8h-0.1L127.6,114.7z M110.6,116.9
		c0.4-0.4,2.6-0.2,3.9,0.2c0.9,0.1,1.8,0,2.6-0.3c0.8-0.2,1.5-0.4,1.8-0.2s0.3,2.3,0,5.9c-0.1,0.6-0.1,1.1-0.1,1.3s0,0.6,0.1,1.2
		c0.2,1.1,0.3,2.2,0.3,3.3c0.1,0.5,0,0.9-0.3,1.3c-0.1,0.1-0.2,0.1-0.3,0.1c-1.6-0.2-3.1-0.5-4.7-0.8c-0.7,0.2-3,0.8-3.4,0.4
		s0.2-6.4,0.3-6.9c0-0.8-0.1-1.6-0.2-2.4C110.5,118.1,110.4,117.1,110.6,116.9L110.6,116.9z M118.9,143.4c-0.1,0.1-0.2,0.1-0.3,0.1
		c-1.6-0.2-3.1-0.5-4.7-0.8c-0.7,0.2-3,0.8-3.4,0.4s0.2-6.4,0.3-7c0-0.8-0.1-1.6-0.2-2.4c-0.3-2-0.4-2.9-0.1-3.1
		c0.4-0.4,2.6-0.2,3.9,0.2c0.9,0.1,1.8,0,2.6-0.3c0.8-0.2,1.5-0.4,1.8-0.2s0.3,2.3,0,5.9c-0.1,0.6-0.1,1.1-0.1,1.3l0,0
		c0,0.2,0,0.6,0.1,1.2c0.2,1.1,0.3,2.2,0.3,3.3C119.3,142.5,119.2,143,118.9,143.4L118.9,143.4z"/>
	<path class="st2" d="M109.1,114.7h18.6l0.2-0.3h-19.7C108.4,114.5,108.8,114.6,109.1,114.7z"/>
	<path class="st2" d="M120.5,145.4H109c-0.3,0.2-0.6,0.3-1,0.3h12.4L120.5,145.4z"/>
	<path class="st1" d="M111.4,109.9c0.6,0,1.1-0.5,1.1-1.1s-0.5-1.1-1.1-1.1s-1.1,0.5-1.1,1.1l0,0c0,0.6,0.4,1,0.9,1.1
		C111.3,109.9,111.4,109.9,111.4,109.9z"/>
	<path class="st1" d="M115.3,112.9v-7.1h-7v7.1H115.3z M111.7,107.2c1.2,0,2.2,1,2.2,2.2s-1,2.2-2.2,2.2s-2.2-1-2.2-2.2l0,0
		C109.5,108.1,110.5,107.2,111.7,107.2z"/>
	<path class="st1" d="M111.7,111.2c1.1,0,1.9-0.9,1.9-1.9c0-1.1-0.9-1.9-1.9-1.9c-1.1,0-1.9,0.9-1.9,1.9
		C109.8,110.4,110.6,111.2,111.7,111.2z M111.4,107.5c0.7,0,1.3,0.6,1.3,1.3s-0.6,1.3-1.3,1.3c-0.7,0-1.3-0.6-1.3-1.3
		S110.7,107.5,111.4,107.5L111.4,107.5L111.4,107.5z"/>
	<path class="st2" d="M115.5,105.5H108v7.6h7.6L115.5,105.5L115.5,105.5z M115.3,105.8v7.1h-7v-7.1H115.3z"/>
	<path class="st1" d="M115.3,154.1V147h-7v7.1H115.3z M111.9,148.4c1.2,0,2.2,1,2.2,2.2s-1,2.2-2.2,2.2s-2.2-1-2.2-2.2
		S110.7,148.4,111.9,148.4L111.9,148.4L111.9,148.4z"/>
	<path class="st1" d="M111.9,152.5c1.1,0,1.9-0.9,1.9-1.9s-0.9-1.9-1.9-1.9c-1.1,0-1.9,0.9-1.9,1.9l0,0
		C110,151.7,110.9,152.5,111.9,152.5z M111.7,148.8c0.7,0,1.3,0.6,1.3,1.3s-0.6,1.3-1.3,1.3c-0.7,0-1.3-0.6-1.3-1.3
		C110.4,149.4,110.9,148.8,111.7,148.8z"/>
	<path class="st1" d="M111.7,151.1c0.6,0,1.1-0.5,1.1-1.1s-0.5-1.1-1.1-1.1s-1.1,0.5-1.1,1.1l0,0
		C110.6,150.7,111.1,151.1,111.7,151.1z"/>
	<path class="st2" d="M108,146.7v7.6h7.6v-7.6H108z M115.3,147v7.1h-7V147H115.3z"/>
	<path class="st1" d="M111.2,122.5c-0.2,0.9-0.6,6.3-0.3,6.7c0.2,0.2,1.8-0.1,3.1-0.4h0.1c1.5,0.3,3.1,0.6,4.6,0.8h0.1
		c0.4-0.5,0.1-3-0.1-4.4c-0.1-0.6-0.1-1-0.1-1.2l0,0c0-0.2,0-0.7,0.1-1.3c0.1-1.5,0.4-5.4,0.1-5.6s-0.9,0.1-1.6,0.2
		c-0.9,0.3-1.8,0.4-2.8,0.3c-1.3-0.5-3.3-0.6-3.6-0.3c-0.1,1,0,2,0.2,2.9C111.2,120.9,111.2,121.7,111.2,122.5z"/>
	<path class="st2" d="M111,122.5c-0.1,0.5-0.7,6.5-0.3,6.9s2.6-0.2,3.4-0.4c1.5,0.3,3.1,0.6,4.7,0.8c0.1,0,0.2,0,0.3-0.1
		c0.2-0.4,0.3-0.9,0.3-1.3c0-1.1-0.1-2.2-0.3-3.3c-0.1-0.6-0.1-1-0.1-1.2s0-0.7,0.1-1.3c0.3-3.6,0.4-5.6,0-5.9s-1,0-1.8,0.2
		c-0.8,0.3-1.7,0.4-2.6,0.3c-1.3-0.5-3.4-0.7-3.9-0.2c-0.3,0.2-0.2,1.2,0.1,3.1C110.9,120.8,111,121.6,111,122.5z M110.9,117.1
		c0.3-0.3,2.3-0.2,3.6,0.3c0.9,0.2,1.9,0.1,2.8-0.3c0.7-0.2,1.4-0.4,1.6-0.2s0,4.2-0.1,5.6c0,0.7-0.1,1.1-0.1,1.3l0,0
		c0,0.2,0.1,0.6,0.1,1.2c0.2,1.4,0.5,4,0.1,4.4h-0.1c-1.6-0.2-3.1-0.5-4.6-0.8H114c-1.4,0.4-2.9,0.6-3.1,0.4
		c-0.3-0.4,0.1-5.8,0.3-6.7c0-0.8,0-1.7-0.2-2.5C110.8,119,110.8,118,110.9,117.1L110.9,117.1z"/>
	<path class="st1" d="M118.7,138.8c-0.1-0.6-0.1-1-0.1-1.2s0-0.7,0.1-1.3c0.1-1.5,0.4-5.4,0.1-5.6c-0.5-0.1-1.1,0-1.6,0.2
		c-0.9,0.3-1.8,0.4-2.8,0.3c-1.3-0.5-3.3-0.6-3.6-0.3c-0.1,1,0,2,0.2,2.9c0.2,0.8,0.2,1.7,0.2,2.5c-0.2,0.9-0.6,6.3-0.3,6.7
		c0.2,0.2,1.8-0.1,3.1-0.4h0.1c1.5,0.3,3.1,0.6,4.6,0.8h0.1C119.2,142.8,118.9,140.2,118.7,138.8z"/>
	<path class="st2" d="M118.8,137.6L118.8,137.6c0-0.2,0-0.7,0.1-1.3c0.3-3.6,0.4-5.6,0-5.9s-1,0-1.8,0.2c-0.8,0.3-1.7,0.4-2.6,0.3
		c-1.3-0.4-3.4-0.6-3.9-0.2c-0.3,0.2-0.2,1.2,0.1,3.1c0.1,0.8,0.2,1.6,0.2,2.4c-0.1,0.5-0.7,6.5-0.3,7s2.6-0.2,3.4-0.4
		c1.5,0.3,3.1,0.6,4.7,0.8c0.1,0,0.2,0,0.3-0.1c0.2-0.4,0.3-0.9,0.3-1.3c0-1.1-0.1-2.2-0.3-3.3C118.9,138.2,118.8,137.8,118.8,137.6
		z M114.1,142.5L114.1,142.5c-1.4,0.4-3,0.6-3.2,0.4c-0.3-0.4,0.1-5.8,0.3-6.7c0-0.8,0-1.7-0.2-2.5c-0.2-1-0.3-1.9-0.2-2.9
		c0.3-0.3,2.3-0.2,3.6,0.3c0.9,0.2,1.9,0.1,2.8-0.3c0.5-0.2,1-0.3,1.6-0.2c0.3,0.3,0,4.2-0.1,5.6c0,0.7-0.1,1.1-0.1,1.3
		s0.1,0.6,0.1,1.2c0.2,1.4,0.5,4,0.1,4.4h-0.1C117.1,143.1,115.6,142.8,114.1,142.5L114.1,142.5z"/>
	<path class="st1" d="M108.2,114.7v30.7c0.9-0.1,1.6-0.8,1.6-1.7v-27.2C109.8,115.5,109.1,114.8,108.2,114.7z"/>
	<path class="st2" d="M109.1,145.4c0.6-0.4,1-1,1-1.7v-27.2c0-1.1-0.9-2-2-2H108v31.2h0.1C108.4,145.7,108.8,145.6,109.1,145.4z
		 M109.8,143.7c0,0.9-0.7,1.7-1.6,1.7v-30.7c0.9,0.1,1.6,0.8,1.6,1.7V143.7z"/>
	<rect x="123.2" y="130.2" class="st1" width="24.4" height="2.2"/>
	<rect x="123.2" y="135.2" class="st1" width="24.4" height="2.2"/>
	<rect x="123.2" y="132.7" class="st1" width="24.4" height="2.2"/>
	<path class="st1" d="M128.8,115h16.6c-1-0.8-2.3-1.3-3.7-1.3h-12.9L128.8,115L128.8,115z"/>
	<path class="st1" d="M128.8,115.2v2.2h18.4c-0.3-0.9-0.9-1.6-1.6-2.2H128.8z"/>
	<path class="st1" d="M128.8,117.7v2.2h18.9v-0.3c0-0.7-0.1-1.3-0.3-1.9L128.8,117.7z"/>
	<rect x="123.2" y="137.7" class="st1" width="24.4" height="2.2"/>
	<polygon class="st1" points="128.8,122.7 128.8,124.6 123.2,124.6 123.2,124.9 147.6,124.9 147.6,122.7 	"/>
	<rect x="123.2" y="125.2" class="st1" width="24.4" height="2.2"/>
	<rect x="123.2" y="127.7" class="st1" width="24.4" height="2.2"/>
	<rect x="128.8" y="120.2" class="st1" width="18.9" height="2.2"/>
	<rect x="120.8" y="124.6" class="st1" width="1.7" height="21.8"/>
	<path class="st1" d="M123.2,142.7v2.2h22.4c0.7-0.6,1.2-1.4,1.6-2.2H123.2z"/>
	<path class="st1" d="M123.2,140.2v2.2h24.1c0.2-0.6,0.3-1.3,0.3-1.9v-0.3H123.2z"/>
	<path class="st1" d="M123.2,146.4h18.5c1.3,0,2.6-0.5,3.7-1.3h-22.1L123.2,146.4L123.2,146.4z"/>
	<path class="st2" d="M141.7,113.4h-12.9v0.3h12.9c1.3,0,2.6,0.5,3.7,1.3h0.4v0.3h-0.1c0.7,0.6,1.2,1.4,1.6,2.2h0.2v0.3h-0.1
		c0.2,0.6,0.3,1.3,0.3,1.9v0.3h0.1v0.3h-0.1v2.2h0.1v0.3h-0.1v2.2h0.1v0.3h-0.1v2.2h0.1v0.3h-0.1v2.2h0.1v0.3h-0.1v2.2h0.1v0.3h-0.1
		v2.2h0.1v0.3h-0.1v2.2h0.1v0.3h-0.1v2.2h0.1v0.3h-0.1v0.3c0,0.7-0.1,1.3-0.3,1.9h0.1v0.3h-0.2c-0.3,0.9-0.9,1.6-1.6,2.2h0.2v0.2
		c1.3-1.2,2.1-2.9,2.1-4.6v-20.8C147.9,116.2,145.1,113.4,141.7,113.4L141.7,113.4z"/>
	<path class="st2" d="M145.4,145.1c-1,0.8-2.3,1.3-3.7,1.3h-18.5v0.3h-0.7v-0.3h-1.7v-21.8h-0.3v22.1h21.1c1.5,0,3-0.6,4.1-1.6
		H145.4z"/>
	<polygon class="st1" points="123.2,124.4 123.2,124.4 128.5,124.4 128.5,114 120.9,124.4 122.5,124.4 122.5,124.4 	"/>
	<polygon class="st2" points="127.6,114.7 120.4,124.6 120.5,124.6 120.8,124.6 122.5,124.6 122.5,124.4 120.9,124.4 128.5,114 
		128.5,124.4 123.2,124.4 123.2,124.6 128.8,124.6 128.8,122.7 128.6,122.7 128.6,122.6 128.6,122.6 128.6,122.6 128.6,122.5 
		128.8,122.5 128.8,120.2 128.6,120.2 128.6,120.1 128.6,120.1 128.6,120.1 128.6,120 128.8,120 128.8,117.7 128.6,117.7 
		128.6,117.6 128.6,117.6 128.6,117.6 128.6,117.5 128.8,117.5 128.8,115.2 128.6,115.2 128.6,115.1 128.6,115.1 128.6,115.1 
		128.6,115 128.8,115 128.8,113.7 128.8,113.4 128.8,113.2 127.8,114.5 	"/>
	<polygon class="st1" points="122.9,142.7 122.9,142.5 122.9,142.5 122.9,142.5 122.9,142.4 122.9,142.4 122.9,140.2 122.9,140.2 
		122.9,140 122.9,140 122.9,140 122.9,139.9 122.9,139.9 122.9,137.7 122.9,137.7 122.9,137.6 122.9,137.6 122.9,137.6 122.9,137.4 
		122.9,137.4 122.9,135.2 122.9,135.2 122.9,135.1 122.9,135.1 122.9,135.1 122.9,134.9 122.9,134.9 122.9,132.7 122.9,132.7 
		122.9,132.6 122.9,132.6 122.9,132.6 122.9,132.4 122.9,132.4 122.9,130.2 122.9,130.2 122.9,130.1 122.9,130.1 122.9,130.1 
		122.9,129.9 122.9,129.9 122.9,127.7 122.9,127.7 122.9,127.6 122.9,127.6 122.9,127.6 122.9,127.4 122.9,127.4 122.9,125.2 
		122.9,125.2 122.9,125.1 122.9,125.1 122.9,125.1 122.9,124.9 122.9,124.9 122.9,124.6 122.7,124.6 122.7,146.4 122.9,146.4 
		122.9,145.2 122.9,145.2 122.9,145 122.9,145 122.9,145 122.9,144.9 122.9,144.9 	"/>
	<rect x="122.9" y="142.7" class="st2" width="0.3" height="2.2"/>
	<rect x="122.9" y="125.2" class="st2" width="0.3" height="2.2"/>
	<rect x="122.9" y="127.7" class="st2" width="0.3" height="2.2"/>
	<rect x="122.9" y="140.2" class="st2" width="0.3" height="2.2"/>
	<rect x="122.9" y="132.7" class="st2" width="0.3" height="2.2"/>
	<rect x="122.9" y="130.2" class="st2" width="0.3" height="2.2"/>
	<rect x="122.9" y="135.2" class="st2" width="0.3" height="2.2"/>
	<rect x="122.9" y="137.7" class="st2" width="0.3" height="2.2"/>
	<polygon class="st2" points="122.9,146.4 122.7,146.4 122.7,124.6 122.9,124.6 122.9,124.9 123.2,124.9 123.2,124.6 123.2,124.4 
		123.2,124.4 122.5,124.4 122.5,124.4 122.5,124.6 122.5,146.4 122.5,146.7 123.2,146.7 123.2,146.4 123.2,145.2 122.9,145.2 	"/>
	<line class="st3" x1="128.6" y1="115.1" x2="128.6" y2="115.1"/>
	<polygon class="st2" points="128.8,115 128.6,115 128.6,115.1 128.6,115.2 128.8,115.2 145.7,115.2 145.7,115.2 145.7,115 
		145.4,115 	"/>
	<line class="st3" x1="128.6" y1="117.6" x2="128.6" y2="117.6"/>
	<polygon class="st2" points="128.8,117.5 128.6,117.5 128.6,117.6 128.6,117.7 128.8,117.7 147.3,117.7 147.4,117.7 147.4,117.5 
		147.2,117.5 	"/>
	<line class="st3" x1="128.6" y1="120.1" x2="128.6" y2="120.1"/>
	<polygon class="st2" points="128.8,120 128.6,120 128.6,120.1 128.6,120.2 128.8,120.2 147.6,120.2 147.8,120.2 147.8,120 
		147.6,120 	"/>
	<line class="st3" x1="128.6" y1="122.6" x2="128.6" y2="122.6"/>
	<polygon class="st2" points="128.8,122.5 128.6,122.5 128.6,122.6 128.6,122.7 128.8,122.7 147.6,122.7 147.8,122.7 147.8,122.5 
		147.6,122.5 	"/>
	<line class="st3" x1="122.9" y1="125.1" x2="122.9" y2="125.1"/>
	<polygon class="st2" points="123.2,124.9 122.9,124.9 122.9,124.9 122.9,125.1 122.9,125.2 122.9,125.2 123.2,125.2 147.6,125.2 
		147.8,125.2 147.8,124.9 147.6,124.9 	"/>
	<line class="st3" x1="122.9" y1="127.6" x2="122.9" y2="127.6"/>
	<polygon class="st2" points="123.2,127.4 122.9,127.4 122.9,127.4 122.9,127.6 122.9,127.7 122.9,127.7 123.2,127.7 147.6,127.7 
		147.8,127.7 147.8,127.4 147.6,127.4 	"/>
	<line class="st3" x1="122.9" y1="130.1" x2="122.9" y2="130.1"/>
	<polygon class="st2" points="123.2,129.9 122.9,129.9 122.9,129.9 122.9,130.1 122.9,130.2 122.9,130.2 123.2,130.2 147.6,130.2 
		147.8,130.2 147.8,129.9 147.6,129.9 	"/>
	<line class="st3" x1="122.9" y1="132.6" x2="122.9" y2="132.6"/>
	<polygon class="st2" points="123.2,132.4 122.9,132.4 122.9,132.4 122.9,132.6 122.9,132.7 122.9,132.7 123.2,132.7 147.6,132.7 
		147.8,132.7 147.8,132.4 147.6,132.4 	"/>
	<line class="st3" x1="122.9" y1="135.1" x2="122.9" y2="135.1"/>
	<polygon class="st2" points="123.2,134.9 122.9,134.9 122.9,134.9 122.9,135.1 122.9,135.2 122.9,135.2 123.2,135.2 147.6,135.2 
		147.8,135.2 147.8,134.9 147.6,134.9 	"/>
	<line class="st3" x1="122.9" y1="137.6" x2="122.9" y2="137.6"/>
	<polygon class="st2" points="123.2,137.4 122.9,137.4 122.9,137.4 122.9,137.6 122.9,137.7 122.9,137.7 123.2,137.7 147.6,137.7 
		147.8,137.7 147.8,137.4 147.6,137.4 	"/>
	<line class="st3" x1="122.9" y1="140" x2="122.9" y2="140"/>
	<polygon class="st2" points="123.2,139.9 122.9,139.9 122.9,139.9 122.9,140 122.9,140.2 122.9,140.2 123.2,140.2 147.6,140.2 
		147.8,140.2 147.8,139.9 147.6,139.9 	"/>
	<line class="st3" x1="122.9" y1="142.5" x2="122.9" y2="142.5"/>
	<polygon class="st2" points="123.2,142.4 122.9,142.4 122.9,142.4 122.9,142.5 122.9,142.7 122.9,142.7 123.2,142.7 147.2,142.7 
		147.4,142.7 147.4,142.4 147.3,142.4 	"/>
	<line class="st3" x1="122.9" y1="145" x2="122.9" y2="145"/>
	<polygon class="st2" points="145.8,144.9 145.7,144.9 123.2,144.9 122.9,144.9 122.9,144.9 122.9,145 122.9,145.2 122.9,145.2 
		123.2,145.2 145.4,145.2 145.8,145.2 145.8,145.2 145.8,145.1 	"/>
	<path class="st2" d="M111.7,151.4c0.7,0,1.3-0.6,1.3-1.3s-0.6-1.3-1.3-1.3c-0.7,0-1.3,0.6-1.3,1.3
		C110.4,150.8,110.9,151.4,111.7,151.4z M111.7,149c0.6,0,1.1,0.5,1.1,1.1s-0.5,1.1-1.1,1.1l0,0c-0.6,0-1.1-0.5-1.1-1.1
		S111.1,149,111.7,149L111.7,149z"/>
	<path class="st2" d="M111.9,152.8c1.2,0,2.2-1,2.2-2.2s-1-2.2-2.2-2.2s-2.2,1-2.2,2.2l0,0C109.8,151.8,110.7,152.8,111.9,152.8z
		 M111.9,148.7c1.1,0,1.9,0.9,1.9,1.9c0,1.1-0.9,1.9-1.9,1.9c-1.1,0-1.9-0.9-1.9-1.9S110.9,148.7,111.9,148.7L111.9,148.7z"/>
	<path class="st2" d="M111.7,111.5c1.2,0,2.2-1,2.2-2.2s-1-2.2-2.2-2.2s-2.2,1-2.2,2.2l0,0C109.5,110.5,110.5,111.5,111.7,111.5z
		 M111.7,107.4c1.1,0,1.9,0.9,1.9,1.9c0,1.1-0.9,1.9-1.9,1.9c-1.1,0-1.9-0.9-1.9-1.9C109.8,108.3,110.6,107.4,111.7,107.4
		L111.7,107.4z"/>
	<path class="st2" d="M111.4,110.1c0.7,0,1.3-0.6,1.3-1.3s-0.6-1.3-1.3-1.3c-0.7,0-1.3,0.6-1.3,1.3S110.7,110.1,111.4,110.1
		L111.4,110.1z M111.4,107.8c0.6,0,1.1,0.5,1.1,1.1s-0.5,1.1-1.1,1.1s-1.1-0.5-1.1-1.1l0,0C110.3,108.2,110.8,107.8,111.4,107.8
		C111.4,107.7,111.4,107.7,111.4,107.8z"/>
	<polygon class="st4" points="151.3,77.2 153.9,77.2 153.9,77.2 	"/>
	<path class="st4" d="M171.7,76.3h-5.8H171.7z"/>
	<path class="st4" d="M177.8,77.2h2.5H177.8z"/>
	<path class="st4" d="M172,76.3h8.3H172z"/>
	<path d="M172,76.3L172,76.3l1.6-1.5v-0.1h-0.1l-1.8,1.6H172z"/>
	<path d="M158.3,74.7C158.2,74.7,158.2,74.7,158.3,74.7c-0.1,0-0.1,0-0.2,0v0.1l1.6,1.5h0.3L158.3,74.7z"/>
	<path d="M173.4,78.8h0.1v-0.1l-0.6-0.6h-0.3L173.4,78.8z"/>
	<path d="M158.1,78.7L158.1,78.7l0.1,0.1l0.8-0.7h-0.3L158.1,78.7z"/>
	<polygon class="st1" points="177.8,77 177.8,77 180.2,77 180.2,76.6 151.6,76.6 151.6,77 153.9,77 153.9,77 	"/>
	<polygon points="171.7,76.3 165.9,76.3 160,76.3 159.7,76.3 151.3,76.3 151.3,77.2 153.9,77.2 153.9,77 151.6,77 151.6,76.6 
		180.2,76.6 180.2,77 177.8,77 177.8,77.2 180.3,77.2 180.3,76.3 172,76.3 	"/>
	<rect x="154.1" y="77.2" class="st1" width="23.4" height="0.7"/>
	<path d="M177.8,77L177.8,77H154v0.2l0,0v0.9h5.6V78l0,0h12.8l0,0v0.1h5.6v-0.9l0,0L177.8,77z M154.1,77.9v-0.7h23.4v0.7H154.1z"/>
	<polygon class="st1" points="159.8,78.2 160.4,79.4 171.3,79.4 171.9,78.2 	"/>
	<path d="M172.2,78L172.2,78l-12.8-0.1V78v0.1l0,0l0.7,1.5h11.2l0.7-1.5l0,0L172.2,78z M160.4,79.4l-0.6-1.3H172l-0.6,1.3H160.4z"/>
	<path class="st1" d="M161.9,24.2h7.9c1.1,0,1.9-0.9,1.9-1.9v-7.4c-0.4,0.7-1.1,1.2-1.9,1.2h-7.9c-0.8,0-1.5-0.5-1.9-1.2v7.4l0,0
		C160,23.3,160.9,24.2,161.9,24.2z"/>
	<path d="M171.7,22.3v-7.4l0,0V22.3c0,1.1-0.8,1.9-1.9,1.9h-7.9c-1.1,0-1.9-0.9-1.9-1.9l0,0c0,0.2,0,0.5-0.1,0.7
		c0.3,0.9,1.1,1.5,2,1.5h7.9c0.9,0,1.7-0.6,2-1.5C171.8,22.8,171.7,22.5,171.7,22.3z"/>
	<path d="M160,14.9v7.4V14.9z"/>
	<path class="st1" d="M181.8,16.1h-7.9c-0.8,0-1.5-0.5-1.9-1.2v7.4c0,1.1,0.8,1.9,1.9,1.9h7.9c1.1,0,1.9-0.9,1.9-1.9v-7.4
		C183.3,15.6,182.6,16.1,181.8,16.1z"/>
	<path d="M183.7,22.3L183.7,22.3c0,1.1-0.8,1.9-1.9,1.9h-7.9c-1.1,0-1.9-0.9-1.9-1.9v-7.4c-0.1-0.1-0.1-0.2-0.1-0.3
		c0,0.1-0.1,0.2-0.1,0.3v7.4c0,1.2,1,2.2,2.1,2.2h7.9c0.9,0,1.7-0.6,2-1.5C183.7,22.8,183.6,22.5,183.7,22.3z"/>
	<path class="st1" d="M161.9,15.8h7.9c1,0,1.9-0.9,1.9-1.9v-1.1H160v1.1C160,15,160.8,15.8,161.9,15.8z"/>
	<path d="M161.9,16.1h7.9c0.8,0,1.5-0.5,1.9-1.2l0,0c0-0.1,0.1-0.2,0.1-0.3c-0.1-0.2-0.1-0.4-0.1-0.7v-1.1l0,0v1.1
		c0,1-0.9,1.9-1.9,1.9h-7.9c-1.1,0-1.9-0.8-1.9-1.9l0,0v1l0,0C160.4,15.6,161.1,16.1,161.9,16.1z"/>
	<path class="st1" d="M179.9,12.8h-8v1.1c0,1,0.9,1.9,1.9,1.9h7.9c1,0,1.9-0.9,1.9-1.9v-1.1H179.9z"/>
	<path d="M181.8,15.8h-7.9c-1,0-1.9-0.9-1.9-1.9v-1.1h-0.2v1.1c0,0.2,0,0.5,0.1,0.7c0,0.1,0.1,0.2,0.1,0.3c0.4,0.7,1.1,1.2,1.9,1.2
		h7.9c0.8,0,1.5-0.5,1.9-1.2v-1C183.6,14.9,182.8,15.8,181.8,15.8z"/>
	<polygon class="st1" points="183.7,12.6 183.7,12.6 183.7,12.6 195.6,12.6 195.6,12.6 195.6,24.2 195.6,24.5 195.6,36.2 
		195.6,36.2 195.6,36.4 195.6,48.1 196.3,48.1 196.3,11.8 148,11.8 148,12.6 160,12.6 160,12.6 160,12.6 160,12.6 	"/>
	<polygon points="179.9,12.8 183.7,12.8 183.7,12.8 183.7,12.6 160,12.6 160,12.8 171.7,12.8 	"/>
	<polygon points="148,12.6 148,11.8 196.3,11.8 196.3,48.1 195.6,48.1 195.6,48.4 196.6,48.4 196.6,11.6 147.8,11.6 147.8,12.6 	"/>
	<path class="st1" d="M192.1,22.3v-6.2h-6.2c-0.8,0-1.5-0.5-1.9-1.2v7.4c0,1,0.8,1.9,1.9,1.9h7.4C192.5,23.8,192.1,23.1,192.1,22.3z
		"/>
	<polygon points="183.7,12.6 195.6,12.6 195.6,12.6 	"/>
	<path d="M185.8,24.2h7.4l0,0H185.8c-1,0-1.9-0.8-1.9-1.9v-7.4c-0.2-0.3-0.2-0.7-0.2-1v8.4c0,0.2,0,0.5,0.1,0.7
		c0.2,0.6,0.7,1.1,1.3,1.3C185.4,24.3,185.6,24.2,185.8,24.2z"/>
	<path class="st1" d="M192.1,34.3v-7.9c0-0.8,0.5-1.5,1.2-1.9h-7.4c-1.1,0-1.9,0.8-1.9,1.9v7.9c0,1.1,0.9,1.9,1.9,1.9h7.4
		C192.5,35.9,192.1,35.1,192.1,34.3z"/>
	<path d="M185.8,36.2c-1.1,0-1.9-0.9-1.9-1.9v-7.9c0-1.1,0.9-1.9,1.9-1.9h7.4c0.1-0.1,0.2-0.1,0.3-0.1l-0.3-0.1h-7.4
		c-0.2,0-0.5,0-0.7,0.1c-0.9,0.3-1.5,1.1-1.5,2v8c0,0.9,0.6,1.7,1.5,2C185.4,36.2,185.6,36.2,185.8,36.2z"/>
	<polygon points="185.8,36.2 193.2,36.2 193.2,36.2 	"/>
	<path class="st1" d="M194.2,24.5c-1,0-1.9,0.9-1.9,1.9v8c0,1.1,0.8,1.9,1.9,1.9h1.1V24.5H194.2z"/>
	<path d="M194.2,24.4c-0.2,0-0.5,0-0.7-0.1c-0.1,0-0.2,0.1-0.3,0.1c-0.7,0.4-1.2,1.1-1.2,1.9v7.9c0,0.8,0.5,1.5,1.2,1.9h2.4V24.4
		H194.2z M195.3,36.2h-1.1c-1.1,0-1.9-0.9-1.9-1.9v-7.9c0-1,0.9-1.9,1.9-1.9h1.1V36.2z"/>
	<path class="st1" d="M194.2,24.2h1.1V12.8h-11.4v1.1c0,1.1,0.9,1.9,1.9,1.9h6.5v6.5C192.3,23.3,193.2,24.2,194.2,24.2z"/>
	<path d="M194.2,24.4h1.4V12.6h-11.9v0.2l0,0v1.1c0,0.3,0.1,0.7,0.2,1c0.4,0.7,1.1,1.2,1.9,1.2h6.2v6.2c0,0.8,0.5,1.5,1.2,1.9l0,0
		l0.3,0.1C193.7,24.4,194,24.4,194.2,24.4z M185.8,15.8c-1.1,0-1.9-0.8-1.9-1.9v-1.1h11.4v11.4h-1.1c-1,0-1.9-0.9-1.9-1.9v-6.5
		L185.8,15.8z"/>
	<path class="st1" d="M183.9,38.3v7.9c0,1.1,0.9,1.9,1.9,1.9h7.4c-0.7-0.4-1.2-1.1-1.2-1.9v-7.9c0-0.8,0.5-1.5,1.2-1.9h-7.4
		C184.8,36.4,183.9,37.3,183.9,38.3z"/>
	<path d="M193.2,48.1h-7.4c-1.1,0-1.9-0.8-1.9-1.9v-7.9c0-1.1,0.9-1.9,1.9-1.9h7.4c0.3-0.2,0.7-0.3,1-0.2h-8.4c-0.2,0-0.5,0-0.7,0.1
		c-0.9,0.3-1.4,1.1-1.5,2v7.9c0,1.2,1,2.2,2.2,2.1h8.4C193.9,48.3,193.5,48.3,193.2,48.1z"/>
	<path class="st1" d="M157.8,16.1h-7.9c-0.8,0-1.5-0.5-1.9-1.2v7.4c0,1.1,0.9,1.9,1.9,1.9h7.9c1,0,1.9-0.9,1.9-1.9v-7.4
		C159.4,15.6,158.6,16.1,157.8,16.1z"/>
	<path d="M149.9,24.4h7.9c0.9,0,1.7-0.6,2-1.4c0.1-0.2,0.1-0.5,0.1-0.7v-8.4c0,0.3-0.1,0.7-0.2,1v7.4c0,1-0.9,1.9-1.9,1.9h-7.9
		c-1.1,0-1.9-0.8-1.9-1.9v-7.4c-0.2-0.3-0.2-0.7-0.2-1v8.4C147.8,23.5,148.7,24.5,149.9,24.4L149.9,24.4z"/>
	<polygon points="160,12.6 160,12.6 148,12.6 147.8,12.6 147.8,12.6 	"/>
	<path class="st1" d="M149.9,15.8h7.9c1,0,1.9-0.9,1.9-1.9v-1.1H148v1.1C148,15,148.9,15.8,149.9,15.8z"/>
	<path d="M148,14.9c0.4,0.7,1.1,1.2,1.9,1.2h7.9c0.8,0,1.5-0.5,1.9-1.2c0.2-0.3,0.3-0.7,0.2-1l0,0v-1.1l0,0v-0.2h-12.1V14
		C147.8,14.3,147.9,14.6,148,14.9z M148,12.8h11.7v1.1c0,1-0.9,1.9-1.9,1.9h-7.9c-1.1,0-1.9-0.8-1.9-1.9L148,12.8z"/>
	<path class="st1" d="M194.2,36.4c-1,0-1.9,0.9-1.9,1.9v7.9c0,1,0.9,1.9,1.9,1.9h1.1V36.4H194.2z"/>
	<path d="M195.6,48.1V36.2h-1.4c-0.3,0-0.7,0.1-1,0.2c-0.7,0.4-1.2,1.1-1.2,1.9v7.9c0,0.8,0.5,1.5,1.2,1.9c0.3,0.2,0.7,0.3,1,0.2
		h1.4V48.1z M195.3,48.1h-1c-1,0-1.9-0.9-1.9-1.9v-7.9c0-1,0.9-1.9,1.9-1.9h1.1v11.7L195.3,48.1z"/>
	<path class="st2" d="M176.8,36.9c0.3-3.7-2.5-6.8-6.1-7.1c-3.7-0.3-6.8,2.5-7.1,6.1c-0.3,3.7,2.5,6.8,6.1,7.1c0.2,0,0.3,0,0.5,0
		C173.7,43.1,176.7,40.4,176.8,36.9z M176.6,36.9c0.3,3.5-2.4,6.6-5.9,6.9s-6.6-2.4-6.9-5.9s2.4-6.6,5.9-6.9c0.2,0,0.3,0,0.5,0
		C173.6,30.9,176.4,33.5,176.6,36.9L176.6,36.9z"/>
	<path class="st1" d="M105.4,23.8v0.3l0.5,6.6c0.3-0.1,0.7-0.6,1-1.1c0.4-0.6,0.8-1.3,1.4-1.2c0.1,0,0.2,0.1,0.2,0.1
		c0.6,0.9-0.6,6.8-1.7,11.6h2.3L109,25.9c-0.1,0.1-0.3,0.1-0.4,0.2c-0.3,0.2-0.6,0.3-1,0.4h-0.3c-0.6-0.1-0.5-1.6-0.1-4.2
		c0.3-1.8,0.5-3.7,0.3-5.5c0-0.1-0.1-0.3-0.1-0.4H105c0.1,0.2,0.2,0.4,0.4,0.6C105.9,17.7,105.6,20.7,105.4,23.8z"/>
	<path class="st1" d="M97.2,31c-0.1-1-0.3-2-0.6-3c-0.5-1.7-0.8-3.5-1-5.2l0.1,11.8C96.7,33.6,97.3,32.3,97.2,31z"/>
	<path class="st1" d="M107.5,22.3c-0.2,1.8-0.5,3.8-0.1,3.9s0.8-0.1,1.1-0.3c0.2-0.1,0.4-0.2,0.6-0.3l-0.1-9.3h-1.2
		c0,0.1,0.1,0.3,0.1,0.4C107.9,18.6,107.8,20.5,107.5,22.3z"/>
	<path class="st1" d="M105.9,31L105.9,31c-0.2,0-0.5,0-0.6-0.2c-0.6-0.5-0.5-3-0.1-7c0-0.4,0.1-0.8,0.1-1.3l-0.5-6.1l-0.1-0.1h-2.1
		c0.7,1.1,1.2,2.3,1.6,3.5c0.4,1.9-0.3,6.7-1,9.6l0.3,4.7c0.3,0.2,0.7,0.3,1.1,0.4c0.2,0,0.4,0.1,0.5,0.3c0.5,0.9-0.3,3.3-0.9,5
		c0,0.1-0.1,0.2-0.1,0.3h2.7l0.1-0.3L105.9,31z"/>
	<path class="st1" d="M99.7,33.5c-0.3-0.7-0.3-1.4-0.1-2.1c0-0.2,0.1-0.4,0.1-0.6l-0.1-14.3l-0.1-0.1h-2.9c2.3,3.4,2.9,8.2,2.4,10.3
		c-0.7,3.1-1.1,7.8-0.1,8.6c0.2,0.1,0.2,0.3,0.2,0.5c-0.1,1.1-2.4,2.8-3.5,3.4v0.9h4V40L99.7,33.5z"/>
	<path class="st1" d="M103.4,34.5c-0.5-0.2-0.9-0.6-1.1-1.1c-0.4-0.7-0.4-1.5,0-2.2c0.3-0.8,0.6-1.7,0.8-2.5l-0.7-12.1l-0.1-0.1
		h-2.4c2.1,3.5,0.6,11.9,0,15.1c-0.4,2.5,0.9,2.9,2.1,3.2c0.4,0.1,0.8,0.2,1.1,0.5c0.6,0.7-1.6,3.7-2.9,5h3.5c0-0.1,0-0.1,0.1-0.2
		L103.4,34.5z"/>
	<path class="st1" d="M98.9,35.9c0-0.1,0-0.2-0.1-0.3c-1.1-1-0.6-6,0.1-8.9c0.4-3.6-0.5-7.2-2.5-10.3h-0.9v3.9
		c0.2,2.6,0.6,5.1,1.3,7.6c0.3,1,0.5,2,0.6,3.1c0,1.5-0.6,2.9-1.8,3.9V39C97.1,38.2,98.8,36.7,98.9,35.9z"/>
	<path class="st2" d="M109.2,16.1l-13.8,0.1h-0.1l0.1,24.2v0.1l13.8-0.1h0.1l-0.2-24.2L109.2,16.1L109.2,16.1z M106.6,40.3
		L106.6,40.3L106.6,40.3L106.6,40.3l-2.8-0.1c0,0.1,0,0.1-0.1,0.2h-0.1l0,0h-0.1v-0.1H100l-0.2,0.2l-0.2-0.2l0,0h-4v-1l0,0l-0.1-0.2
		l0.2-0.1v-4.2h-0.1l-0.2-0.2l0.2-0.2l-0.1-11.8c-0.1-0.7-0.2-1.5-0.3-2.4h0.2l0,0v-3.9h0.9v-0.1l0.2-0.1c0,0.1,0.1,0.1,0.1,0.2h2.9
		l0,0l0.2-0.1l0.1,0.2h2.4v-0.1l0.1-0.1l0,0l0.1-0.1c0,0.1,0.1,0.1,0.1,0.2h2.1v-0.1l0.1-0.1l0,0l0.1-0.1c0,0.1,0.1,0.1,0.1,0.2h2.5
		v-0.1l0.2-0.1c0,0,0,0.1,0,0.2h1.2l0.1,9.3l0,0l0.1,0.2h-0.1l0.1,14.2h-2.3V40h-0.1h0V40.3z"/>
	<path class="st1" d="M105.4,30.6c0.1,0.1,0.3,0.2,0.4,0.1l0,0l-0.5-6.6C105.1,27,104.8,30.1,105.4,30.6z"/>
	<path class="st1" d="M108.3,28.7C108.3,28.7,108.2,28.7,108.3,28.7c-0.5-0.1-0.9,0.6-1.2,1.1s-0.7,1.1-1.2,1.2l0.7,8.9
		C108.1,33.4,108.7,29.3,108.3,28.7z"/>
	<path class="st1" d="M105.1,17.1l-0.4-0.6l0.5,6.1C105.4,20,105.6,17.7,105.1,17.1z"/>
	<path class="st1" d="M104.7,16.2L104.7,16.2L104.7,16.2z"/>
	<path class="st1" d="M106.6,40.3L106.6,40.3L106.6,40.3z"/>
	<path class="st2" d="M106.8,40.3L106.8,40.3c1.1-5,2.3-10.9,1.7-11.7c-0.1-0.1-0.1-0.1-0.2-0.1c-0.6-0.1-1,0.6-1.4,1.2
		c-0.3,0.5-0.6,1-1,1.1l0,0c-0.2,0-0.3,0-0.4-0.1c-0.6-0.4-0.3-3.6-0.1-6.5v-0.3c0.3-3.1,0.5-6.1,0-6.9c-0.1-0.2-0.3-0.4-0.4-0.6
		s-0.1-0.1-0.1-0.2l-0.1,0.1l0,0l-0.1,0.1v0.1l0.1,0.1l0.4,0.6c0.4,0.6,0.3,3,0.1,5.5c0,0.4-0.1,0.8-0.1,1.3c-0.3,4-0.5,6.4,0.1,7
		c0.2,0.2,0.4,0.2,0.6,0.2l0,0c0.4-0.1,0.8-0.6,1.2-1.2s0.8-1.2,1.2-1.1c0,0,0,0,0.1,0c0.4,0.6-0.2,4.7-1.7,11.2l-0.1,0.3v0.1h0.1
		l0,0L106.8,40.3z"/>
	<path class="st1" d="M103.8,39.8c0.5-1.4,1.4-4,0.9-4.8c-0.1-0.1-0.2-0.2-0.3-0.2c-0.3-0.1-0.7-0.2-1-0.4L103.8,39.8L103.8,39.8z"
		/>
	<path class="st1" d="M102.4,33.3c0.2,0.4,0.5,0.7,0.9,0.9l-0.3-4.7c-0.1,0.6-0.3,1.2-0.6,1.8C102.1,31.9,102.1,32.6,102.4,33.3z"/>
	<path class="st1" d="M103.8,20c-0.3-1.2-0.8-2.4-1.5-3.4l0.7,12.1C103.7,25.8,104.2,21.6,103.8,20z"/>
	<path class="st1" d="M102.3,16.2L102.3,16.2L102.3,16.2z"/>
	<path class="st1" d="M103.7,40.3L103.7,40.3L103.7,40.3z"/>
	<path class="st2" d="M104.9,34.9c-0.1-0.2-0.3-0.3-0.5-0.3c-0.4-0.1-0.7-0.2-1.1-0.4s-0.7-0.5-0.9-0.9c-0.3-0.6-0.3-1.4,0-2
		s0.5-1.2,0.6-1.8c0.7-2.9,1.4-7.6,1-9.6c-0.3-1.3-0.8-2.4-1.6-3.5c0-0.1-0.1-0.1-0.1-0.2l-0.1,0.1l0,0l-0.1,0.1v0.1l0.1,0.1
		c0.7,1.1,1.2,2.2,1.5,3.4c0.4,1.7-0.2,5.8-0.8,8.7c-0.2,0.9-0.4,1.7-0.8,2.5c-0.4,0.7-0.4,1.5,0,2.2c0.3,0.5,0.7,0.8,1.1,1.1
		c0.3,0.2,0.7,0.3,1,0.4c0.1,0,0.2,0.1,0.3,0.2c0.5,0.8-0.4,3.4-0.9,4.8l-0.1,0.2c0,0.1-0.1,0.1-0.1,0.2v0.1h0.1l0,0h0.1
		c0,0,0-0.1,0.1-0.2s0.1-0.2,0.1-0.3C104.6,38.2,105.4,35.8,104.9,34.9z"/>
	<path class="st1" d="M99.6,16.5l0.1,14.3C100.3,27.4,101.5,19.7,99.6,16.5z"/>
	<path class="st1" d="M102.8,35.4c-0.3-0.2-0.6-0.4-1-0.4c-0.9-0.1-1.7-0.7-2.1-1.4v6.7C101.4,38.6,103.2,35.8,102.8,35.4z"/>
	<path class="st2" d="M103,35.2c-0.3-0.3-0.7-0.4-1.1-0.5c-1.1-0.3-2.5-0.7-2.1-3.2c0.6-3.2,2.1-11.6,0-15.1l-0.1-0.2l-0.2,0.1l0,0
		c0,0.1,0.1,0.1,0.1,0.1c1.9,3.2,0.7,10.9,0.1,14.3c0,0.2-0.1,0.4-0.1,0.6c-0.2,0.7-0.1,1.4,0.1,2.1c0.4,0.8,1.2,1.3,2.1,1.4
		c0.4,0.1,0.7,0.2,1,0.4c0.4,0.5-1.4,3.2-3.1,4.8v0.1l0,0l0.2,0.2l0.2-0.2C101.3,38.9,103.6,35.9,103,35.2z"/>
	<path class="st2" d="M99.2,35.9c0-0.2-0.1-0.4-0.2-0.5c-1-0.8-0.5-5.5,0.1-8.6c0.5-2.1-0.1-7-2.4-10.3c0-0.1-0.1-0.1-0.1-0.2
		l-0.2,0.1v0.1c2,3,2.9,6.7,2.5,10.3c-0.6,2.9-1.2,7.9-0.1,8.9c0.1,0.1,0.1,0.2,0.1,0.3c-0.1,0.8-1.9,2.3-3.2,3.2l-0.2,0.1l0.1,0.2
		l0,0C96.8,38.7,99.1,37,99.2,35.9z"/>
	<path class="st2" d="M97.5,31c-0.1-1-0.3-2.1-0.6-3.1c-0.7-2.5-1.1-5-1.3-7.6l0,0h-0.2c0.1,0.9,0.2,1.7,0.3,2.4
		c0.2,1.8,0.5,3.5,1,5.2c0.3,1,0.5,2,0.6,3c0,1.3-0.5,2.6-1.6,3.5l-0.2,0.2l0.2,0.2h0.1C96.8,33.9,97.5,32.5,97.5,31z"/>
	<path class="st2" d="M107.2,22.3c-0.4,2.6-0.5,4.1,0.1,4.2h0.3c0.4,0,0.7-0.1,1-0.4c0.1-0.1,0.3-0.2,0.4-0.2h0.1l-0.1-0.2l0,0
		c-0.2,0.1-0.4,0.2-0.6,0.3c-0.3,0.2-0.7,0.4-1.1,0.3s-0.1-2.1,0.1-3.9c0.3-1.8,0.5-3.7,0.3-5.6c0-0.1-0.1-0.2-0.1-0.4
		c0,0,0-0.1,0-0.2l-0.2,0.1v0.1c0,0,0.1,0.3,0.1,0.4C107.7,18.6,107.6,20.5,107.2,22.3z"/>
	<path class="st1" d="M116.5,26.3c0,0.3,0.1,0.3,0.1,0.4h0.6c0,0,0.1-0.1,0.1-0.4s0-0.6,0-0.9v-5.1c0-0.3,0-0.6,0-0.9
		s-0.1-0.3-0.1-0.3h-0.6c0,0,0,0.1-0.1,0.3v0.3V26V26.3z"/>
	<path class="st1" d="M110.9,26.7h4.4c0.4,0,0.8-0.3,0.9-0.7v-6.2c-0.1-0.4-0.5-0.7-0.9-0.7h-4.4c-0.6,0.1-1.1,0.6-1.1,1.2v5.1
		C109.8,26.1,110.3,26.6,110.9,26.7z"/>
	<path class="st2" d="M110.9,26.9h4.4c0.4,0,0.8-0.2,1-0.5c0,0.2,0.1,0.5,0.3,0.5h0.6c0.3,0,0.3-0.3,0.3-0.6c0-0.3,0-0.6,0-0.9v-5.1
		c0-0.3,0-0.6,0-0.9c0-0.2-0.1-0.6-0.3-0.6h-0.6c-0.2,0-0.3,0.3-0.3,0.5c-0.2-0.3-0.6-0.5-1-0.5h-4.4c-0.8,0.1-1.4,0.7-1.3,1.5v5.1
		C109.6,26.2,110.2,26.9,110.9,26.9z M109.8,20.4c0-0.6,0.4-1.2,1.1-1.2h4.4c0.4,0,0.8,0.3,0.9,0.7l0,0h0.2v-0.3
		c0-0.3,0.1-0.3,0.1-0.3h0.6c0,0,0.1,0.1,0.1,0.3c0,0.3,0,0.6,0,0.9v5.1c0,0.3,0,0.6,0,0.9s-0.1,0.3-0.1,0.4h-0.6c0,0,0-0.1-0.1-0.4
		v-0.3h-0.2l0,0c-0.2,0.4-0.5,0.6-0.9,0.7H111c-0.6-0.1-1.1-0.6-1.1-1.2L109.8,20.4z"/>
	<polygon class="st2" points="116.2,26.1 116.5,26.1 116.5,26.1 116.5,19.8 116.5,19.8 116.2,19.8 116.2,19.8 116.2,26 	"/>
	<path class="st1" d="M115.4,29.7H111c-0.6,0.1-1.1,0.6-1.1,1.2V36c0,0.6,0.4,1.2,1.1,1.2h4.4c0.4,0,0.8-0.3,0.9-0.7v-6.3
		C116.1,30,115.8,29.7,115.4,29.7z"/>
	<path class="st1" d="M117.3,29.7h-0.6c0,0-0.1,0.1-0.1,0.4v0.3v6.3c0,0.1,0,0.2,0,0.3c0,0.3,0.1,0.4,0.1,0.4h0.6c0,0,0.1,0,0.1-0.4
		c0-0.3,0.1-0.6,0.1-0.9V31c0-0.3,0-0.6-0.1-0.9C117.3,29.8,117.3,29.7,117.3,29.7z"/>
	<path class="st2" d="M117.3,29.5h-0.6c-0.2,0-0.3,0.3-0.3,0.5c-0.2-0.3-0.6-0.5-1-0.5H111c-0.8,0.1-1.4,0.7-1.3,1.5v5.1
		c0,0.8,0.5,1.4,1.3,1.5h4.4c0.4,0,0.8-0.2,1-0.5c0,0.2,0.1,0.5,0.3,0.5h0.6c0.3,0,0.3-0.3,0.3-0.6s0.1-0.6,0.1-0.9V31
		c0-0.3,0-0.6-0.1-0.9C117.6,29.8,117.5,29.5,117.3,29.5z M117.4,36.1c0,0.3,0,0.6-0.1,0.9c0,0.3-0.1,0.4-0.1,0.4h-0.6
		c0,0-0.1-0.1-0.1-0.4c0-0.1,0-0.2,0-0.3h-0.2l0,0c-0.1,0.4-0.5,0.7-0.9,0.7H111c-0.6-0.1-1.1-0.6-1.1-1.2V31c0-0.6,0.4-1.2,1.1-1.2
		h4.4c0.4,0,0.8,0.3,0.9,0.7l0,0h0.2v-0.3c0-0.3,0.1-0.3,0.1-0.4h0.6c0,0,0.1,0.1,0.1,0.4s0.1,0.6,0.1,0.9
		C117.4,31.1,117.4,36.1,117.4,36.1z"/>
	<polygon class="st2" points="116.6,30.4 116.3,30.4 116.3,30.4 116.3,36.6 116.3,36.7 116.6,36.7 116.6,36.7 	"/>
	<path class="st1" d="M89.2,26.9L89.2,26.9l4.4-0.1c0.6-0.1,1.1-0.6,1-1.3l-0.1-5.1c0-0.3-0.1-0.6-0.3-0.9c-0.2-0.2-0.5-0.3-0.7-0.3
		l0,0h-4.4c-0.4,0-0.8,0.3-0.9,0.7l0.1,6.2C88.4,26.6,88.8,26.9,89.2,26.9z"/>
	<path class="st1" d="M87.1,20.6l0.1,5.1c0,0.3,0,0.6,0.1,0.9c0,0.3,0.1,0.3,0.1,0.4H88c0,0,0.1-0.1,0.1-0.4c0-0.1,0-0.2,0-0.3
		L88,20l0,0c0-0.1,0-0.2,0-0.3c0-0.3-0.1-0.3-0.1-0.3h-0.6c0,0,0,0.1-0.1,0.3C87.1,20,87.1,20.3,87.1,20.6z"/>
	<path class="st2" d="M87.3,27.1H88c0.2,0,0.3-0.3,0.3-0.5c0.2,0.3,0.6,0.5,1,0.5l0,0l4.4-0.1c0.8-0.1,1.4-0.7,1.3-1.5l-0.1-5.1
		c0-0.4-0.1-0.8-0.4-1.1c-0.2-0.3-0.6-0.4-0.9-0.4l0,0h-4.4c-0.4,0-0.8,0.2-1,0.5c0-0.2-0.1-0.5-0.3-0.5h-0.6
		c-0.3,0-0.3,0.3-0.3,0.6c0,0.3,0,0.6,0,0.9l0.1,5.1c0,0.3,0,0.6,0.1,0.9C87,26.8,87.1,27.1,87.3,27.1z M87.8,19.3
		c0,0,0.1,0.1,0.1,0.3c0,0.1,0,0.2,0,0.3h0.2l0,0c0.2-0.4,0.5-0.7,0.9-0.7h4.4l0,0c0.3,0,0.6,0.1,0.7,0.3c0.2,0.2,0.3,0.6,0.3,0.9
		l0.1,5.1c0.1,0.6-0.4,1.2-1,1.3l-4.4,0.1l0,0c-0.4,0-0.8-0.3-0.9-0.6l0,0H88c0,0.1,0,0.2,0,0.3c0,0.3-0.1,0.3-0.1,0.4h-0.6
		c0,0-0.1-0.1-0.1-0.4s-0.1-0.6-0.1-0.9L87,20.6c0-0.3,0-0.6,0-0.9s0.1-0.3,0.1-0.3L87.8,19.3z"/>
	<polygon class="st2" points="88.1,26.2 88.3,26.2 88.3,26.2 88.2,20 88.2,19.9 88,19.9 88,19.9 	"/>
	<path class="st1" d="M88.1,30.5c0-0.1,0-0.2,0-0.3c0-0.3-0.1-0.4-0.1-0.4h-0.6c0,0-0.1,0.1-0.1,0.4s0,0.6,0,0.9l0.1,5.1
		c0,0.3,0,0.6,0.1,0.9c0,0.3,0.1,0.3,0.1,0.4h0.6c0,0,0.1-0.1,0.1-0.4c0-0.1,0-0.2,0-0.3L88.1,30.5L88.1,30.5z"/>
	<path class="st1" d="M94.4,37c0.2-0.3,0.3-0.6,0.3-0.9L94.6,31c0-0.3-0.1-0.6-0.3-0.9c-0.2-0.2-0.5-0.4-0.7-0.4l0,0l-4.4,0.1
		c-0.4,0-0.8,0.3-0.9,0.7l0.1,6.3c0.2,0.4,0.5,0.6,0.9,0.6l0,0l4.4-0.1C94,37.4,94.3,37.3,94.4,37z"/>
	<path class="st2" d="M94.5,30c-0.2-0.3-0.6-0.4-0.9-0.4l0,0l-4.4,0.1c-0.4,0-0.8,0.2-1,0.5c0-0.2-0.1-0.5-0.3-0.5h-0.6
		C87,29.7,87,30,87,30.2c0,0.3,0,0.6,0,0.9l0.1,5.1c0,0.3,0,0.6,0.1,0.9c0,0.2,0.1,0.6,0.3,0.6h0.6c0.2,0,0.3-0.3,0.3-0.5
		c0.2,0.3,0.6,0.5,1,0.5l4.4-0.1c0.4,0,0.7-0.2,0.9-0.5c0.2-0.3,0.4-0.7,0.4-1.1L95,31.1C95,30.7,94.8,30.3,94.5,30z M89.3,37.5
		c-0.4,0-0.8-0.3-0.9-0.6l0,0h-0.2c0,0.1,0,0.2,0,0.3c0,0.3-0.1,0.3-0.1,0.4h-0.6c0,0-0.1-0.1-0.1-0.4c0-0.3-0.1-0.6-0.1-0.9
		l-0.1-5.1c0-0.3,0-0.6,0-0.9s0.1-0.4,0.1-0.4h0.6c0,0,0.1,0.1,0.1,0.4c0,0.1,0,0.2,0,0.3h0.2l0,0c0.2-0.4,0.5-0.7,0.9-0.7l4.4-0.1
		l0,0c0.3,0,0.6,0.1,0.7,0.4c0.2,0.2,0.3,0.6,0.3,0.9l0.1,5.1c0,0.3-0.1,0.6-0.3,0.9c-0.2,0.2-0.5,0.4-0.8,0.4H89.3L89.3,37.5z"/>
	<polygon class="st2" points="88.3,30.5 88.1,30.5 88.1,30.6 88.1,36.9 88.1,36.9 88.4,36.9 88.4,36.8 88.3,30.6 	"/>
	<path class="st1" d="M194.9,105h-0.2c0-0.3,0.1-2.7,0.2-5.1h-1c-0.2,2.4-0.5,5-0.6,5.9h-0.2c0.2-1.6,0.4-3.9,0.6-5.9h-1.1
		c0,2.4-0.1,5.2-0.1,5.4h-0.2c0-0.1,0-2.9,0.1-5.4h-1c-0.2,2-0.5,4.2-0.6,5.4h-0.2c0.1-0.5,0.3-3,0.6-5.4h-1l-0.2,3.7h-0.2
		c0,0,0.1-1.8,0.3-3.7H189c-0.1,2.5-0.1,5.2-0.2,5.5h-0.2c0-0.3,0.1-3,0.2-5.5h-1c-0.2,2.5-0.5,5.4-0.6,6.3H187
		c0.2-1.7,0.4-4.1,0.6-6.2h-1.1c0,2.5-0.1,5.6-0.1,5.8h-0.2c0-0.1,0-3.2,0.1-5.8h-1c-0.2,2.1-0.5,4.5-0.7,5.8h-0.2
		c0.1-0.5,0.4-3.2,0.7-5.8h-1c-0.1,2-0.3,4.1-0.3,4.1h-0.2c0,0,0.1-2,0.3-4h-1c-0.1,2.3-0.1,4.6-0.2,4.9h-0.2c0-0.3,0.1-2.6,0.2-4.9
		h-1c-0.3,2.1-0.6,4.2-0.7,4.7l-0.2-0.1c0.1-0.5,0.4-2.5,0.7-4.6h-1c-0.2,2.4-0.5,4.9-0.6,5.7h-0.2c0.2-1.6,0.4-3.7,0.6-5.7h-1
		c0,2.4-0.1,5-0.1,5.2h-0.3c0,0,0-2.8,0.1-5.2h-1c-0.2,2-0.5,4-0.6,5.2H177c0.1-0.5,0.3-2.8,0.6-5.2h-1c-0.1,1.8-0.2,3.5-0.2,3.5
		h-0.2c0,0,0.1-1.6,0.2-3.5h-1l0.7,4.9h-0.2l-0.7-5h-1c-0.1,2.3-0.1,4.6-0.2,4.9h-0.2c0-0.3,0.1-2.6,0.2-4.8h-1.1
		c-0.3,2.1-0.6,4.1-0.7,4.6H172c0.1-0.5,0.4-2.5,0.7-4.5h-0.8c-0.2,2.3-0.5,4.8-0.6,5.6h-0.2c0.2-1.5,0.4-3.6,0.5-5.6h-1
		c0,2.4-0.1,4.9-0.1,5.1h-0.2c0-0.1,0-2.7,0.1-5.1h-1c-0.2,1.9-0.5,4-0.6,5.2h-0.2c0.1-0.5,0.3-2.8,0.6-5.1h-1
		c-0.1,1.8-0.2,3.4-0.2,3.4h-0.2c0,0,0.1-1.6,0.2-3.4h-1l0.7,4.9h-0.2l-0.7-4.9h-1v5.2h-0.2v-5.2h-1c-0.1,2.9-0.3,5.9-0.3,6.1H164
		c0.1-1.7,0.2-4,0.3-6.1h-1v4.8h-0.2v-4.8h-1l0.8,5.1h-0.2l-0.9-5.1h-1.5v6.5h35.3v-6.5h-0.5C195.1,102.2,195,104.7,194.9,105z"/>
	<path class="st1" d="M160.9,94.8l0.2-0.1l0.8,4.8h1l-0.1-5.8h0.2l0.1,5.8h1c0.1-2.6,0.2-4.9,0.2-5h0.2c0,0.1-0.1,2.4-0.2,5h1v-4.9
		h0.2v4.9h1l-0.6-4.5l0.2-0.1l0.7,4.6h1c0.1-2.2,0.3-4.6,0.3-4.7h0.2c0,0.2-0.2,2.6-0.3,4.7h1c0.3-2.6,0.6-5.3,0.7-5.4l0.2,0.1
		c0,0.1-0.3,2.6-0.6,5.3h1c0-1.9,0-3.6,0-3.7h0.2c0,0.1,0,1.8,0,3.7h1c0.2-2.5,0.5-4.7,0.5-4.8h0.2c0,0-0.2,2.3-0.5,4.8h1
		c0.4-2.4,0.7-4.8,0.7-4.9l0.2,0.1c0,0.1-0.4,2.4-0.7,4.8h1c0.1-2.2,0.1-4.4,0.1-4.4h0.2c0,0.2-0.1,2.3-0.1,4.4h0.9l-0.6-4.4h0.2
		l0.6,4.5h1c0.1-2.2,0.3-4.5,0.3-4.7h0.2c0,0.2-0.2,2.5-0.3,4.6h1c0.3-2.6,0.6-5.2,0.7-5.3l0.2,0.1c0,0.1-0.3,2.6-0.6,5.2h1
		c0-1.9,0-3.5,0-3.6h0.2c0,0.1,0,1.7,0,3.6h1.1c0.2-2.5,0.5-4.6,0.5-4.7h0.2c0,0.1-0.2,2.3-0.5,4.7h1c0.4-2.4,0.7-4.7,0.7-4.8h0.2
		c0,0-0.4,2.4-0.7,4.7h1c0.1-2.2,0.1-4.3,0.1-4.4h0.2c0,0.2-0.1,2.2-0.1,4.4h1c0.1-2,0.3-3.9,0.3-4.1h0.2c0,0.2-0.1,2.1-0.3,4.1h1.1
		c0.3-2.4,0.6-4.6,0.6-4.7l0.2,0.1c0,0.1-0.3,2.3-0.6,4.7h1c0-1.6,0-3,0-3h0.2c0,0.1,0,1.4,0,3h1.1c0.2-2.2,0.4-4,0.4-4.1h0.2
		c0,0.1-0.2,1.9-0.4,4.1h1c0.1-2,0.1-3.8,0.1-3.8h0.2c0,0.2,0,1.9-0.1,3.8h0.9c0.1-2.1,0.3-4.3,0.3-4.5h0.2c0,0.2-0.2,2.4-0.3,4.4h1
		c0.3-2.5,0.6-5,0.6-5.1l0.2,0.1c0,0.1-0.3,2.5-0.6,5h1c0-1.8,0-3.3,0-3.4h0.2c0,0.1,0,1.6,0,3.4h1.1c0.2-2.4,0.4-4.4,0.4-4.5h0.2
		c0,0.1-0.2,2.1-0.4,4.5h1c0.1-2.1,0.1-4.1,0.1-4.2h0.2c0,0.2,0,2.1-0.1,4.2h0.5v-6H160v6h1.4L160.9,94.8z"/>
	<path class="st2" d="M160.1,93.3v13.4h35.7V93.3H160.1z M160.2,99.6h0.1v-6h35.3v6h0.1v0.3h-0.1v6.5h-35.3v-6.5h-0.1V99.6z"/>
	<path d="M192.4,99.9v-0.3h-1v0.3H192.4z"/>
	<polygon points="166.7,99.9 166.6,99.6 165.7,99.6 165.7,99.9 	"/>
	<path d="M189.9,99.9v-0.3H189v0.3H189.9z"/>
	<path d="M195.1,99.9h0.6v-0.3h-0.6V99.9z"/>
	<path d="M194.9,99.9v-0.3h-1v0.3H194.9z"/>
	<path d="M193.7,99.9v-0.3h-1.1v0.3H193.7z"/>
	<path d="M191.2,99.9v-0.3h-1v0.3H191.2z"/>
	<path d="M174.1,99.9v-0.3h-1v0.3H174.1z"/>
	<path d="M188.8,99.9v-0.3h-1v0.3H188.8z"/>
	<path d="M175.2,99.9v-0.3h-0.9v0.3H175.2z"/>
	<path d="M171.6,99.9v-0.3h-1v0.3H171.6z"/>
	<path d="M176.4,99.9v-0.3h-1v0.3H176.4z"/>
	<path d="M167.8,99.9v-0.3h-1v0.3H167.8z"/>
	<path d="M165.4,99.9v-0.3h-1v0.3H165.4z"/>
	<path d="M170.3,99.9v-0.3h-1v0.3H170.3z"/>
	<path d="M169.1,99.9v-0.3h-1v0.3H169.1z"/>
	<path d="M172.8,99.9v-0.3h-1v0.3H172.8z"/>
	<path d="M185.1,99.9v-0.3H184v0.3H185.1z"/>
	<path d="M186.3,99.9v-0.3h-1v0.3H186.3z"/>
	<path d="M183.8,99.9v-0.3h-1v0.3H183.8z"/>
	<path d="M177.7,99.9v-0.3h-1v0.3H177.7z"/>
	<path d="M187.6,99.9v-0.3h-1.1v0.3H187.6z"/>
	<path d="M178.9,99.9v-0.3h-1v0.3H178.9z"/>
	<path d="M182.6,99.9v-0.3h-1v0.3H182.6z"/>
	<path d="M180.2,99.9v-0.3h-1.1v0.3H180.2z"/>
	<path d="M181.4,99.9v-0.3h-1v0.3H181.4z"/>
	<path d="M164.2,99.9v-0.3h-1v0.3H164.2z"/>
	<polygon points="163,99.9 163,99.6 161.9,99.6 162,99.9 	"/>
	<polygon points="160.3,99.9 161.8,99.9 161.7,99.6 160.3,99.6 160.2,99.6 160.2,99.9 	"/>
	<polygon points="162.8,105 162,99.9 161.9,99.6 161.1,94.8 160.9,94.8 161.7,99.6 161.8,99.9 162.6,105 	"/>
	<polygon points="163.1,104.7 163.3,104.7 163.2,99.9 163.2,99.6 163.2,93.8 162.9,93.8 163,99.6 163,99.9 	"/>
	<path d="M163.9,106h0.2c0-0.2,0.2-3.2,0.3-6.1v-0.3c0.1-2.5,0.2-4.9,0.2-5h-0.2c0,0.1-0.1,2.3-0.2,5v0.3
		C164.1,102,164,104.3,163.9,106z"/>
	<polygon points="167.4,104.8 167.6,104.8 166.9,99.9 166.8,99.6 166.2,95.1 166,95.1 166.6,99.6 166.7,99.9 	"/>
	<path d="M167.6,103.3h0.2c0,0,0.1-1.6,0.2-3.4v-0.3c0.1-2.2,0.3-4.5,0.3-4.7h-0.2c0,0.2-0.2,2.6-0.3,4.7v0.3
		C167.7,101.7,167.6,103.3,167.6,103.3z"/>
	<polygon points="165.4,105.1 165.6,105.1 165.7,99.9 165.7,99.6 165.7,94.7 165.5,94.7 165.4,99.6 165.4,99.9 	"/>
	<path d="M168.5,105h0.2c0.1-1.2,0.4-3.2,0.6-5.2v-0.3c0.3-2.6,0.6-5.1,0.6-5.3l-0.2-0.1c0,0.1-0.4,2.8-0.7,5.4v0.3
		C168.8,102.2,168.5,104.5,168.5,105z"/>
	<path d="M170.3,105h0.2c0-0.2,0-2.8,0.1-5.1v-0.3c0-1.9,0-3.6,0-3.7h-0.2c0,0.1,0,1.8,0,3.7v0.3C170.3,102.3,170.3,105,170.3,105z"
		/>
	<path d="M171.1,105.5h0.2c0.1-0.8,0.3-3.3,0.6-5.6v-0.3c0.2-2.4,0.5-4.7,0.5-4.8h-0.2c0,0.1-0.2,2.3-0.5,4.8v0.3
		C171.4,101.8,171.2,103.9,171.1,105.5z"/>
	<path d="M173.8,104.7h0.2c0-0.3,0.1-2.6,0.2-4.9v-0.3c0.1-2.2,0.1-4.3,0.1-4.4h-0.2c0,0,0,2.2-0.1,4.4v0.3
		C174,102.1,173.9,104.4,173.8,104.7z"/>
	<path d="M172.1,104.4h0.2c0.1-0.5,0.4-2.5,0.7-4.6v-0.3c0.4-2.4,0.7-4.8,0.7-4.8l-0.2-0.1c0,0.1-0.4,2.4-0.7,4.9v0.3
		C172.4,101.9,172.1,103.9,172.1,104.4z"/>
	<polygon points="175.9,104.9 176.2,104.8 175.4,99.9 175.4,99.6 174.8,95.1 174.6,95.2 175.2,99.6 175.2,99.9 	"/>
	<path d="M176.2,103.3h0.2c0,0,0.1-1.6,0.2-3.5v-0.3c0.2-2.1,0.3-4.5,0.3-4.6h-0.2c0,0.2-0.2,2.5-0.3,4.7v0.3
		C176.3,101.7,176.2,103.3,176.2,103.3z"/>
	<path d="M177.1,105.1h0.2c0.1-1.2,0.4-3.2,0.6-5.2v-0.3c0.3-2.6,0.6-5.1,0.6-5.2l-0.2-0.1c0,0.1-0.4,2.7-0.7,5.3v0.3
		C177.4,102.2,177.1,104.6,177.1,105.1z"/>
	<path d="M178.8,105.1h0.2c0-0.2,0-2.8,0.1-5.2v-0.3c0-1.9,0-3.5,0-3.6h-0.2c0,0.1,0,1.7,0,3.6v0.3
		C178.9,102.3,178.8,105,178.8,105.1z"/>
	<path d="M179.6,105.5h0.2c0.1-0.9,0.3-3.3,0.6-5.7v-0.3c0.2-2.4,0.5-4.6,0.5-4.7h-0.2c0,0.1-0.2,2.2-0.5,4.7v0.3
		C180,101.8,179.8,104,179.6,105.5z"/>
	<path d="M182.5,104.8h0.2c0-0.3,0.1-2.6,0.2-4.9v-0.3c0.1-2.1,0.1-4.2,0.1-4.4h-0.2c0,0-0.1,2.1-0.1,4.4v0.3
		C182.6,102.2,182.5,104.5,182.5,104.8z"/>
	<path d="M180.6,104.5l0.2,0.1c0.1-0.5,0.4-2.6,0.7-4.7v-0.3c0.4-2.4,0.7-4.7,0.7-4.7H182c0,0-0.4,2.4-0.7,4.8v0.3
		C181,101.9,180.7,104,180.6,104.5z"/>
	<path d="M189.7,103.5h0.2l0.2-3.7v-0.3c0.1-2.1,0.3-4.3,0.3-4.4h-0.2c0,0.2-0.2,2.4-0.3,4.5v0.3
		C189.8,101.8,189.7,103.5,189.7,103.5z"/>
	<path d="M190.5,105.3h0.2c0.1-1.3,0.4-3.4,0.6-5.4v-0.3c0.3-2.6,0.6-4.9,0.6-5l-0.2-0.1c0,0.1-0.3,2.6-0.6,5.1v0.3
		C190.9,102.3,190.6,104.7,190.5,105.3z"/>
	<path d="M192.3,105.3h0.2c0-0.2,0-3,0.1-5.4v-0.3c0-1.8,0-3.3,0-3.4h-0.2c0,0.1,0,1.6,0,3.4v0.3
		C192.4,102.4,192.3,105.2,192.3,105.3z"/>
	<path d="M193.1,105.7h0.2c0.1-0.9,0.3-3.5,0.6-5.9v-0.3c0.2-2.3,0.4-4.4,0.4-4.5h-0.2c0,0.1-0.2,2.1-0.4,4.5v0.3
		C193.5,101.9,193.3,104.1,193.1,105.7z"/>
	<path d="M194.7,105h0.2c0-0.3,0.1-2.8,0.2-5.1v-0.3c0.1-2.1,0.1-4,0.1-4.2H195c0,0,0,2-0.1,4.2v0.3
		C194.8,102.2,194.8,104.7,194.7,105z"/>
	<path d="M183.5,103.9h0.2c0,0,0.1-2,0.3-4.1v-0.3c0.1-2,0.3-3.9,0.3-4.1h-0.2c0,0.2-0.1,2.1-0.3,4.1v0.3
		C183.7,101.9,183.5,103.9,183.5,103.9z"/>
	<path d="M184.4,105.6h0.2c0.1-1.3,0.4-3.7,0.7-5.8v-0.3c0.3-2.4,0.5-4.5,0.6-4.7l-0.2-0.1c0,0.1-0.3,2.3-0.6,4.7v0.3
		C184.8,102.4,184.5,105.1,184.4,105.6z"/>
	<path d="M186.2,105.7h0.2c0-0.2,0-3.3,0.1-5.8v-0.3c0-1.6,0-3,0-3h-0.2c0,0.1,0,1.4,0,3v0.3C186.3,102.4,186.2,105.6,186.2,105.7z"
		/>
	<path d="M187,106.1h0.2c0.1-0.9,0.4-3.8,0.6-6.3v-0.3c0.2-2.2,0.4-4.1,0.4-4.1H188c0,0.1-0.2,1.9-0.4,4.1v0.3
		C187.4,102,187.2,104.4,187,106.1z"/>
	<path d="M188.6,105.3h0.2c0-0.3,0.1-3,0.2-5.5v-0.3c0-1.9,0.1-3.6,0.1-3.8h-0.2c0,0,0,1.8-0.1,3.8v0.3
		C188.7,102.3,188.6,105,188.6,105.3z"/>
	<path class="st1" d="M188.9,154.5h-0.5H188l0.8,1L188.9,154.5L188.9,154.5z"/>
	<polygon class="st2" points="188,154.4 188,154.4 188.9,155.5 188.9,155.5 	"/>
	<path class="st2" d="M188.2,154.4L188.2,154.4z"/>
	<path class="st1" d="M176.8,141.9c-1.2,0-2.1,0.9-2.1,2.1v12.6l0.2-0.2l0.1-0.1c0.1,0,0.1-0.1,0.2-0.1h0.1c0.1,0,0.1-0.1,0.2-0.1
		h0.1c0.1,0,0.2,0,0.3,0h6.5l0,0l-2.2-1.7l4-1.4l0.5-0.4l-1.3-2.5h0.2c1,0.1,2.1,0,3.1-0.2c0.2-0.1,0.4-0.1,0.6-0.2l0.3-0.1l0.3-0.1
		l0.3-0.1l0.3-0.1l0.2-0.1l0.2-0.1v-5.8c0-0.1,0-0.2,0-0.3v-0.1c0-0.1,0-0.1,0.1-0.2v-0.1l0.1-0.2v-0.1c0.1-0.1,0.2-0.1,0.2-0.2
		L176.8,141.9L176.8,141.9z"/>
	<path class="st2" d="M174.7,156.7V144c0-1.2,0.9-2.1,2.1-2.1h12.7c0.2-0.2,0.5-0.2,0.8-0.2h-13.4c-1.3,0-2.3,1.1-2.3,2.4v14l0,0
		v-0.6C174.5,157.2,174.6,156.9,174.7,156.7z"/>
	<path class="st2" d="M187.8,149.4l0.3-0.1L187.8,149.4z"/>
	<path class="st2" d="M189.1,142.4v0.1V142.4z"/>
	<path class="st2" d="M189.2,142.2L189.2,142.2L189.2,142.2z"/>
	<path class="st2" d="M188.9,142.7v0.1V142.7z"/>
	<path class="st2" d="M187.2,149.6l0.3-0.1L187.2,149.6z"/>
	<polygon class="st2" points="184.6,152.5 184.6,152.5 183.3,150 	"/>
	<path class="st2" d="M175.3,156.2L175.3,156.2L175.3,156.2z"/>
	<path class="st2" d="M174.9,156.5L174.9,156.5L174.9,156.5z"/>
	<path class="st2" d="M182.3,156.1V156V156.1z"/>
	<path class="st2" d="M188.4,149.1l0.2-0.1L188.4,149.1z"/>
	<path class="st2" d="M175.6,156.1h-0.1H175.6z"/>
	<path class="st1" d="M174.7,157.5v0.8c0,0.6,0.5,1.1,1.1,1.1l0,0h8.1l-1.5-3.1h-6.6C175.3,156.3,174.7,156.8,174.7,157.5
		L174.7,157.5z"/>
	<path class="st2" d="M182.3,156.1h-6.5c-0.1,0-0.2,0-0.3,0h-0.1c-0.1,0-0.1,0-0.2,0.1h-0.1c-0.1,0-0.1,0.1-0.2,0.1l-0.1,0.1
		l-0.2,0.2c-0.2,0.2-0.3,0.5-0.3,0.8v1c0,0.8,0.6,1.4,1.4,1.4h8.2L182.3,156.1z M184,159.5h-8.1c-0.6,0-1.1-0.5-1.1-1.1l0,0v-0.9
		c0-0.6,0.5-1.1,1.1-1.1l0,0h6.6L184,159.5z"/>
	<path class="st1" d="M189.2,148.6l0.4-0.3l0.2-0.1v3.8l1.2,2.8h-0.2c0,0-0.7-0.1-1.5-0.2h-0.2v1.3l0.9,1.1l-3,1.2l-1.2,1.3h4.2
		c1,0,1.9-0.7,2.2-1.6c0.1-0.2,0.1-0.4,0.1-0.6v-14.1c0-0.7-0.5-1.2-1.2-1.2h-0.9c-0.6,0-1.1,0.5-1.1,1.2L189.2,148.6L189.2,148.6
		L189.2,148.6z"/>
	<path class="st2" d="M191.1,141.7h-0.9c-0.3,0-0.5,0.1-0.8,0.2c-0.1,0.1-0.2,0.1-0.2,0.2v0.1l-0.1,0.2v0.1c0,0.1-0.1,0.1-0.1,0.2
		v0.1c0,0.1,0,0.2,0,0.3v5.7h0.1l0.2-0.1v-5.5c0-0.6,0.5-1.2,1.1-1.2h0.9c0.7,0,1.2,0.5,1.2,1.2v14.1c0,0.2,0,0.4-0.1,0.6
		c-0.3,1-1.2,1.6-2.2,1.6h-4.3l-0.2,0.3h4.4c1.1,0,2.1-0.7,2.4-1.8c0.1-0.2,0.1-0.5,0.1-0.7v-14.1
		C192.6,142.3,191.9,141.7,191.1,141.7z"/>
	<path class="st2" d="M189.2,148.6L189.2,148.6z"/>
	<path class="st2" d="M189.3,154.5L189.3,154.5z"/>
	<path class="st2" d="M189.1,154.5h-0.3v1l0,0l1.1,1.4l-0.9-1.1L189.1,154.5L189.1,154.5z"/>
	<path class="st1" d="M185,155.4l-0.3-2.7l-0.5,0.4l-3.6,1.3l1.9,1.4l2.2,4.6l2.1-2.5l2.8-1.1l-1.9-2.3h-0.1
		C186.7,154.7,185.9,155,185,155.4L185,155.4z"/>
	<path class="st2" d="M185.8,159.5l1.2-1.4l3-1.2l-1.1-1.4l-0.8-1h-0.3l1.9,2.3l-2.7,1.1l-2.1,2.5l-2.2-4.6l-1.9-1.4l3.6-1.3
		l0.5-0.4l0,0l-0.1-0.2l0,0l-0.5,0.4l-4,1.4l2.2,1.7l0,0l1.8,3.7l0.5,1.1l0.9-1.1L185.8,159.5z"/>
	<path class="st1" d="M186.7,150.1c-1,0.2-2,0.3-3,0.2l1.2,2.4l0.3,2.4c0.8-0.3,1.6-0.6,2.4-0.9h0.1c0.2,0,0.3,0,0.5,0h0.8
		c0.6,0,1.3,0.1,1.6,0.2l-1-2.4v-3.4c-0.1,0.1-0.3,0.2-0.5,0.3C188.3,149.4,187.6,149.8,186.7,150.1z"/>
	<path class="st2" d="M188.4,149.1l-0.3,0.1l-0.3,0.1l-0.3,0.1l-0.3,0.1c-0.2,0.1-0.4,0.1-0.6,0.2c-1,0.2-2.1,0.2-3.1,0.2h-0.2
		l1.3,2.5l0.1,0.2l0,0l0.3,2.7l0.2-0.1c0.8-0.4,1.6-0.7,2.5-0.9h0.7h0.5h0.5c0.8,0.1,1.5,0.2,1.5,0.2h0.2l-1.2-2.8v-3.8l-0.2,0.1
		l-0.4,0.3l0,0h-0.1l-0.2,0.1h-0.1l-0.2,0.1L188.4,149.1z M189.6,148.6v3.4l1,2.4c-0.3,0-1-0.1-1.6-0.2h-0.8c-0.2,0-0.3,0-0.5,0
		h-0.1c-0.8,0.2-1.6,0.5-2.4,0.9l-0.3-2.4l-1.2-2.4c1,0.1,2,0,3-0.2c0.8-0.3,1.6-0.6,2.4-1.1C189.3,148.9,189.5,148.7,189.6,148.6z"
		/>
	<path class="st1" d="M88.1,93v11.3h12.3V93H88.1z M94.1,97.9c-0.9,0-1.6-0.7-1.6-1.6s0.7-1.6,1.6-1.6s1.6,0.7,1.6,1.6l0,0
		C95.7,97.2,95,97.9,94.1,97.9L94.1,97.9z"/>
	<polygon class="st2" points="88.1,104.4 88.1,93 100.5,93 100.5,104.4 100.7,104.4 100.7,92.8 87.9,92.8 87.9,104.4 	"/>
	<rect x="88.1" y="104.6" class="st1" width="12.3" height="0.5"/>
	<path class="st2" d="M100.7,104.4H87.8v1h12.9C100.7,105.4,100.7,104.4,100.7,104.4z M100.5,105.1H88.1v-0.5h12.3L100.5,105.1
		L100.5,105.1z"/>
	<path class="st1" d="M94.1,95c-0.7,0-1.3,0.6-1.3,1.4s0.6,1.3,1.4,1.3c0.7,0,1.3-0.6,1.3-1.3C95.5,95.6,94.9,95,94.1,95L94.1,95z"
		/>
	<path class="st2" d="M94.1,94.7c-0.9,0-1.6,0.7-1.6,1.6s0.7,1.6,1.6,1.6s1.6-0.7,1.6-1.6S95,94.7,94.1,94.7L94.1,94.7z M94.1,97.7
		c-0.7-0.1-1.3-0.7-1.2-1.5c0.1-0.7,0.6-1.2,1.2-1.2c0.7-0.1,1.4,0.5,1.5,1.2s-0.5,1.4-1.2,1.5C94.3,97.7,94.2,97.7,94.1,97.7z"/>
	<path class="st1" d="M13.7,106.2l4.2-0.2v0.4l-4.2,0.2v1.5l4.5-0.7v0.4l-4.5,0.7v1.7l3.4-0.1v0.4l-3.4,0.1v1.6c2.6-0.5,4.9-0.9,5-1
		l0.1,0.3c-0.1,0.1-2.6,0.5-5.1,1v1.7l4.5-0.5v0.4l-4.5,0.5v1.5l3.8-0.1v0.4l-3.8,0.2v1.5l4.1-0.6v0.4c-0.1,0-1.9,0.3-4.1,0.6v1.8
		l3-0.1v0.4l-3,0.1v1.5c2.4-0.5,4.5-0.9,4.7-0.9l0.1,0.3c-0.1,0.1-2.3,0.5-4.8,0.9v1.7l4.1-0.4v0.4l-4.1,0.4v1.6l4.4-0.2v0.4
		l-4.4,0.2v1.6l4.8-1.1l0.1,0.4l-4.8,1.1v1.5l4.7-0.7v0.4l-4.7,0.7v1.7l3.6-0.1v0.4l-3.6,0.1v1.6c2.6-0.5,5.1-1,5.2-1l0.1,0.3
		c-0.1,0.1-2.7,0.6-5.3,1.1v1.6l4.7-0.5v0.4l-4.7,0.5v1.6l4.5,1v0.3l-4.4-1v1.4l4.4-0.2v0.4l-4.5,0.2v1.6l4.8-1.2v0.3
		c0,0-2.4,0.6-4.9,1.2v1.5l4.8-0.7v0.4c-0.1,0-2.3,0.3-4.8,0.7v1.7l3.7-0.1v0.4l-3.7,0.1v1.6c2.7-0.5,5.2-1,5.3-1l0.1,0.3
		c-0.1,0.1-2.8,0.6-5.4,1.1v1.6l4.7-0.5v0.4l-4.8,0.5v1.6l4.6,1v0.3l-4.5-1v1.5h4.9v0.3h-4.9v1.5l5-0.4v0.4l-5,0.4v1.6l5.8,0.1v0.4
		l-5.8-0.1v1.7l4.8,1.3v0.4l-4.8-1.3v2.2h6v-56L13.7,106.2L13.7,106.2z"/>
	<path class="st1" d="M8.2,157.8v-0.3l5.1,1.3v-1.6l-4.8-0.1v-0.4l4.8,0.1v-1.6l-6.1,0.5v-0.4l6.1-0.5v-1.6H8.1V153h5.2v-1.6
		l-4.9-1.1l0.1-0.3l4.9,1.1v-1.5L10,150v-0.4l3.4-0.4v-1.6l-5.1,1v-0.4l5.2-1v-1.7l-5.1,0.1v-0.4l5.2-0.1v-1.6L8,144.4V144l5.6-0.9
		v-1.5c-2.1,0.5-4,1-4.5,1.1v-0.4c0.5-0.1,2.5-0.6,4.6-1.1v-1.7c-2.3,0.1-4.6,0.2-4.8,0.3v-0.3c0.3-0.1,2.6-0.2,4.9-0.3v-1.5l-5-1.1
		v-0.4l5,1.1v-1.5l-3.5,0.4v-0.4l3.5-0.4v-1.6l-5.2,1v-0.4l5.2-1v-1.7L8.4,132v-0.4l5.2-0.1v-1.6L8,130.8v-0.3l5.7-0.9v-1.5
		c-2.1,0.5-4.1,1-4.6,1.1v-0.3c0.5-0.1,2.6-0.7,4.7-1.2V126c-2.3,0.1-4.6,0.2-4.9,0.3V126c0.3-0.1,2.6-0.2,4.9-0.3v-1.5l-4,0.4v-0.4
		l4.1-0.4v-1.7l-5.8,1.1v-0.4l5.8-1.1v-1.6l-5.8,0.1V120l5.8-0.1v-1.7l-6.2,1v-0.4l6.3-1v-1.5c-2.5,0.1-5.2,0.2-5.5,0.3v-0.3
		c0.3-0.1,3-0.2,5.5-0.3v-1.5l-3.7,0.4v-0.4l3.7-0.4v-1.6l-5.4,1v-0.4l5.4-1v-1.6l-5.4,0.1v-0.3l5.4-0.1v-1.7l-5.9,0.9v-0.3l5.9-0.9
		v-1.6c-2.3,0.1-4.8,0.2-5.1,0.3v-0.4c0.3-0.1,2.8-0.2,5.1-0.3v-0.8H6.8v56h6.5v-2.3L8.2,157.8z"/>
	<path class="st2" d="M19.9,105.1H6.6v56.7h13.3V105.1z M19.7,161.5h-6v0.2h-0.3v-0.2H6.8v-56h6.5v-0.1h0.3v0.2h6L19.7,161.5z"/>
	<path d="M13.4,139.3h0.3v-1.5l-0.3-0.1V139.3z"/>
	<polygon points="13.4,158.8 13.7,158.9 13.7,157.2 13.4,157.2 	"/>
	<path d="M13.4,133.6l0.3-0.1v-1.6h-0.3V133.6z"/>
	<path d="M13.4,125.7h0.3v-1.6h-0.3V125.7z"/>
	<path d="M13.4,127.7l0.3-0.1V126h-0.3V127.7z"/>
	<path d="M13.4,149.2h0.3v-1.6h-0.3V149.2z"/>
	<path d="M13.4,117.8h0.3v-1.5h-0.3V117.8z"/>
	<path d="M13.4,145.2h0.3v-1.7h-0.3V145.2z"/>
	<polygon points="13.4,153 13.7,153 13.7,151.5 13.4,151.4 	"/>
	<path d="M13.4,112.2l0.3-0.1v-1.6h-0.3V112.2z"/>
	<path d="M13.4,141.4l0.3-0.1v-1.6h-0.3V141.4z"/>
	<path d="M13.4,147.2h0.3v-1.6h-0.3V147.2z"/>
	<path d="M13.4,108.2h0.3v-1.5h-0.3V108.2z"/>
	<path d="M13.4,129.6h0.3V128l-0.3,0.1V129.6z"/>
	<path d="M13.4,135.6h0.3V134h-0.3V135.6z"/>
	<path d="M13.4,119.9h0.3v-1.8h-0.3V119.9z"/>
	<path d="M13.4,110.2h0.3v-1.7h-0.3V110.2z"/>
	<path d="M13.4,151l0.3,0.1v-1.6h-0.3V151z"/>
	<path d="M13.4,154.9h0.3v-1.6h-0.3V154.9z"/>
	<path d="M13.4,137.4l0.3,0.1v-1.6h-0.3V137.4z"/>
	<path d="M13.4,143.2l0.3-0.1v-1.5l-0.3,0.1V143.2z"/>
	<path d="M13.4,123.8h0.3v-1.7h-0.3V123.8z"/>
	<path d="M13.4,156.9h0.3v-1.6h-0.3V156.9z"/>
	<path d="M13.4,121.8l0.3-0.1v-1.5h-0.3V121.8z"/>
	<polygon points="13.4,159.2 13.4,161.5 13.4,161.6 13.7,161.6 13.7,161.5 13.7,159.3 	"/>
	<path d="M13.4,131.6h0.3v-1.7h-0.3V131.6z"/>
	<path d="M13.7,106.2v-0.9h-0.3v0.9H13.7z"/>
	<path d="M13.4,116h0.3v-1.5h-0.3V116z"/>
	<path d="M13.4,114.1h0.3v-1.7l-0.3,0.1V114.1z"/>
	<polygon points="8.3,157.5 8.2,157.8 13.4,159.2 13.7,159.3 18.5,160.5 18.5,160.2 13.7,158.9 13.4,158.8 	"/>
	<polygon points="8.6,156.8 8.6,157.1 13.4,157.2 13.7,157.2 19.4,157.3 19.4,157 13.7,156.9 13.4,156.9 	"/>
	<path d="M7.3,155.4v0.4l6.1-0.5h0.3l5-0.4v-0.4l-5,0.4h-0.3L7.3,155.4z"/>
	<polygon points="8.5,149.9 8.5,150.3 13.4,151.4 13.7,151.5 18.2,152.5 18.2,152.2 13.7,151.1 13.4,151.1 	"/>
	<path d="M10,149.6v0.4l3.4-0.4h0.3l4.8-0.5v-0.4l-4.7,0.5h-0.3L10,149.6z"/>
	<polygon points="8.1,153 8.1,153.4 13.4,153.3 13.7,153.3 18.5,153.3 18.5,152.9 13.7,153 13.4,153 	"/>
	<path d="M8.2,148.2v0.4l5.1-1h0.3c2.6-0.5,5.3-1,5.4-1.1l-0.1-0.3c-0.2,0.1-2.7,0.5-5.3,1h-0.3L8.2,148.2z"/>
	<path d="M8.2,145.3v0.4l5.1-0.1h0.3l3.7-0.1v-0.4l-3.7,0.1h-0.3L8.2,145.3z"/>
	<path d="M7.8,144.1v0.4l5.6-0.9h0.3c2.5-0.4,4.7-0.7,4.8-0.7v-0.4l-4.8,0.7l-0.3,0.1L7.8,144.1z"/>
	<path d="M8.5,139.6v0.3c0.3,0,2.6-0.2,4.8-0.3h0.3l4.5-0.2V139l-4.4,0.2h-0.3C11.1,139.4,8.8,139.6,8.5,139.6z"/>
	<path d="M8.8,142.5v0.4c0.5-0.1,2.5-0.6,4.5-1.1l0.3-0.1c2.4-0.6,4.8-1.2,4.9-1.2v-0.3l-4.8,1.2l-0.3,0.1
		C11.3,141.9,9.3,142.4,8.8,142.5z"/>
	<polygon points="8.4,136.3 8.4,136.7 13.4,137.8 13.7,137.9 18.1,138.9 18.1,138.5 13.7,137.5 13.4,137.4 	"/>
	<path d="M9.9,135.9v0.4l3.5-0.4h0.3l4.7-0.5V135l-4.7,0.5h-0.3L9.9,135.9z"/>
	<path d="M8.2,134.6v0.4l5.2-1h0.3c2.6-0.5,5.2-1,5.3-1.1l-0.1-0.3c-0.2,0.1-2.6,0.5-5.2,1l-0.3,0.1L8.2,134.6z"/>
	<path d="M8.2,131.7v0.4l5.2-0.1h0.3l3.6-0.1v-0.4l-3.6,0.1h-0.3L8.2,131.7z"/>
	<path d="M7.7,130.5v0.3l5.7-0.9h0.3l4.7-0.7v-0.4l-4.7,0.7h-0.3L7.7,130.5z"/>
	<path d="M8.5,126v0.4c0.3-0.1,2.6-0.2,4.9-0.3h0.3l4.4-0.2v-0.4l-4.4,0.2h-0.3C11.1,125.8,8.8,125.9,8.5,126z"/>
	<path d="M8.7,128.9v0.3c0.5-0.1,2.5-0.6,4.6-1.1l0.3-0.1l4.8-1.1l-0.1-0.4l-4.8,1.1l-0.3,0.1C11.3,128.2,9.2,128.7,8.7,128.9z"/>
	<path d="M9.7,114.6v0.4l3.7-0.4h0.3l4.5-0.5v-0.4l-4.5,0.5h-0.3L9.7,114.6z"/>
	<path d="M8,113.2v0.4l5.4-1l0.3-0.1c2.6-0.5,5-0.9,5.1-1l-0.1-0.3c-0.2,0.1-2.5,0.5-5,1l-0.3,0.1L8,113.2z"/>
	<path d="M8,110.3v0.4l5.4-0.1h0.3l3.4-0.1v-0.4l-3.4,0.1h-0.3L8,110.3z"/>
	<path d="M7.5,109.1v0.3l5.9-0.9h0.3l4.5-0.7v-0.4l-4.5,0.7h-0.3L7.5,109.1z"/>
	<path d="M8.3,106.5v0.4c0.3-0.1,2.7-0.2,5.1-0.3h0.3l4.2-0.2V106l-4.2,0.2h-0.3C11,106.3,8.6,106.5,8.3,106.5z"/>
	<path d="M9.3,124.3v0.4l4-0.4h0.3l4.1-0.4v-0.4l-4.1,0.4h-0.3L9.3,124.3z"/>
	<path d="M7.6,122.9v0.4l5.8-1.1h0.3c2.4-0.4,4.6-0.9,4.8-0.9l-0.1-0.3c-0.1,0.1-2.2,0.5-4.7,0.9l-0.3,0.1L7.6,122.9z"/>
	<path d="M7.6,120v0.4l5.8-0.1h0.3l3-0.1v-0.4l-3,0.1h-0.3L7.6,120z"/>
	<path d="M7.1,118.8v0.4l6.2-1h0.3c2.2-0.4,4-0.6,4.1-0.6v-0.4l-4.1,0.6h-0.3L7.1,118.8z"/>
	<path d="M7.9,116.3v0.3c0.3-0.1,3-0.2,5.5-0.3h0.3l3.8-0.2v-0.4l-3.8,0.1h-0.3C10.9,116.1,8.2,116.2,7.9,116.3z"/>
	<path class="st1" d="M182.2,63.8c0.4,0.7,1.7,0.9,3,0.9c0.6-0.2,1.3-0.3,2-0.3l0,0c-0.3-0.2-0.8-0.4-1.3-0.7
		C184.7,63.5,183.4,63.5,182.2,63.8z"/>
	<path class="st1" d="M188.6,64.3L188.6,64.3L188.6,64.3z"/>
	<path class="st1" d="M185.2,58.2c-0.4,1.3,1,3.5,1.9,4.7c0.3,0.3,0.6,0.7,0.9,1c0-0.7,0.1-1.3,0.2-2
		C187.6,60.5,186.6,59.1,185.2,58.2z"/>
	<path class="st1" d="M195.2,69.3c-0.7-2.2-3-3.2-4.8-3.8c-0.5-0.1-1.1-0.3-1.6-0.5c0.7,0.6,1.2,1.4,1.6,2.2
		C191.7,68.6,193.4,69.3,195.2,69.3z"/>
	<path class="st1" d="M186.9,65.4l0.5-0.4h-0.1c-0.3,0.1-0.6,0.2-0.9,0.2c-0.8,0.3-1.6,0.7-2.2,1.2C185.2,66.3,186.1,66,186.9,65.4z
		"/>
	<path class="st1" d="M183.7,70.7c1.2-0.4,2.3-2,3.1-3.4c0.1-0.7,0.4-1.4,0.7-2.1c-0.1,0.1-0.3,0.2-0.5,0.4
		C185.9,66.5,183.8,68.6,183.7,70.7z"/>
	<path class="st1" d="M191.4,60.2c-1,0.6-1.8,1.5-2.3,2.6c-0.1,0.5-0.2,0.9-0.4,1.4C189.8,63.1,190.8,61.7,191.4,60.2z"/>
	<path class="st1" d="M188.9,66.7c-0.3-0.5-0.5-1-0.7-1.4c0,0.8-0.1,1.5-0.2,2.3c0.1,0.9,0.5,1.7,1.1,2.4
		C189.3,68.9,189.2,67.7,188.9,66.7z"/>
	<path class="st1" d="M191.2,64.5c1.4-0.1,2.8-0.7,4-1.5c-2.2-0.6-4.5-0.1-6.2,1.3C189.7,64.3,190.4,64.4,191.2,64.5z"/>
	<path class="st2" d="M195.5,62.9c0,0,0-0.1-0.1-0.1c-2-0.6-4.1-0.4-5.9,0.7c1-1,1.7-2.3,2.1-3.6v-0.1h-0.1c-1,0.5-1.8,1.3-2.4,2.2
		c0,0.3-0.1,0.5-0.1,0.8c0.5-1.1,1.3-2,2.3-2.6c-0.6,1.5-1.5,2.9-2.7,4v0.1h0.3c1.8-1.4,4.1-1.8,6.2-1.3c-1.2,0.8-2.6,1.4-4,1.5
		l0.6,0.1c1.3-0.2,2.6-0.8,3.7-1.6C195.5,63,195.5,63,195.5,62.9z"/>
	<path class="st2" d="M190.5,65.5c1.8,0.6,4,1.6,4.8,3.8c-1.8,0-3.5-0.7-4.7-2c0.1,0.2,0.2,0.4,0.2,0.6c1.2,1.2,2.9,1.9,4.7,1.7
		c0,0,0.1,0,0.1-0.1v-0.1c-0.7-1.7-2.1-3.1-3.8-3.7C191.3,65.7,190.9,65.7,190.5,65.5z"/>
	<path class="st2" d="M187.1,63c-0.9-1.2-2.3-3.5-1.9-4.7c1.4,0.9,2.4,2.2,3,3.8c0-0.1,0.1-0.3,0.1-0.4c-0.6-1.5-1.7-2.8-3.1-3.6
		h-0.1c0,0-0.1,0-0.1,0.1c-0.5,1.1,0.4,2.8,1.2,4.1C186.6,62.4,186.8,62.7,187.1,63z"/>
	<path class="st2" d="M185.3,64.7c-1.3,0-2.7-0.2-3-0.9c1.3-0.4,2.6-0.4,3.8-0.1c-0.2-0.1-0.4-0.2-0.5-0.3c-1.2-0.2-2.4-0.1-3.5,0.3
		c-0.1,0-0.1,0.1,0,0.1c0.3,0.8,1.6,1.1,2.9,1.1C185,64.9,185.1,64.8,185.3,64.7z"/>
	<path class="st2" d="M188.9,66.7c0.3,1.1,0.4,2.2,0.3,3.3c-0.6-0.7-1-1.5-1.1-2.4c0,0.2-0.1,0.4-0.1,0.7c0.2,0.8,0.6,1.5,1.2,2.1
		c0.1,0,0.1,0,0.2,0c0,0,0,0,0-0.1c0.2-0.9,0.2-1.9,0-2.9C189.2,67.2,189,66.9,188.9,66.7z"/>
	<path class="st2" d="M186.8,67.3c-0.8,1.3-1.9,2.9-3.1,3.4c0.1-2.1,2.2-4.1,3.3-5.1c0.2-0.1,0.4-0.3,0.5-0.4s0.1-0.2,0.2-0.3
		l-0.3,0.1l-0.5,0.4c-0.8,0.6-1.7,1-2.7,1.1c0.7-0.5,1.4-0.9,2.2-1.2c-0.3,0.1-0.6,0.1-0.9,0.1c-0.6,0.3-1.2,0.6-1.7,1.1v0.1
		l0.1,0.1c0.7,0,1.4-0.1,2.1-0.5c-1.1,1.1-2.5,2.8-2.5,4.6v0.1h0.1l0,0c1.2-0.4,2.3-1.7,3.1-3.1C186.8,67.7,186.8,67.5,186.8,67.3z"
		/>
	<path class="st1" d="M188,64.4L188,64.4c0,0-2.2-3.1-4.4-3.4C184.2,62.7,187.5,64.2,188,64.4z"/>
	<path class="st1" d="M188,64.9c-0.9,1.4-1.2,3.2-0.8,4.9C187.8,68.8,188,65.8,188,64.9z"/>
	<path class="st1" d="M192.9,65.3c-1.4-0.6-3-0.9-4.5-0.8c0,0-0.1,0-0.1-0.1v-0.1c0.6-1.1,0.8-2.4,0.6-3.7c-0.5,1.1-0.7,2.4-0.7,3.6
		c0,0.1,0,0.1-0.1,0.1l0,0c0,0,0.1,0.1,0,0.1h0.1h0.1l0,0h0.1C190.9,65.6,192.3,65.6,192.9,65.3z"/>
	<path class="st1" d="M187.2,64.8l0.4-0.1c-0.9-0.1-1.8,0.1-2.6,0.5C185.8,65.2,186.5,65.1,187.2,64.8z"/>
	<path class="st1" d="M188.3,64.9c0.5,1.1,1.5,3.3,2.3,3.5C190.6,67.5,189.3,65.7,188.3,64.9z"/>
	<path class="st2" d="M191.2,64.5c-0.7-0.1-1.5-0.2-2.2-0.2h-0.3v-0.1c0.2-0.4,0.3-0.9,0.4-1.4c0.1-0.3,0.1-0.5,0.1-0.8
		c0.1-0.5,0-1.1-0.1-1.6c0,0,0-0.1-0.1-0.1h-0.1c-0.3,0.1-0.5,0.6-0.6,1.2c0,0.1-0.1,0.3-0.1,0.4c-0.1,0.7-0.2,1.3-0.2,2
		c-0.3-0.3-0.5-0.7-0.9-1c-0.3-0.3-0.5-0.6-0.9-0.8c-0.8-0.8-1.8-1.3-2.8-1.4h-0.1v0.1c0.4,1.1,1.2,2,2.3,2.5
		c0.2,0.1,0.3,0.2,0.5,0.3c0.5,0.3,0.9,0.5,1.3,0.7l0,0c-0.7,0-1.4,0.1-2,0.3c-0.1,0.1-0.3,0.1-0.4,0.2c-0.1,0-0.1,0.1-0.2,0.2v0.1
		c0,0,0,0.1,0.1,0.1c0.2,0.1,0.5,0.1,0.8,0.1s0.6-0.1,0.9-0.1c0.3-0.1,0.6-0.2,0.9-0.2h0.1l0.3-0.1c-0.1,0.1-0.1,0.2-0.2,0.3
		c-0.4,0.6-0.7,1.4-0.8,2.1c0,0.2,0,0.4,0,0.6c0,0.7,0,1.5,0.2,2.2c0,0,0,0.1,0.1,0.1l0,0h0.1c0.4-0.6,0.7-1.2,0.8-1.9
		c0-0.2,0.1-0.4,0.1-0.7c0.1-0.8,0.2-1.5,0.2-2.3c0.2,0.4,0.4,0.9,0.7,1.4c0.1,0.2,0.3,0.5,0.4,0.7c0.4,0.7,0.9,1.2,1.4,1.3l0,0
		c0.1,0,0.1,0,0.1-0.1c0-0.3,0-0.5-0.1-0.7s-0.1-0.4-0.2-0.6c-0.4-0.8-0.9-1.6-1.6-2.2c0.5,0.2,1,0.4,1.6,0.5
		c0.4,0.1,0.8,0.2,1.2,0.2c0.5,0.1,1.1,0,1.6-0.3l0.1-0.1v-0.1c-0.5-0.3-1-0.5-1.5-0.6L191.2,64.5z M188.3,64.9
		c1,0.8,2.2,2.6,2.3,3.5C189.8,68.1,188.8,66,188.3,64.9L188.3,64.9z M188,64.9c0,0.9-0.1,3.9-0.8,4.9C186.7,68.1,187,66.4,188,64.9
		L188,64.9z M185,65.1c0.8-0.4,1.7-0.6,2.6-0.5l-0.4,0.1C186.5,65.1,185.8,65.2,185,65.1L185,65.1z M187.9,64.4L187.9,64.4
		c-0.4-0.2-3.8-1.7-4.4-3.4C185.7,61.3,187.9,64.3,187.9,64.4z M188.4,64.6h-0.1l0,0h-0.1h-0.1v-0.1l0,0c0.1,0,0.1-0.1,0.1-0.1
		c0-1.2,0.2-2.5,0.7-3.6c0.2,1.3-0.1,2.5-0.6,3.7C188.3,64.5,188.3,64.5,188.4,64.6C188.3,64.6,188.4,64.6,188.4,64.6
		c1.6-0.1,3.1,0.2,4.6,0.8C192.3,65.6,190.9,65.6,188.4,64.6z"/>
	<polygon class="st2" points="97.2,3.9 97.2,0.3 81.2,0.3 81.2,3.9 81.2,5.6 81.2,10.8 97.2,10.8 97.2,5.6 	"/>
	<polygon class="st2" points="124.2,3.9 124.2,0.3 108.2,0.3 108.2,3.9 108.2,5.6 108.2,10.8 124.2,10.8 124.2,5.6 	"/>
	<polygon class="st2" points="135.2,5.6 135.2,10.8 163.3,10.8 163.3,5.6 163.3,3.9 163.3,0.3 135.2,0.3 135.2,3.9 	"/>
	<polygon class="st2" points="185.1,3.9 185.1,5.6 185.1,10.8 197.3,10.8 197.4,10.8 197.4,10.9 197.4,36 202.5,36 204.1,36 
		207.9,36 207.9,0.3 185.1,0.3 	"/>
	<polygon class="st2" points="202.5,57.9 197.4,57.9 197.4,83.2 197.4,83.3 197.3,83.3 146,83.3 146,85.2 146,91.7 197.3,91.7 
		197.4,91.7 197.4,91.8 197.4,117.8 202.5,117.8 204.1,117.8 207.9,117.8 207.9,57.9 204.1,57.9 	"/>
	<polygon class="st2" points="197.1,83.1 197.1,83.1 197.1,57.7 197.1,57.7 197.1,57.7 	"/>
	<polygon class="st2" points="197.1,117.9 197.1,117.9 197.1,117.9 197.1,92 197.1,92 	"/>
	<polygon class="st2" points="70.2,3.9 70.2,0.3 42.1,0.3 42.1,3.9 42.1,5.6 42.1,10.8 56,10.8 57.6,10.8 70.2,10.8 70.2,5.6 	"/>
	<polygon class="st2" points="56,60.1 39.9,60.1 39.9,61.7 56,61.7 56,64.4 57.6,64.4 57.6,11 56,11 	"/>
	<rect x="56" y="81.5" class="st2" width="1.6" height="1.6"/>
	<polygon class="st2" points="34.4,91.7 35.6,91.7 36.5,91.7 36.5,85.2 34.4,85.2 	"/>
	<polygon class="st2" points="202.5,139.7 197.4,139.7 197.4,163.9 197.4,164 197.3,164 179.6,164 158,164 144.5,164 122.9,164 
		107.1,164 107.1,163.9 107.1,91.8 107.1,91.7 126.9,91.7 126.9,85.2 126.9,83.3 57.6,83.3 56,83.3 36.7,83.3 36.7,91.7 101.9,91.7 
		101.9,91.8 101.9,163.9 101.9,164 75.7,164 54.1,164 6.9,164 5.4,164 5.4,163.9 5.4,91.8 5.4,91.7 17.6,91.7 18.6,91.7 18.6,88.7 
		18.6,86.1 18.6,85.2 17.6,85.2 17.6,84.9 18.6,84.9 18.6,83.3 17.6,83.3 5.5,83.3 1.9,83.3 1.8,83.3 0.3,83.3 0.3,86.5 0.3,86.6 
		0.1,86.6 0,86.6 0,91.7 0.3,91.7 0.3,91.8 0.3,114.6 0.3,116.1 0.3,163.9 0.3,164 0,164 0,175.4 6.9,175.4 54.1,175.4 75.7,175.4 
		122.9,175.4 144.5,175.4 158,175.4 179.4,175.4 179.6,175.3 179.6,175.4 179.6,175.4 207.9,175.4 207.9,139.7 204.1,139.7 	"/>
	<rect x="34.5" y="83.3" class="st2" width="2" height="1.6"/>
	<rect x="5.6" y="60.3" class="st2" width="19.5" height="1.4"/>
	<polygon class="st2" points="0.3,5.4 0.3,5.5 0.3,67 1.8,67 1.9,67 5.4,67 5.4,61.7 5.4,60.1 5.4,10.9 5.4,10.8 5.5,10.8 
		20.2,10.8 20.2,5.6 20.2,3.9 20.2,0.3 5.6,0.3 5.5,0.3 0,0.3 0,5.4 0.1,5.4 	"/>
	<rect y="175.4" class="st2" width="6.9" height="0.3"/>
	<rect x="54.1" y="175.4" class="st2" width="21.6" height="0.3"/>
	<rect x="122.9" y="175.4" class="st2" width="21.6" height="0.3"/>
	<polygon class="st2" points="179.4,175.6 179.3,175.4 179.4,175.4 158,175.4 158,175.7 179.6,175.7 179.6,175.6 	"/>
	<path class="st2" d="M179.6,175.4L179.6,175.4L179.6,175.4z"/>
	<rect x="6.9" y="175.4" class="st2" width="47.2" height="0.3"/>
	<rect x="144.5" y="175.4" class="st2" width="13.5" height="0.3"/>
	<polygon class="st2" points="207.9,175.5 207.9,175.4 179.6,175.4 179.6,175.4 179.7,175.5 179.6,175.6 179.6,175.7 208,175.7 
		208,175.5 	"/>
	<polygon class="st2" points="5.6,0.3 20.2,0.3 20.2,0.1 20.4,0.1 20.4,0 15.5,0 5.6,0 	"/>
	<polygon class="st2" points="42.1,3.9 42.1,0.3 42,0.3 41.8,0.3 41.8,3.9 	"/>
	<polygon class="st2" points="41.8,5.6 41.8,10.8 42,10.8 42.1,10.8 42.1,5.6 	"/>
	<polygon class="st2" points="20.4,10.8 20.5,10.8 20.5,5.6 20.2,5.6 20.2,10.8 	"/>
	<polygon class="st2" points="20.5,3.9 20.5,0.3 20.4,0.3 20.4,0.1 20.2,0.1 20.2,0.3 20.2,3.9 	"/>
	<polygon class="st2" points="42.1,0.3 70.2,0.3 70.2,0.1 70.3,0.1 70.3,0 42,0 42,0.3 	"/>
	<polygon class="st2" points="56,10.9 56,11 57.6,11 57.6,10.9 57.6,10.8 56,10.8 	"/>
	<polygon class="st2" points="81.2,3.9 81.2,0.3 81.1,0.3 80.9,0.3 80.9,3.9 	"/>
	<polygon class="st2" points="80.9,5.6 80.9,10.8 81.1,10.8 81.2,10.8 81.2,5.6 	"/>
	<polygon class="st2" points="70.2,5.6 70.2,10.8 70.3,10.8 70.5,10.8 70.5,5.6 	"/>
	<polygon class="st2" points="70.5,3.9 70.5,0.3 70.3,0.3 70.3,0.1 70.2,0.1 70.2,0.3 70.2,3.9 	"/>
	<polygon class="st2" points="81.1,0.3 81.2,0.3 97.2,0.3 97.2,0.1 97.3,0.1 97.3,0 81.1,0 	"/>
	<polygon class="st2" points="108.2,3.9 108.2,0.3 108.1,0.3 107.9,0.3 107.9,3.9 	"/>
	<polygon class="st2" points="107.9,5.6 107.9,10.8 108.1,10.8 108.2,10.8 108.2,5.6 	"/>
	<polygon class="st2" points="97.2,5.6 97.2,10.8 97.3,10.8 97.4,10.8 97.4,5.6 	"/>
	<polygon class="st2" points="97.4,3.9 97.4,0.3 97.3,0.3 97.3,0.1 97.2,0.1 97.2,0.3 97.2,3.9 	"/>
	<polygon class="st2" points="108.1,0.3 108.2,0.3 124.2,0.3 124.2,0.1 124.3,0.1 124.3,0 108.1,0 	"/>
	<polygon class="st2" points="134.9,0.3 134.9,3.9 135.2,3.9 135.2,0.3 135,0.3 	"/>
	<polygon class="st2" points="134.9,5.6 134.9,10.8 135,10.8 135.2,10.8 135.2,5.6 	"/>
	<polygon class="st2" points="124.2,5.6 124.2,10.8 124.3,10.8 124.4,10.8 124.4,5.6 	"/>
	<polygon class="st2" points="124.4,3.9 124.4,0.3 124.3,0.3 124.3,0.1 124.3,0.1 124.2,0.1 124.2,0.3 124.2,3.9 	"/>
	<polygon class="st2" points="135,0.3 135.2,0.3 163.3,0.3 163.3,0.1 163.4,0.1 163.4,0 138,0 135,0 	"/>
	<polygon class="st2" points="163.3,5.6 163.3,10.8 163.4,10.8 163.5,10.8 163.5,5.6 	"/>
	<polygon class="st2" points="163.5,3.9 163.5,0.3 163.4,0.3 163.4,0.1 163.3,0.1 163.3,0.3 163.3,3.9 	"/>
	<polygon class="st2" points="185.1,0.1 185.1,0.3 207.9,0.3 207.9,0.1 208,0.1 208,0 185,0 185,0.1 	"/>
	<polygon class="st2" points="36.5,83.3 36.5,84.9 36.6,84.9 36.6,85.2 36.5,85.2 36.5,91.7 36.6,91.7 36.7,91.7 36.7,83.3 
		36.6,83.3 	"/>
	<rect x="5.4" y="81.8" class="st2" width="0.3" height="0.1"/>
	<polygon class="st2" points="5.4,82.2 5.4,83.1 5.5,83.1 5.6,83.1 5.6,82.2 	"/>
	<rect x="5.4" y="78.1" class="st2" width="0.3" height="1.5"/>
	<rect x="5.4" y="74.3" class="st2" width="0.3" height="1.5"/>
	<rect x="5.4" y="70.7" class="st2" width="0.3" height="1.5"/>
	<path class="st2" d="M5.4,68.5h0.3v-0.2l-0.3-0.1V68.5z"/>
	<path class="st2" d="M5.6,68v-0.8H5.4v0.7L5.6,68z"/>
	<polygon class="st2" points="1.8,82.1 1.8,81.9 0.3,81.9 0.3,82.1 0.3,82.2 1.8,82.2 	"/>
	<polygon class="st2" points="1.8,68.2 1.8,68.1 0.3,68.1 0.3,68.2 0.3,68.4 1.8,68.4 	"/>
	<polygon class="st2" points="1.8,83.1 0.3,83.1 0.3,83.2 0.3,83.3 1.8,83.3 1.8,83.2 	"/>
	<polygon class="st2" points="1.8,67.1 1.8,67 0.3,67 0.3,67.1 0.3,67.2 1.8,67.2 	"/>
	<polygon class="st2" points="179.6,175.3 179.4,175.4 179.3,175.4 179.4,175.6 179.6,175.6 179.7,175.5 179.6,175.4 179.6,175.4 	
		"/>
	<rect x="75.7" y="175.4" class="st2" width="47.2" height="0.3"/>
	<polygon class="st2" points="5.6,61.7 5.6,60.3 5.6,60.1 5.5,60.1 5.4,60.1 5.4,61.7 5.5,61.7 	"/>
	<polygon class="st2" points="184.9,5.6 184.9,10.8 185,10.8 185.1,10.8 185.1,5.6 	"/>
	<polygon class="st2" points="185.1,3.9 185.1,0.3 185.1,0.1 185,0.1 185,0.3 184.9,0.3 184.9,3.9 	"/>
	<polygon class="st2" points="145.9,85.2 145.9,85.3 145.8,85.3 145.8,91.7 145.9,91.7 146,91.7 146,85.2 	"/>
	<polygon class="st2" points="127.2,91.7 127.2,85.3 127.1,85.3 127.1,85.2 126.9,85.2 126.9,91.7 	"/>
	<path class="st2" d="M127.2,85.1L127.2,85.1L127.2,85.1l-0.1,0.2h2c0-0.1,0-0.1,0-0.2h0.3V85h0.1v-1.7h-0.3V85L127.2,85.1z"/>
	<polygon class="st2" points="143.7,85.1 143.7,85.2 143.8,85.2 143.8,85.3 145.8,85.3 145.9,85.3 145.9,85.2 145.8,85.2 
		145.8,85.1 143.8,85.1 143.8,83.3 143.7,83.3 143.5,83.3 143.5,85.1 	"/>
	<polygon class="st2" points="127.1,85.2 127.2,85.2 127.2,85.1 127.2,83.3 127.1,83.3 126.9,83.3 126.9,85.2 	"/>
	<polygon class="st2" points="145.8,85.2 145.9,85.2 146,85.2 146,83.3 145.9,83.3 145.8,83.3 145.8,85.1 	"/>
	<path class="st2" d="M129.3,85.3h2.4V85h-2.4v0.1l0,0C129.3,85.2,129.3,85.3,129.3,85.3z"/>
	<rect x="133.9" y="85.1" class="st2" width="1.4" height="0.3"/>
	<rect x="137.5" y="85.1" class="st2" width="1.5" height="0.3"/>
	<polygon class="st2" points="143.7,85.2 143.7,85.1 143.5,85.1 141.3,85.1 141.3,85.3 143.5,85.3 143.5,85.2 	"/>
	<polygon class="st2" points="143.8,85.3 143.8,85.2 143.7,85.2 143.5,85.2 143.5,85.3 143.5,91.7 143.8,91.7 	"/>
	<path class="st2" d="M143.6,99.4L143.6,99.4l0.2,0.1V92h-0.3L143.6,99.4L143.6,99.4z"/>
	<path class="st2" d="M130.9,91.7c-1-2-1.6-4.1-1.6-6.4c0-0.1,0-0.1,0-0.2H129c0,0.1,0,0.1,0,0.2c0,2.2,0.6,4.4,1.6,6.4H130.9z"/>
	<path class="st2" d="M143.6,99.7v-0.3h-0.1c-5.2,0-10-2.9-12.5-7.5h-0.3C133.3,96.7,138.2,99.7,143.6,99.7z"/>
	<polygon class="st2" points="56,83.2 56,83.3 57.6,83.3 57.6,83.2 57.6,83.1 56,83.1 	"/>
	<polygon class="st2" points="5.6,0.3 5.6,0 5.5,0 5.4,0 0,0 0,0.3 5.5,0.3 	"/>
	<polygon class="st2" points="204.1,57.9 207.9,57.9 207.9,57.7 207.9,57.6 204.1,57.6 	"/>
	<polygon class="st2" points="202.5,57.6 197.4,57.6 197.4,57.7 197.4,57.9 202.5,57.9 	"/>
	<polygon class="st2" points="202.5,139.4 197.4,139.4 197.4,139.6 197.4,139.7 202.5,139.7 	"/>
	<polygon class="st2" points="204.1,139.7 207.9,139.7 207.9,139.6 207.9,139.4 204.1,139.4 	"/>
	<polygon class="st2" points="204.1,118.1 207.9,118.1 207.9,117.9 207.9,117.8 204.1,117.8 	"/>
	<polygon class="st2" points="197.4,118.1 202.5,118.1 202.5,117.8 197.4,117.8 197.4,117.9 	"/>
	<path class="st2" d="M26.2,47.5v-0.2h-0.1v12.5h0.3V47.5H26.2z"/>
	<path class="st2" d="M26.2,47.2v0.3h0.2c6.8,0.1,12.2,5.6,12.2,12.4h0.2C38.8,52.9,33.1,47.2,26.2,47.2z"/>
	<polygon class="st2" points="26.2,60.1 26.1,60.1 26.1,61.7 26.2,61.7 26.4,61.7 26.4,60.1 	"/>
	<polygon class="st2" points="25.1,60.1 25.1,60.3 25.1,61.7 25.4,61.7 25.4,60.1 	"/>
	<polygon class="st2" points="56,79.8 56,80 57.6,80 57.6,79.8 57.6,79.7 56,79.7 	"/>
	<path class="st2" d="M41.5,79.8L41.5,79.8V80h14.2v-0.3L41.5,79.8C41.5,79.7,41.5,79.8,41.5,79.8z"/>
	<path class="st2" d="M41.2,79.8h0.3v-0.1c0-7.8,6.4-14.2,14.2-14.2l0,0v-0.2C47.7,65.3,41.2,71.8,41.2,79.8z"/>
	<polygon class="st2" points="163.4,0.3 163.5,0.3 184.9,0.3 185,0.3 185,0.1 185,0 163.4,0 163.4,0.1 	"/>
	<polygon class="st2" points="124.3,0.1 124.3,0.3 124.4,0.3 134.9,0.3 135,0.3 135,0 124.3,0 	"/>
	<polygon class="st2" points="97.3,0.3 97.4,0.3 107.9,0.3 108.1,0.3 108.1,0 97.3,0 97.3,0.1 	"/>
	<polygon class="st2" points="70.3,0.3 70.5,0.3 80.9,0.3 81.1,0.3 81.1,0 70.3,0 70.3,0.1 	"/>
	<polygon class="st2" points="20.4,0.3 20.5,0.3 41.8,0.3 42,0.3 42,0 21.9,0 20.4,0 20.4,0.1 	"/>
	<path class="st2" d="M5.6,82.2h10.6V82h-0.1v-0.1H2v0.3L5.6,82.2L5.6,82.2z"/>
	<path class="st2" d="M5.6,68.3C11.8,70,16.1,75.6,16.1,82l0,0h0.3c0-6.6-4.4-12.3-10.7-14H5.4c-1.1-0.3-2.2-0.4-3.4-0.4v0.3
		c1.1,0,2.3,0.2,3.4,0.4H5.6z"/>
	<rect x="39.6" y="60.1" class="st2" width="0.3" height="1.6"/>
	<path class="st2" d="M20.7,97.6L20.7,97.6l0.2-0.1V92h-0.3L20.7,97.6L20.7,97.6z"/>
	<polygon class="st2" points="20.7,85.2 20.6,85.2 20.6,91.7 20.9,91.7 20.9,91.7 20.9,85.2 	"/>
	<path class="st2" d="M20.8,97.4h-0.2v0.3c4.3,0,8.3-2.2,10.6-5.8h-0.3C28.7,95.3,24.9,97.4,20.8,97.4z"/>
	<path class="st2" d="M33.2,85.2L33.2,85.2c-0.1,2.3-0.8,4.5-2,6.5h0.3c1.2-1.9,1.9-4.2,1.9-6.5H33.2z"/>
	<polygon class="st2" points="33.2,84.9 31.9,84.9 31.9,85.2 33.1,85.2 33.2,85.2 	"/>
	<rect x="28.2" y="84.9" class="st2" width="1.5" height="0.3"/>
	<rect x="24.5" y="84.9" class="st2" width="1.5" height="0.3"/>
	<polygon class="st2" points="22.2,84.9 20.9,84.9 20.9,85.1 20.9,85.2 22.2,85.2 	"/>
	<rect x="34.2" y="83.3" class="st2" width="0.3" height="1.6"/>
	<polygon class="st2" points="20.7,85.2 20.9,85.2 20.9,85.1 20.9,84.9 20.9,83.3 20.7,83.3 20.6,83.3 20.6,84.9 18.6,84.9 
		17.6,84.9 17.6,85.2 18.6,85.2 20.6,85.2 	"/>
	<polygon class="st2" points="33.2,85.2 33.3,85.2 33.4,85.2 34.4,85.2 36.5,85.2 36.6,85.2 36.6,84.9 36.5,84.9 34.5,84.9 
		34.2,84.9 33.5,84.9 33.5,83.3 33.4,83.3 33.2,83.3 33.2,84.9 	"/>
	<polygon class="st2" points="207.9,57.6 207.9,57.7 208.1,57.7 208.1,36.2 207.9,36.2 	"/>
	<polygon class="st2" points="202.5,57.9 204.1,57.9 204.1,57.6 204.1,36.2 203.9,36.2 203.9,57.6 202.8,57.6 202.8,36.2 
		202.5,36.2 202.5,57.6 	"/>
	<polygon class="st2" points="207.9,117.9 207.9,118.1 207.9,139.4 207.9,139.6 208.1,139.6 208.1,117.9 	"/>
	<path class="st2" d="M202.5,118.1v21.6h1.6v-21.9h-1.6V118.1z M203.8,139.4h-1.1v-21.3h1.1V139.4z"/>
	<path class="st2" d="M184.9,3.9h-21.6v1.8h21.9V3.9H184.9z M184.9,5.4h-21.3V4.1H185L184.9,5.4z"/>
	<path class="st2" d="M124.2,3.9v1.8h11V3.9H124.2z M134.9,5.4h-10.5V4.1h10.5V5.4z"/>
	<path class="st2" d="M107.9,3.9H97.2v1.8h11V3.9H107.9z M107.9,5.4H97.4V4.1h10.5V5.4z"/>
	<path class="st2" d="M80.9,3.9H70.2v1.8h11V3.9H80.9z M80.9,5.4H70.5V4.1H81L80.9,5.4z"/>
	<polygon class="st2" points="208,0.1 207.9,0.1 207.9,0.3 207.9,36 204.1,36 202.5,36 197.4,36 197.4,36.1 197.4,36.2 202.5,36.2 
		202.8,36.2 203.9,36.2 204.1,36.2 207.9,36.2 208.1,36.2 208.1,36.1 208.1,0.1 	"/>
	<polygon class="st2" points="207.9,57.7 207.9,57.9 207.9,117.8 207.9,117.9 208.1,117.9 208.1,57.7 	"/>
	<polygon class="st2" points="207.9,139.6 207.9,139.7 207.9,175.4 207.9,175.5 208,175.5 208.1,175.5 208.1,139.6 	"/>
	<polygon class="st2" points="38.8,60.1 38.7,60.1 38.7,61.7 38.8,61.7 39,61.7 39,60.1 	"/>
	<polygon class="st2" points="56,65.5 56,65.6 57.6,65.6 57.6,65.5 57.6,65.3 56,65.3 	"/>
	<polygon class="st2" points="0.3,116.1 0.3,114.6 0.1,114.6 0,114.6 0,116.1 0.1,116.1 	"/>
	<path class="st2" d="M20.5,5.6h21.6V3.9H20.2v1.8L20.5,5.6L20.5,5.6z M20.5,4.1h21.3v1.2H20.5V4.1z"/>
	<polygon class="st2" points="0.3,86.6 0.3,86.5 0.3,83.3 0.3,83.2 0.3,83.1 0.3,82.2 0.3,82.1 0.3,81.9 0.3,80 0.3,77.7 0.3,76.2 
		0.3,74.1 0.3,72.6 0.3,70.3 0.3,68.4 0.3,68.2 0.3,68.1 0.3,67.2 0.3,67.1 0.3,67 0.3,5.5 0.3,5.4 0.1,5.4 0,5.4 0,5.5 0,5.6 0,67 
		0,67.1 0,68.2 0,70.3 0,72.6 0,74.1 0,76.2 0,77.7 0,80 0,82.1 0,83.2 0,83.3 0,86.3 0,86.5 0,86.6 0.1,86.6 	"/>
	<polygon class="st2" points="0.3,114.6 0.3,91.8 0.3,91.7 0,91.7 0,91.8 0,92 0,114.3 0,114.6 0.1,114.6 	"/>
	<polygon class="st2" points="0.3,163.9 0.3,116.1 0.1,116.1 0,116.1 0,116.3 0,163.8 0,163.9 0,164 0.3,164 	"/>
	<path class="st2" d="M56,83.1V61.7H5.4V67H1.8v16.4H56V83.1L56,83.1z M33.4,83.1H2V67.2h3.6V62h50.1v3.5l0,0v17.6H33.4L33.4,83.1z"
		/>
	<path class="st2" d="M5.6,60.1H56V10.7H5.4v49.4L5.6,60.1L5.6,60.1z M35.1,59.8H5.6V11h50.1v48.8H35.1z"/>
	<path class="st2" d="M197.4,10.7H57.6v72.6h139.8V10.7z M143.7,83.1H57.8V11h139.3v46.7l0,0v25.4H143.7z"/>
	<path class="st2" d="M145.9,91.7H107V164h90.3V91.7H145.9z M197.1,117.9L197.1,117.9v45.8h-89.8V92h89.8V117.9z"/>
	<polygon class="st2" points="36.5,91.7 35.6,91.7 34.4,91.7 33.4,91.7 31.9,91.7 31.4,91.7 31.1,91.7 29.7,91.7 28.2,91.7 26,91.7 
		24.5,91.7 22.2,91.7 20.9,91.7 20.9,91.7 20.6,91.7 18.6,91.7 18.6,91.7 17.6,91.7 5.4,91.7 5.4,91.8 5.6,91.8 5.6,92 17.6,92 
		18.6,92 20.6,92 20.9,92 20.9,92 22.2,92 24.5,92 26,92 28.2,92 29.7,92 31,92 31.3,92 31.9,92 33.4,92 35.6,92 36.6,92 101.7,92 
		101.7,91.8 101.9,91.8 101.9,91.7 36.7,91.7 36.6,91.7 	"/>
	<polygon class="st2" points="101.7,92 101.7,163.8 75.7,163.8 54.1,163.8 6.9,163.8 5.6,163.8 5.6,92 5.6,91.8 5.4,91.8 5.4,163.9 
		5.4,164 6.9,164 54.1,164 75.7,164 101.9,164 101.9,163.9 101.9,91.8 101.7,91.8 	"/>
	<g>
		<path class="st1" d="M163.3,36.1c-0.4,4.1,2.8,7.8,7,8.1c4.1,0.4,7.8-2.8,8.1-7c0.4-4.1-2.8-7.8-7-8.1c-0.2,0-0.4,0-0.6,0
			C166.9,28.9,163.6,32.1,163.3,36.1z"/>
		<path class="st2" d="M170.9,44.4c-0.2,0-0.4,0-0.6,0c-4.3-0.4-7.4-4.1-7.1-8.3c0.1-2,1-3.8,2.4-5.1c1.4-1.4,3.3-2,5.3-1.9h0.6
			c4.3,0.4,7.4,4.1,7.1,8.3C178.2,41.3,174.8,44.4,170.9,44.4z M170.5,29.3c-1.7,0-3.4,0.7-4.7,1.9c-1.4,1.3-2.2,3.1-2.3,5v0
			c-0.3,4.1,2.7,7.6,6.8,8c4.1,0.3,7.6-2.7,8-6.8c0.3-4.1-2.7-7.6-6.8-8l-0.6,0C170.7,29.3,170.6,29.3,170.5,29.3z"/>
	</g>
</g>
</svg>
