<?xml version="1.0" encoding="UTF-8" standalone="no"?>
<svg
   id="Layer_1"
   data-name="Layer 1"
   viewBox="0 0 259.00001 300"
   version="1.1"
   sodipodi:docname="favicon-dark.svg"
   width="259"
   height="300"
   inkscape:version="1.3 (0e150ed6c4, 2023-07-21)"
   xmlns:inkscape="http://www.inkscape.org/namespaces/inkscape"
   xmlns:sodipodi="http://sodipodi.sourceforge.net/DTD/sodipodi-0.dtd"
   xmlns="http://www.w3.org/2000/svg"
   xmlns:svg="http://www.w3.org/2000/svg">
  <sodipodi:namedview
     id="namedview4"
     pagecolor="#ffffff"
     bordercolor="#000000"
     borderopacity="0.25"
     inkscape:showpageshadow="2"
     inkscape:pageopacity="0.0"
     inkscape:pagecheckerboard="0"
     inkscape:deskcolor="#d1d1d1"
     inkscape:zoom="1.247464"
     inkscape:cx="254.11554"
     inkscape:cy="150.30493"
     inkscape:window-width="1920"
     inkscape:window-height="991"
     inkscape:window-x="-9"
     inkscape:window-y="-9"
     inkscape:window-maximized="1"
     inkscape:current-layer="Layer_1" />
  <defs
     id="defs1">
    <style
       id="style1">.cls-1{fill:#f2ece7;}</style>
  </defs>
  <polygon
     class="cls-1"
     points="192.26,270.16 192.26,254.93 185.9,250.04 185.9,225.54 192.26,230.44 192.26,215.2 185.9,210.3 185.9,185.77 192.26,190.67 192.26,175.46 179.97,166 179.95,166.01 179.93,166 105.03,223.67 114.88,231.26 163.2,194.06 163.2,194.09 174,185.77 174,210.3 130.83,243.54 140.72,251.13 163.2,233.83 163.2,233.86 174,225.54 174,250.04 156.66,263.39 166.55,270.99 174,265.26 174,289.77 160.72,300 192.26,300 192.26,294.67 185.9,289.77 185.9,265.26 "
     id="polygon1" />
  <polygon
     class="cls-1"
     points="66.12,253.41 66.12,268.58 71.89,264.14 71.89,264.17 82.7,255.85 82.7,280.38 66.12,293.14 66.12,300 77.01,300 82.7,295.62 82.7,300 94.6,300 94.6,295.62 100.29,300 120.08,300 94.6,280.38 94.6,255.85 105.4,264.17 105.4,264.14 137.9,289.15 147.75,281.56 88.67,236.08 88.65,236.09 88.63,236.08 "
     id="polygon2" />
  <polygon
     class="cls-1"
     points="128.38,88.51 66.12,134.44 66.12,149.61 111.64,114.57 111.64,114.6 122.44,106.28 122.44,130.82 75.14,167.23 75.16,167.25 66.12,174.21 66.12,189.38 111.64,154.34 111.64,154.37 122.44,146.05 122.44,170.55 100.95,187.1 100.95,187.1 66.12,213.91 66.12,229.08 84.97,214.57 84.99,214.58 111.64,194.06 111.64,194.07 111.64,194.08 138.28,173.58 134.35,170.55 134.35,146.05 145.15,154.37 145.15,154.34 154.22,161.32 164.1,153.72 134.35,130.82 134.35,106.28 145.15,114.6 145.15,114.57 192.26,150.84 192.26,135.67 128.41,88.51 128.4,88.53 "
     id="polygon3" />
  <path
     class="cls-1"
     d="m 129.72,12.740003 c 18.56,0 35.25,2.63 49.6,7.8 a 98.39,98.39 0 0 1 36.27,22.72 96,96 0 0 1 22.78,37 c 5.24,15 7.9,32.829997 7.9,52.849997 v 154.15 h -28.6 v -152 c 0,-33.63 -7.7,-58.879997 -22.89,-75.059997 -15.4,-16.41 -37.15,-24.73 -64.64,-24.73 -27.49,0 -49.27,8.26 -64.81,24.63 C 50,76.280003 42.19,101.55 42.19,135.21 v 152 H 12.74 V 133.1 c 0,-20 2.66,-37.799997 7.9,-52.849997 a 96,96 0 0 1 22.78,-37 98.11,98.11 0 0 1 36.36,-22.7 c 14.42,-5.18 31.22,-7.81 49.94,-7.81 M 129.72,2.9205607e-6 Q 68.88,2.9205607e-6 34.44,34.220003 0,68.440003 0,133.1 V 300 H 54.93 V 135.21 q 0,-45.629997 19.65,-66.339997 19.65,-20.71 55.56,-20.7 35.91,0 55.35,20.7 19.44,20.7 19.44,66.339997 V 300 H 259 V 133.1 Q 259,68.450003 224.57,34.220003 190.14,-0.00999708 129.72,2.9205607e-6 Z"
     id="path3" />
</svg>
