<svg id="Layer_1" data-name="Layer 1" xmlns="http://www.w3.org/2000/svg" viewBox="0 0 596.41 300"><defs><style>.cls-1{fill:#494b4d;}</style></defs><polygon class="cls-1" points="185.9 289.77 185.9 265.26 192.26 270.16 192.26 254.93 185.9 250.04 185.9 225.54 192.26 230.44 192.26 215.2 185.9 210.3 185.9 185.77 192.26 190.67 192.26 175.46 179.97 166 179.95 166.01 179.93 166 105.03 223.67 114.88 231.26 163.2 194.06 163.2 194.09 174 185.77 174 210.3 130.83 243.54 140.72 251.13 163.2 233.83 163.2 233.86 174 225.54 174 250.04 156.66 263.39 166.55 270.99 174 265.26 174 289.77 160.72 300 192.26 300 192.26 294.67 185.9 289.77"/><polygon class="cls-1" points="88.65 236.09 88.63 236.08 66.12 253.41 66.12 268.58 71.89 264.14 71.89 264.17 82.7 255.85 82.7 280.38 66.12 293.14 66.12 300 77.01 300 82.7 295.62 82.7 300 94.6 300 94.6 295.62 100.29 300 120.08 300 94.6 280.38 94.6 255.85 105.4 264.17 105.4 264.14 137.9 289.15 147.75 281.56 88.67 236.08 88.65 236.09"/><polygon class="cls-1" points="128.41 88.51 128.4 88.53 128.38 88.51 66.12 134.44 66.12 149.61 111.64 114.57 111.64 114.6 122.44 106.28 122.44 130.82 75.14 167.23 75.16 167.25 66.12 174.21 66.12 189.38 111.64 154.34 111.64 154.37 122.44 146.05 122.44 170.55 100.95 187.1 100.95 187.1 66.12 213.91 66.12 229.08 84.97 214.57 84.99 214.58 111.64 194.06 111.64 194.07 111.64 194.08 138.28 173.58 134.35 170.55 134.35 146.05 145.15 154.37 145.15 154.34 154.22 161.32 164.1 153.72 134.35 130.82 134.35 106.28 145.15 114.6 145.15 114.57 192.26 150.84 192.26 135.67 128.41 88.51"/><path class="cls-1" d="M129.72,12.74c18.56,0,35.25,2.63,49.6,7.8a98.39,98.39,0,0,1,36.27,22.72,96,96,0,0,1,22.78,37c5.24,15,7.9,32.83,7.9,52.85V287.26h-28.6v-152c0-33.63-7.7-58.88-22.89-75.06-15.4-16.41-37.15-24.73-64.64-24.73S80.87,43.73,65.33,60.1C50,76.28,42.19,101.55,42.19,135.21v152H12.74V133.1c0-20,2.66-37.8,7.9-52.85a96,96,0,0,1,22.78-37A98.11,98.11,0,0,1,79.78,20.55c14.42-5.18,31.22-7.81,49.94-7.81m0-12.74Q68.88,0,34.44,34.22T0,133.1V300H54.93V135.21q0-45.63,19.65-66.34t55.56-20.7q35.91,0,55.35,20.7t19.44,66.34V300H259V133.1q0-64.65-34.43-98.88T129.72,0Z"/><path class="cls-1" d="M583.66,12.74V166.9c0,20-2.66,37.8-7.9,52.85a95.9,95.9,0,0,1-22.77,37,98.4,98.4,0,0,1-36.28,22.73c-14.35,5.17-31,7.8-49.6,7.8s-35.51-2.63-49.93-7.81a98.07,98.07,0,0,1-36.37-22.71,96,96,0,0,1-22.77-37c-5.25-15.05-7.9-32.83-7.9-52.85V12.74h29.44v152c0,33.66,7.79,58.93,23.14,75.11,15.54,16.37,37.35,24.68,64.81,24.68s49.24-8.32,64.65-24.73c15.19-16.18,22.89-41.43,22.89-75.06v-152h28.59M596.41,0H542.32V164.79q0,45.63-19.43,66.34t-55.36,20.7q-35.91,0-55.56-20.7t-19.65-66.34V0H337.39V166.9q0,64.65,34.44,98.88T467.11,300q60.42,0,94.86-34.22t34.44-98.88V0Z"/></svg>