<?xml version="1.0" encoding="utf-8"?>
<!-- Generator: Adobe Illustrator 26.0.3, SVG Export Plug-In . SVG Version: 6.00 Build 0)  -->
<svg version="1.1" id="Layer_1" xmlns="http://www.w3.org/2000/svg" xmlns:xlink="http://www.w3.org/1999/xlink" x="0px" y="0px"
	 viewBox="0 0 760.6 158.3" style="enable-background:new 0 0 760.6 158.3;" xml:space="preserve">
<style type="text/css">
	.st0{fill:#9FAA87;}
	.st1{fill:none;stroke:#2B2D2C;stroke-width:0.6;stroke-linecap:round;stroke-linejoin:round;}
</style>
<rect x="23.6" y="137" class="st0" width="714.2" height="21.3"/>
<line class="st1" x1="760.3" y1="158" x2="578" y2="157.5"/>
<line class="st1" x1="535.4" y1="157.5" x2="371.8" y2="157.5"/>
<polyline class="st1" points="182.6,157.5 225.2,157.5 371.8,157.5 "/>
<line class="st1" x1="742.4" y1="56.1" x2="742.4" y2="53.3"/>
<line class="st1" x1="18.2" y1="56.1" x2="18.2" y2="53.3"/>
<polyline class="st1" points="381.7,52.3 381.7,0.3 377.4,0.3 377.4,52.3 "/>
<line class="st1" x1="23.2" y1="137" x2="23.2" y2="57.5"/>
<line class="st1" x1="23.2" y1="137" x2="23.2" y2="138.4"/>
<line class="st1" x1="23.2" y1="138.4" x2="23.2" y2="157.8"/>
<polyline class="st1" points="191.8,155.3 191.8,125.1 215.9,125.1 215.9,155.3 "/>
<line class="st1" x1="192.5" y1="125.8" x2="192.5" y2="154.6"/>
<polyline class="st1" points="204.4,125.8 215.2,125.8 215.2,155.3 "/>
<polyline class="st1" points="246,62.7 254.2,62.7 254.2,80.3 246,80.3 "/>
<line class="st1" x1="23.2" y1="137" x2="23.2" y2="57.5"/>
<line class="st1" x1="18.2" y1="56.1" x2="380.3" y2="56.1"/>
<line class="st1" x1="22.1" y1="57.5" x2="380.3" y2="57.5"/>
<line class="st1" x1="18.2" y1="52.2" x2="380.3" y2="52.2"/>
<line class="st1" x1="15.8" y1="53.3" x2="380.3" y2="53.3"/>
<line class="st1" x1="18.2" y1="56.1" x2="18.2" y2="53.3"/>
<path class="st1" d="M15.8,53.6c-0.1,0.4,0.1,0.8,0.4,1c0.4,0.3,1.1,0.3,1.4-0.2c0.1-0.2,0.2-0.4,0.2-0.7"/>
<polyline class="st1" points="15.8,53.9 15.8,53.3 18.2,53.3 "/>
<polyline class="st1" points="17.8,53.8 18.2,52.3 93.3,4.5 "/>
<polyline class="st1" points="737.4,57.5 737.4,137.6 737.4,57.5 "/>
<line class="st1" x1="742.4" y1="56.1" x2="380.3" y2="56.1"/>
<line class="st1" x1="738.3" y1="57.5" x2="380.3" y2="57.5"/>
<line class="st1" x1="742.4" y1="52.2" x2="380.3" y2="52.2"/>
<line class="st1" x1="744.8" y1="53.3" x2="380.3" y2="53.3"/>
<line class="st1" x1="742.4" y1="56.1" x2="742.4" y2="53.3"/>
<path class="st1" d="M742.7,53.8c0,0.6,0.5,1,1.1,0.9c0.6,0,1-0.5,0.9-1.1"/>
<polyline class="st1" points="744.8,53.9 744.8,53.3 742.4,53.3 "/>
<polyline class="st1" points="742.7,53.8 742.4,52.3 667.3,4.5 381.7,4.5 "/>
<polyline class="st1" points="42.3,146 41.2,146 41.2,148.7 "/>
<line class="st1" x1="330.8" y1="6.7" x2="345.6" y2="6.7"/>
<line class="st1" x1="22.1" y1="57.5" x2="22.1" y2="56.1"/>
<line class="st1" x1="738.3" y1="57.5" x2="738.3" y2="56.1"/>
<line class="st1" x1="0.3" y1="158" x2="182.6" y2="157.5"/>
<line class="st1" x1="377.4" y1="4.5" x2="93.3" y2="4.5"/>
<line class="st1" x1="201.8" y1="155.3" x2="215.9" y2="155.3"/>
<polyline class="st1" points="213.5,127.6 204.2,127.6 204.2,154.6 213.5,154.6 213.5,127.6 "/>
<polyline class="st1" points="205,136 205.4,136 205.4,145.5 205,145.5 205,136 "/>
<line class="st1" x1="215.2" y1="155.3" x2="202.5" y2="155.3"/>
<line class="st1" x1="215.2" y1="155.3" x2="215.2" y2="155.3"/>
<polyline class="st1" points="205,137.6 203.3,137.6 203.3,137.8 205,137.8 205,137.6 "/>
<polyline class="st1" points="205,143.9 203.3,143.9 203.3,143.7 205,143.7 205,143.9 "/>
<line class="st1" x1="202.5" y1="125.8" x2="202.5" y2="155.3"/>
<line class="st1" x1="213.5" y1="127.6" x2="215.2" y2="125.8"/>
<polyline class="st1" points="204.2,127.6 202.5,125.8 215.2,125.8 215.2,155.3 "/>
<polyline class="st1" points="201.8,155.3 201.8,125.1 215.9,125.1 215.9,155.3 "/>
<polyline class="st1" points="192.5,125.8 201,125.8 201,154.6 192.5,154.6 "/>
<line class="st1" x1="201" y1="154.6" x2="201" y2="154.6"/>
<line class="st1" x1="201" y1="154.6" x2="201" y2="154.6"/>
<line class="st1" x1="59.3" y1="103.8" x2="59.3" y2="134.1"/>
<line class="st1" x1="58.6" y1="104.6" x2="58.6" y2="134.1"/>
<line class="st1" x1="45.2" y1="134.1" x2="59.3" y2="134.1"/>
<polyline class="st1" points="56.9,106.2 47.6,106.2 47.6,133.4 56.9,133.4 56.9,106.2 "/>
<polyline class="st1" points="56.1,114.8 55.7,114.8 55.7,124.2 56.1,124.2 56.1,114.8 "/>
<line class="st1" x1="58.6" y1="134.1" x2="45.9" y2="134.1"/>
<line class="st1" x1="58.6" y1="134.1" x2="58.6" y2="134.1"/>
<polyline class="st1" points="56.1,116.3 57.8,116.3 57.8,116.6 56.1,116.6 56.1,116.3 "/>
<polyline class="st1" points="56.1,122.7 57.8,122.7 57.8,122.4 56.1,122.4 56.1,122.7 "/>
<line class="st1" x1="45.9" y1="104.6" x2="45.9" y2="134.1"/>
<line class="st1" x1="56.9" y1="106.2" x2="58.6" y2="104.6"/>
<polyline class="st1" points="47.6,106.2 45.9,104.6 58.6,104.6 58.6,134.1 "/>
<polyline class="st1" points="45.2,134.1 45.2,103.8 59.3,103.8 59.3,134.1 "/>
<polyline class="st1" points="62.8,134.1 41.6,134.1 41.6,136.9 62.8,136.9 62.8,134.1 "/>
<polyline class="st1" points="43.7,134.1 43,134.1 43,157.5 43.7,157.5 43.7,134.1 "/>
<polyline class="st1" points="61.5,134.1 60.8,134.1 60.8,157.7 61.5,157.7 61.5,134.1 "/>
<polyline class="st1" points="43.7,122 43,122 43,134.1 43.7,134.1 43.7,122 "/>
<polyline class="st1" points="60.8,122 61.5,122 61.5,134.1 60.8,134.1 60.8,122 "/>
<polyline class="st1" points="60.8,136.5 43.7,136.5 43.7,137 60.8,137 60.8,136.5 "/>
<polyline class="st1" points="60.8,138.9 43.7,138.9 43.7,139.5 60.8,139.5 60.8,138.9 "/>
<polyline class="st1" points="60.8,141.3 43.7,141.3 43.7,141.9 60.8,141.9 60.8,141.3 "/>
<polyline class="st1" points="60.8,143.7 43.7,143.7 43.7,144.3 60.8,144.3 60.8,143.7 "/>
<polyline class="st1" points="60.8,146.1 43.7,146.1 43.7,146.7 60.8,146.7 60.8,146.1 "/>
<polyline class="st1" points="60.8,148.5 43.7,148.5 43.7,149.1 60.8,149.1 60.8,148.5 "/>
<polyline class="st1" points="60.8,150.9 43.7,150.9 43.7,151.5 60.8,151.5 60.8,150.9 "/>
<polyline class="st1" points="60.8,153.3 43.7,153.3 43.7,153.9 60.8,153.9 60.8,153.3 "/>
<polyline class="st1" points="60.8,155.7 43.7,155.7 43.7,156.3 60.8,156.3 60.8,155.7 "/>
<line class="st1" x1="385.2" y1="52.2" x2="385.2" y2="6.7"/>
<line class="st1" x1="392.3" y1="52.2" x2="392.3" y2="6.7"/>
<line class="st1" x1="399.4" y1="52.2" x2="399.4" y2="6.7"/>
<line class="st1" x1="406.5" y1="52.2" x2="406.5" y2="6.7"/>
<line class="st1" x1="413.5" y1="52.2" x2="413.5" y2="6.7"/>
<line class="st1" x1="420.6" y1="52.2" x2="420.6" y2="6.7"/>
<line class="st1" x1="427.7" y1="52.2" x2="427.7" y2="6.7"/>
<line class="st1" x1="434.8" y1="52.2" x2="434.8" y2="6.7"/>
<line class="st1" x1="441.9" y1="52.2" x2="441.9" y2="6.7"/>
<line class="st1" x1="449" y1="52.2" x2="449" y2="6.7"/>
<line class="st1" x1="456.1" y1="52.2" x2="456.1" y2="6.7"/>
<line class="st1" x1="463.2" y1="52.2" x2="463.2" y2="6.7"/>
<line class="st1" x1="470.3" y1="52.2" x2="470.3" y2="6.7"/>
<line class="st1" x1="477.4" y1="52.2" x2="477.4" y2="6.7"/>
<line class="st1" x1="484.5" y1="52.2" x2="484.5" y2="6.7"/>
<line class="st1" x1="491.5" y1="52.2" x2="491.5" y2="6.7"/>
<line class="st1" x1="498.6" y1="52.2" x2="498.6" y2="6.7"/>
<line class="st1" x1="505.7" y1="52.2" x2="505.7" y2="6.7"/>
<line class="st1" x1="512.8" y1="52.2" x2="512.8" y2="6.7"/>
<line class="st1" x1="519.8" y1="52.2" x2="519.8" y2="6.7"/>
<line class="st1" x1="526.9" y1="52.2" x2="526.9" y2="6.7"/>
<line class="st1" x1="534" y1="52.2" x2="534" y2="6.7"/>
<line class="st1" x1="541.1" y1="52.2" x2="541.1" y2="6.7"/>
<line class="st1" x1="548.2" y1="52.2" x2="548.2" y2="6.7"/>
<line class="st1" x1="555.2" y1="52.2" x2="555.2" y2="6.7"/>
<line class="st1" x1="562.3" y1="52.2" x2="562.3" y2="6.7"/>
<line class="st1" x1="569.4" y1="52.2" x2="569.4" y2="6.7"/>
<line class="st1" x1="576.5" y1="52.2" x2="576.5" y2="6.7"/>
<line class="st1" x1="583.7" y1="52.2" x2="583.7" y2="6.7"/>
<line class="st1" x1="590.8" y1="52.2" x2="590.8" y2="6.7"/>
<line class="st1" x1="597.8" y1="52.2" x2="597.8" y2="6.7"/>
<line class="st1" x1="604.9" y1="52.2" x2="604.9" y2="6.7"/>
<line class="st1" x1="612" y1="52.2" x2="612" y2="6.7"/>
<line class="st1" x1="619.1" y1="52.2" x2="619.1" y2="6.7"/>
<line class="st1" x1="626.2" y1="52.2" x2="626.2" y2="6.7"/>
<line class="st1" x1="633.2" y1="52.2" x2="633.2" y2="6.7"/>
<line class="st1" x1="640.3" y1="52.2" x2="640.3" y2="6.7"/>
<line class="st1" x1="647.4" y1="52.2" x2="647.4" y2="6.7"/>
<line class="st1" x1="654.5" y1="52.2" x2="654.5" y2="6.7"/>
<line class="st1" x1="661.5" y1="52.2" x2="661.5" y2="6.7"/>
<line class="st1" x1="668.6" y1="52.2" x2="668.6" y2="6.7"/>
<line class="st1" x1="675.7" y1="52.2" x2="675.7" y2="9.9"/>
<line class="st1" x1="682.8" y1="52.2" x2="682.8" y2="14.5"/>
<line class="st1" x1="689.9" y1="52.2" x2="689.9" y2="18.9"/>
<line class="st1" x1="697" y1="52.2" x2="697" y2="23.5"/>
<line class="st1" x1="704" y1="52.2" x2="704" y2="27.9"/>
<line class="st1" x1="711.1" y1="52.2" x2="711.1" y2="32.5"/>
<line class="st1" x1="718.3" y1="52.2" x2="718.3" y2="37"/>
<line class="st1" x1="725.4" y1="52.2" x2="725.4" y2="41.5"/>
<line class="st1" x1="732.5" y1="52.2" x2="732.5" y2="46"/>
<line class="st1" x1="739.5" y1="52.2" x2="739.5" y2="50.5"/>
<polyline class="st1" points="381.7,52.3 381.7,6.7 670.5,6.7 742.4,52.3 381.7,52.3 "/>
<line class="st1" x1="18.8" y1="52.2" x2="18.8" y2="52"/>
<line class="st1" x1="25.9" y1="52.2" x2="25.9" y2="47.5"/>
<line class="st1" x1="32.9" y1="52.2" x2="32.9" y2="43"/>
<line class="st1" x1="40" y1="52.2" x2="40" y2="38.5"/>
<line class="st1" x1="47.1" y1="52.2" x2="47.1" y2="34"/>
<line class="st1" x1="54.2" y1="52.2" x2="54.2" y2="29.5"/>
<line class="st1" x1="61.2" y1="52.2" x2="61.2" y2="24.9"/>
<line class="st1" x1="68.3" y1="52.2" x2="68.3" y2="20.5"/>
<line class="st1" x1="75.4" y1="52.2" x2="75.4" y2="15.9"/>
<line class="st1" x1="82.5" y1="52.2" x2="82.5" y2="11.5"/>
<line class="st1" x1="89.6" y1="52.2" x2="89.6" y2="6.9"/>
<line class="st1" x1="96.7" y1="52.2" x2="96.7" y2="6.7"/>
<line class="st1" x1="103.7" y1="52.2" x2="103.7" y2="6.7"/>
<line class="st1" x1="110.8" y1="52.2" x2="110.8" y2="6.7"/>
<line class="st1" x1="117.9" y1="52.2" x2="117.9" y2="6.7"/>
<line class="st1" x1="125" y1="52.2" x2="125" y2="6.7"/>
<line class="st1" x1="132.1" y1="52.2" x2="132.1" y2="6.7"/>
<line class="st1" x1="139.1" y1="52.2" x2="139.1" y2="6.7"/>
<line class="st1" x1="146.2" y1="52.2" x2="146.2" y2="6.7"/>
<line class="st1" x1="153.4" y1="52.2" x2="153.4" y2="6.7"/>
<line class="st1" x1="160.5" y1="52.2" x2="160.5" y2="6.7"/>
<line class="st1" x1="167.6" y1="52.2" x2="167.6" y2="6.7"/>
<line class="st1" x1="174.6" y1="52.2" x2="174.6" y2="6.7"/>
<line class="st1" x1="181.7" y1="52.2" x2="181.7" y2="6.7"/>
<line class="st1" x1="188.8" y1="52.2" x2="188.8" y2="6.7"/>
<line class="st1" x1="195.9" y1="52.2" x2="195.9" y2="6.7"/>
<line class="st1" x1="203" y1="52.2" x2="203" y2="6.7"/>
<line class="st1" x1="210" y1="52.2" x2="210" y2="6.7"/>
<line class="st1" x1="217.1" y1="52.2" x2="217.1" y2="6.7"/>
<line class="st1" x1="224.2" y1="52.2" x2="224.2" y2="6.7"/>
<line class="st1" x1="231.3" y1="52.2" x2="231.3" y2="6.7"/>
<line class="st1" x1="238.4" y1="52.2" x2="238.4" y2="6.7"/>
<line class="st1" x1="245.4" y1="52.2" x2="245.4" y2="6.7"/>
<line class="st1" x1="252.5" y1="52.2" x2="252.5" y2="6.7"/>
<line class="st1" x1="259.6" y1="52.2" x2="259.6" y2="6.7"/>
<line class="st1" x1="266.7" y1="52.2" x2="266.7" y2="6.7"/>
<line class="st1" x1="273.8" y1="52.2" x2="273.8" y2="6.7"/>
<line class="st1" x1="280.8" y1="52.2" x2="280.8" y2="6.7"/>
<line class="st1" x1="288" y1="52.2" x2="288" y2="6.7"/>
<line class="st1" x1="295.1" y1="52.2" x2="295.1" y2="6.7"/>
<line class="st1" x1="302.2" y1="52.2" x2="302.2" y2="6.7"/>
<line class="st1" x1="309.3" y1="52.2" x2="309.3" y2="6.7"/>
<line class="st1" x1="316.4" y1="52.2" x2="316.4" y2="6.7"/>
<line class="st1" x1="323.4" y1="52.2" x2="323.4" y2="6.7"/>
<line class="st1" x1="330.5" y1="52.2" x2="330.5" y2="6.7"/>
<line class="st1" x1="337.6" y1="52.2" x2="337.6" y2="6.7"/>
<line class="st1" x1="344.7" y1="52.2" x2="344.7" y2="6.7"/>
<line class="st1" x1="351.7" y1="52.2" x2="351.7" y2="6.7"/>
<line class="st1" x1="358.8" y1="52.2" x2="358.8" y2="6.7"/>
<line class="st1" x1="365.9" y1="52.2" x2="365.9" y2="6.7"/>
<line class="st1" x1="373" y1="52.2" x2="373" y2="6.7"/>
<polyline class="st1" points="303.8,6.7 377.4,6.7 377.4,52.3 182.6,52.3 163.7,52.3 18.2,52.3 90.1,6.7 108.9,6.7 303.8,6.7 "/>
<polyline class="st1" points="303.8,6.7 377.4,6.7 377.4,52.3 182.6,52.3 163.7,52.3 18.2,52.3 90.1,6.7 108.9,6.7 303.8,6.7 "/>
<line class="st1" x1="59.9" y1="134.1" x2="59.3" y2="133.5"/>
<path class="st1" d="M59.3,132.6"/>
<path class="st1" d="M60.7,134.1"/>
<path class="st1" d="M59.3,131.9"/>
<path class="st1" d="M61.5,134.1"/>
<path class="st1" d="M59.3,131.1"/>
<path class="st1" d="M62.3,134.1"/>
<path class="st1" d="M59.3,130.2"/>
<path class="st1" d="M63,134.1"/>
<path class="st1" d="M59.3,129.4"/>
<path class="st1" d="M63.9,134.1"/>
<path class="st1" d="M59.3,128.7"/>
<path class="st1" d="M64.7,134.1"/>
<line class="st1" x1="45.2" y1="120.9" x2="45.2" y2="103.8"/>
<line class="st1" x1="59.3" y1="112.6" x2="59.3" y2="129.6"/>
<line class="st1" x1="45.2" y1="103.8" x2="49.2" y2="103.8"/>
<line class="st1" x1="59.3" y1="110.1" x2="59.3" y2="112.6"/>
<line class="st1" x1="49.2" y1="103.8" x2="59.3" y2="103.8"/>
<line class="st1" x1="59.3" y1="103.8" x2="59.3" y2="110.1"/>
<line class="st1" x1="45.2" y1="120.9" x2="45.2" y2="103.8"/>
<line class="st1" x1="59.3" y1="112.6" x2="59.3" y2="129.6"/>
<line class="st1" x1="45.2" y1="103.8" x2="49.2" y2="103.8"/>
<line class="st1" x1="59.3" y1="110.1" x2="59.3" y2="112.6"/>
<line class="st1" x1="49.2" y1="103.8" x2="59.3" y2="103.8"/>
<line class="st1" x1="59.3" y1="103.8" x2="59.3" y2="110.1"/>
<polyline class="st1" points="89.1,81.1 80.6,81.1 80.6,62 89.1,62 89.1,81.1 "/>
<polyline class="st1" points="88.4,80.3 81.3,80.3 81.3,62.7 88.4,62.7 88.4,80.3 "/>
<polyline class="st1" points="87.2,79.2 82.4,79.2 82.4,63.8 87.2,63.8 87.2,79.2 "/>
<polyline class="st1" points="59.3,81.1 45.2,81.1 45.2,62 59.3,62 59.3,81.1 "/>
<polyline class="st1" points="58.6,80.3 45.9,80.3 45.9,62.7 58.6,62.7 58.6,80.3 "/>
<polyline class="st1" points="57.4,79.2 47,79.2 47,63.8 57.4,63.8 57.4,79.2 "/>
<polyline class="st1" points="110.3,81.1 101.8,81.1 101.8,62 110.3,62 110.3,81.1 "/>
<polyline class="st1" points="109.6,80.3 102.5,80.3 102.5,62.7 109.6,62.7 109.6,80.3 "/>
<polyline class="st1" points="108.5,79.2 103.6,79.2 103.6,63.8 108.5,63.8 108.5,79.2 "/>
<polyline class="st1" points="131.6,81.1 123.1,81.1 123.1,62 131.6,62 131.6,81.1 "/>
<polyline class="st1" points="130.9,80.3 123.8,80.3 123.8,62.7 130.9,62.7 130.9,80.3 "/>
<polyline class="st1" points="129.8,79.2 125,79.2 125,63.8 129.8,63.8 129.8,79.2 "/>
<polyline class="st1" points="89.1,121.5 80.6,121.5 80.6,102.3 89.1,102.3 89.1,121.5 "/>
<polyline class="st1" points="88.4,120.8 81.3,120.8 81.3,103 88.4,103 88.4,120.8 "/>
<polyline class="st1" points="87.2,119.6 82.4,119.6 82.4,104.1 87.2,104.1 87.2,119.6 "/>
<polyline class="st1" points="110.3,121.5 101.8,121.5 101.8,102.3 110.3,102.3 110.3,121.5 "/>
<polyline class="st1" points="109.6,120.8 102.5,120.8 102.5,103 109.6,103 109.6,120.8 "/>
<polyline class="st1" points="108.5,119.6 103.6,119.6 103.6,104.1 108.5,104.1 108.5,119.6 "/>
<polyline class="st1" points="131.6,121.5 123.1,121.5 123.1,102.3 131.6,102.3 131.6,121.5 "/>
<polyline class="st1" points="130.9,120.8 123.8,120.8 123.8,103 130.9,103 130.9,120.8 "/>
<polyline class="st1" points="129.8,119.6 125,119.6 125,104.1 129.8,104.1 129.8,119.6 "/>
<line class="st1" x1="167" y1="103.8" x2="167" y2="134.1"/>
<line class="st1" x1="166.4" y1="104.6" x2="166.4" y2="134.1"/>
<line class="st1" x1="152.8" y1="134.1" x2="167" y2="134.1"/>
<polyline class="st1" points="164.6,106.2 155.2,106.2 155.2,133.4 164.6,133.4 164.6,106.2 "/>
<polyline class="st1" points="156,114.8 156.4,114.8 156.4,124.2 156,124.2 156,114.8 "/>
<line class="st1" x1="166.4" y1="134.1" x2="153.5" y2="134.1"/>
<line class="st1" x1="166.4" y1="134.1" x2="166.4" y2="134.1"/>
<polyline class="st1" points="156,116.3 154.4,116.3 154.4,116.6 156,116.6 156,116.3 "/>
<polyline class="st1" points="156,122.7 154.4,122.7 154.4,122.4 156,122.4 156,122.7 "/>
<line class="st1" x1="153.5" y1="104.6" x2="153.5" y2="134.1"/>
<line class="st1" x1="164.6" y1="106.2" x2="166.4" y2="104.6"/>
<polyline class="st1" points="155.2,106.2 153.5,104.6 166.4,104.6 166.4,134.1 "/>
<polyline class="st1" points="152.8,134.1 152.8,103.8 167,103.8 167,134.1 "/>
<polyline class="st1" points="151.4,122 150.8,122 150.8,134.1 151.4,134.1 151.4,122 "/>
<polyline class="st1" points="168.4,122 169.1,122 169.1,134.1 168.4,134.1 168.4,122 "/>
<polyline class="st1" points="168.4,136.5 151.4,136.5 151.4,137 168.4,137 168.4,136.5 "/>
<polyline class="st1" points="168.4,138.9 151.4,138.9 151.4,139.5 168.4,139.5 168.4,138.9 "/>
<polyline class="st1" points="168.4,141.3 151.4,141.3 151.4,141.9 168.4,141.9 168.4,141.3 "/>
<polyline class="st1" points="151.4,134.1 150.8,134.1 150.8,157.5 151.4,157.5 151.4,134.1 "/>
<polyline class="st1" points="169.1,134.1 168.4,134.1 168.4,157.2 169.1,157.2 169.1,134.1 "/>
<polyline class="st1" points="168.4,143.7 151.4,143.7 151.4,144.3 168.4,144.3 168.4,143.7 "/>
<polyline class="st1" points="167,81.1 152.8,81.1 152.8,62 167,62 167,81.1 "/>
<polyline class="st1" points="166.4,80.3 153.5,80.3 153.5,62.7 166.4,62.7 166.4,80.3 "/>
<polyline class="st1" points="165.2,79.2 154.7,79.2 154.7,63.8 165.2,63.8 165.2,79.2 "/>
<polyline class="st1" points="168.4,146.1 151.4,146.1 151.4,146.7 168.4,146.7 168.4,146.1 "/>
<polyline class="st1" points="168.4,148.5 151.4,148.5 151.4,149.1 168.4,149.1 168.4,148.5 "/>
<polyline class="st1" points="168.4,150.9 151.4,150.9 151.4,151.5 168.4,151.5 168.4,150.9 "/>
<polyline class="st1" points="168.4,153.3 151.4,153.3 151.4,153.9 168.4,153.9 168.4,153.3 "/>
<polyline class="st1" points="168.4,155.7 151.4,155.7 151.4,156.3 168.4,156.3 168.4,155.7 "/>
<polyline class="st1" points="201.4,87.7 194.3,87.7 194.3,68.6 201.4,68.6 201.4,87.7 "/>
<polyline class="st1" points="200.7,87.1 195,87.1 195,69.3 200.7,69.3 200.7,87.1 "/>
<polyline class="st1" points="199.5,85.8 196.1,85.8 196.1,70.4 199.5,70.4 199.5,85.8 "/>
<polyline class="st1" points="213.4,87.7 206.3,87.7 206.3,68.6 213.4,68.6 213.4,87.7 "/>
<polyline class="st1" points="212.7,87.1 207,87.1 207,69.3 212.7,69.3 212.7,87.1 "/>
<polyline class="st1" points="211.6,85.8 208.2,85.8 208.2,70.4 211.6,70.4 211.6,85.8 "/>
<polyline class="st1" points="253.8,146 236.8,146 236.8,157.2 253.8,157.2 253.8,146 "/>
<polyline class="st1" points="365.4,146 366.5,146 366.5,148.7 "/>
<line class="st1" x1="348.4" y1="104.7" x2="348.4" y2="134.9"/>
<line class="st1" x1="349.1" y1="105.4" x2="349.1" y2="134.9"/>
<line class="st1" x1="362.5" y1="134.9" x2="348.4" y2="134.9"/>
<polyline class="st1" points="350.8,107.2 360.1,107.2 360.1,134.2 350.8,134.2 350.8,107.2 "/>
<polyline class="st1" points="351.6,115.6 352,115.6 352,125.1 351.6,125.1 351.6,115.6 "/>
<line class="st1" x1="349.1" y1="134.9" x2="361.8" y2="134.9"/>
<line class="st1" x1="349.1" y1="134.9" x2="349.1" y2="134.9"/>
<polyline class="st1" points="351.6,117.2 349.9,117.2 349.9,117.4 351.6,117.4 351.6,117.2 "/>
<polyline class="st1" points="351.6,123.5 349.9,123.5 349.9,123.3 351.6,123.3 351.6,123.5 "/>
<line class="st1" x1="361.8" y1="105.4" x2="361.8" y2="134.9"/>
<line class="st1" x1="350.8" y1="107.2" x2="349.1" y2="105.4"/>
<polyline class="st1" points="360.1,107.2 361.8,105.4 349.1,105.4 349.1,134.9 "/>
<polyline class="st1" points="362.5,134.9 362.5,104.7 348.4,104.7 348.4,134.9 "/>
<polyline class="st1" points="318.6,81.1 327.1,81.1 327.1,62 318.6,62 318.6,81.1 "/>
<polyline class="st1" points="319.4,80.3 326.4,80.3 326.4,62.7 319.4,62.7 319.4,80.3 "/>
<polyline class="st1" points="320.5,79.2 325.4,79.2 325.4,63.8 320.5,63.8 320.5,79.2 "/>
<polyline class="st1" points="348.4,81.1 362.5,81.1 362.5,62 348.4,62 348.4,81.1 "/>
<polyline class="st1" points="349.1,80.3 361.8,80.3 361.8,62.7 349.1,62.7 349.1,80.3 "/>
<polyline class="st1" points="350.3,79.2 360.7,79.2 360.7,63.8 350.3,63.8 350.3,79.2 "/>
<polyline class="st1" points="297.4,81.1 305.9,81.1 305.9,62 297.4,62 297.4,81.1 "/>
<polyline class="st1" points="298.1,80.3 305.2,80.3 305.2,62.7 298.1,62.7 298.1,80.3 "/>
<polyline class="st1" points="299.2,79.2 304.1,79.2 304.1,63.8 299.2,63.8 299.2,79.2 "/>
<polyline class="st1" points="276.1,81.1 284.7,81.1 284.7,62 276.1,62 276.1,81.1 "/>
<polyline class="st1" points="276.9,80.3 284,80.3 284,62.7 276.9,62.7 276.9,80.3 "/>
<polyline class="st1" points="278,79.2 282.8,79.2 282.8,63.8 278,63.8 278,79.2 "/>
<polyline class="st1" points="318.6,121.5 327.1,121.5 327.1,102.3 318.6,102.3 318.6,121.5 "/>
<polyline class="st1" points="319.4,120.8 326.4,120.8 326.4,103 319.4,103 319.4,120.8 "/>
<polyline class="st1" points="320.5,119.6 325.4,119.6 325.4,104.1 320.5,104.1 320.5,119.6 "/>
<polyline class="st1" points="297.4,121.5 305.9,121.5 305.9,102.3 297.4,102.3 297.4,121.5 "/>
<polyline class="st1" points="298.1,120.8 305.2,120.8 305.2,103 298.1,103 298.1,120.8 "/>
<polyline class="st1" points="299.2,119.6 304.1,119.6 304.1,104.1 299.2,104.1 299.2,119.6 "/>
<polyline class="st1" points="276.1,121.5 284.7,121.5 284.7,102.3 276.1,102.3 276.1,121.5 "/>
<polyline class="st1" points="276.9,120.8 284,120.8 284,103 276.9,103 276.9,120.8 "/>
<polyline class="st1" points="278,119.6 282.8,119.6 282.8,104.1 278,104.1 278,119.6 "/>
<line class="st1" x1="240.8" y1="104.7" x2="240.8" y2="134.9"/>
<line class="st1" x1="241.4" y1="105.4" x2="241.4" y2="134.9"/>
<line class="st1" x1="254.9" y1="134.9" x2="240.8" y2="134.9"/>
<polyline class="st1" points="243.1,107.2 252.5,107.2 252.5,134.2 243.1,134.2 243.1,107.2 "/>
<polyline class="st1" points="251.7,115.6 251.3,115.6 251.3,125.1 251.7,125.1 251.7,115.6 "/>
<line class="st1" x1="241.4" y1="134.9" x2="254.2" y2="134.9"/>
<line class="st1" x1="241.4" y1="134.9" x2="241.4" y2="134.9"/>
<polyline class="st1" points="251.7,117.2 253.4,117.2 253.4,117.4 251.7,117.4 251.7,117.2 "/>
<polyline class="st1" points="251.7,123.5 253.4,123.5 253.4,123.3 251.7,123.3 251.7,123.5 "/>
<line class="st1" x1="254.2" y1="105.4" x2="254.2" y2="134.9"/>
<line class="st1" x1="243.1" y1="107.2" x2="241.4" y2="105.4"/>
<polyline class="st1" points="252.5,107.2 254.2,105.4 241.4,105.4 241.4,134.9 "/>
<polyline class="st1" points="254.9,134.9 254.9,104.7 240.8,104.7 240.8,134.9 "/>
<path class="st1" d="M244.8,121.8"/>
<path class="st1" d="M250.6,127.6"/>
<path class="st1" d="M244.8,123.4"/>
<path class="st1" d="M250.6,129.2"/>
<path class="st1" d="M244.8,124.8"/>
<path class="st1" d="M250.6,130.7"/>
<path class="st1" d="M244.8,126.4"/>
<path class="st1" d="M250.6,132.2"/>
<path class="st1" d="M244.8,128"/>
<path class="st1" d="M249.4,132.4"/>
<path class="st1" d="M244.8,129.4"/>
<path class="st1" d="M247.8,132.4"/>
<path class="st1" d="M244.8,131"/>
<path class="st1" d="M246.3,132.4"/>
<path class="st1" d="M250.6,128.3"/>
<path class="st1" d="M250.6,126.7"/>
<path class="st1" d="M250.6,125.1"/>
<path class="st1" d="M244.8,130.9"/>
<path class="st1" d="M250.6,123.4"/>
<path class="st1" d="M244.8,129.2"/>
<path class="st1" d="M250.6,121.8"/>
<path class="st1" d="M244.8,127.6"/>
<polyline class="st1" points="240.8,81.1 254.9,81.1 254.9,62 240.8,62 240.8,81.1 "/>
<polyline class="st1" points="241.4,80.3 254.2,80.3 254.2,62.7 241.4,62.7 241.4,80.3 "/>
<polyline class="st1" points="242.6,79.2 253,79.2 253,63.8 242.6,63.8 242.6,79.2 "/>
<polyline class="st1" points="535.4,157.5 545.2,157.5 578.6,157.5 "/>
<polyline class="st1" points="544.7,155.3 544.7,125.1 568.8,125.1 568.8,155.3 "/>
<line class="st1" x1="545.4" y1="125.8" x2="545.4" y2="154.6"/>
<polyline class="st1" points="557.2,125.8 568.1,125.8 568.1,155.3 "/>
<polyline class="st1" points="598.9,62.7 607.1,62.7 607.1,80.3 598.9,80.3 "/>
<polyline class="st1" points="395.2,146 394.1,146 394.1,148.7 "/>
<line class="st1" x1="554.6" y1="155.3" x2="568.8" y2="155.3"/>
<polyline class="st1" points="566.4,127.6 557,127.6 557,154.6 566.4,154.6 566.4,127.6 "/>
<polyline class="st1" points="557.9,136 558.2,136 558.2,145.5 557.9,145.5 557.9,136 "/>
<line class="st1" x1="558.8" y1="136.5" x2="558.8" y2="134.7"/>
<polyline class="st1" points="558.8,133.1 558.8,129.3 564.7,129.3 564.7,152.8 558.8,152.8 558.8,141.5 "/>
<line class="st1" x1="568.1" y1="155.3" x2="555.4" y2="155.3"/>
<line class="st1" x1="568.1" y1="155.3" x2="568.1" y2="155.3"/>
<polyline class="st1" points="557.8,137.6 556.2,137.6 556.2,137.8 557.8,137.8 557.8,137.6 "/>
<polyline class="st1" points="557.8,143.9 556.2,143.9 556.2,143.7 557.8,143.7 557.8,143.9 "/>
<line class="st1" x1="555.4" y1="125.8" x2="555.4" y2="155.3"/>
<line class="st1" x1="566.4" y1="127.6" x2="568.1" y2="125.8"/>
<polyline class="st1" points="557,127.6 555.4,125.8 568.1,125.8 568.1,155.3 "/>
<polyline class="st1" points="554.6,155.3 554.6,125.1 568.8,125.1 568.8,155.3 "/>
<path class="st1" d="M559.4,129.3"/>
<path class="st1" d="M558.8,129.9"/>
<path class="st1" d="M561,129.3"/>
<path class="st1" d="M558.8,131.4"/>
<line class="st1" x1="564.7" y1="152.8" x2="564.7" y2="152.8"/>
<line class="st1" x1="564.7" y1="152.8" x2="564.7" y2="152.8"/>
<polyline class="st1" points="564.7,152.8 564.7,129.3 558.8,129.3 558.8,152.8 564.7,152.8 "/>
<polyline class="st1" points="545.4,125.8 553.9,125.8 553.9,154.6 545.4,154.6 "/>
<line class="st1" x1="553.9" y1="154.6" x2="553.9" y2="154.6"/>
<line class="st1" x1="553.9" y1="154.6" x2="553.9" y2="154.6"/>
<polyline class="st1" points="553.9,154.6 553.9,125.8 545.4,125.8 545.4,154.6 553.9,154.6 "/>
<line class="st1" x1="412.2" y1="103.8" x2="412.2" y2="134.1"/>
<line class="st1" x1="411.5" y1="104.6" x2="411.5" y2="134.1"/>
<line class="st1" x1="398.1" y1="134.1" x2="412.2" y2="134.1"/>
<polyline class="st1" points="409.8,106.2 400.5,106.2 400.5,133.4 409.8,133.4 409.8,106.2 "/>
<polyline class="st1" points="409,114.8 408.6,114.8 408.6,124.2 409,124.2 409,114.8 "/>
<line class="st1" x1="411.5" y1="134.1" x2="398.7" y2="134.1"/>
<line class="st1" x1="411.5" y1="134.1" x2="411.5" y2="134.1"/>
<polyline class="st1" points="409,116.3 410.7,116.3 410.7,116.6 409,116.6 409,116.3 "/>
<polyline class="st1" points="409,122.7 410.7,122.7 410.7,122.4 409,122.4 409,122.7 "/>
<line class="st1" x1="398.7" y1="104.6" x2="398.7" y2="134.1"/>
<line class="st1" x1="409.8" y1="106.2" x2="411.5" y2="104.6"/>
<polyline class="st1" points="400.5,106.2 398.7,104.6 411.5,104.6 411.5,134.1 "/>
<polyline class="st1" points="398.1,134.1 398.1,103.8 412.2,103.8 412.2,134.1 "/>
<polyline class="st1" points="414.3,134.1 413.5,134.1 413.5,157.5 414.3,157.5 414.3,134.1 "/>
<polyline class="st1" points="413.5,122 414.3,122 414.3,134.1 413.5,134.1 413.5,122 "/>
<polyline class="st1" points="413.5,136.5 396.6,136.5 396.6,137 413.5,137 413.5,136.5 "/>
<polyline class="st1" points="413.5,138.9 396.6,138.9 396.6,139.5 413.5,139.5 413.5,138.9 "/>
<polyline class="st1" points="413.5,141.3 396.6,141.3 396.6,141.9 413.5,141.9 413.5,141.3 "/>
<polyline class="st1" points="413.5,143.7 396.6,143.7 396.6,144.3 413.5,144.3 413.5,143.7 "/>
<polyline class="st1" points="413.5,146.1 396.6,146.1 396.6,146.7 413.5,146.7 413.5,146.1 "/>
<polyline class="st1" points="413.5,148.5 396.6,148.5 396.6,149.1 413.5,149.1 413.5,148.5 "/>
<polyline class="st1" points="413.5,150.9 396.6,150.9 396.6,151.5 413.5,151.5 413.5,150.9 "/>
<polyline class="st1" points="413.5,153.3 396.6,153.3 396.6,153.9 413.5,153.9 413.5,153.3 "/>
<polyline class="st1" points="413.5,155.7 396.6,155.7 396.6,156.3 413.5,156.3 413.5,155.7 "/>
<polyline class="st1" points="442,81.1 433.5,81.1 433.5,62 442,62 442,81.1 "/>
<polyline class="st1" points="441.2,80.3 434.2,80.3 434.2,62.7 441.2,62.7 441.2,80.3 "/>
<polyline class="st1" points="440,79.2 435.2,79.2 435.2,63.8 440,63.8 440,79.2 "/>
<polyline class="st1" points="412.2,81.1 398.1,81.1 398.1,62 412.2,62 412.2,81.1 "/>
<polyline class="st1" points="411.5,80.3 398.7,80.3 398.7,62.7 411.5,62.7 411.5,80.3 "/>
<polyline class="st1" points="410.3,79.2 399.9,79.2 399.9,63.8 410.3,63.8 410.3,79.2 "/>
<polyline class="st1" points="463.2,81.1 454.7,81.1 454.7,62 463.2,62 463.2,81.1 "/>
<polyline class="st1" points="462.5,80.3 455.4,80.3 455.4,62.7 462.5,62.7 462.5,80.3 "/>
<polyline class="st1" points="461.4,79.2 456.5,79.2 456.5,63.8 461.4,63.8 461.4,79.2 "/>
<polyline class="st1" points="483.7,80.3 476.6,80.3 476.6,62.7 483.7,62.7 483.7,80.3 "/>
<polyline class="st1" points="482.6,79.2 477.9,79.2 477.9,63.8 482.6,63.8 482.6,79.2 "/>
<polyline class="st1" points="442,121.5 433.5,121.5 433.5,102.3 442,102.3 442,121.5 "/>
<polyline class="st1" points="441.2,120.8 434.2,120.8 434.2,103 441.2,103 441.2,120.8 "/>
<polyline class="st1" points="440,119.6 435.2,119.6 435.2,104.1 440,104.1 440,119.6 "/>
<polyline class="st1" points="463.2,121.5 454.7,121.5 454.7,102.3 463.2,102.3 463.2,121.5 "/>
<polyline class="st1" points="462.5,120.8 455.4,120.8 455.4,103 462.5,103 462.5,120.8 "/>
<polyline class="st1" points="461.4,119.6 456.5,119.6 456.5,104.1 461.4,104.1 461.4,119.6 "/>
<polyline class="st1" points="483.7,120.8 476.6,120.8 476.6,103 483.7,103 483.7,120.8 "/>
<polyline class="st1" points="482.6,119.6 477.9,119.6 477.9,104.1 482.6,104.1 482.6,119.6 "/>
<line class="st1" x1="519.8" y1="103.8" x2="519.8" y2="134.1"/>
<line class="st1" x1="519.1" y1="104.6" x2="519.1" y2="134.1"/>
<line class="st1" x1="505.7" y1="134.1" x2="519.8" y2="134.1"/>
<polyline class="st1" points="517.5,106.2 508.1,106.2 508.1,133.4 517.5,133.4 517.5,106.2 "/>
<polyline class="st1" points="508.9,114.8 509.3,114.8 509.3,124.2 508.9,124.2 508.9,114.8 "/>
<line class="st1" x1="519.1" y1="134.1" x2="506.4" y2="134.1"/>
<line class="st1" x1="519.1" y1="134.1" x2="519.1" y2="134.1"/>
<polyline class="st1" points="508.9,116.3 507.2,116.3 507.2,116.6 508.9,116.6 508.9,116.3 "/>
<polyline class="st1" points="508.9,122.7 507.2,122.7 507.2,122.4 508.9,122.4 508.9,122.7 "/>
<line class="st1" x1="506.4" y1="104.6" x2="506.4" y2="134.1"/>
<line class="st1" x1="517.5" y1="106.2" x2="519.1" y2="104.6"/>
<polyline class="st1" points="508.1,106.2 506.4,104.6 519.1,104.6 519.1,134.1 "/>
<polyline class="st1" points="505.7,134.1 505.7,103.8 519.8,103.8 519.8,134.1 "/>
<polyline class="st1" points="504.2,122 503.5,122 503.5,134.1 504.2,134.1 504.2,122 "/>
<polyline class="st1" points="521.3,122 522,122 522,134.1 521.3,134.1 521.3,122 "/>
<polyline class="st1" points="521.3,136.5 504.2,136.5 504.2,137 521.3,137 521.3,136.5 "/>
<polyline class="st1" points="521.3,138.9 504.2,138.9 504.2,139.5 521.3,139.5 521.3,138.9 "/>
<polyline class="st1" points="521.3,141.3 504.2,141.3 504.2,141.9 521.3,141.9 521.3,141.3 "/>
<polyline class="st1" points="504.2,134.1 503.5,134.1 503.5,157.5 504.2,157.5 504.2,134.1 "/>
<polyline class="st1" points="522,134.1 521.3,134.1 521.3,157 522,157 522,134.1 "/>
<polyline class="st1" points="521.3,143.7 504.2,143.7 504.2,144.3 521.3,144.3 521.3,143.7 "/>
<polyline class="st1" points="519.1,80.3 506.4,80.3 506.4,62.7 519.1,62.7 519.1,80.3 "/>
<polyline class="st1" points="518,79.2 507.6,79.2 507.6,63.8 518,63.8 518,79.2 "/>
<polyline class="st1" points="521.3,146.1 504.2,146.1 504.2,146.7 521.3,146.7 521.3,146.1 "/>
<polyline class="st1" points="521.3,148.5 504.2,148.5 504.2,149.1 521.3,149.1 521.3,148.5 "/>
<polyline class="st1" points="521.3,150.9 504.2,150.9 504.2,151.5 521.3,151.5 521.3,150.9 "/>
<polyline class="st1" points="521.3,153.3 504.2,153.3 504.2,153.9 521.3,153.9 521.3,153.3 "/>
<polyline class="st1" points="521.3,155.7 504.2,155.7 504.2,156.3 521.3,156.3 521.3,155.7 "/>
<polyline class="st1" points="553.6,87.1 547.9,87.1 547.9,69.3 553.6,69.3 553.6,87.1 "/>
<polyline class="st1" points="552.4,85.8 549,85.8 549,70.4 552.4,70.4 552.4,85.8 "/>
<polyline class="st1" points="566.3,87.7 559.2,87.7 559.2,68.6 566.3,68.6 566.3,87.7 "/>
<polyline class="st1" points="565.6,87.1 559.9,87.1 559.9,69.3 565.6,69.3 565.6,87.1 "/>
<polyline class="st1" points="564.5,85.8 561,85.8 561,70.4 564.5,70.4 564.5,85.8 "/>
<polyline class="st1" points="606.7,146 589.7,146 589.7,157.2 606.7,157.2 606.7,146 "/>
<polyline class="st1" points="718.3,146 719.4,146 719.4,148.7 "/>
<line class="st1" x1="701.3" y1="103.8" x2="701.3" y2="134.1"/>
<line class="st1" x1="702" y1="104.6" x2="702" y2="134.1"/>
<line class="st1" x1="715.4" y1="134.1" x2="701.3" y2="134.1"/>
<polyline class="st1" points="703.7,106.2 713,106.2 713,133.4 703.7,133.4 703.7,106.2 "/>
<polyline class="st1" points="704.5,114.8 704.9,114.8 704.9,124.2 704.5,124.2 704.5,114.8 "/>
<polyline class="st1" points="711.2,111.9 711.2,108.1 705.3,108.1 705.3,131.6 711.2,131.6 711.2,120.3 "/>
<line class="st1" x1="702" y1="134.1" x2="714.7" y2="134.1"/>
<line class="st1" x1="702" y1="134.1" x2="702" y2="134.1"/>
<polyline class="st1" points="704.5,116.3 702.8,116.3 702.8,116.6 704.5,116.6 704.5,116.3 "/>
<polyline class="st1" points="704.5,122.7 702.8,122.7 702.8,122.4 704.5,122.4 704.5,122.7 "/>
<line class="st1" x1="714.7" y1="104.6" x2="714.7" y2="134.1"/>
<line class="st1" x1="703.7" y1="106.2" x2="702" y2="104.6"/>
<polyline class="st1" points="713,106.2 714.7,104.6 702,104.6 702,134.1 "/>
<polyline class="st1" points="715.4,134.1 715.4,103.8 701.3,103.8 701.3,134.1 "/>
<line class="st1" x1="705.3" y1="131.6" x2="705.3" y2="131.6"/>
<line class="st1" x1="705.3" y1="131.6" x2="705.3" y2="131.6"/>
<polyline class="st1" points="705.3,131.6 705.3,108.1 711.2,108.1 711.2,131.6 705.3,131.6 "/>
<polyline class="st1" points="699.1,134.1 699.8,134.1 699.8,157.7 699.1,157.7 699.1,134.1 "/>
<polyline class="st1" points="699.8,122 699.8,134.1 699.1,134.1 699.1,122 699.8,122 699.1,122 699.1,134.1 699.8,134.1 699.8,122 
	"/>
<polyline class="st1" points="716.9,136.5 699.8,136.5 699.8,137 716.9,137 716.9,136.5 "/>
<polyline class="st1" points="716.9,138.9 699.8,138.9 699.8,139.5 716.9,139.5 716.9,138.9 "/>
<polyline class="st1" points="699.8,141.3 716.9,141.3 716.9,141.9 699.8,141.9 699.8,141.3 "/>
<polyline class="st1" points="699.8,143.7 716.9,143.7 716.9,144.3 699.8,144.3 699.8,143.7 "/>
<polyline class="st1" points="699.8,146.1 716.9,146.1 716.9,146.7 699.8,146.7 699.8,146.1 "/>
<polyline class="st1" points="699.8,148.5 716.9,148.5 716.9,149.1 699.8,149.1 699.8,148.5 "/>
<polyline class="st1" points="699.8,150.9 716.9,150.9 716.9,151.5 699.8,151.5 699.8,150.9 "/>
<polyline class="st1" points="699.8,153.3 716.9,153.3 716.9,153.9 699.8,153.9 699.8,153.3 "/>
<polyline class="st1" points="699.8,155.7 716.9,155.7 716.9,156.3 699.8,156.3 699.8,155.7 "/>
<polyline class="st1" points="671.5,81.1 680,81.1 680,62 671.5,62 671.5,81.1 "/>
<polyline class="st1" points="672.2,80.3 679.3,80.3 679.3,62.7 672.2,62.7 672.2,80.3 "/>
<polyline class="st1" points="673.3,79.2 678.2,79.2 678.2,63.8 673.3,63.8 673.3,79.2 "/>
<polyline class="st1" points="701.3,81.1 715.4,81.1 715.4,62 701.3,62 701.3,81.1 "/>
<polyline class="st1" points="702,80.3 714.7,80.3 714.7,62.7 702,62.7 702,80.3 "/>
<polyline class="st1" points="703.1,79.2 713.6,79.2 713.6,63.8 703.1,63.8 703.1,79.2 "/>
<polyline class="st1" points="650.3,81.1 658.8,81.1 658.8,62 650.3,62 650.3,81.1 "/>
<polyline class="st1" points="651,80.3 658.1,80.3 658.1,62.7 651,62.7 651,80.3 "/>
<polyline class="st1" points="652.1,79.2 656.9,79.2 656.9,63.8 652.1,63.8 652.1,79.2 "/>
<polyline class="st1" points="629,81.1 637.5,81.1 637.5,62 629,62 629,81.1 "/>
<polyline class="st1" points="629.8,80.3 636.8,80.3 636.8,62.7 629.8,62.7 629.8,80.3 "/>
<polyline class="st1" points="630.8,79.2 635.6,79.2 635.6,63.8 630.8,63.8 630.8,79.2 "/>
<polyline class="st1" points="671.5,121.5 680,121.5 680,102.3 671.5,102.3 671.5,121.5 "/>
<polyline class="st1" points="672.2,120.8 679.3,120.8 679.3,103 672.2,103 672.2,120.8 "/>
<polyline class="st1" points="673.3,119.6 678.2,119.6 678.2,104.1 673.3,104.1 673.3,119.6 "/>
<polyline class="st1" points="650.3,121.5 658.8,121.5 658.8,102.3 650.3,102.3 650.3,121.5 "/>
<polyline class="st1" points="651,120.8 658.1,120.8 658.1,103 651,103 651,120.8 "/>
<polyline class="st1" points="652.1,119.6 656.9,119.6 656.9,104.1 652.1,104.1 652.1,119.6 "/>
<polyline class="st1" points="629,121.5 637.5,121.5 637.5,102.3 629,102.3 629,121.5 "/>
<polyline class="st1" points="629.8,120.8 636.8,120.8 636.8,103 629.8,103 629.8,120.8 "/>
<polyline class="st1" points="630.8,119.6 635.6,119.6 635.6,104.1 630.8,104.1 630.8,119.6 "/>
<line class="st1" x1="593.5" y1="103.8" x2="593.5" y2="134.1"/>
<line class="st1" x1="594.2" y1="104.6" x2="594.2" y2="134.1"/>
<line class="st1" x1="607.8" y1="134.1" x2="593.5" y2="134.1"/>
<polyline class="st1" points="596,106.2 605.3,106.2 605.3,133.4 596,133.4 596,106.2 "/>
<polyline class="st1" points="604.4,114.8 604.1,114.8 604.1,124.2 604.4,124.2 604.4,114.8 "/>
<line class="st1" x1="603.5" y1="115.2" x2="603.5" y2="113.4"/>
<polyline class="st1" points="603.5,111.9 603.5,108.1 597.7,108.1 597.7,131.6 603.5,131.6 603.5,120.3 "/>
<line class="st1" x1="594.2" y1="134.1" x2="607.1" y2="134.1"/>
<line class="st1" x1="594.2" y1="134.1" x2="594.2" y2="134.1"/>
<polyline class="st1" points="604.6,116.3 606.2,116.3 606.2,116.6 604.6,116.6 604.6,116.3 "/>
<polyline class="st1" points="604.6,122.7 606.2,122.7 606.2,122.4 604.6,122.4 604.6,122.7 "/>
<line class="st1" x1="607.1" y1="104.6" x2="607.1" y2="134.1"/>
<line class="st1" x1="596" y1="106.2" x2="594.2" y2="104.6"/>
<polyline class="st1" points="605.3,106.2 607.1,104.6 594.2,104.6 594.2,134.1 "/>
<polyline class="st1" points="607.8,134.1 607.8,103.8 593.5,103.8 593.5,134.1 "/>
<line class="st1" x1="597.7" y1="131.6" x2="597.7" y2="131.6"/>
<line class="st1" x1="597.7" y1="131.6" x2="597.7" y2="131.6"/>
<polyline class="st1" points="597.7,131.6 597.7,108.1 603.5,108.1 603.5,131.6 597.7,131.6 "/>
<polyline class="st1" points="609.1,122 609.8,122 609.8,134.1 609.1,134.1 609.1,122 "/>
<polyline class="st1" points="592.2,122 591.5,122 591.5,134.1 592.2,134.1 592.2,122 "/>
<polyline class="st1" points="592.2,136.5 609.1,136.5 609.1,137 592.2,137 592.2,136.5 "/>
<polyline class="st1" points="592.2,138.9 609.1,138.9 609.1,139.5 592.2,139.5 592.2,138.9 "/>
<polyline class="st1" points="592.2,141.3 609.1,141.3 609.1,141.9 592.2,141.9 592.2,141.3 "/>
<polyline class="st1" points="609.1,134.1 609.8,134.1 609.8,157.7 609.1,157.7 609.1,134.1 "/>
<polyline class="st1" points="591.5,134.1 592.2,134.1 592.2,157 591.5,157 591.5,134.1 "/>
<polyline class="st1" points="592.2,143.7 609.1,143.7 609.1,144.3 592.2,144.3 592.2,143.7 "/>
<polyline class="st1" points="593.5,81.1 607.8,81.1 607.8,62 593.5,62 593.5,81.1 "/>
<polyline class="st1" points="594.2,80.3 607.1,80.3 607.1,62.7 594.2,62.7 594.2,80.3 "/>
<polyline class="st1" points="595.4,79.2 605.9,79.2 605.9,63.8 595.4,63.8 595.4,79.2 "/>
<polyline class="st1" points="592.2,146.1 609.1,146.1 609.1,146.7 592.2,146.7 592.2,146.1 "/>
<polyline class="st1" points="592.2,148.5 609.1,148.5 609.1,149.1 592.2,149.1 592.2,148.5 "/>
<polyline class="st1" points="592.2,150.9 609.1,150.9 609.1,151.5 592.2,151.5 592.2,150.9 "/>
<polyline class="st1" points="592.2,153.3 609.1,153.3 609.1,153.9 592.2,153.9 592.2,153.3 "/>
<polyline class="st1" points="592.2,155.7 609.1,155.7 609.1,156.3 592.2,156.3 592.2,155.7 "/>
<polyline class="st1" points="535.4,157.5 535.4,155.3 578,155.3 578,157.5 "/>
<line class="st1" x1="737.4" y1="137.6" x2="737.4" y2="157.8"/>
<polyline class="st1" points="41.5,122 40.7,122 40.7,136 41.5,136 41.5,122 "/>
<polyline class="st1" points="63,122 63.8,122 63.8,136 63,136 63,122 "/>
<path class="st1" d="M152.3,134.1"/>
<line class="st1" x1="152.8" y1="120.9" x2="152.8" y2="103.8"/>
<line class="st1" x1="167" y1="112.6" x2="167" y2="129.6"/>
<line class="st1" x1="152.8" y1="103.8" x2="157" y2="103.8"/>
<line class="st1" x1="167" y1="110.1" x2="167" y2="112.6"/>
<line class="st1" x1="157" y1="103.8" x2="167" y2="103.8"/>
<line class="st1" x1="167" y1="103.8" x2="167" y2="110.1"/>
<line class="st1" x1="152.8" y1="120.9" x2="152.8" y2="103.8"/>
<line class="st1" x1="167" y1="112.6" x2="167" y2="129.6"/>
<line class="st1" x1="152.8" y1="103.8" x2="157" y2="103.8"/>
<line class="st1" x1="167" y1="110.1" x2="167" y2="112.6"/>
<line class="st1" x1="157" y1="103.8" x2="167" y2="103.8"/>
<line class="st1" x1="167" y1="103.8" x2="167" y2="110.1"/>
<polyline class="st1" points="170.8,122 171.4,122 171.4,136 170.8,136 170.8,122 "/>
<polyline class="st1" points="149.1,122 148.4,122 148.4,136 149.1,136 149.1,122 "/>
<path class="st1" d="M240.8,134.4"/>
<path class="st1" d="M240.3,134.9"/>
<path class="st1" d="M254.9,134.3"/>
<path class="st1" d="M255.4,134.9"/>
<line class="st1" x1="240.8" y1="121.7" x2="240.8" y2="104.7"/>
<line class="st1" x1="254.9" y1="113.4" x2="254.9" y2="130.5"/>
<line class="st1" x1="240.8" y1="104.7" x2="244.8" y2="104.7"/>
<line class="st1" x1="254.9" y1="110.9" x2="254.9" y2="113.4"/>
<line class="st1" x1="244.8" y1="104.7" x2="254.9" y2="104.7"/>
<line class="st1" x1="254.9" y1="104.7" x2="254.9" y2="110.9"/>
<line class="st1" x1="240.8" y1="121.7" x2="240.8" y2="104.7"/>
<line class="st1" x1="254.9" y1="113.4" x2="254.9" y2="130.5"/>
<line class="st1" x1="240.8" y1="104.7" x2="244.8" y2="104.7"/>
<line class="st1" x1="254.9" y1="110.9" x2="254.9" y2="113.4"/>
<line class="st1" x1="244.8" y1="104.7" x2="254.9" y2="104.7"/>
<line class="st1" x1="254.9" y1="104.7" x2="254.9" y2="110.9"/>
<line class="st1" x1="191.6" y1="155.3" x2="191.8" y2="155.1"/>
<path class="st1" d="M217.6,155.3"/>
<path class="st1" d="M215.9,155"/>
<path class="st1" d="M216.3,155.3"/>
<polyline class="st1" points="218.1,155.3 215.9,155.3 215.9,154 "/>
<line class="st1" x1="191.8" y1="139" x2="191.8" y2="125.1"/>
<line class="st1" x1="215.9" y1="140.1" x2="215.9" y2="154"/>
<line class="st1" x1="191.8" y1="125.1" x2="196.6" y2="125.1"/>
<line class="st1" x1="215.9" y1="137.1" x2="215.9" y2="140.1"/>
<line class="st1" x1="196.6" y1="125.1" x2="215.9" y2="125.1"/>
<line class="st1" x1="215.9" y1="125.1" x2="215.9" y2="137.1"/>
<polyline class="st1" points="218.1,155.3 215.9,155.3 215.9,154 "/>
<line class="st1" x1="191.8" y1="139" x2="191.8" y2="125.1"/>
<line class="st1" x1="215.9" y1="140.1" x2="215.9" y2="154"/>
<line class="st1" x1="191.8" y1="125.1" x2="196.6" y2="125.1"/>
<line class="st1" x1="215.9" y1="137.1" x2="215.9" y2="140.1"/>
<line class="st1" x1="196.6" y1="125.1" x2="215.9" y2="125.1"/>
<line class="st1" x1="215.9" y1="125.1" x2="215.9" y2="137.1"/>
<path class="st1" d="M179.4,138.4"/>
<path class="st1" d="M178.7,138.4"/>
<path class="st1" d="M178,138.4"/>
<path class="st1" d="M169.5,138.4"/>
<path class="st1" d="M168.8,138.4"/>
<path class="st1" d="M151.7,138.4"/>
<path class="st1" d="M151.1,138.4"/>
<path class="st1" d="M150.4,138.4"/>
<path class="st1" d="M61.7,138.4"/>
<path class="st1" d="M61.1,138.4"/>
<path class="st1" d="M44.1,138.4"/>
<path class="st1" d="M43.4,138.4"/>
<path class="st1" d="M179.4,137"/>
<path class="st1" d="M178.7,137"/>
<path class="st1" d="M178,137"/>
<path class="st1" d="M177.3,137"/>
<path class="st1" d="M170.9,137"/>
<path class="st1" d="M170.2,137"/>
<path class="st1" d="M169.5,137"/>
<path class="st1" d="M168.8,137"/>
<line class="st1" x1="168" y1="137" x2="168" y2="137"/>
<line class="st1" x1="167.3" y1="137" x2="167.3" y2="137"/>
<line class="st1" x1="166.6" y1="137" x2="166.6" y2="137"/>
<line class="st1" x1="166" y1="137" x2="166" y2="137"/>
<line class="st1" x1="165.3" y1="137" x2="165.3" y2="137"/>
<line class="st1" x1="164.6" y1="137" x2="164.6" y2="137"/>
<line class="st1" x1="163.8" y1="137" x2="163.8" y2="137"/>
<line class="st1" x1="163.1" y1="137" x2="163.1" y2="137"/>
<line class="st1" x1="162.4" y1="137" x2="162.4" y2="137"/>
<line class="st1" x1="161.7" y1="137" x2="161.7" y2="137"/>
<line class="st1" x1="161" y1="137" x2="161" y2="137"/>
<line class="st1" x1="160.2" y1="137" x2="160.2" y2="137"/>
<line class="st1" x1="159.5" y1="137" x2="159.5" y2="137"/>
<line class="st1" x1="158.9" y1="137" x2="158.9" y2="137"/>
<line class="st1" x1="158.2" y1="137" x2="158.2" y2="137"/>
<line class="st1" x1="157.5" y1="137" x2="157.5" y2="137"/>
<line class="st1" x1="156.8" y1="137" x2="156.8" y2="137"/>
<line class="st1" x1="156" y1="137" x2="156" y2="137"/>
<line class="st1" x1="155.3" y1="137" x2="155.3" y2="137"/>
<line class="st1" x1="154.6" y1="137" x2="154.6" y2="137"/>
<line class="st1" x1="153.9" y1="137" x2="153.9" y2="137"/>
<line class="st1" x1="153.2" y1="137" x2="153.2" y2="137"/>
<line class="st1" x1="152.4" y1="137" x2="152.4" y2="137"/>
<line class="st1" x1="151.7" y1="137" x2="151.7" y2="137"/>
<path class="st1" d="M151.1,137"/>
<path class="st1" d="M150.4,137"/>
<path class="st1" d="M149.7,137"/>
<path class="st1" d="M62.5,137"/>
<path class="st1" d="M61.7,137"/>
<path class="st1" d="M61.1,137"/>
<line class="st1" x1="60.4" y1="137" x2="60.4" y2="137"/>
<line class="st1" x1="59.7" y1="137" x2="59.7" y2="137"/>
<line class="st1" x1="59" y1="137" x2="59" y2="137"/>
<line class="st1" x1="58.2" y1="137" x2="58.2" y2="137"/>
<line class="st1" x1="57.5" y1="137" x2="57.5" y2="137"/>
<line class="st1" x1="56.8" y1="137" x2="56.8" y2="137"/>
<line class="st1" x1="56.1" y1="137" x2="56.1" y2="137"/>
<line class="st1" x1="55.4" y1="137" x2="55.4" y2="137"/>
<line class="st1" x1="54.7" y1="137" x2="54.7" y2="137"/>
<line class="st1" x1="54" y1="137" x2="54" y2="137"/>
<line class="st1" x1="53.3" y1="137" x2="53.3" y2="137"/>
<line class="st1" x1="52.6" y1="137" x2="52.6" y2="137"/>
<line class="st1" x1="51.9" y1="137" x2="51.9" y2="137"/>
<line class="st1" x1="51.2" y1="137" x2="51.2" y2="137"/>
<line class="st1" x1="50.5" y1="137" x2="50.5" y2="137"/>
<line class="st1" x1="49.7" y1="137" x2="49.7" y2="137"/>
<line class="st1" x1="49" y1="137" x2="49" y2="137"/>
<line class="st1" x1="48.3" y1="137" x2="48.3" y2="137"/>
<line class="st1" x1="47.6" y1="137" x2="47.6" y2="137"/>
<line class="st1" x1="46.9" y1="137" x2="46.9" y2="137"/>
<line class="st1" x1="46.3" y1="137" x2="46.3" y2="137"/>
<line class="st1" x1="45.5" y1="137" x2="45.5" y2="137"/>
<line class="st1" x1="44.8" y1="137" x2="44.8" y2="137"/>
<line class="st1" x1="44.1" y1="137" x2="44.1" y2="137"/>
<path class="st1" d="M43.4,137"/>
<path class="st1" d="M42.7,137"/>
<path class="st1" d="M41.9,137"/>
<path class="st1" d="M23.6,137"/>
<line class="st1" x1="22.5" y1="137" x2="22.5" y2="137"/>
<path class="st1" d="M396.3,137.6"/>
<path class="st1" d="M366.5,137.6"/>
<path class="st1" d="M365.8,137.6"/>
<path class="st1" d="M365.1,137.6"/>
<line class="st1" x1="363.6" y1="137.6" x2="363.6" y2="137.6"/>
<line class="st1" x1="362.9" y1="137.6" x2="362.9" y2="137.6"/>
<line class="st1" x1="362.2" y1="137.6" x2="362.2" y2="137.6"/>
<line class="st1" x1="361.5" y1="137.6" x2="361.5" y2="137.6"/>
<line class="st1" x1="360.9" y1="137.6" x2="360.9" y2="137.6"/>
<line class="st1" x1="360.1" y1="137.6" x2="360.1" y2="137.6"/>
<line class="st1" x1="359.4" y1="137.6" x2="359.4" y2="137.6"/>
<line class="st1" x1="358.7" y1="137.6" x2="358.7" y2="137.6"/>
<line class="st1" x1="358" y1="137.6" x2="358" y2="137.6"/>
<line class="st1" x1="357.3" y1="137.6" x2="357.3" y2="137.6"/>
<line class="st1" x1="356.5" y1="137.6" x2="356.5" y2="137.6"/>
<line class="st1" x1="355.8" y1="137.6" x2="355.8" y2="137.6"/>
<line class="st1" x1="355.1" y1="137.6" x2="355.1" y2="137.6"/>
<line class="st1" x1="354.4" y1="137.6" x2="354.4" y2="137.6"/>
<line class="st1" x1="353.7" y1="137.6" x2="353.7" y2="137.6"/>
<line class="st1" x1="353.1" y1="137.6" x2="353.1" y2="137.6"/>
<line class="st1" x1="352.3" y1="137.6" x2="352.3" y2="137.6"/>
<line class="st1" x1="351.6" y1="137.6" x2="351.6" y2="137.6"/>
<line class="st1" x1="350.9" y1="137.6" x2="350.9" y2="137.6"/>
<line class="st1" x1="350.2" y1="137.6" x2="350.2" y2="137.6"/>
<line class="st1" x1="349.5" y1="137.6" x2="349.5" y2="137.6"/>
<line class="st1" x1="348.7" y1="137.6" x2="348.7" y2="137.6"/>
<line class="st1" x1="348" y1="137.6" x2="348" y2="137.6"/>
<line class="st1" x1="347.3" y1="137.6" x2="347.3" y2="137.6"/>
<path class="st1" d="M346.6,137.6"/>
<path class="st1" d="M346,137.6"/>
<path class="st1" d="M345.3,137.6"/>
<path class="st1" d="M258.8,137.6"/>
<path class="st1" d="M258,137.6"/>
<path class="st1" d="M257.3,137.6"/>
<path class="st1" d="M256.6,137.6"/>
<path class="st1" d="M256,137.6"/>
<line class="st1" x1="255.3" y1="137.6" x2="255.3" y2="137.6"/>
<line class="st1" x1="254.6" y1="137.6" x2="254.6" y2="137.6"/>
<line class="st1" x1="253.8" y1="137.6" x2="253.8" y2="137.6"/>
<line class="st1" x1="253.1" y1="137.6" x2="253.1" y2="137.6"/>
<line class="st1" x1="252.4" y1="137.6" x2="252.4" y2="137.6"/>
<line class="st1" x1="251.7" y1="137.6" x2="251.7" y2="137.6"/>
<line class="st1" x1="250.9" y1="137.6" x2="250.9" y2="137.6"/>
<line class="st1" x1="250.2" y1="137.6" x2="250.2" y2="137.6"/>
<line class="st1" x1="249.5" y1="137.6" x2="249.5" y2="137.6"/>
<line class="st1" x1="248.8" y1="137.6" x2="248.8" y2="137.6"/>
<line class="st1" x1="248.2" y1="137.6" x2="248.2" y2="137.6"/>
<line class="st1" x1="247.5" y1="137.6" x2="247.5" y2="137.6"/>
<line class="st1" x1="246.8" y1="137.6" x2="246.8" y2="137.6"/>
<line class="st1" x1="246" y1="137.6" x2="246" y2="137.6"/>
<line class="st1" x1="245.3" y1="137.6" x2="245.3" y2="137.6"/>
<line class="st1" x1="244.6" y1="137.6" x2="244.6" y2="137.6"/>
<line class="st1" x1="243.9" y1="137.6" x2="243.9" y2="137.6"/>
<line class="st1" x1="243.1" y1="137.6" x2="243.1" y2="137.6"/>
<line class="st1" x1="242.4" y1="137.6" x2="242.4" y2="137.6"/>
<line class="st1" x1="241.7" y1="137.6" x2="241.7" y2="137.6"/>
<line class="st1" x1="241.1" y1="137.6" x2="241.1" y2="137.6"/>
<line class="st1" x1="240.4" y1="137.6" x2="240.4" y2="137.6"/>
<line class="st1" x1="239.7" y1="137.6" x2="239.7" y2="137.6"/>
<path class="st1" d="M239,137.6"/>
<path class="st1" d="M238.2,137.6"/>
<path class="st1" d="M237.5,137.6"/>
<path class="st1" d="M236.8,137.6"/>
<path class="st1" d="M522.4,137.6"/>
<path class="st1" d="M503.9,137.6"/>
<path class="st1" d="M503.3,137.6"/>
<path class="st1" d="M501.1,137.6"/>
<path class="st1" d="M424.6,137.6"/>
<path class="st1" d="M423.9,137.6"/>
<path class="st1" d="M423.1,137.6"/>
<path class="st1" d="M422.4,137.6"/>
<path class="st1" d="M414.6,137.6"/>
<path class="st1" d="M413.9,137.6"/>
<path class="st1" d="M413.3,137.6"/>
<path class="st1" d="M397,136.1"/>
<path class="st1" d="M396.3,136.1"/>
<path class="st1" d="M395.5,136.1"/>
<path class="st1" d="M394.8,136.1"/>
<path class="st1" d="M394.1,136.1"/>
<path class="st1" d="M367.2,136.1"/>
<path class="st1" d="M366.5,136.1"/>
<path class="st1" d="M365.8,136.1"/>
<path class="st1" d="M365.1,136.1"/>
<path class="st1" d="M346,136.1"/>
<path class="st1" d="M345.3,136.1"/>
<path class="st1" d="M258.8,136.1"/>
<path class="st1" d="M258,136.1"/>
<path class="st1" d="M257.3,136.1"/>
<path class="st1" d="M256.6,136.1"/>
<path class="st1" d="M256,136.1"/>
<path class="st1" d="M239.7,136.1"/>
<path class="st1" d="M239,136.1"/>
<path class="st1" d="M238.2,136.1"/>
<path class="st1" d="M237.5,136.1"/>
<path class="st1" d="M236.8,136.1"/>
<path class="st1" d="M236.1,136.1"/>
<path class="st1" d="M524.5,136.1"/>
<path class="st1" d="M523.8,136.1"/>
<path class="st1" d="M523.1,136.1"/>
<path class="st1" d="M522.4,136.1"/>
<path class="st1" d="M521.7,136.1"/>
<path class="st1" d="M504.6,136.1"/>
<path class="st1" d="M503.9,136.1"/>
<path class="st1" d="M503.3,136.1"/>
<path class="st1" d="M502.6,136.1"/>
<path class="st1" d="M501.9,136.1"/>
<path class="st1" d="M501.1,136.1"/>
<path class="st1" d="M424.6,136.1"/>
<path class="st1" d="M423.1,136.1"/>
<path class="st1" d="M422.4,136.1"/>
<path class="st1" d="M417.5,136.1"/>
<path class="st1" d="M416.8,136.1"/>
<path class="st1" d="M416.1,136.1"/>
<path class="st1" d="M414.6,136.1"/>
<path class="st1" d="M413.9,136.1"/>
<path class="st1" d="M413.3,136.1"/>
<path class="st1" d="M362.5,111.3"/>
<path class="st1" d="M362.5,112.2"/>
<path class="st1" d="M362.5,113.2"/>
<path class="st1" d="M362.5,114.3"/>
<path class="st1" d="M362.5,115.2"/>
<path class="st1" d="M362.5,116.2"/>
<path class="st1" d="M362.5,117.3"/>
<path class="st1" d="M362.5,118.2"/>
<path class="st1" d="M362.5,119.2"/>
<path class="st1" d="M362.5,120.3"/>
<path class="st1" d="M362.5,121.2"/>
<path class="st1" d="M362.5,122.2"/>
<path class="st1" d="M362.5,123.3"/>
<path class="st1" d="M362.5,124.2"/>
<path class="st1" d="M362.5,125.2"/>
<path class="st1" d="M362.5,126.3"/>
<path class="st1" d="M362.5,127.2"/>
<path class="st1" d="M362.5,128.2"/>
<path class="st1" d="M362.5,129.3"/>
<path class="st1" d="M362.5,130.2"/>
<path class="st1" d="M362.5,131.3"/>
<path class="st1" d="M362.5,132.3"/>
<path class="st1" d="M362.5,133.2"/>
<path class="st1" d="M362.5,134.3"/>
<path class="st1" d="M362.9,134.9"/>
<path class="st1" d="M364,134.9"/>
<path class="st1" d="M364.9,134.9"/>
<path class="st1" d="M366,134.9"/>
<path class="st1" d="M367,134.9"/>
<path class="st1" d="M362.5,129.5"/>
<path class="st1" d="M362.5,128.7"/>
<path class="st1" d="M362.5,128"/>
<path class="st1" d="M362.5,127.1"/>
<path class="st1" d="M362.5,126.3"/>
<path class="st1" d="M362.5,125.4"/>
<path class="st1" d="M362.5,124.7"/>
<path class="st1" d="M362.5,123.9"/>
<path class="st1" d="M362.5,123.1"/>
<path class="st1" d="M362.5,122.3"/>
<path class="st1" d="M362.5,121.5"/>
<path class="st1" d="M362.5,120.7"/>
<path class="st1" d="M362.5,119.9"/>
<path class="st1" d="M362.5,119.1"/>
<path class="st1" d="M362.5,118.2"/>
<path class="st1" d="M362.5,117.5"/>
<path class="st1" d="M362.5,116.7"/>
<path class="st1" d="M362.5,115.8"/>
<path class="st1" d="M362.5,115.1"/>
<path class="st1" d="M362.5,114.3"/>
<path class="st1" d="M362.5,113.4"/>
<path class="st1" d="M362.5,112.7"/>
<path class="st1" d="M362.5,111.9"/>
<path class="st1" d="M362.5,111.1"/>
<path class="st1" d="M362.5,110.3"/>
<path class="st1" d="M362.5,109.5"/>
<path class="st1" d="M362.5,108.7"/>
<path class="st1" d="M362.5,107.9"/>
<path class="st1" d="M362.5,107.1"/>
<path class="st1" d="M362.5,106.2"/>
<path class="st1" d="M362.5,105.4"/>
<line class="st1" x1="362.5" y1="134.9" x2="362.5" y2="130.5"/>
<line class="st1" x1="348.4" y1="121.7" x2="348.4" y2="104.7"/>
<line class="st1" x1="362.5" y1="113.4" x2="362.5" y2="130.5"/>
<line class="st1" x1="348.4" y1="104.7" x2="352.6" y2="104.7"/>
<line class="st1" x1="362.5" y1="110.9" x2="362.5" y2="113.4"/>
<line class="st1" x1="352.6" y1="104.7" x2="362.5" y2="104.7"/>
<line class="st1" x1="362.5" y1="104.7" x2="362.5" y2="110.9"/>
<line class="st1" x1="362.5" y1="134.9" x2="362.5" y2="130.5"/>
<line class="st1" x1="348.4" y1="121.7" x2="348.4" y2="104.7"/>
<line class="st1" x1="362.5" y1="113.4" x2="362.5" y2="130.5"/>
<line class="st1" x1="348.4" y1="104.7" x2="352.6" y2="104.7"/>
<line class="st1" x1="362.5" y1="110.9" x2="362.5" y2="113.4"/>
<line class="st1" x1="352.6" y1="104.7" x2="362.5" y2="104.7"/>
<line class="st1" x1="362.5" y1="104.7" x2="362.5" y2="110.9"/>
<polyline class="st1" points="413.5,122 414.3,122 414.3,134.1 413.5,134.1 413.5,122 "/>
<path class="st1" d="M398.1,132.5"/>
<path class="st1" d="M396.5,134.1"/>
<path class="st1" d="M398.1,133.6"/>
<path class="st1" d="M412.2,131.1"/>
<path class="st1" d="M412.2,130.2"/>
<path class="st1" d="M415.9,134.1"/>
<path class="st1" d="M412.2,129.4"/>
<path class="st1" d="M416.8,134.1"/>
<path class="st1" d="M412.2,128.7"/>
<path class="st1" d="M417.6,134.1"/>
<line class="st1" x1="398.1" y1="120.9" x2="398.1" y2="103.8"/>
<line class="st1" x1="412.2" y1="112.6" x2="412.2" y2="129.6"/>
<line class="st1" x1="398.1" y1="103.8" x2="402.1" y2="103.8"/>
<line class="st1" x1="412.2" y1="110.1" x2="412.2" y2="112.6"/>
<line class="st1" x1="402.1" y1="103.8" x2="412.2" y2="103.8"/>
<line class="st1" x1="412.2" y1="103.8" x2="412.2" y2="110.1"/>
<line class="st1" x1="398.1" y1="120.9" x2="398.1" y2="103.8"/>
<line class="st1" x1="412.2" y1="112.6" x2="412.2" y2="129.6"/>
<line class="st1" x1="398.1" y1="103.8" x2="402.1" y2="103.8"/>
<line class="st1" x1="412.2" y1="110.1" x2="412.2" y2="112.6"/>
<line class="st1" x1="402.1" y1="103.8" x2="412.2" y2="103.8"/>
<line class="st1" x1="412.2" y1="103.8" x2="412.2" y2="110.1"/>
<polygon class="st1" points="396.6,134.1 396.6,121.7 396,121.7 396,134.1 395.9,134.1 395.9,157 396.6,157 396.6,134.1 "/>
<line class="st1" x1="544.4" y1="155.3" x2="544.7" y2="155.1"/>
<line class="st1" x1="569.2" y1="155.3" x2="568.8" y2="155"/>
<polyline class="st1" points="570.8,155.3 568.8,155.3 568.8,154 "/>
<line class="st1" x1="544.7" y1="139" x2="544.7" y2="125.1"/>
<line class="st1" x1="568.8" y1="140.1" x2="568.8" y2="154"/>
<line class="st1" x1="544.7" y1="125.1" x2="549.4" y2="125.1"/>
<line class="st1" x1="568.8" y1="137.1" x2="568.8" y2="140.1"/>
<line class="st1" x1="549.4" y1="125.1" x2="568.8" y2="125.1"/>
<line class="st1" x1="568.8" y1="125.1" x2="568.8" y2="137.1"/>
<polyline class="st1" points="570.8,155.3 568.8,155.3 568.8,154 "/>
<line class="st1" x1="544.7" y1="139" x2="544.7" y2="125.1"/>
<line class="st1" x1="568.8" y1="140.1" x2="568.8" y2="154"/>
<line class="st1" x1="544.7" y1="125.1" x2="549.4" y2="125.1"/>
<line class="st1" x1="568.8" y1="137.1" x2="568.8" y2="140.1"/>
<line class="st1" x1="549.4" y1="125.1" x2="568.8" y2="125.1"/>
<line class="st1" x1="568.8" y1="125.1" x2="568.8" y2="137.1"/>
<polyline class="st1" points="523.5,134.1 502.2,134.1 502.2,136.9 523.5,136.9 523.5,134.1 "/>
<line class="st1" x1="505.7" y1="120.9" x2="505.7" y2="103.8"/>
<line class="st1" x1="519.8" y1="112.6" x2="519.8" y2="129.6"/>
<line class="st1" x1="505.7" y1="103.8" x2="509.9" y2="103.8"/>
<line class="st1" x1="519.8" y1="110.1" x2="519.8" y2="112.6"/>
<line class="st1" x1="509.9" y1="103.8" x2="519.8" y2="103.8"/>
<line class="st1" x1="519.8" y1="103.8" x2="519.8" y2="110.1"/>
<line class="st1" x1="505.7" y1="120.9" x2="505.7" y2="103.8"/>
<line class="st1" x1="519.8" y1="112.6" x2="519.8" y2="129.6"/>
<line class="st1" x1="505.7" y1="103.8" x2="509.9" y2="103.8"/>
<line class="st1" x1="519.8" y1="110.1" x2="519.8" y2="112.6"/>
<line class="st1" x1="509.9" y1="103.8" x2="519.8" y2="103.8"/>
<line class="st1" x1="519.8" y1="103.8" x2="519.8" y2="110.1"/>
<polyline class="st1" points="611.3,134.1 590,134.1 590,136.9 611.3,136.9 611.3,134.1 "/>
<path class="st1" d="M593.5,133.6"/>
<path class="st1" d="M593,134.1"/>
<line class="st1" x1="608.3" y1="134.1" x2="607.8" y2="133.5"/>
<path class="st1" d="M607.8,127"/>
<line class="st1" x1="607.8" y1="134.1" x2="607.8" y2="129.6"/>
<line class="st1" x1="593.5" y1="120.9" x2="593.5" y2="103.8"/>
<line class="st1" x1="607.8" y1="112.6" x2="607.8" y2="129.6"/>
<line class="st1" x1="593.5" y1="103.8" x2="597.7" y2="103.8"/>
<line class="st1" x1="607.8" y1="110.1" x2="607.8" y2="112.6"/>
<line class="st1" x1="597.7" y1="103.8" x2="607.8" y2="103.8"/>
<line class="st1" x1="607.8" y1="103.8" x2="607.8" y2="110.1"/>
<line class="st1" x1="607.8" y1="134.1" x2="607.8" y2="129.6"/>
<line class="st1" x1="593.5" y1="120.9" x2="593.5" y2="103.8"/>
<line class="st1" x1="607.8" y1="112.6" x2="607.8" y2="129.6"/>
<line class="st1" x1="593.5" y1="103.8" x2="597.7" y2="103.8"/>
<line class="st1" x1="607.8" y1="110.1" x2="607.8" y2="112.6"/>
<line class="st1" x1="597.7" y1="103.8" x2="607.8" y2="103.8"/>
<line class="st1" x1="607.8" y1="103.8" x2="607.8" y2="110.1"/>
<polyline class="st1" points="719,134.1 697.8,134.1 697.8,136.9 719,136.9 719,134.1 "/>
<line class="st1" x1="701.3" y1="120.9" x2="701.3" y2="103.8"/>
<line class="st1" x1="715.4" y1="112.6" x2="715.4" y2="129.6"/>
<line class="st1" x1="701.3" y1="103.8" x2="705.3" y2="103.8"/>
<line class="st1" x1="715.4" y1="110.1" x2="715.4" y2="112.6"/>
<line class="st1" x1="705.3" y1="103.8" x2="715.4" y2="103.8"/>
<line class="st1" x1="715.4" y1="103.8" x2="715.4" y2="110.1"/>
<line class="st1" x1="701.3" y1="120.9" x2="701.3" y2="103.8"/>
<line class="st1" x1="715.4" y1="112.6" x2="715.4" y2="129.6"/>
<line class="st1" x1="701.3" y1="103.8" x2="705.3" y2="103.8"/>
<line class="st1" x1="715.4" y1="110.1" x2="715.4" y2="112.6"/>
<line class="st1" x1="705.3" y1="103.8" x2="715.4" y2="103.8"/>
<line class="st1" x1="715.4" y1="103.8" x2="715.4" y2="110.1"/>
<polygon class="st1" points="716.9,122 716.9,134.4 716.9,136.3 716.9,157.8 717.6,157.8 717.6,136.3 717.6,134.4 717.6,122 "/>
<polyline class="st1" points="170.6,134.1 149.3,134.1 149.3,136.9 170.6,136.9 170.6,134.1 "/>
<polyline class="st1" points="258.4,134.9 237.2,134.9 237.2,137.7 258.4,137.7 258.4,134.9 "/>
<polyline class="st1" points="366.1,134.9 344.9,134.9 344.9,137.7 366.1,137.7 366.1,134.9 "/>
<polyline class="st1" points="182.6,157.5 182.6,155.3 225.2,155.3 225.2,157.5 "/>
<path class="st1" d="M240.8,134.9"/>
<line class="st1" x1="254.2" y1="134.9" x2="241.4" y2="134.9"/>
<line class="st1" x1="254.2" y1="134.9" x2="254.2" y2="134.9"/>
<polyline class="st1" points="239.3,122.8 238.6,122.8 238.6,134.9 239.3,134.9 239.3,122.8 "/>
<polyline class="st1" points="256.2,122.8 257,122.8 257,134.9 256.2,134.9 256.2,122.8 "/>
<polyline class="st1" points="256.2,137.3 239.3,137.3 239.3,137.9 256.2,137.9 256.2,137.3 "/>
<polyline class="st1" points="256.2,139.7 239.3,139.7 239.3,140.3 256.2,140.3 256.2,139.7 "/>
<polyline class="st1" points="256.2,142.1 239.3,142.1 239.3,142.7 256.2,142.7 256.2,142.1 "/>
<polyline class="st1" points="239.3,134.9 238.6,134.9 238.6,157.5 239.3,157.5 239.3,134.9 "/>
<polyline class="st1" points="257,134.9 256.2,134.9 256.2,157.5 257,157.5 257,134.9 "/>
<polyline class="st1" points="256.2,144.5 239.3,144.5 239.3,145.1 256.2,145.1 256.2,144.5 "/>
<polyline class="st1" points="256.2,146.9 239.3,146.9 239.3,147.5 256.2,147.5 256.2,146.9 "/>
<polyline class="st1" points="256.2,149.3 239.3,149.3 239.3,149.9 256.2,149.9 256.2,149.3 "/>
<polyline class="st1" points="256.2,151.7 239.3,151.7 239.3,152.3 256.2,152.3 256.2,151.7 "/>
<polyline class="st1" points="256.2,154.1 239.3,154.1 239.3,154.7 256.2,154.7 256.2,154.1 "/>
<polyline class="st1" points="256.2,156.5 239.3,156.5 239.3,157.1 256.2,157.1 256.2,156.5 "/>
<path class="st1" d="M348.4,134.9"/>
<line class="st1" x1="361.8" y1="134.9" x2="349.1" y2="134.9"/>
<line class="st1" x1="361.8" y1="134.9" x2="361.8" y2="134.9"/>
<polyline class="st1" points="351.6,123.5 349.9,123.5 349.9,123.3 351.6,123.3 351.6,123.5 "/>
<polyline class="st1" points="346.9,122.8 346.2,122.8 346.2,134.9 346.9,134.9 346.9,122.8 "/>
<polyline class="st1" points="364,122.8 364.7,122.8 364.7,134.9 364,134.9 364,122.8 "/>
<polyline class="st1" points="364,137.3 346.9,137.3 346.9,137.9 364,137.9 364,137.3 "/>
<polyline class="st1" points="364,139.7 346.9,139.7 346.9,140.3 364,140.3 364,139.7 "/>
<polyline class="st1" points="364,142.1 346.9,142.1 346.9,142.7 364,142.7 364,142.1 "/>
<polyline class="st1" points="346.9,134.9 346.2,134.9 346.2,157.5 346.9,157.5 346.9,134.9 "/>
<polyline class="st1" points="364.7,134.9 364,134.9 364,157.5 364.7,157.5 364.7,134.9 "/>
<polyline class="st1" points="364,144.5 346.9,144.5 346.9,145.1 364,145.1 364,144.5 "/>
<polyline class="st1" points="364,146.9 346.9,146.9 346.9,147.5 364,147.5 364,146.9 "/>
<polyline class="st1" points="364,149.3 346.9,149.3 346.9,149.9 364,149.9 364,149.3 "/>
<polyline class="st1" points="364,151.7 346.9,151.7 346.9,152.3 364,152.3 364,151.7 "/>
<polyline class="st1" points="364,154.1 346.9,154.1 346.9,154.7 364,154.7 364,154.1 "/>
<polyline class="st1" points="364,156.5 346.9,156.5 346.9,157.1 364,157.1 364,156.5 "/>
<path class="st1" d="M717.9,137.6"/>
<path class="st1" d="M717.2,137.6"/>
<path class="st1" d="M700.2,137.6"/>
<path class="st1" d="M699.5,137.6"/>
<path class="st1" d="M698.8,137.6"/>
<path class="st1" d="M609.5,137.6"/>
<path class="st1" d="M591.8,137.6"/>
<path class="st1" d="M589.7,137.6"/>
<path class="st1" d="M589,137.6"/>
<path class="st1" d="M720.1,136.1"/>
<path class="st1" d="M719.4,136.1"/>
<path class="st1" d="M717.2,136.1"/>
<path class="st1" d="M716.5,136.1"/>
<path class="st1" d="M700.2,136.1"/>
<path class="st1" d="M699.5,136.1"/>
<path class="st1" d="M698.8,136.1"/>
<path class="st1" d="M698,136.1"/>
<path class="st1" d="M697.4,136.1"/>
<path class="st1" d="M696.7,136.1"/>
<path class="st1" d="M691,136.1"/>
<path class="st1" d="M612.4,136.1"/>
<path class="st1" d="M611.6,136.1"/>
<path class="st1" d="M610.9,136.1"/>
<path class="st1" d="M610.2,136.1"/>
<path class="st1" d="M609.5,136.1"/>
<path class="st1" d="M592.6,136.1"/>
<path class="st1" d="M591.8,136.1"/>
<path class="st1" d="M590.4,136.1"/>
<path class="st1" d="M589.7,136.1"/>
<polyline class="st1" points="80.6,146 89.1,146 89.1,157.2 80.6,157.2 80.6,146 "/>
<polyline class="st1" points="101.8,146 110.3,146 110.3,157.2 101.8,157.2 101.8,146 "/>
<polyline class="st1" points="123.1,146 131.6,146 131.6,157.2 123.1,157.2 123.1,146 "/>
<polyline class="st1" points="153.9,146 170.9,146 170.9,157.2 153.9,157.2 153.9,146 "/>
<polyline class="st1" points="680,146 671.5,146 671.5,157.2 680,157.2 680,146 "/>
<polyline class="st1" points="658.8,146 650.3,146 650.3,157.2 658.8,157.2 658.8,146 "/>
<polyline class="st1" points="637.5,146 629,146 629,157.2 637.5,157.2 637.5,146 "/>
<polyline class="st1" points="589.7,146 606.7,146 606.7,157.2 589.7,157.2 589.7,146 "/>
<polyline class="st1" points="506.8,146 523.8,146 523.8,157.2 506.8,157.2 506.8,146 "/>
<polyline class="st1" points="454.7,146 463.2,146 463.2,157.2 454.7,157.2 454.7,146 "/>
<polyline class="st1" points="433.5,146 442,146 442,157.2 433.5,157.2 433.5,146 "/>
<polyline class="st1" points="394.1,146 411.1,146 411.1,157.2 394.1,157.2 394.1,146 "/>
<polyline class="st1" points="366.5,146 349.5,146 349.5,157.2 366.5,157.2 366.5,146 "/>
<polyline class="st1" points="327.1,146 318.6,146 318.6,157.2 327.1,157.2 327.1,146 "/>
<polyline class="st1" points="305.9,146 297.4,146 297.4,157.2 305.9,157.2 305.9,146 "/>
<polyline class="st1" points="284.7,146 276.1,146 276.1,157.2 284.7,157.2 284.7,146 "/>
<polyline class="st1" points="284,146.7 276.9,146.7 276.9,156.5 284,156.5 284,146.7 "/>
<polyline class="st1" points="305.2,146.7 298.1,146.7 298.1,156.5 305.2,156.5 305.2,146.7 "/>
<polyline class="st1" points="326.4,146.7 319.4,146.7 319.4,156.5 326.4,156.5 326.4,146.7 "/>
<polyline class="st1" points="365.8,146.7 350.2,146.7 350.2,156.5 365.8,156.5 365.8,146.7 "/>
<polyline class="st1" points="394.8,146.7 410.4,146.7 410.4,156.5 394.8,156.5 394.8,146.7 "/>
<polyline class="st1" points="434.2,146.7 441.2,146.7 441.2,156.5 434.2,156.5 434.2,146.7 "/>
<polyline class="st1" points="455.4,146.7 462.5,146.7 462.5,156.5 455.4,156.5 455.4,146.7 "/>
<polyline class="st1" points="476.6,146.7 483.7,146.7 483.7,156.5 476.6,156.5 476.6,146.7 "/>
<polyline class="st1" points="237.5,146.7 253.1,146.7 253.1,156.5 237.5,156.5 237.5,146.7 "/>
<polyline class="st1" points="507.5,146.7 523.1,146.7 523.1,156.5 507.5,156.5 507.5,146.7 "/>
<polyline class="st1" points="590.4,146.7 606,146.7 606,156.5 590.4,156.5 590.4,146.7 "/>
<polyline class="st1" points="154.6,146.7 170.2,146.7 170.2,156.5 154.6,156.5 154.6,146.7 "/>
<polyline class="st1" points="123.8,146.7 130.9,146.7 130.9,156.5 123.8,156.5 123.8,146.7 "/>
<polyline class="st1" points="102.5,146.7 109.6,146.7 109.6,156.5 102.5,156.5 102.5,146.7 "/>
<polyline class="st1" points="81.3,146.7 88.4,146.7 88.4,156.5 81.3,156.5 81.3,146.7 "/>
<polyline class="st1" points="41.9,146.7 57.5,146.7 57.5,156.5 41.9,156.5 41.9,146.7 "/>
<line class="st1" x1="23.2" y1="137" x2="4.9" y2="137"/>
<polyline class="st1" points="41.2,146 58.2,146 58.2,157.2 41.2,157.2 41.2,146 "/>
<polyline class="st1" points="43.1,147.8 56.5,147.8 56.5,155.4 43.1,155.4 43.1,147.8 "/>
<polyline class="st1" points="82.4,147.8 87.2,147.8 87.2,155.4 82.4,155.4 82.4,147.8 "/>
<polyline class="st1" points="103.6,147.8 108.5,147.8 108.5,155.4 103.6,155.4 103.6,147.8 "/>
<polyline class="st1" points="125,147.8 129.8,147.8 129.8,155.4 125,155.4 125,147.8 "/>
<polyline class="st1" points="155.8,147.8 169.1,147.8 169.1,155.4 155.8,155.4 155.8,147.8 "/>
<polyline class="st1" points="325.4,147.8 320.5,147.8 320.5,155.4 325.4,155.4 325.4,147.8 "/>
<polyline class="st1" points="304.1,147.8 299.2,147.8 299.2,155.4 304.1,155.4 304.1,147.8 "/>
<polyline class="st1" points="282.8,147.8 278,147.8 278,155.4 282.8,155.4 282.8,147.8 "/>
<polyline class="st1" points="251.9,147.8 238.6,147.8 238.6,155.4 251.9,155.4 251.9,147.8 "/>
<polyline class="st1" points="253.1,146.7 237.5,146.7 237.5,156.5 253.1,156.5 253.1,146.7 "/>
<polyline class="st1" points="236.8,146 253.8,146 253.8,157.2 236.8,157.2 236.8,146 "/>
<polyline class="st1" points="364.6,147.8 351.3,147.8 351.3,155.4 364.6,155.4 364.6,147.8 "/>
<polyline class="st1" points="395.9,147.8 409.2,147.8 409.2,155.4 395.9,155.4 395.9,147.8 "/>
<polyline class="st1" points="435.2,147.8 440,147.8 440,155.4 435.2,155.4 435.2,147.8 "/>
<polyline class="st1" points="456.5,147.8 461.4,147.8 461.4,155.4 456.5,155.4 456.5,147.8 "/>
<polyline class="st1" points="477.9,147.8 482.6,147.8 482.6,155.4 477.9,155.4 477.9,147.8 "/>
<polyline class="st1" points="508.6,147.8 521.9,147.8 521.9,155.4 508.6,155.4 508.6,147.8 "/>
<polyline class="st1" points="604.8,147.8 591.5,147.8 591.5,155.4 604.8,155.4 604.8,147.8 "/>
<polyline class="st1" points="606,146.7 590.4,146.7 590.4,156.5 606,156.5 606,146.7 "/>
<polyline class="st1" points="636.8,146.7 629.8,146.7 629.8,156.5 636.8,156.5 636.8,146.7 "/>
<polyline class="st1" points="658.1,146.7 651,146.7 651,156.5 658.1,156.5 658.1,146.7 "/>
<polyline class="st1" points="679.3,146.7 672.2,146.7 672.2,156.5 679.3,156.5 679.3,146.7 "/>
<polyline class="st1" points="635.6,147.8 630.8,147.8 630.8,155.4 635.6,155.4 635.6,147.8 "/>
<polyline class="st1" points="656.9,147.8 652.1,147.8 652.1,155.4 656.9,155.4 656.9,147.8 "/>
<polyline class="st1" points="678.2,147.8 673.3,147.8 673.3,155.4 678.2,155.4 678.2,147.8 "/>
<polyline class="st1" points="718.7,146.7 703.1,146.7 703.1,156.5 718.7,156.5 718.7,146.7 "/>
<polyline class="st1" points="717.5,147.8 704.2,147.8 704.2,155.4 717.5,155.4 717.5,147.8 "/>
<polyline class="st1" points="719.4,146 702.3,146 702.3,157.2 719.4,157.2 719.4,146 "/>
<line class="st1" x1="177.6" y1="62.5" x2="179.1" y2="62.5"/>
<line class="st1" x1="177.6" y1="58.7" x2="179.1" y2="58.7"/>
<line class="st1" x1="179.1" y1="57.7" x2="177.6" y2="57.7"/>
<polyline class="st1" points="179.3,54.4 179.7,55.6 179.1,57.7 179.1,157.5 "/>
<polyline class="st1" points="177.4,54.4 177,55.6 177.6,57.7 177.6,157.5 "/>
<line class="st1" x1="177.4" y1="54.4" x2="179.3" y2="54.4"/>
<line class="st1" x1="178.4" y1="55.4" x2="178.4" y2="56.2"/>
<line class="st1" x1="178.7" y1="55.7" x2="177.9" y2="55.7"/>
<line class="st1" x1="178.1" y1="55.6" x2="178.5" y2="56"/>
<line class="st1" x1="178.5" y1="55.6" x2="178.1" y2="55.8"/>
<line class="st1" x1="422.8" y1="62.5" x2="424.2" y2="62.5"/>
<line class="st1" x1="422.8" y1="58.7" x2="424.2" y2="58.7"/>
<line class="st1" x1="424.2" y1="57.7" x2="422.8" y2="57.7"/>
<polyline class="st1" points="424.5,54.4 424.8,55.6 424.2,57.7 424.2,157.5 "/>
<polyline class="st1" points="424.5,54.4 422.5,54.4 422.3,55.6 422.8,57.7 422.8,157.5 "/>
<line class="st1" x1="423.5" y1="55.4" x2="423.5" y2="56.2"/>
<line class="st1" x1="423.9" y1="55.7" x2="423" y2="55.7"/>
<line class="st1" x1="423.4" y1="55.6" x2="423.6" y2="56"/>
<line class="st1" x1="423.6" y1="55.6" x2="423.3" y2="55.8"/>
<line class="st1" x1="690.6" y1="62.5" x2="689.3" y2="62.5"/>
<line class="st1" x1="690.6" y1="58.7" x2="689.3" y2="58.7"/>
<line class="st1" x1="689.3" y1="57.7" x2="690.6" y2="57.7"/>
<polyline class="st1" points="689,54.4 688.7,55.6 689.3,57.7 689.3,157.5 "/>
<polyline class="st1" points="689,54.4 690.8,54.4 691.2,55.6 690.6,57.7 690.6,157.5 "/>
<line class="st1" x1="690" y1="55.4" x2="690" y2="56.2"/>
<line class="st1" x1="689.5" y1="55.7" x2="690.3" y2="55.7"/>
<line class="st1" x1="690.1" y1="55.6" x2="689.9" y2="56"/>
<line class="st1" x1="689.8" y1="55.6" x2="690.1" y2="55.8"/>
<polyline class="st1" points="475.9,146 484.5,146 484.5,157.2 475.9,157.2 475.9,146 "/>
<path class="st1" d="M472.9,157.2"/>
<path class="st1" d="M472.9,158.6"/>
<path class="st1" d="M473.9,146.9"/>
<path class="st1" d="M474.1,146"/>
<polyline class="st1" points="484.5,121.5 475.9,121.5 475.9,102.3 484.5,102.3 484.5,121.5 "/>
<polyline class="st1" points="484.5,81.1 475.9,81.1 475.9,62 484.5,62 484.5,81.1 "/>
<polyline class="st1" points="554.3,87.7 547.2,87.7 547.2,68.6 554.3,68.6 554.3,87.7 "/>
<polyline class="st1" points="519.8,81.1 505.7,81.1 505.7,62 519.8,62 519.8,81.1 "/>
<polyline class="st1" points="415.8,134.2 394.5,134.2 394.5,136.9 415.8,136.9 415.8,134.2 "/>
<line class="st1" x1="515.7" y1="115.2" x2="515.7" y2="113.4"/>
<polyline class="st1" points="515.7,111.9 515.7,108.1 509.9,108.1 509.9,131.6 515.7,131.6 515.7,120.3 "/>
<line class="st1" x1="509.9" y1="131.6" x2="509.9" y2="131.6"/>
<line class="st1" x1="509.9" y1="131.6" x2="509.9" y2="131.6"/>
<polyline class="st1" points="509.9,131.6 509.9,108.1 515.7,108.1 515.7,131.6 509.9,131.6 "/>
<polyline class="st1" points="402.3,131.6 402.3,108.1 408,108.1 408,131.6 402.3,131.6 "/>
<polyline class="st1" points="352.6,132.5 352.6,109 358.4,109 358.4,132.5 352.6,132.5 "/>
<polyline class="st1" points="244.9,132.5 244.9,108.9 250.6,108.9 250.6,132.5 244.9,132.5 "/>
<polyline class="st1" points="206,152.9 206,129.4 211.7,129.4 211.7,152.9 206,152.9 "/>
<polyline class="st1" points="157.1,131.6 157.1,108.1 162.8,108.1 162.8,131.6 157.1,131.6 "/>
<polyline class="st1" points="49.4,131.6 49.4,108.1 55.1,108.1 55.1,131.6 49.4,131.6 "/>
<polyline class="st1" points="21.1,126.3 20.5,126.3 20.5,137 21.1,137 21.1,126.3 "/>
<line class="st1" x1="23.2" y1="128.4" x2="4.9" y2="128.4"/>
<line class="st1" x1="23.2" y1="130.4" x2="4.9" y2="130.4"/>
<line class="st1" x1="23.2" y1="132.2" x2="4.9" y2="132.2"/>
<line class="st1" x1="23.2" y1="134.1" x2="4.9" y2="134.1"/>
<line class="st1" x1="23.2" y1="136" x2="4.9" y2="136"/>
<line class="st1" x1="737.4" y1="136.9" x2="755.7" y2="136.9"/>
<polyline class="st1" points="739.5,126.2 740.1,126.2 740.1,136.9 739.5,136.9 739.5,126.2 "/>
<line class="st1" x1="737.4" y1="128.3" x2="755.7" y2="128.3"/>
<line class="st1" x1="737.4" y1="130.2" x2="755.7" y2="130.2"/>
<line class="st1" x1="737.4" y1="132.1" x2="755.7" y2="132.1"/>
<line class="st1" x1="737.4" y1="134" x2="755.7" y2="134"/>
<line class="st1" x1="737.4" y1="135.9" x2="755.7" y2="135.9"/>
</svg>
