<svg id="Layer_1" data-name="Layer 1" xmlns="http://www.w3.org/2000/svg" viewBox="0 0 2271.75 300"><defs><style>.cls-1{fill:#494b4d;}.cls-2{fill:#b4b797;}</style></defs><path class="cls-1" d="M479.57,86.06h-26v79.36q0,22-9.36,31.94t-26.66,10q-17.29,0-26.75-10t-9.46-31.94V86.06H354.84v80.38q0,31.13,16.59,47.61t45.88,16.48q29.1,0,45.68-16.48t16.58-47.61Z"/><path class="cls-1" d="M678.56,156.36a46.72,46.72,0,0,0-5-1.94,35.1,35.1,0,0,0,13.17-11.89q5.29-8,5.29-19.43,0-16.89-13.43-27T639.5,86.06H572.76V228.5h70.81q27.66,0,41.71-10.18t14-28.48q0-12.42-5.6-20.76A35.73,35.73,0,0,0,678.56,156.36Zm-41.91-49.54q13.83,0,21.26,4.88t7.43,14.86q0,9.76-7.43,14.65t-21.26,4.88H599.21V106.82Zm28.08,96q-7.93,4.88-22.79,4.88H599.21v-41.1h42.73q14.85,0,22.79,5t7.93,15.56Q672.66,198,664.73,202.86Z"/><path class="cls-1" d="M818.65,181a46.57,46.57,0,0,0,20.86-17.29q7.32-11.3,7.32-27,0-23.8-16.17-37.24T786,86.06H727.6V228.5h26.45V187H786.2c1.9,0,3.74-.06,5.56-.15l29,41.66h28.49l-32.71-46.67C817.27,181.55,818,181.28,818.65,181Zm-7.32-65.21q8.85,7.33,8.85,21,0,13.43-8.85,21T785,165.22H754.05V108.45H785Q802.47,108.45,811.33,115.77Z"/><path class="cls-1" d="M920.29,86.06,856.19,228.5h27.27l14.1-33H968.8l14.16,33h27.67L946.33,86.06Zm-13.85,88.72,26.67-62.34,26.78,62.34Z"/><polygon class="cls-1" points="973.6 46.59 943.68 46.59 916.22 74.47 938.19 74.47 973.6 46.59"/><polygon class="cls-1" points="1129.05 182.5 1050.51 86.06 1028.73 86.06 1028.73 228.5 1054.98 228.5 1054.98 132.06 1133.53 228.5 1155.3 228.5 1155.3 86.06 1129.05 86.06 1129.05 182.5"/><polygon class="cls-1" points="1281.86 86.06 1239.77 155.35 1198.03 86.06 1169.74 86.06 1225.7 178.65 1225.7 228.5 1252.15 228.5 1252.15 178.31 1307.9 86.06 1281.86 86.06"/><polygon class="cls-1" points="1439.75 74.47 1467.02 46.59 1446.06 46.59 1428.15 61.6 1410.24 46.59 1389.29 46.59 1416.55 74.47 1439.75 74.47"/><path class="cls-1" d="M1466.51,158.09a75.61,75.61,0,0,0-16.49-6.91q-9-2.66-18.21-4.79T1415.23,142a32.2,32.2,0,0,1-12-6.21,13.15,13.15,0,0,1-4.58-10.48,16,16,0,0,1,3.15-9.76q3.15-4.27,10-6.92t17.81-2.65a75,75,0,0,1,19.53,2.75,78.43,78.43,0,0,1,19.74,8.45l8.34-20.56a73.84,73.84,0,0,0-22-9.35A101.42,101.42,0,0,0,1429.78,84q-19.53,0-32.25,5.8t-18.92,15.46a38.56,38.56,0,0,0-6.21,21.27q0,11.38,4.68,18.72A35.54,35.54,0,0,0,1389.19,157a75.7,75.7,0,0,0,16.48,7.13q9,2.75,18.11,4.78t16.48,4.37a34.62,34.62,0,0,1,12.1,6.31A13.07,13.07,0,0,1,1457,190a15,15,0,0,1-3.25,9.46q-3.26,4.17-10.18,6.61t-18.1,2.45a76.88,76.88,0,0,1-25.85-4.48,74.19,74.19,0,0,1-21.16-11.19l-9.15,20.55q9,7.53,24.21,12.31a106.44,106.44,0,0,0,32,4.78q19.53,0,32.35-5.8t19-15.46a38.19,38.19,0,0,0,6.21-21.06q0-11.19-4.58-18.52A33.92,33.92,0,0,0,1466.51,158.09Z"/><path class="cls-1" d="M1606.8,165.42q0,22-9.36,31.94t-26.65,10q-17.31,0-26.76-10t-9.46-31.94V86.06h-26.45v80.38q0,31.13,16.58,47.61t45.88,16.48q29.1,0,45.68-16.48t16.59-47.61V86.06h-26Z"/><polygon class="cls-1" points="1803.76 86.06 1748.16 180.45 1691.65 86.06 1669.87 86.06 1669.87 228.5 1695.11 228.5 1695.11 135.36 1741.9 212.22 1753.71 212.22 1800.52 134.13 1800.71 228.5 1825.73 228.5 1825.53 86.06 1803.76 86.06"/><path class="cls-1" d="M1908.14,86.06,1844.05,228.5h27.26l14.11-33h71.23l14.16,33h27.67l-64.3-142.44Zm-13.84,88.72L1921,112.44l26.77,62.34Z"/><polygon class="cls-1" points="2271.75 86.06 2245.7 86.06 2203.62 155.35 2161.87 86.06 2139.29 86.06 2133.59 86.06 2112.84 86.06 2064.96 195.86 2017.61 86.06 1988.92 86.06 2051.18 228.5 2077.23 228.5 2136.9 91.54 2189.54 178.65 2189.54 228.5 2215.99 228.5 2215.99 178.31 2271.75 86.06"/><path class="cls-2" d="M371.16,264.32,354.84,300h3.93l4.26-9.53H383l4.26,9.53h4l-16.31-35.68Zm-6.76,23.09L373,268.22l8.59,19.19Z"/><path class="cls-2" d="M442.72,265.77a19.09,19.09,0,0,0-7.8-1.45H421.57V300h3.77V288.74h9.58a18.91,18.91,0,0,0,7.8-1.48,11.42,11.42,0,0,0,5-4.21,11.75,11.75,0,0,0,1.76-6.5,12,12,0,0,0-1.76-6.6A11.3,11.3,0,0,0,442.72,265.77ZM443,283.1q-2.77,2.32-8.13,2.32h-9.48V267.58h9.48q5.35,0,8.13,2.35a8.19,8.19,0,0,1,2.78,6.62A8.06,8.06,0,0,1,443,283.1Z"/><path class="cls-2" d="M490.94,264.32,474.63,300h3.92l4.27-9.53h19.91L507,300h4l-16.31-35.68Zm-6.76,23.09,8.59-19.19,8.59,19.19Z"/><path class="cls-2" d="M562.5,287.23a11.18,11.18,0,0,0,5-4.18,11.75,11.75,0,0,0,1.76-6.5,11,11,0,0,0-3.9-9q-3.9-3.24-10.68-3.24H541.35V300h3.77V288.68h9.58a23.59,23.59,0,0,0,2.86-.18l8.15,11.5h4.13l-8.73-12.25A14.27,14.27,0,0,0,562.5,287.23Zm-7.9-1.76h-9.48V267.58h9.48q5.35,0,8.13,2.35a9.22,9.22,0,0,1,0,13.2Q560,285.47,554.6,285.47Z"/><polygon class="cls-2" points="596.55 267.58 609.09 267.58 609.09 300 612.86 300 612.86 267.58 625.4 267.58 625.4 264.32 596.55 264.32 596.55 267.58"/><polygon class="cls-2" points="674.48 290.75 658.99 264.32 655.88 264.32 655.88 300 659.5 300 659.5 271.63 673.51 295.46 675.3 295.46 689.32 271.46 689.32 300 692.93 300 692.93 264.32 689.83 264.32 674.48 290.75"/><path class="cls-2" d="M739.62,264.32,723.31,300h3.93l4.26-9.53h19.91l4.27,9.53h4l-16.31-35.68Zm-6.75,23.09,8.59-19.19,8.59,19.19Z"/><polygon class="cls-2" points="750.02 255.09 745.18 255.09 738.2 261.41 741.76 261.41 750.02 255.09"/><polygon class="cls-2" points="816.13 293.26 793.14 264.32 790.03 264.32 790.03 300 793.81 300 793.81 271.07 816.74 300 819.85 300 819.85 264.32 816.13 264.32 816.13 293.26"/><polygon class="cls-2" points="877.91 264.32 865.67 284.33 853.44 264.32 849.41 264.32 863.69 287.68 863.69 300 867.41 300 867.41 287.68 881.68 264.32 877.91 264.32"/><polygon class="cls-1" points="185.88 289.22 185.88 264.71 192.24 269.61 192.24 254.38 185.88 249.49 185.88 224.99 192.24 229.89 192.24 214.66 185.88 209.76 185.88 185.23 192.24 190.13 192.24 174.93 179.94 165.46 179.93 165.48 179.91 165.46 105.01 223.12 114.86 230.71 163.17 193.52 163.17 193.55 173.98 185.23 173.98 209.76 130.81 242.99 140.69 250.59 163.17 233.28 163.17 233.31 173.98 224.99 173.98 249.49 156.63 262.84 166.53 270.44 173.98 264.71 173.98 289.22 160.69 299.44 192.24 299.44 192.24 294.12 185.88 289.22"/><polygon class="cls-1" points="88.64 235.55 88.62 235.53 66.11 252.86 66.11 268.03 71.88 263.59 71.88 263.62 82.69 255.3 82.69 279.83 66.11 292.59 66.11 299.44 77 299.44 82.69 295.06 82.69 299.44 94.58 299.44 94.58 295.06 100.27 299.44 120.06 299.44 94.58 279.83 94.58 255.3 105.39 263.62 105.39 263.59 137.87 288.6 147.73 281.01 88.65 235.53 88.64 235.55"/><polygon class="cls-1" points="128.4 85.99 128.38 86 128.36 85.99 66.11 133.91 66.11 149.08 111.62 114.04 111.62 114.07 122.43 105.76 122.43 130.29 75.13 166.7 75.15 166.71 66.11 173.67 66.11 188.84 111.62 153.81 111.62 153.84 122.43 145.52 122.43 170.01 100.93 186.56 100.93 186.56 66.11 213.37 66.11 228.54 84.96 214.03 84.98 214.04 111.62 193.53 111.62 193.53 111.62 193.54 138.26 173.04 134.33 170.01 134.33 145.52 145.13 153.84 145.13 153.81 154.2 160.79 164.07 153.19 134.33 130.29 134.33 105.76 145.13 114.07 145.13 114.04 192.24 150.31 192.24 135.14 128.4 85.99"/><path class="cls-1" d="M129.7,12.74c18.56,0,35.25,2.63,49.59,7.8a98.26,98.26,0,0,1,36.27,22.72,96,96,0,0,1,22.77,37c5.25,15.05,7.9,32.82,7.9,52.84V287.21H217.64v-152c0-33.62-7.7-58.87-22.88-75-15.4-16.4-37.15-24.72-64.64-24.72s-49.26,8.3-64.8,24.67C50,76.27,42.18,101.54,42.18,135.19v152H12.74V133.08c0-20,2.66-37.8,7.9-52.84a95.87,95.87,0,0,1,22.78-37A98,98,0,0,1,79.77,20.55c14.42-5.18,31.22-7.81,49.93-7.81M129.7,0Q68.86,0,34.43,34.22T0,133.08V300H54.92V135.19q0-45.63,19.65-66.33t55.55-20.7q35.91,0,55.35,20.7t19.43,66.33V300H259V133.08q0-64.64-34.43-98.86T129.7,0Z"/></svg>